<?xml version="1.0" encoding="utf-8"?>
<!-- Generator: Adobe Illustrator 20.1.0, SVG Export Plug-In . SVG Version: 6.00 Build 0)  -->
<svg version="1.1" id="Слой_1" xmlns="http://www.w3.org/2000/svg" xmlns:xlink="http://www.w3.org/1999/xlink" x="0px" y="0px"
	 viewBox="0 0 500 621" style="enable-background:new 0 0 500 621;" xml:space="preserve">
<style type="text/css">
	.st0{fill:#85461B;}
	.st1{fill:#744A25;}
	.st2{fill:#FBBB84;}
	.st3{fill:#A47554;}
	.st4{fill:#A37453;}
	.st5{fill:#C3A490;}
	.st6{fill:#C1A18C;}
	.st7{fill:#E1D2C7;}
	.st8{fill:#DFCEC3;}
	.st9{fill:#FDE4CE;}
	.st10{fill:#FDE7D4;}
	.st11{fill:#FCCB9A;}
	.st12{fill:#D48D64;}
	.st13{fill:#573514;}
	.st14{fill:#BE805A;}
	.st15{fill:#D99A74;}
	.st16{fill:#3B2519;}
	.st17{fill:#F6935E;}
	.st18{fill:#FBBB85;}
	.st19{fill:#93562B;}
	.st20{fill:#FEFDFD;}
</style>
<path class="st0" d="M239.9,10.5c8,0,16,0,24,0c1.6,0.5,3.2,0.1,4.8,0.2c1.1,0,2.2,0,3.3,0c1,0,1.9,0,2.9,0
	c27.1,0.1,53.6,3.8,79.2,12.6c18,6.1,34.1,15.3,47.4,29.1c10.2,10.5,17.5,22.8,23,36.2c6.3,15.5,9.9,31.7,12.3,48.2
	c1.8,12,2.9,24.1,3.8,36.2c0.5,7.7,0.7,15.5,1.2,23.2c0.6,8.4,0.5,16.8,0.6,25.2c0.2,10.3,0,20.6-0.9,30.9c-0.5,3.3-0.4,6.7-0.7,10
	c-1.4,13.4-3.1,26.6-7.4,39.4c-1.5,4.5-3.5,8.8-6.3,12.6c-1.1,1.5-2.6,2.6-4.3,3.4c-1.8,0.8-3.4,0.8-4.7-0.9
	c-2.5-4.4-3-9.3-3.5-14.1c-1.1-8.9-1.5-17.8-2.1-26.7c-0.6-10.5-1.1-21-1.7-31.6c-0.5-8.5-0.9-17.1-1.6-25.6
	c-1.3-15-1.7-30.4-7.1-44.6c-6.2-16.3-17.8-26.9-35.8-29.1c-11.6-1.4-23,0.3-34.3,2.2c-15.2,2.5-30.3,5.6-45.7,7.7
	c-15.2,2-30.4,2.7-45.7,2.1c-18-0.8-35.8-3.7-53.4-7c-11.3-2.1-22.6-4.4-34.1-5.2c-9.1-0.6-18.3-0.6-26.9,3.2
	c-13.4,5.8-21.5,16.2-25.6,30c-2.8,9.5-3.7,19.3-4.8,29.1c-1.1,9.8-1.7,19.7-2.3,29.6c-0.4,7.5-0.8,15-1.2,22.5
	c-0.4,7.8-0.8,15.6-1.3,23.4c-0.6,8.5-1.1,17.1-2.5,25.5c-0.4,2.4-0.8,4.7-1.7,7c-0.6,1.4-1.3,2.8-3,3.2c-3,0.1-5.1-1.6-6.9-3.8
	c-3.5-4.4-5.6-9.5-7.2-14.8C66,287.5,64.1,275,63,262.4c-0.3-3.2-0.3-6.4-0.9-9.5c-0.6-12.2-1.4-24.4-0.9-36.6
	c0.4-10.7,0.5-21.4,1.2-32.1c0.7-9.3,1.2-18.6,2.1-27.9c2.3-23.5,6.1-46.6,15.1-68.6c6.2-15.2,15.1-28.7,27.3-39.8
	c11.1-10.1,23.9-17.3,37.8-22.7c18.6-7.1,37.9-10.8,57.6-13c8.7-1,17.3-1.3,26.1-1.4c1,0,1.9,0,2.9,0c1.2,0,2.5,0,3.7,0
	C236.7,10.6,238.3,11,239.9,10.5z"/>
<path class="st1" d="M34.5,600.4c1-1.6,1.1-3.5,1.8-5.3c3.4-9.5,9.2-17.3,16-24.5c14.6-15.5,32.1-27.2,50.6-37.4
	c11.4-6.3,23.1-11.8,35.2-16.5c1,1.3,0.3,2.6,0.1,3.9c-1.4,7.6-2.9,15.2-4.3,22.8c-3.7,19.5-7.5,39-11.2,58.5
	c-0.2,1.2-0.3,2.6-1.3,3.5c-7,0-14,0.1-21.1,0.1c-21.9,0-43.9,0-65.8,0C34.5,603.9,34.5,602.2,34.5,600.4z"/>
<path class="st2" d="M34.9,291.7c2.5-16.6,10.3-29.6,25.2-37.9c0.8-0.5,1.7-1,2.7-1c0.9,7.7,1.3,15.4,2.5,23.1
	c1.8,11.2,3.7,22.3,8.7,32.7c1,2,2.2,3.9,3.6,5.6c1.6,1.9,3.5,3.3,6,3.6c0.7,0.7,0.9,1.7,1.1,2.6c1.3,8.2,3.1,16.3,5.1,24.3
	c0.2,0.8,0.5,1.5,0.1,2.3c-11.2,3.2-21.9,2.1-31.9-4c-12.7-7.5-19.6-19-22.5-33c-0.2-1.1-0.4-2.2-0.5-3.3c-0.5-0.7,0.1-1.7-0.4-2.4
	c0-3.4,0-6.7,0-10.1C35.1,293.4,34.4,292.5,34.9,291.7z"/>
<path class="st3" d="M268.8,10.9c-1.6-0.1-3.3,0.5-4.8-0.4c1.6,0,3.2,0,4.8,0c0.1,0.1,0.2,0.2,0.2,0.3
	C268.8,10.9,268.8,10.9,268.8,10.9z"/>
<path class="st4" d="M239.9,10.5c-1.5,1-3.2,0.3-4.8,0.4c-0.1-0.1-0.2-0.2-0.1-0.3c0.1-0.1,0.1-0.1,0.1-0.1
	C236.7,10.5,238.3,10.5,239.9,10.5z"/>
<path class="st5" d="M235.1,10.5c0,0.1,0,0.3,0,0.4c-1.3,0-2.5,0-3.8,0c-0.1-0.1-0.2-0.2-0.1-0.3c0.1-0.1,0.1-0.1,0.2-0.1
	C232.6,10.5,233.8,10.5,235.1,10.5z"/>
<path class="st6" d="M268.8,10.9c0-0.1,0-0.3,0-0.4c1.1,0,2.2,0,3.4,0c0.1,0.1,0.2,0.2,0.2,0.2c0,0.1-0.1,0.1-0.1,0.1
	C271,10.9,269.9,10.9,268.8,10.9z"/>
<path class="st7" d="M231.3,10.5c0,0.1,0,0.3,0,0.4c-1,0-1.9,0-2.9,0c0-0.1,0-0.3,0-0.4C229.4,10.5,230.3,10.5,231.3,10.5z"/>
<path class="st8" d="M272.1,10.9c0-0.1,0-0.3,0-0.4c1,0,1.9,0,2.9,0c0,0.1,0,0.3,0,0.4C274,10.9,273.1,10.9,272.1,10.9z"/>
<path class="st9" d="M34.9,291.7c0,0.8,0.3,1.7-0.4,2.4c0-0.8,0-1.6,0-2.4C34.6,291.8,34.8,291.7,34.9,291.7z"/>
<path class="st10" d="M34.5,304.2c0.7,0.7,0.4,1.6,0.4,2.4c-0.1,0-0.3,0-0.4,0C34.5,305.8,34.5,305,34.5,304.2z"/>
<path class="st11" d="M89.7,347c-2.4-7.6-3.8-15.4-5.3-23.2c-0.4-2-0.6-4.1-1-6.1c1.9-0.6,2.4-2.3,2.9-3.9
	c1.8-5.7,2.3-11.6,2.8-17.5c1.5-17.1,2.1-34.3,3-51.4c0.9-15.7,1.8-31.4,3.8-47c0.8-6.4,1.7-12.8,3.5-19.1
	c4.6-15.9,13.8-27.6,29.9-32.9c8-2.6,16.4-2.6,24.7-1.8c17.1,1.5,33.9,5.4,50.8,8.2c19.1,3.1,38.4,4.8,57.8,3.9
	c16.9-0.7,33.5-3.3,50.1-6.3c12.5-2.3,24.9-4.9,37.6-5.9c11.4-0.9,22.8-0.5,32.9,5.8c11.9,7.4,18.9,18.3,21.8,31.9
	c2.6,12.1,3.8,24.4,4.8,36.8c1.6,20.5,2.3,41,3.5,61.5c0.6,10.2,1.1,20.4,3.2,30.5c0.4,2.1,1.2,4.1,2,6.1c0.3,1.3,0,2.5-0.2,3.8
	c-1.4,7.9-2.9,15.9-5,23.6c-0.3,1.1-0.4,2.2-1.5,2.9c-2.3,9.5-5.5,18.7-9.2,27.7c-5,12.1-10.9,23.6-18.6,34.2
	c-1.9,0.2-3.4,1.4-4.9,2.4c-11.3,7.6-22.8,14.8-35,21c-13.5,6.8-27.5,12.2-42.7,13.6c-8.8,0.9-17.2-0.2-24.6-5.7
	c-6.3-4.7-13.4-7.4-21.3-7.9c-3.2-0.4-6.3-0.3-9.5,0c-8.1,0.5-15.4,3.5-21.9,8.2c-7.5,5.4-15.9,6.2-24.7,5.3
	c-16.3-1.8-31.2-7.8-45.6-15.4c-11.4-5.9-22-13-32.8-19.9c-1.1-0.7-2.2-1.6-3.7-1.6c-6.5-8.9-11.7-18.6-16.3-28.7
	c-4.6-10.4-8.2-21.1-11.3-32C89.7,347.8,89.7,347.4,89.7,347z"/>
<path class="st2" d="M411.8,347c2.5-8.5,4.1-17.3,5.8-26c0.3-1.4,0.1-3,1-4.3c1.6,1.6,3.2,1,4.8,0.1c2.6-1.5,4.2-3.9,5.6-6.4
	c4.5-8.2,6.6-17.2,8.3-26.4c1.9-10.1,3.1-20.3,3.5-30.6c0-0.3,0.2-0.6,0.3-0.9c0,1,0.6,1.5,1.4,2c14.5,8.5,22,21.6,24.1,37.9
	c1.7,13.3-1.1,25.8-8.5,37c-6.6,9.9-15.7,16.4-27.5,18.8C424.1,349.4,417.9,348.7,411.8,347z"/>
<path class="st12" d="M162.2,503.6c0.1,0.2,0.4,0.3,0.4,0.5c0.3,1.2-0.6,3,0.6,3.5c0.9,0.4,2.4-0.4,3.6-0.8
	c6.2-1.9,12.6-3.6,18.9-5.1c12.7,14.9,28.5,24.6,47.6,28.6c23.4,5,45,0.3,65.2-12.2c6.6-4.1,12.7-8.9,18.3-14.3
	c0.6-0.6,1.1-1.2,1.9-1.3c5.9,1.2,11.6,3,17.4,4.7c0.9,0.3,1.8,0.4,2.8,0.7c0.9,0.9,0.8,2.1,0.8,3.2c0,30.5,0,60.9,0,91.4
	c0,1.1,0.1,2.3-0.7,3.2c-3.4,0-6.9,0.1-10.3,0.1c-24.9,0-49.8,0-74.7,0c-1,0-1.9-0.1-2.9-0.1c-0.5-0.8-0.2-1.7-0.2-2.6
	c0-23.2,0-46.4,0-69.5c0,23.2,0,46.4,0,69.5c0,0.9,0.2,1.8-0.2,2.6c-5.4,0-10.9,0.1-16.3,0.1c-22.9,0-45.9,0-68.8,0
	c-1,0-1.9-0.1-2.9-0.1c-1-1.4-0.7-2.9-0.7-4.4c0-28.8,0-57.5,0-86.3c0-2.6,0.1-5.1-0.4-7.6C161.3,506,161.3,504.7,162.2,503.6z"/>
<path class="st1" d="M363.3,516.8c11.8,4.5,23.1,9.9,34.2,15.9c16.3,8.9,31.8,19,45.4,31.7c9.2,8.6,17.3,17.9,21.9,29.8
	c1.1,2.9,1.8,5.9,2.1,9c0.2,1.8-0.3,2.4-2.2,2.4c-13.9-0.1-27.8,0-41.7-0.1c-14.3,0-28.6,0-42.9-0.1c-0.8-0.7-1-1.6-1.1-2.6
	c-5.3-27.6-10.5-55.2-15.8-82.8C362.9,519.1,362.3,517.9,363.3,516.8z"/>
<path class="st13" d="M162.2,503.6c0.8,34,0.1,68,0.4,102c-13.7,0-27.4,0-41.2,0c1-5.5,2-10.9,3-16.4c2.7-13.9,5.4-27.9,8-41.8
	c1.9-10.2,3.8-20.4,5.7-30.6c0-3.5,2.6-4.6,5.3-5.7C149.6,508.5,155.8,505.7,162.2,503.6z"/>
<path class="st13" d="M363.3,516.8c1.2,6.3,2.3,12.6,3.5,18.9c2.5,13.2,5,26.3,7.6,39.5c1.9,10.1,3.8,20.2,5.8,30.4
	c-13.7,0-27.5,0-41.2,0c0-32.2,0-64.4,0-96.6c0-0.4,0-0.8,0-1.2c0-1.4,0-2.8,0-4.5c7.9,3,15.3,6,22.7,9.4
	C363.3,513.5,362.4,515.6,363.3,516.8z"/>
<path class="st0" d="M255.9,431.9c6.5,0.2,12.3,2.3,17.8,5.6c3,1.8,5.8,3.9,9,5.4c6.3,3.1,13,2.9,19.7,2.2
	c20.4-2.3,38.3-11.1,55.7-21.2c8-4.7,15.6-10,23.5-14.8c0.6-0.4,1.5-1.8,2.4-0.1c-19.4,31.4-47.9,49.9-83.3,58.5
	c-1.8,0.5-3.7,1-5.5,1.5c-0.6,0.5-1.4,0.8-2.2,0.9c-11.6,2.2-23.3,3.7-35.1,3.6c-1.4,0-2.9,0-4.3,0c-2.8-0.1-3.2-0.5-3.3-3.2
	c0-5.8,0-11.7,0-17.5s0-11.7,0-17.5c0-3.4,0-3.5,3.5-3.4C254.5,431.7,255.2,431.6,255.9,431.9z"/>
<path class="st11" d="M205.3,497.6c1.1-0.6,0.9-1.7,0.9-2.7c0-8.7,0-17.3,0-26c0.4-0.4,0.8-0.6,1.3-0.5c3.2,0.6,6.5,0.7,9.5,1.9
	c6.1,3,12.5,5.2,19,7.2c11.7,3.5,23.7,5.5,36,6.2c6.9,0.4,13.7,0.4,20.5-0.4c0.9-0.1,1.8-0.1,2.5,0.5c0,3.8,0,7.6,0,11.4
	c0,1,0,1.9,1,2.5c-3,3.8-7,6.5-11.2,8.8c-9.2,5-19.1,7.4-29.6,7.9c-9.3,0.5-18.3-0.4-27.2-3c-7.6-2.3-14.5-5.9-20.5-11.2
	C206.8,499.3,205.8,498.7,205.3,497.6z"/>
<path class="st14" d="M205.3,497.6c2,0.5,3,2.3,4.5,3.5c7.8,6.3,16.8,9.6,26.5,11.5c4.5,0.9,9,1.3,13.5,1.3
	c15.6-0.1,30.3-3.3,42.7-13.5c1.1-0.9,1.8-2.5,3.5-2.7c7.6,1.3,15.2,2.6,22.6,4.8c-3.6,4.5-8.1,7.9-12.6,11.3
	c-8.6,6.4-18,11.4-28.3,14.8c-10.8,3.6-21.9,5-33.2,4.1c-18-1.4-34.1-8-48.1-19.5c-3.7-3-7.4-6-10.3-9.9c-0.4-0.5-1-0.9-0.5-1.6
	C192.2,500,198.7,498.6,205.3,497.6z"/>
<path class="st2" d="M295.1,483.8c-5.3,0.3-10.6,1.2-15.9,1c-8.2-0.4-16.3-1-24.4-2.3c-12.3-2-24.1-5.7-35.7-10.4
	c-0.8-0.3-1.7-0.6-2.2-1.3c0.7-0.7,1.6-0.7,2.5-0.6c7.8,1.1,15.6,1.6,23.5,2c5.2,0.3,10.3,1.2,15.5,0.6c11.6-0.1,23.1-1.4,34.6-3.6
	c0.8-0.1,1.6-0.2,2.4-0.3C295.1,473.8,295.1,478.8,295.1,483.8z"/>
<path class="st15" d="M250.5,605.6c0-24,0-47.9,0-71.9c0.2,0,0.3,0,0.5,0c0,24,0,47.9,0,71.9C250.8,605.6,250.6,605.6,250.5,605.6z"
	/>
<path class="st0" d="M242.8,472.7c-7.6,0.1-15.1-0.8-22.6-1.7c-1.1-0.1-2.2-0.2-3.3-0.3c-3.5-0.6-7-1.3-10.6-1.9
	c-6.5-1.7-13-3.2-19.3-5.4c-29.6-10-53.1-27.9-69.6-54.6c0.4-1.6,1.3-0.5,1.7-0.2c2.6,1.6,5.2,3.2,7.7,4.9
	c14.7,9.7,29.7,18.8,46.2,25c10.4,4,21.1,6.7,32.4,6.9c6.8,0.1,12.9-1.8,18.5-5.6c4.8-3.2,9.8-6.1,15.5-7.3c2-0.4,4.1-0.9,6.2-0.8
	c5.2-0.6,5.2-0.6,5.2,4.4c0,11.5,0,23,0,34.5c0,1.8-0.5,2.4-2.3,2.2C246.6,472.8,244.6,473.2,242.8,472.7z"/>
<path class="st0" d="M334.7,212.1c7.6,0,15.2,1.3,21.9,5.6c5,3.2,8.7,7.5,9.6,13.6c0.6,4.4-1.6,6.5-6,5.9c-4.1-0.6-7.8-2.3-11.7-3.5
	c-13.2-4.2-25.7-2.1-37.8,3.9c-3.6,1.8-5.3,0.7-5.6-3.5c-0.4-6.8,2.3-12.1,7.7-16.1C319.3,213.1,326.7,212,334.7,212.1z"/>
<path class="st0" d="M166.9,212.1c5.7-0.2,11.2,0.6,16.4,2.9c7.2,3.2,11.9,8.5,12.7,16.6c0.1,1.1,0,2.1-0.2,3.1
	c-0.6,3.9-2,4.6-5.5,2.9c-13.9-7.1-28.2-8.1-42.8-2.2c-2.3,0.9-4.7,1.6-7.2,1.9c-3.7,0.4-5.7-1.3-5.6-5c0.2-6.2,4-10.5,8.7-13.9
	C149.5,214,157,212.1,166.9,212.1z"/>
<path class="st16" d="M147.7,288.2c0.1-7.4,2.3-12.8,7-17c8.1-7.2,20.2-5.6,26.6,3.5c5.5,7.8,5.1,19-1,26.3
	c-8.7,10.5-24.8,8.2-30.6-4.4C148.4,293.7,147.6,290.5,147.7,288.2z"/>
<path class="st16" d="M355.6,287.2c-0.1,5.4-1.7,10.3-5.4,14.4c-7.6,8.5-20.4,8.1-27.6-0.9c-6.3-7.9-6.1-19.9,0.5-27.5
	c4.9-5.6,11.1-7.8,18.3-5.8c7.6,2.1,11.9,7.7,13.7,15.2c0.2,0.8,0.3,1.6,0.4,2.4C355.6,285.7,355.6,286.4,355.6,287.2z"/>
<path class="st2" d="M250.1,371.4c-5.6,0.4-11.4-0.8-16.9-2.9c-6.4-2.4-11.8-9.5-11.9-15.2c-0.1-3,0.9-3.7,3.6-2.3
	c5.6,2.7,11,5.9,17.2,7.2c9,1.9,17.7,1.1,26.1-2.9c3.2-1.5,6.3-3.1,9.5-4.5c2.3-0.9,2.7-0.6,2.7,1.8c0,7.1-4.1,11.6-9.7,14.8
	C264.3,370.9,257.4,371.6,250.1,371.4z"/>
<path class="st17" d="M251,409.9c-10.4-0.4-20.9-0.8-31.1-3.9c-4.5-1.3-8.7-3.2-12.4-6c-1.4-1.1-2.6-2.4-3.3-4.1
	c-0.2-0.5-0.4-1.1,0.1-1.5c0.4-0.4,0.9-0.2,1.3,0c2.7,0.9,5.5,1.8,8.2,2.7c9.8,3.3,19.7,5.4,30.1,6.2c16,1.1,31.4-1.6,46.4-7
	c1.9-0.7,3.8-1.3,5.7-1.9c0.5-0.2,1.1-0.4,1.6,0.1s0.1,1.1-0.1,1.6c-0.8,2.1-2.5,3.5-4.2,4.8c-5,3.7-10.8,5.4-16.8,6.7
	C268.1,409.2,259.6,409.6,251,409.9z"/>
<path class="st18" d="M250.6,424.7c-3.1,0.2-6.4-0.2-8.8-3.1c-0.3-0.4-0.8-0.9-0.9-1.4c-0.2-0.8-1-1.7-0.2-2.4
	c0.7-0.6,1.5,0.2,2.2,0.5c5.2,2.8,10.4,3,15.7,0c0.6-0.4,1.4-1.2,2.1-0.4c0.7,0.7,0.2,1.6-0.1,2.5c-1.3,3.1-3.9,4-6.8,4.4
	C252.8,424.8,251.9,424.7,250.6,424.7z"/>
<path class="st19" d="M242.8,472.7c1.8,0,3.7-0.2,5.5,0c1.9,0.1,2.3-0.6,2.3-2.4c-0.1-12-0.1-24,0-36c0-2-0.6-2.7-2.6-2.5
	c-0.8,0.1-1.6,0-2.4,0c3.4-0.6,6.9-0.6,10.3,0c-4.9,0.3-4.9,0.3-4.9,5.2c0,11.1,0,22.1,0,33.2c0,2,0.6,2.7,2.6,2.5
	c1.6-0.1,3.2,0,4.8,0C253.1,473.3,247.9,473.3,242.8,472.7z"/>
<path class="st20" d="M158.3,283.8c-3.1,0-5.6-2.5-5.6-5.6c0-3.2,2.7-5.8,5.8-5.7c3.1,0.1,5.6,2.7,5.5,5.8
	C163.9,281.4,161.4,283.9,158.3,283.8z"/>
<path class="st20" d="M328.8,272.6c3.1,0,5.6,2.6,5.6,5.7c0,3.2-2.7,5.7-5.9,5.6c-3.1-0.1-5.5-2.6-5.5-5.7
	C323.1,275,325.7,272.5,328.8,272.6z"/>
</svg>
