<?xml version="1.0" encoding="utf-8"?>
<!-- Generator: Adobe Illustrator 20.1.0, SVG Export Plug-In . SVG Version: 6.00 Build 0)  -->
<svg version="1.1" id="Слой_1" xmlns="http://www.w3.org/2000/svg" xmlns:xlink="http://www.w3.org/1999/xlink" x="0px" y="0px"
	 viewBox="0 0 523 526" style="enable-background:new 0 0 523 526;" xml:space="preserve">
<style type="text/css">
	.st0{fill:#FE7E4E;}
	.st1{fill:#FECCBA;}
	.st2{fill:#FE9D78;}
	.st3{fill:#FE9F7B;}
	.st4{fill:#FEDED2;}
	.st5{fill:#FEBEA6;}
	.st6{fill:#E94113;}
	.st7{fill:#366694;}
	.st8{fill:#273B79;}
	.st9{fill:#B6CDCB;}
	.st10{fill:#FEECB4;}
	.st11{fill:#273B7A;}
	.st12{fill:#386894;}
	.st13{fill:#D8ECEB;}
	.st14{fill:#FBCF87;}
	.st15{fill:#494948;}
	.st16{fill:#99B1AE;}
	.st17{fill:#121149;}
	.st18{fill:#E7CE88;}
	.st19{fill:#B7D2D0;}
	.st20{fill:#333333;}
	.st21{fill:#DCAA62;}
	.st22{fill:#FEC51B;}
	.st23{fill:#444444;}
</style>
<path class="st0" d="M252.6,6.5c5.3,0,10.6,0,15.8,0c1.1,0.5,2.3,0.1,3.5,0.2c1.3,0,2.6,0,3.9,0C295,6.6,313.6,10,332,15.3
	c15.8,4.6,31,10.5,45.6,18.1c17.3,8.9,33.5,19.6,48.4,32.2c7.1,6,13.9,12.3,20.3,19c13.3,13.9,25,29.1,34.8,45.6
	c9.8,16.4,17.8,33.6,23.8,51.8c3.5,10.8,6.3,21.8,8.4,33c0.2,1,0.5,2-0.1,3c-1.1,1-2,0.2-2.7-0.5c-6.2-6.3-12.8-12.3-18.7-19
	c-2.6-2.9-5.5-5.6-8.2-8.4C472.2,179,461.2,167.4,450,156c-6.9-7.1-14.1-13.9-20.8-21.2c-7.1-7.8-15-14.8-22.1-22.6
	c-4-4.4-8.6-8.4-12.3-13.1c-0.6-0.8-1.8-1.1-2.4-2c-1.5-2-3.5-2.6-5.9-2.6c-8.9,0-17.9,0-26.8,0c-31.1,0-62.2,0-93.2,0
	c-1.8,0-3.7,0-5.5-0.2c-2,0.1-4,0.1-6,0.1c-39.4,0-78.8,0-118.1,0c-7.5,0-8.7,1.2-8.7,8.8c0,4.2,0,8.5,0,12.7c0,2.4,0.7,4.4,2.7,5.8
	c8,8,15.7,16.3,23.7,24.3c3.7,3.7,7.2,7.6,10.8,11.6c0.3,0.4,0.5,0.8,0.6,1.3c0.3,12.7,0.1,25.5,0.1,38.2c0,1.4-0.2,2.9,0.5,4.2
	c2.8,3,3.1,6.7,2.8,10.5c-0.2,0.5-0.8,0.8-1.2,1.1c-6.5,3.6-8.3,9.8-8.8,16.4c-0.7,10.4,2.1,19.9,8.5,28.3c2.5,3.2,5.7,5.5,9.7,6.6
	c1.5,0.4,3,0.4,4.5,0.1c2.9-0.7,3.7-0.3,5,2.2c4.1,8.2,9.1,15.8,14.7,23c4.5,5.8,9.6,11.1,15.1,16c1,0.9,1.7,1.7,1.5,3.1
	c0.5,2.4,0.4,4.8,0.4,7.2c0,7.8,0,15.6,0,23.5c0,1.3,0.1,2.7-0.3,4c-0.3,0.9-0.9,1.5-1.9,1.6c-2.1,0.3-3.3,1.7-4.5,3.3
	c-2,2.8-4,5.6-6,8.4c-0.5,0.8-1.1,1.6-2.1,1.9c-4.8,1.3-9.7,1.8-14.6,2.6c-8.9,2.2-18,3.9-27,5.5c-9,1.7-17.5,4.6-24.7,10.4
	c-10,8.1-16,18.5-17.9,31.3c-0.4,2.4-0.4,4.8-0.4,7.2c0,18.5,0,36.9,0,55.4c0,1.5,0.3,3.1-0.6,4.4c-1.4,1.2-2.6,0.1-3.6-0.6
	c-5.8-3.9-11.4-8.2-16.9-12.6c-8.6-6.9-16.7-14.4-24.3-22.4c-11.7-12.4-22.2-25.8-31.3-40.2c-4.8-7.6-9.2-15.4-13.1-23.4
	c-11.1-22.8-18.9-46.7-22.9-71.9c-1.4-8.7-1.6-17.5-2-26.2c0-1.3,0-2.6,0-3.9c-0.1-1.2,0.3-2.4-0.2-3.5c0-5.3,0-10.6,0-15.8
	c0.5-1.1,0.1-2.3,0.2-3.4c0-0.8,0-1.5,0-2.3c0-0.8,0-1.5,0-2.3C4.6,228,8,210,13,192.1c4.9-17.4,11.7-34,20.1-50
	c7.7-14.6,16.8-28.3,27.2-41.1c7.8-9.8,16.4-18.8,25.5-27.3c14.2-13.2,29.7-24.7,46.6-34.3c14.4-8.3,29.4-15.1,45.1-20.5
	c16.1-5.5,32.6-9.4,49.4-11.4c5.8-0.7,11.8-0.7,17.7-0.8c0.8,0,1.5,0,2.3,0c0.8,0,1.6,0,2.3,0C250.4,6.6,251.5,7,252.6,6.5z"/>
<path class="st1" d="M276.2,6.5c0,0.1,0,0.3,0,0.4c-1.4,0-2.9,0-4.3,0c-0.4-0.1-0.4-0.2-0.1-0.4C273.3,6.5,274.7,6.5,276.2,6.5z"/>
<path class="st1" d="M4.9,278.2l-0.2,0l-0.2,0c0-1.4,0-2.9,0-4.3c0.2-0.3,0.3-0.3,0.4,0.1C4.9,275.3,4.9,276.8,4.9,278.2z"/>
<path class="st2" d="M252.6,6.5c-1.1,0.8-2.3,0.4-3.4,0.4c-0.3-0.2-0.3-0.3,0-0.4C250.4,6.5,251.5,6.5,252.6,6.5z"/>
<path class="st3" d="M271.8,6.5c0,0.1,0,0.3,0.1,0.4c-1.2,0-2.4,0.4-3.4-0.4C269.6,6.5,270.7,6.5,271.8,6.5z"/>
<path class="st2" d="M4.9,251.2c0,1.1,0.3,2.3-0.4,3.4c0-1.1,0-2.2,0-3.4C4.6,250.9,4.7,250.9,4.9,251.2z"/>
<path class="st3" d="M4.9,273.9c-0.1,0-0.3,0-0.4-0.1c0-1.1,0-2.2,0-3.4C5.3,271.5,4.9,272.8,4.9,273.9z"/>
<path class="st4" d="M244.5,6.9c0-0.1,0-0.3,0-0.4c0.8,0,1.6,0,2.4,0c0.3,0.2,0.3,0.3,0,0.4C246,6.9,245.3,6.9,244.5,6.9z"/>
<path class="st5" d="M246.8,6.9c0-0.1,0-0.3,0-0.4c0.8,0,1.6,0,2.4,0c0,0.1,0,0.3,0,0.4C248.4,6.9,247.6,6.9,246.8,6.9z"/>
<path class="st4" d="M4.5,246.5c0.1,0,0.3,0,0.4,0c0,0.8,0,1.6,0,2.4c-0.1,0.4-0.2,0.4-0.4,0C4.5,248.1,4.5,247.3,4.5,246.5z"/>
<path class="st5" d="M4.5,248.9c0.1,0,0.3,0,0.4,0c0,0.8,0,1.6,0,2.4c-0.1,0-0.3,0-0.4,0C4.5,250.5,4.5,249.7,4.5,248.9z"/>
<path class="st6" d="M512.7,218.2c1.5,6.9,2.3,13.9,2.9,20.8c0.9,10.2,1.3,20.4,1,30.6c-1,32.5-7.6,63.7-20.5,93.5
	c-19.7,45.7-50.2,82.5-91.1,110.8c-0.7,0.5-1.5,0.9-2.2,1.4c-1.4-1.2-0.9-2.8-0.9-4.3c0-18.4,0.1-36.8-0.1-55.1
	c-0.1-14.1-5-26.3-15.2-36.1c-7.2-6.9-15.9-10.8-25.6-12.8c-9.9-2-19.8-3.8-29.6-6c-4.8-0.8-9.8-1-14.5-2.8c-1.3-0.6-2-1.8-2.8-2.9
	c-1.8-2.6-3.4-5.2-5.2-7.7c-1.1-1.5-2.4-2.6-4.2-2.9c-1.4-0.7-2.2-1.7-2.2-3.4c-0.1-10.2-0.1-20.4,0-30.6c0-0.7,0.3-1.4,0.3-2.1
	c-0.2-1.7,0.8-2.7,1.9-3.6c9.5-8.1,16.9-18,23.6-28.5c2.1-3.4,4-6.9,5.9-10.4c0.9-1.6,2-2.5,3.9-2c5.7,1.4,10.1-1.1,13.7-5
	c5.7-6.1,8.6-13.7,9.8-22c0.6-4.3,0.5-8.6-0.5-12.8c-1.1-4.6-3.1-8.7-7.6-11.1c-0.7-0.4-1.3-0.9-1.7-1.6c-0.3-3.1,0.3-6.1,1.5-9
	c2-1.2,2-3.1,2-5c0-23.1,0-46.2,0-69.3c0-1.7-0.2-3.5,0.8-5.1c0.8-0.8,1.8-0.7,2.7-0.7c5.3-0.1,10.7-0.1,16,0c3,0.1,3.6,0.7,3.7,3.7
	c0.1,3.4,0.1,6.9,0.1,10.3c0,23.1,0,46.1,0,69.2c0,1.8,0.1,3.5-0.4,5.2c0,0.3,0,0.7-0.2,0.9c-2.8,2.9-2.4,6.6-2.8,10.1
	c-0.7,7.9-1.5,15.9-2,23.9c-0.2,3.7,1.1,5.1,4.8,5.2c2.2,0,4.3,0.1,6.5,0c3.1-0.1,4.4-1.4,4.3-4.5c0-5-0.7-9.9-1.1-14.8
	c-0.4-4.4-0.9-8.9-1.1-13.4c-0.1-2.8-1.5-5-2.6-7.3c-0.4-1.6-0.4-3.2-0.4-4.8c0-26,0-51.9,0-77.9c0-0.6,0-1.3,0-1.9
	c0.1-3.4,0.5-3.8,3.8-4.2c3.7-0.4,5.6-2.4,5.7-6.1c0.1-5.5,0-11,0.1-16.5c0-0.9-0.3-2,0.7-2.6c6.2,5.7,11.9,12,17.8,18.1
	c11.9,12.1,23.8,24.1,35.6,36.2c14.9,15.2,29.9,30.4,44.7,45.7C498.8,204.3,505.7,211.3,512.7,218.2z"/>
<path class="st7" d="M220,515.2c-36.8-5.9-70.7-19.2-101.7-39.9c0-20.1,0-40.1,0-60.2c0-23.4,15.9-43.4,38.7-48.5
	c10.4-2.3,21-4.2,31.5-6.3c0.3-0.1,0.6,0,1,0c1.7,0.7,1.7,2.4,2,3.8c2.6,12.9,5.2,25.9,7.8,38.8c5.4,27.5,11,55,16.4,82.6
	c1.7,8.9,3.6,17.7,5.2,26.6C221,513.2,221.2,514.4,220,515.2z"/>
<path class="st8" d="M165,202.9c-0.1-0.9-0.2-1.9-0.2-2.8c0-14-0.1-27.9-0.1-41.9c-0.8-1.5-1.1-3.1-1.1-4.8c0-8.6,0-17.2,0-25.8
	c0-1.4-0.1-2.9,0.8-4.2c1.3-1.2,2.9-0.8,4.3-0.8c11.2-0.1,22.4,0,33.6,0c17.8,0,35.6,0,53.5,0c1.6,0,3.2-0.2,4.7,0.5
	c0.3,0.2,0.5,0.4,0.7,0.6c0.7,1.2,0.6,2.5,0.6,3.7c0,23.9,0,47.8,0,71.7c0,1.4,0.1,2.7-0.8,3.9c-1.1,0.8-2.3,0.5-3.5,0.5
	c-18.5,0-37.1,0.1-55.6,0c-7.4,0-14.8,0.4-22.3,0.4C174.8,203.9,169.8,204.4,165,202.9z"/>
<path class="st9" d="M220,515.2c-0.6-5.7-2-11.1-3.1-16.7c-8.9-44.8-17.8-89.6-26.7-134.3c-0.3-1.3-0.6-2.7-0.8-4
	c4.9-0.8,9.8-1.7,14.7-2.5c1.3,0.4,1.5,1.6,1.7,2.6c3.3,14,6.7,28,10,41.9c0,0.2,0,0.3,0.1,0.5c0.5,1.9,0.8,2.1,2.2,0.7
	c1.3-1.3,2.6-2.6,3.9-3.9c5.5-5.5,11.1-11.1,16.6-16.6c1-1,2-2.2,3.7-1.3c3.7,3.9,6.8,8.3,10,12.5c0.6,0.9,0.8,1.9,0.9,2.9
	c0.1,1.6,0.1,3.2,0.1,4.8c0,34.2,0,68.4,0,102.6c0,4.7-0.6,9.4,0.8,14c-6-0.4-12.1-0.6-18.1-1.2C230.7,516.9,225.2,516.5,220,515.2z
	"/>
<path class="st10" d="M217.7,307.9c-11.6-10.1-21.1-22-28.7-35.4c-1.2-2.2-2.4-4.4-3.5-6.5c-0.4-0.7-0.7-1.4-1.8-1.1
	c-7.1,2.3-12.1-1.3-16.3-6.2c-5-5.7-7.7-12.7-8.8-20.1c-1-6.1-0.8-12.1,1.5-17.9c1.6-4.1,4-7.5,8.5-8.8c1.2,0.3,1.4,1.4,1.6,2.4
	c0.7,3,1.5,6.1,2.3,9c0.4,1.5,1.2,2.4,2.8,2.4c1.7-0.1,3.7,0.5,4.3-2c0.2-0.7,0.6-1.3,1.4-1.5c1-0.1,1.6,0.5,2.3,1.1
	c3.9,3.9,7.8,7.8,11.7,11.7c1.2,1.2,1.7,2.5,1.6,4.1c0,2.5,0.5,4.9,1.3,7.3c2.7,7.8,8.9,12.3,17.2,12.4c10,0.1,19.1-2.8,26.9-9.1
	c2.7-2.2,4.7-5,5.9-8.3c1-2.8,1.6-3.2,4.6-3.3c2.1-0.1,4.2-0.1,6.2,0c1.1,0.1,2.3,0.2,2.8,1.5c0.5,1.3,0.4,2.7,0.4,4
	c0,25.6,0,51.2,0,76.8c0,1.2,0,2.4-0.2,3.6c-0.6,1.5-1.8,2.1-3.4,2c-8.9-0.6-17.3-2.8-25.3-6.9c-4.6-2.4-8.9-5.1-12.9-8.2
	C219,310.3,218.1,309.3,217.7,307.9z"/>
<path class="st11" d="M393.8,97.2c0.3,1.2,0.4,2.3,0.4,3.5c0,5.4,0,10.7,0,16.1c0,4.1-2.7,6.9-6.7,6.8c-2.4-0.1-3,0.5-3,3
	c0.1,28.3,0,56.5,0,84.8c-2.3,1.2-4.7,1.2-7,0c0-28.3-0.1-56.6,0-84.8c0-2.5-0.7-3-3.1-3c-6.1,0.2-12.1,0.1-18.2,0.1
	c-1,1.1-2.3,1-3.5,1c-4.9,0.1-9.7,0-14.6,0c-24.1,0-48.2,0-72.4,0c-1.7,0-3.6,0.5-5-1.1l-0.1-0.1c-0.8-0.7-1-1.6-1-2.6
	c-0.1-8.3-0.1-16.6,0-24.9c0-1,0.2-1.9,1.1-2.5c1,0,1.9-0.1,2.9-0.1c40.9,0,81.9,0,122.8-0.1C389.8,93.3,392.2,94.3,393.8,97.2z"/>
<path class="st12" d="M260.8,93.4c0,10-0.1,20-0.1,30.1c-1.2,0-2.4,0.1-3.6,0.1c-30.8,0-61.6,0-92.3,0.1c-0.7,0.9-1.8,1-2.8,1
	c-9,0.1-18,0-27,0c-1.6,0-2.9-0.6-4.2-1.5c-2.9-1.6-4-4-3.9-7.3c0.2-5.3,0-10.6,0.1-15.8c0-4,2.6-6.7,6.6-6.7c42.1,0,84.3,0,126.4,0
	C260.1,93.4,260.5,93.4,260.8,93.4z"/>
<path class="st13" d="M241.6,381.8c-7.9,7.8-15.8,15.7-23.7,23.5c-0.5,0.5-1,1.6-1.8,1.4c-0.8-0.2-0.7-1.3-0.9-2
	c-3.7-15.6-7.4-31.3-11.1-46.9c2.6-3.7,5.2-7.4,7.8-11.2c1.4-2,3.3-2.9,5.7-2.7c0.9-0.9,1.9-0.6,2.9-0.2c9.4,4,18.7,8.1,28,12.1
	c2.8,1.2,5.7,2.5,8.5,3.7c1.5,0.6,2.9,1.4,4,2.5c0.2,0.3,0.2,0.7,0.2,1.1c-0.6,1.2-1.6,2.1-2.6,3.1c-4.7,4.7-9.5,9.4-14.1,14.1
	C243.7,381,243,382,241.6,381.8z"/>
<path class="st14" d="M260.7,362.2c-13.5-5.8-27-11.6-40.4-17.4c-0.9-0.4-1.8-0.6-2.7-0.9c0-12,0.1-24,0.1-36
	c7.1,5.5,14.5,10.4,23,13.5c5.9,2.2,12,3.1,18.2,3.7c0.6,0.1,1.2-0.3,1.8-0.4c0.3,0.2,0.5,0.4,0.6,0.7c0.5,1,0.5,2,0.5,3
	c0,9.9,0,19.7,0,29.6c0,1.2-0.2,2.4-0.6,3.5C261.2,361.8,261,362,260.7,362.2z"/>
<path class="st6" d="M130.8,123.2c1.3,0.4,2.7,0.4,4,0.4c10,0,20,0,30,0c0,11.5,0,23-0.1,34.5c-8.1-8.2-16.2-16.5-24.2-24.7
	C137.2,130,134,126.6,130.8,123.2z"/>
<path class="st15" d="M181.1,222.4c-0.6,0.2-0.6,0.8-0.5,1.2c0.6,2.8-1,3-3.2,3c-5.1,0.1-5.2,0.2-6.5-4.8c-0.9-3.3-1.6-6.6-2.4-9.9
	c-0.3-2-0.7-4-0.9-6c-0.1-1.8-0.8-2.9-2.7-3c9.1,0,18.2,0,27.3,0c22.9,0,45.7,0,68.6-0.1c0.9-1.2,2.3-1,3.5-1c5.8-0.1,11.7,0,17.5,0
	c14.9,0,29.9,0,44.8,0c1.2,0,2.4,0,3.6,0.1c1,0.1,2,0.2,2.1,1.5c-0.7,1.2-1.9,1-3,1.1c-3.2,0.1-6.4,0-9.6,0c-17.9,0-35.8,0-53.7,0
	c-1.7,0-3.4,0-5-0.1c-19.3,0.3-38.5,0.1-57.8,0.1c-3.8,0-7.7,0-11.5,0c-2.1,0-3.5,0.9-4.5,2.7c-0.9,1.7-2,3.3-2.6,5.1
	c-1.6,2.3-1.6,5.2-2.4,7.8C182,220.8,182.1,221.8,181.1,222.4z"/>
<path class="st8" d="M331.5,360.2c11.7,2.2,23.5,4,34.9,7.1c21.4,5.8,36,24.6,36.3,46.7c0.3,20.2,0.1,40.4,0,60.7
	c0,0.2,0,0.5-0.1,0.7c-13.8,9.3-28.3,17-43.6,23.4c-17.9,7.5-36.4,12.9-55.6,16c-0.9,0.1-1.8,0.7-2.8,0.4c-1.3-1.1-0.7-2.5-0.4-3.8
	c3.2-16.1,6.3-32.3,9.6-48.4c6.7-33.4,13.2-66.8,19.9-100.1C330,361.7,330.2,360.6,331.5,360.2z"/>
<path class="st16" d="M331.5,360.2c-10.3,51.7-20.5,103.3-30.8,155c-5.4,1.3-10.9,1.7-16.3,2.2c-5.9,0.5-11.9,0.8-17.9,1.2
	c1.3-4.4,0.8-8.8,0.8-13.3c0-34.5,0.1-69-0.1-103.6c0-4.5,0.7-8.3,3.9-11.6c2.5-2.6,4.2-6,7-8.4c1.8-1,2.8,0.3,3.9,1.4
	c6.2,6.2,12.4,12.4,18.7,18.6c1,1,1.9,2.9,3.2,2.6c1.5-0.4,1.3-2.5,1.6-3.9c3.1-13.1,6.2-26.3,9.4-39.4c0.3-1.3,0.2-3,2-3.6
	c4.4,0.8,8.8,1.5,13.2,2.3C330.6,359.9,331.1,360,331.5,360.2z"/>
<path class="st15" d="M279.1,381.8c-3,3.9-6,7.9-9.1,11.7c-1.1,1.4-1.6,2.8-1.6,4.6c0,39.1,0,78.3,0.1,117.4c0,1.6-0.1,2.8-2,3
	c-4.1,0-8.3,0-12.4,0c-2-0.1-2.2-1.3-2.2-3.1c0-38.7,0-77.4,0.1-116.1c0-2.8-0.7-5-2.5-7.2c-2.8-3.3-5.4-7-8-10.4
	c5.9-6,11.9-12,17.8-18c0.4-0.4,0.8-0.8,1.4-0.6c1.1-0.2,1.8,0.5,2.5,1.2c4.9,4.9,9.8,9.7,14.7,14.7
	C278.7,379.8,279.7,380.5,279.1,381.8z"/>
<path class="st17" d="M332.3,203.2c-1-0.6-2.2-0.4-3.3-0.4c-22.7,0-45.4,0-68.1-0.1c0-0.7-0.1-1.4-0.1-2.1c0-25.2,0-50.3,0-75.5
	c0-0.5,0-1,0.1-1.4c31.8,0,63.6,0,95.5,0c0,25.5,0,51.1,0.1,76.6c0,2.3-0.6,3.2-2.8,3.1c-0.6,0.5-1.3,1-2.1,1
	c-5.5,0.1-11.1,0.2-16.6,0c-0.6,0-1.2-0.3-1.8-0.4C332.7,203.7,332.5,203.5,332.3,203.2z"/>
<path class="st18" d="M260.8,325.2c0-0.2,0-0.4,0-0.5c0-28.5,0-56.9,0-85.4c1.9-1.6,4.2-0.5,6.2-0.8c1,0,1.7,0.6,1.9,1.5
	c2.7,8.6,9.4,13,17.2,16.1c6.6,2.6,13.3,3.9,20.4,2.4c7.8-1.6,12.7-7.3,14.1-16c0.1-0.7,0.4-1.5,0.3-2.1c-0.4-3.8,1.9-6.2,4.4-8.5
	c3.8-3.6,7.4-7.3,11.1-11c0.6-0.6,1.2-1.3,2.1-1.6c1.1-0.4,1.9,0,2.3,1.1c0.3,0.7,0.3,1.4,0.5,2.1c0.7,3.1,2,3.9,5.1,3.2
	c1.2-0.3,1.6-1.2,1.9-2.2c1-3,1.6-6.2,2.5-9.3c0.3-1,0.4-2.1,1.7-2.3c5.5,1.8,8.1,6.2,9.3,11.3c3.2,14.3,0,27.1-10.2,37.8
	c-3.8,4-8.6,6.1-14.3,4.2c-1.6-0.5-1.6,0.7-2,1.4c-4,7.7-8.6,15.1-13.8,22.1c-5.3,7.1-11.5,13.5-18.1,19.4c-0.3,1.5-1.3,2.5-2.5,3.4
	c-9.5,7.2-19.9,12.4-31.8,14.3c-1.8,0.3-3.6,0.4-5.5,0.6C262.6,326.3,261.5,326.2,260.8,325.2z"/>
<path class="st19" d="M279.1,381.8c-5.5-5.6-11.1-11.2-16.6-16.7c-0.6-0.6-1.2-1.3-1.7-1.9c0-0.3,0-0.7-0.1-1c0-0.1,0.1-0.3,0.1-0.4
	c1-1.9,2.9-2.4,4.6-3.1c11.5-5,23-9.8,34.4-14.9c2.1-1,4,0,6,0.1c1.7,0.3,2.8,1.4,3.7,2.8c2.5,3.6,5,7.2,7.4,10.8
	c-3.8,15.8-7.6,31.7-11.3,47.5c-0.6,2.4-0.7,2.5-2.6,0.6c-7.3-7.3-14.6-14.6-21.9-21.9C280.5,383.1,279.8,382.5,279.1,381.8z"/>
<path class="st20" d="M352.5,211.8c-1.2,4.2-1.9,8.6-3.2,12.7c-0.5,1.6-1.1,2.3-2.9,2.2c-5.6-0.2-5.6-0.1-6.3-5.5
	c-0.1-0.5-0.1-0.9-0.2-1.4c-1-0.2-1.3,0.6-1.8,1.1c-4.9,4.8-9.7,9.7-14.6,14.5c-0.9,0.9-1.2,1.9-1.3,3.1c-0.3,6-1.7,11.7-6.1,16.2
	c-3.9,3.9-8.8,5.5-14.1,5.5c-9.7,0-18.5-2.8-26.3-8.7c-4.1-3.2-6.7-7.3-8.1-12.3c-1.7-0.4-3.5-0.2-5.2-0.2c-1.8,0-2.4-0.7-2.6-2.4
	c-0.5-5.6-0.3-6,5.2-7.2c0.8-0.2,1.6-0.3,2.3-0.5c0.5-0.2,1-0.5,1.3-1c3.6-5.6,9.2-8.1,15.4-9.1c8.1-1.3,16.2-1.2,24.3-0.1
	c3.8,0.5,7.1,2.4,10,4.8c1.2,1,2,0.9,3.1-0.1c4.1-4.1,8.2-8.3,12.4-12.4c1.1-1.1,1.1-2.1,0.3-3.4c-0.7-1.3-2.2-2.5-1.3-4.3
	c6.9,0,13.9,0,20.8,0C353.2,206.2,352.8,209,352.5,211.8z"/>
<path class="st21" d="M305.8,343.9c-2.4-0.1-4.5,0.5-6.7,1.5c-11.9,5.2-23.8,10.3-35.7,15.4c-0.9,0.4-1.8,0.7-2.7,1
	c0-12.2,0-24.4,0-36.5c13.4-0.4,25.4-5,36.2-12.6c2.1-1.5,4.2-3.2,6.3-4.7c0,10.8,0.1,21.6,0,32.3
	C303.3,342.2,303.5,343.7,305.8,343.9z"/>
<path class="st22" d="M377.5,211.3c2.3-0.6,4.7-0.5,7,0c1.7,1.1,2.8,2.6,2.9,4.7c0.8,10.1,1.7,20.2,2.5,30.3c0.3,4.1-1.4,5.9-5.5,6
	c-2.6,0-5.1,0-7.7,0c-3.1-0.1-5.1-2.4-4.9-5.5c0.9-10.2,1.8-20.4,2.6-30.5C374.7,214.1,375.7,212.4,377.5,211.3z"/>
<path class="st23" d="M268.9,230.1c-1.9,1.1-3.9,0.5-5.8,0.5c-1.8,0-2.3,0.7-2.3,2.4c-0.1,5.4-0.1,5.4,5.2,5.8
	c0.5,0,1.1,0.3,1.6,0.4c-2.2,0-4.5,0.1-6.7,0.1c-3.3,0-6.5-0.1-9.8-0.2c-0.7,0-1.2,0.1-1.5,0.9c-2.4,9-9.3,13.4-17.2,16.7
	c-6.6,2.7-13.5,4.1-20.6,2.8c-9.6-1.7-15.5-8.6-16-19c-0.1-2.9-1.2-4.9-3.2-6.8c-3.9-3.7-7.6-7.6-11.3-11.4c-0.3-3.6,0.8-6.9,2.3-10
	c1.4-0.3,2.2,0.8,3,1.6c3.1,3.1,6.2,6.2,9.3,9.3c1,1,2,1.7,3.3,0.5c3.7-3.6,8.5-5.3,13.5-5.6c7.9-0.4,15.8-0.9,23.6,1.2
	c5.1,1.4,9.5,3.7,12.5,8.2c0.8,1.2,1.9,1.4,3.1,1.4c3.2,0,6.4,0,9.6,0.1c1.8-0.2,3.6-0.2,5.4-0.1
	C267.6,229.1,268.4,229.4,268.9,230.1z"/>
<path class="st10" d="M260.8,230.1c-3.7,0.6-7.3,0.1-11,0.2c-0.7,0-1.2-0.2-1.5-0.9c-3.4-6.5-9.6-8.7-16.2-9.7
	c-7.8-1.2-15.7-1.4-23.6,0.4c-3.8,0.8-7.3,2.5-9.7,5.7c-1,1.3-1.5,0.5-2.2-0.2c-4.4-4.4-8.8-8.8-13.2-13.2c0.9-3.1,2.7-5.7,4.4-8.4
	c0.5-0.8,1.2-0.9,2.1-0.9c23.2,0,46.5,0,69.7,0c0.4,0,0.8,0.2,1.2,0.2c1,0.8,1.1,1.9,1.1,3c0.1,6.9,0.1,13.9,0,20.8
	C261.9,228.3,261.8,229.4,260.8,230.1z"/>
<path class="st18" d="M260.8,230.1c0-8.9,0-17.9,0-26.8c22.7,0,45.4,0,68.1-0.1c1.1,0,2.2-0.1,3.4-0.1c0.1,0.1,0.3,0.1,0.4,0.1
	c1,1.7,2,3.4,3,5.1c0.5,0.8,0.7,1.5-0.1,2.3c-5.3,5.3-10.6,10.6-16,16c-4.5-5.7-10.6-7.3-17.2-7.7c-7.2-0.4-14.4-0.5-21.4,1.5
	c-5.3,1.5-9.9,4-12.2,9.5C266.2,230.1,263.5,230.1,260.8,230.1z"/>
<path class="st18" d="M313.2,238c0.1,1.5-0.1,3.3-0.6,5.1c-1.3,5.1-5.1,8.1-10.4,8.2c-6.8,0.1-13.1-1.8-18.9-5.2
	c-1.9-1.1-3.5-2.5-4.9-4.2c-3.6-4.5-2.4-9.7,2.9-11.9c3.2-1.4,6.6-1.7,10-2c4.9-0.4,9.8-0.4,14.5,0.6
	C311.9,229.8,313.2,231.7,313.2,238z"/>
<path class="st10" d="M220.9,227.8c4.5-0.1,9,0.2,13.3,1.4c7.8,2.3,9.5,8.8,3.4,14.2c-6.6,5.9-14.7,8.3-23.5,7.7
	c-5.8-0.4-8.8-4-9.8-10.6c-1.2-8.4,1.1-11.3,9.4-12.4C216.1,227.8,218.5,227.8,220.9,227.8z"/>
</svg>
