<?xml version="1.0" encoding="utf-8"?>
<!-- Generator: Adobe Illustrator 20.1.0, SVG Export Plug-In . SVG Version: 6.00 Build 0)  -->
<svg version="1.1" id="Слой_1" xmlns="http://www.w3.org/2000/svg" xmlns:xlink="http://www.w3.org/1999/xlink" x="0px" y="0px"
	 viewBox="0 0 522 517" style="enable-background:new 0 0 522 517;" xml:space="preserve">
<style type="text/css">
	.st0{fill:#83D9FD;}
	.st1{fill:#CEF0FE;}
	.st2{fill:#C2ECFE;}
	.st3{fill:#9FE2FE;}
	.st4{fill:#A3E4FE;}
	.st5{fill:#54BFEA;}
	.st6{fill:#FEFEFE;}
	.st7{fill:#324A5E;}
	.st8{fill:#E5E8ED;}
	.st9{fill:#2B3B4E;}
	.st10{fill:#83DAFE;}
	.st11{fill:#FDFEFE;}
</style>
<path class="st0" d="M252.7,5.5c5.3,0,10.6,0,15.8,0c1.1,0.5,2.3,0.1,3.5,0.2c1.3,0,2.6,0,3.9,0c20-0.1,39.4,3.9,58.4,9.6
	c14.5,4.4,28.6,9.9,42,16.9c20.2,10.4,38.8,23.2,55.6,38.6c24.8,22.6,44.4,49,58.9,79.2c11.1,23.2,18.3,47.5,22,73
	c1.2,8.4,1.5,16.9,1.6,25.3c0.1,10.7,0.2,21.4-0.2,32.1c-0.4,11.5-2.3,22.7-4.7,33.9c-6.8,30.7-18.8,59.2-36.1,85.5
	c-10.4,15.8-22.5,30.3-36.2,43.3c-0.9,0.9-1.9,1.8-3.3,1.8c-1.5,0.2-3,0.3-4.5,0.3c-29.9,0-59.9,0-89.8,0c-0.5,0-1,0-1.4,0
	c-3.8,0-3.9-0.1-5.1-3.6c-2.2-10.1-8.9-15.6-19.3-15.6c-2.3,0-4.6,0-6.9,0c-3.2,0-3.5-0.3-4-3.3c-0.1-0.7-0.4-1.4-0.6-2.1
	c-1.3-8-6.5-12.3-14.6-12.3c-17.6,0-35.2,0-52.8,0c-8.4,0-13.7,5.2-13.8,13.5c0,1.1,0.1,2.3-0.6,3.2c-1.1,1.1-2.5,0.9-3.8,1
	c-4,0.2-8.1-0.4-12.1,0.4c-7.8,1.6-12.9,6.2-14.8,14.1c-0.4,1.5-0.1,3.3-1.7,4.3c-1,0.6-2.2,0.4-3.3,0.4c-31.5,0-63,0-94.5,0
	c-1,0-1.9-0.1-2.9-0.2c-1.8,0.3-2.8-0.9-3.9-2c-11.7-11.3-22.2-23.5-31.5-36.7c-18.4-26-31.2-54.4-39-85.2
	c-2.6-10.4-4.7-20.9-5.6-31.6c-0.4-4.8-0.7-9.7-0.6-14.6c0-1.3,0-2.6,0-3.9c-0.1-1.2,0.3-2.4-0.2-3.5c0-5.3,0-10.6,0-15.8
	c0.5-1.1,0.1-2.3,0.2-3.5c0-1.3,0-2.6,0-3.9c-0.2-19.2,3.6-37.8,8.8-56.1c4.2-14.7,9.8-29,16.6-42.6c10-19.8,22.3-38,36.9-54.7
	c19.7-22.3,42.5-40.6,68.5-55c25.3-13.9,52.2-23.2,80.7-28c8.9-1.5,17.9-2.1,26.9-2.2c1.3,0,2.6,0,3.9,0
	C250.4,5.6,251.6,6,252.7,5.5z"/>
<path class="st1" d="M245,5.9c0-0.1,0-0.3,0-0.4c1.4,0,2.9,0,4.3,0c0.3,0.2,0.3,0.3-0.1,0.4C247.9,5.9,246.4,5.9,245,5.9z"/>
<path class="st2" d="M276.2,5.5c0,0.2,0,0.3,0,0.5c-1.4,0-2.9,0-4.3,0c-0.3-0.1-0.3-0.3,0-0.5C273.4,5.5,274.8,5.5,276.2,5.5z"/>
<path class="st1" d="M6.5,244c0.1,0,0.3,0,0.4,0c0,1.4,0,2.9,0,4.3c-0.1,0.4-0.2,0.4-0.4,0.1C6.5,246.9,6.5,245.5,6.5,244z"/>
<path class="st2" d="M6.9,275.3c-0.2,0-0.3,0-0.5,0c0-1.4,0-2.9,0-4.3c0.2-0.3,0.3-0.3,0.5,0C6.9,272.4,6.9,273.8,6.9,275.3z"/>
<path class="st3" d="M249.3,5.9c0-0.1,0-0.3,0.1-0.4c1.1,0,2.2,0,3.4,0C251.7,6.3,250.5,5.9,249.3,5.9z"/>
<path class="st4" d="M271.9,5.5c0,0.2,0,0.3,0,0.5c-1.1-0.1-2.3,0.4-3.4-0.5C269.7,5.5,270.8,5.5,271.9,5.5z"/>
<path class="st3" d="M6.5,248.4c0.1,0,0.3,0,0.4-0.1c-0.1,1.1,0.4,2.4-0.4,3.4C6.5,250.6,6.5,249.5,6.5,248.4z"/>
<path class="st4" d="M6.9,270.9c-0.2,0-0.3,0-0.5,0c0-1.1,0-2.2,0-3.4C7.3,268.6,6.8,269.8,6.9,270.9z"/>
<path class="st5" d="M434.7,444.2c-6.9,7-14.6,13.2-22.5,19c-30,22.2-63.1,37.3-99.7,45c-15.4,3.2-31,5.1-46.8,5.1
	c-12,0-24,0-35.9-1.5c-25.8-3.3-50.7-10.2-74.4-21c-25.1-11.4-47.7-26.6-67.9-45.3c-0.3-0.3-0.5-0.6-0.8-0.9c0.9-0.8,2-0.4,3-0.4
	c31.8,0,63.5,0,95.3,0c1.2,0,2.4,0,3.6,0c0.6-0.8,1.4-0.9,2.4-1c1.2,0,2.4,0,3.6,0c44.5,0,88.9,0,133.4,0c2.4,0,4.6-0.1,6-2.3
	c0.1,0.4,0.4,0.8,0.4,1.1c-0.3,2.4,1.3,2.2,2.9,2.2c28.7,0,57.3,0,86,0C427,444.2,430.8,444.2,434.7,444.2z"/>
<path class="st6" d="M270,210c-2.1,7.9-4.2,15.7-3.8,24c0.5,11.1,2.8,21.8,6.2,32.4c3.4,10.6,4.9,21.5,4.7,32.6
	c-0.2,9.5-2.1,18.7-4.2,27.9c-2.6,10.9-4,22-4.8,33.2c-1.1,14.8-1.9,29.7-1.8,44.5c0,1.8-0.5,2.4-2.3,2.3c-2.3-0.2-5.2,0.9-6.7-0.4
	c-1.6-1.4-0.4-4.4-0.6-6.7c-0.6-11.6-0.5-23.3-1.5-35c-1.3-15.6-3.3-31.1-6.9-46.4c-2.1-9-2.9-18.3-2.7-27.6
	c0.3-9,2.6-17.7,5.2-26.2c3.3-10.9,5.8-21.9,5.7-33.4c0-7.3-1.9-14.2-3.8-21.2c0.9-0.6,1.8-0.3,2.7-0.1c3.9,1,7.8,1,11.7-0.1
	C268.1,209.5,269.1,209.1,270,210z"/>
<path class="st7" d="M333.9,440.9c0.1,3.2,0.1,3.2-3.2,3.2c-46.4,0-92.8,0-139.1,0c-1,0-2.1,0-3.1,0c-0.4-10,8-18.7,18.2-19
	c4.5-0.1,8.9,0.3,13.4-0.2c1.2-1.4,2.8-1,4.3-1c23.6,0,47.2,0,70.8,0c1,0,2.1-0.1,3.1,0c2.1,0.2,3.8-0.2,4.2-2.7
	c0-0.3,0.4-0.5,0.7-0.7c0,0.1,0.1,0.1,0.1,0.2c0.6,4.4,0.6,4.4,5.3,4.4c1.8,0,3.7,0,5.5,0C324.7,425.2,331.5,430.5,333.9,440.9z"/>
<path class="st7" d="M457.6,251.6c0.8,0,1.3,0.4,1.3,1.3c-0.1,3.6,0.2,7.2-0.2,10.8c-0.8,7.9-7.3,13.6-15.6,13.7
	c-21.2,0.1-42.4,0.1-63.6,0c-9.3-0.1-15.5-6.6-15.5-15.9c0-2.7,0-5.4,0-8.2c0-0.8-0.1-1.7,1.1-1.7c1.3-1,2.9-1,4.4-0.8
	c13.3-0.2,26.6-0.2,39.9,0c1.4-0.1,2.8-0.1,4.2,0c13.2-0.2,26.3-0.3,39.5,0C454.7,250.6,456.3,250.7,457.6,251.6z"/>
<path class="st7" d="M155.8,251.7c1,0,1.9,0,1.8,1.5c-0.2,3.4,0.2,6.9-0.3,10.3c-1.3,8.3-7.4,13.9-15.7,13.9
	c-21.2,0.1-42.3,0.1-63.5,0c-9.3-0.1-15.5-6.6-15.5-15.9c0-2.6,0-5.1,0-7.7c0-0.7-0.4-1.6,0.5-2.2c1.3-1.2,2.9-0.9,4.5-0.8
	c13.3-0.3,26.6-0.3,40,0c1.4-0.1,2.8-0.1,4.2,0c13.3-0.2,26.7-0.2,40,0C153.2,250.7,154.7,250.5,155.8,251.7z"/>
<path class="st8" d="M270,210c-5.8,2-11.6,2.4-17.4,0c-5.8-2.4-9.9-6.6-12.3-12.4c-0.4-0.9-0.8-1.5-1.6-2c-1.4-4.1-1.2-8.3-0.2-12.4
	c0.2-1.1,0.8-1.9,1.7-2.5c2.4-5.7,6.8-9.5,12-12.5c0.2-0.2-0.1,0,0.2-0.2c4.2-3.6,15.8-3,19.2,1.1c4.8,2.7,8.4,6.4,10.4,11.5
	c1.1,0.6,1.7,1.6,1.9,2.8c0.5,2.6,1.1,5.2,0.6,8c-0.3,1.4-0.4,2.8,0,4.2c-1.3,0.3-2.1,1-2.6,2.4C279.6,203.6,275.4,207.4,270,210z"
	/>
<path class="st9" d="M303.2,420.6c-0.2,4.4-0.2,4.4-4.6,4.4c-26.2,0-52.3,0-78.5,0c-0.2-4.2-0.2-8.3,2.5-11.9
	c2.8-3.8,6.5-5.8,11.2-5.8c18.5,0,36.9,0,55.4,0C296.6,407.3,302.8,413.2,303.2,420.6z"/>
<path class="st6" d="M240.2,180.7c-1.5,4.4-2,9-0.9,13.6c0.1,0.6,0.3,1.1-0.5,1.3c-13.5-0.5-26.8-2.9-40-5.9
	c-13.4-3.1-25.9-8.3-38.3-14.4c-13-6.4-26.6-11.7-41.2-14c-0.8-0.7-0.8-1.5,0-2.2c16-0.7,31.3,2.8,46.2,8
	c15.9,5.5,32.2,9.3,48.9,11.5C223,179.7,231.6,180,240.2,180.7z"/>
<path class="st6" d="M284.5,195.6c-1.5-0.1-1.5-0.9-1.3-2.2c1-4.4,0.4-8.7-1.2-12.9c10-0.3,19.9-1.2,29.8-2.4
	c14.2-1.8,28.2-4.4,41.7-9.4c11.3-4.2,22.9-7.4,34.9-8.9c4.4-0.6,8.7-0.9,13.1-0.8c0.8,0.8,0.9,1.6,0.1,2.5
	c-9.8,2.2-19.5,4.9-28.7,9.1c-7.1,3.2-13.9,6.8-21,10c-14.2,6.5-29.3,10-44.6,12.5C299.7,194.4,292.1,195.4,284.5,195.6z"/>
<path class="st6" d="M271.6,169.1c-5.8-2.8-11.8-3.2-17.9-1.2c-0.4,0.1-0.9,0.2-1.4,0.2c2.8-10.7,3.8-21.7,4.7-32.7
	c0.2-2.1,0.1-4.3,0-6.5c-0.2-3.4,1.6-5.8,4.7-6c2.8-0.2,5,2.1,5,5.5c-0.2,10.7,0.9,21.2,2.9,31.7
	C270.1,163.3,270.9,166.2,271.6,169.1z"/>
<path class="st6" d="M67.4,251.6c-1.4,0-2.8,0-4.2,0c4.7-9.8,9.4-19.5,14.2-29.3c8.6-17.7,17.2-35.5,25.7-53.2
	c0.2-0.4,0.3-0.9,0.5-1.3c1.6-0.5,2.6,0.3,3.6,1.4c0.6,1.4-0.1,2.5-0.7,3.6c-4.8,10-9.6,20-14.5,30c-7.3,15.2-14.7,30.3-22,45.5
	C69.3,249.6,68.8,250.9,67.4,251.6z"/>
<path class="st6" d="M155.8,251.7c-1.3,0-2.6,0-4,0c-1.2-0.5-1.8-1.5-2.3-2.6c-8.5-17.9-17.2-35.6-25.8-53.4
	c-3.5-7.2-6.9-14.4-10.4-21.5c-0.7-1.5-1.7-2.9-1.5-4.7c0.8-1.2,1.9-1.9,3.4-1.3c1.8,1.8,2.5,4.3,3.5,6.5c10,20.6,20,41.1,29.9,61.7
	C151.1,241.4,153.9,246.3,155.8,251.7z"/>
<path class="st6" d="M457.6,251.6c-1.4,0-2.8,0-4.3,0c-0.9-0.5-1.5-1.3-2-2.3c-7-14.3-13.9-28.6-20.8-42.9
	c-4.2-8.6-8.2-17.3-12.6-25.8c-1.5-2.9-2.8-5.9-4.1-8.9c-0.4-0.9-0.8-1.8-0.2-2.7c0.9-0.9,1.8-1.6,3.1-0.9c2,3.1,3.4,6.5,5,9.8
	c11.2,23.1,22.4,46.2,33.6,69.3C456.3,248.6,456.9,250.1,457.6,251.6z"/>
<path class="st6" d="M369.4,251.6c-1.4,0-2.8,0-4.2,0c9.3-19.2,18.7-38.5,28-57.7c4.2-8.6,8.4-17.2,12.6-25.8
	c1.6-0.5,2.7,0.1,3.6,1.4c0.2,1.6-0.6,2.9-1.3,4.3c-8.6,17.7-17.2,35.5-25.8,53.3c-3.5,7.3-7.2,14.4-10.5,21.8
	C371.3,250,370.7,251.2,369.4,251.6z"/>
<path class="st7" d="M409.2,169.6c-1.1-0.5-2.2-1-3.4-1.5c-2.2-1.7-3.5-3.9-4.2-6.6c0-0.8-0.1-1.7-0.1-2.5c1.8-5.9,4.8-8.6,9.6-8.6
	c4.1,0,7.5,2.2,9.1,5.8c1.6,3.7,0.7,7.9-2.3,10.8c-0.3,0.3-0.7,0.7-1,1c-1,0.5-2,0.9-3,1.4c-0.2,0.3-0.4,0.6-0.8,0.8
	c-1.1,0.4-2.3,0.5-3.4-0.1C409.5,170,409.3,169.8,409.2,169.6z"/>
<path class="st7" d="M115.2,168.1c-1,0.5-2.1,1-3.1,1.5c-0.2,0.2-0.3,0.4-0.6,0.5c-1.1,0.6-2.3,0.5-3.4,0.2c-0.6-0.1-0.9-0.5-1.2-1
	c-1.1-0.5-2.2-1.1-3.4-1.6c-2.8-2.8-4.2-6.2-3.2-10.2c1.2-4.5,5-7.2,9.8-7.1c4.7,0.1,8.1,3.2,9.2,8.7c0,0.7,0,1.5,0,2.2
	C118.7,164.1,117.5,166.4,115.2,168.1z"/>
<path class="st10" d="M409.2,169.6c0.2,0,0.4,0,0.5,0.1c1.3,1.1,1,2.6,1,4c0,13.9,0,27.8,0,41.7c0,10.8,0,21.6,0,32.4
	c0,1.3,0.3,2.8-1,3.8c-13.4,0-26.9,0-40.3,0C382.6,224.3,395.9,197,409.2,169.6z"/>
<path class="st10" d="M413.5,169.6c0.1-0.1,0.2-0.1,0.3-0.2c2.8,6.8,6.2,13.3,9.4,19.9c9.8,20.2,19.6,40.4,29.3,60.6
	c0.3,0.6,0.5,1.2,0.7,1.8c-13.3,0-26.6,0-39.9,0c-1.3-1.1-0.9-2.6-0.9-4c0-17.2,0-34.5,0-51.7c0-7.6,0-15.2,0-22.7
	C412.5,171.9,412.4,170.6,413.5,169.6z"/>
<path class="st11" d="M413.5,169.6c0,14.3-0.1,28.6-0.1,42.9c0,13,0,26.1,0,39.1c-1.3,0-2.5,0-3.8,0c0-27.3,0-54.6,0-81.9
	C411,169.7,412.3,169.6,413.5,169.6z"/>
<path class="st10" d="M106.9,169.3c0.3,0.1,0.6,0.2,0.9,0.3c1,0.8,1,1.9,1,3.1c0,25.3,0,50.6,0,75.8c0,1.1,0,2.3-1,3.1
	c-13.5,0-26.9,0-40.4,0c3.7-7.8,7.5-15.6,11.2-23.3c9.2-19,18.4-38,27.6-57C106.5,170.7,106.7,170,106.9,169.3z"/>
<path class="st10" d="M111.5,169.7c0.2,0,0.4-0.1,0.5-0.1c12.5,25.9,25.1,51.7,37.6,77.6c0.7,1.5,1.5,3,2.2,4.5
	c-13.4,0-26.9,0-40.3,0c-1.3-1.1-0.9-2.6-0.9-4c0-17.7,0-35.3,0-53c0-7.1,0-14.2,0-21.3C110.6,172,110.4,170.7,111.5,169.7z"/>
<path class="st11" d="M111.5,169.7c0,27.3,0,54.6,0,82c-1.3,0-2.5,0-3.8,0c0-27.3,0-54.7,0-82C109,169.7,110.3,169.7,111.5,169.7z"
	/>
</svg>
