<?xml version="1.0" encoding="utf-8"?>
<!-- Generator: Adobe Illustrator 20.1.0, SVG Export Plug-In . SVG Version: 6.00 Build 0)  -->
<svg version="1.1" id="Слой_1" xmlns="http://www.w3.org/2000/svg" xmlns:xlink="http://www.w3.org/1999/xlink" x="0px" y="0px"
	 viewBox="0 0 500 500" style="enable-background:new 0 0 500 500;" xml:space="preserve">
<style type="text/css">
	.st0{fill:#FEFEFE;}
	.st1{fill:#303030;}
	.st2{fill:#7B7B7B;}
	.st3{fill:#616161;}
	.st4{fill:#010101;}
	.st5{fill:#020202;}
	.st6{fill:#040404;}
	.st7{fill:#0B0B0B;}
	.st8{fill:#070707;}
	.st9{fill:#141414;}
	.st10{fill:#0E0E0E;}
	.st11{fill:#171717;}
	.st12{fill:#242424;}
	.st13{fill:#1F1F1F;}
	.st14{fill:#121212;}
	.st15{fill:#1C1C1C;}
	.st16{fill:#3C3C3C;}
	.st17{fill:#B7B7B7;}
	.st18{fill:#080808;}
	.st19{fill:#363636;}
	.st20{fill:#252525;}
	.st21{fill:#343434;}
	.st22{fill:#424242;}
	.st23{fill:#DDDDDD;}
	.st24{fill:#202020;}
	.st25{fill:#1D1D1D;}
	.st26{fill:#2A2A2A;}
	.st27{fill:#161616;}
	.st28{fill:#383838;}
	.st29{fill:#060606;}
	.st30{fill:#3D3D3D;}
	.st31{fill:#272727;}
	.st32{fill:#050505;}
	.st33{fill:#E4E4E4;}
	.st34{fill:#DFDFDF;}
	.st35{fill:#F1F1F1;}
</style>
<g>
	<path class="st0" d="M501,247c0,83.3,0,166.7,0.1,250c0,3.4-0.7,4.1-4.1,4.1C347.7,501,198.3,501,49,501c-0.4-2.9,1.7-4.6,3.6-5.4
		c24.5-10.6,45.8-27.3,71.3-35.9c13.9-4.7,27.7-5.1,41.7-0.8c7.5,2.3,15.2,3.8,23.1,2.1c9.9-2.1,18.4-6.6,25.2-14.3
		c1.5-1.7,3.3-3.3,5-4.9c1.6-1.2,2.9-2.5,4-4.1c3-1.7,6.1-3.4,9.4-4.6c13.9-5,21.6-16,27.9-28.4c2.3-4.4,4-9.1,6.2-13.7
		c-7.2,6.3-15.3,11.3-22.5,17.5c-5.8,5-9.1,11.7-12.9,18.2c-2.4,4.2-4.6,8.5-8.6,11.5c-0.9,1.5-2.2,2.6-3.6,3.6
		c-7.8,6.3-16.7,6.8-26,4.3c-4.2-1.1-8-3.2-11.9-5.1c-6.9-3.4-14.1-4.9-21.8-2.4c-12.6,4.1-23.3-1.2-33.4-7.6
		c-18.7-12-35.2-26.7-49.9-43.4c-22-24.9-40-52.7-58.4-80.2c-3.9-5.8-7.8-11.6-11.9-17.4c-1.5,11-1,22-2.4,32.9
		C3,324.7,4.2,327.3,1,328C1,220.3,1,112.7,0.9,5c0-3.4,0.7-4.1,4.1-4.1C169,1,333,1,497,0.9c3.4,0,4.1,0.7,4.1,4.1
		C501,85,501,165,501,245c-0.9,1.6-2.6,1.8-4.1,2.4c-2,0.6-3.9,1.2-5.8,2c-1.8,1-3.8,1.7-5.5,2.9c-2.9,0.4-5.1,2.4-7.7,3.3
		c-20.6,10.6-38.2,25.4-56.6,39.2c-15,11.2-30.4,21.6-48.1,28.1c-3.3,1.2-6.7,1.9-9.9,3.3c-6.9,2.2-14,2.7-21,4.1
		c-4.6,0.9-9,2.3-13,4.9c-3.1,2.1-6.5,3.3-10.2,3.7c-5.3,0.6-10.6,1.1-15.9,1.4c-2.2,0.2-5.1,0.7-6.3-1.8c-1-2.2,0.7-4.1,2-5.8
		c1.2-2.1,3.1-3.6,4.5-5.7c0.9-1.8,2.3-3.2,3.2-5c0.7-0.9,1.4-1.8,1.9-2.8c0.1-0.1,0.2-0.1,0.2-0.1c-0.3-0.2-0.4-0.1-0.4,0.3
		c-0.4,1.1-1.3,1.8-1.9,2.8c-0.7,1.6-2,2.8-2.8,4.3c-1.2,2-2.9,3.6-4.4,5.4c-5,6.5-11.8,9.5-19.8,10c-1.9,0.1-3.8-0.2-4.9-1.9
		c-1.2-1.9,1.6-2.2,1.6-3.9c-5.7-3.2-8.7-8.9-11.4-14.6c-0.6-1.2-1.4-2.6-0.3-3.7c1.2-1.2,2.4-0.1,3.6,0.5c4.7,2.5,5,2.5,7.6-2.3
		c4.9-8.7,6.6-18.5,8-28.2c0.7-4.8,2.7-7.5,7.5-8.5c6.8-1.4,11.6-5.5,14.7-11.9c-9.5,5.7-19.5,8.1-30.4,5.6
		c-2.8-0.6-5.4-1.7-7.7-3.4c-2.1-1.6-5-3.1-1.3-6.1c1.4-1.1,0.2-2.4-0.4-3.5c-7.2-13.8-14.5-17.7-30-15.7c-5,0.7-10,0.8-14.9,0.7
		c-8.7-0.1-13.1-4.2-14.3-12.9c-0.2-1.5-0.1-3-1.4-4.9c-5.2,8.2-8.7,16.3-5.4,25.9c1.3,3.9,4.1,6.3,7.8,8c5,2.3,10.5,3.3,15.6,5.2
		c11.2,4.1,14,8.1,14.1,20.1c0,0.7,0.1,1.4,0,2c-2.8,12,1.8,21.8,9,30.9c0.4,0.5,0-0.2,0.3,0.4c1,1.8,3.1,3.7,1.4,5.8
		c-1.6,2-3.6-0.7-5.9-0.5c0.8,2,2.2,3.5,3,5.2c2.4,4.9,1.5,7-3.8,8.2c-2,0.5-4,0.5-5.9,0.1c-2.8-0.6-5.8-1-7.9-2.9
		c-9.6-8.2-21.1-10.2-33.3-11.6c-10.9-1.2-21.2-5.7-31.8-8.4c-10.1-2.6-20.2-4-31.6-1.2c19.2-1.3,35.2,5.3,50.5,14.1
		c8.2,4.7,16.1,10,24.7,14.1c8.2,3.9,16.6,7.1,25.6,8.3c4,0.5,6.7,2.4,8.8,5.7c2.6,4.1,5.5,8,8.9,11.4c4.6,4.8,9.2,10.2,17.1,6.5
		c0.8-0.4,1.8-0.3,2.3,0.4c3.1,3.8,3.8,0.4,4.9-1.6c1.4-2.7,0.8-5.5,0.1-8.3c-2.4-9.1,0.7-13.4,10.1-14.8c8.4-1.2,16.9-1.4,25.3-2.6
		c6.7-1,13.1-2.9,18.9-6.2c9.5-5.5,19.7-8.9,30.4-11c4.4-0.9,8.8-1.9,13-3.7c15.5-5.5,29.1-14.4,42.8-23.4
		c18.8-12.3,35.8-27.1,53.1-41.3c3.5-2.9,7.5-4.9,11.4-7c2.5-1.2,4.9-2.6,7.5-3.4c1.6-0.9,3.3-1.6,5-2.4c1.9-0.9,3.9-1.6,5.9-2.1
		C498.3,247.2,499.5,245.9,501,247z"/>
</g>
<path d="M1,328c2.2-5.3,1.3-10.9,1.8-16.4c0.8-8.2,0.9-16.5,1.4-26.2c6.9,10.2,13.1,19.4,19.2,28.6c18,27,35.9,54.1,58.1,77.9
	c14.7,15.8,30.9,29.8,49.5,40.8c9.1,5.3,18.6,7.7,29.1,4.4c8.4-2.6,16,0.1,23.5,3.6c5.1,2.4,10,5,15.9,5.5
	c7.2,0.6,13.4-1.8,19.4-5.2c0.9-0.5,1,0.1,1.1,0.8c-7.7,10.8-17.9,18-31.1,20.6c-6.3,1.3-12.8,1.1-18.7-1
	c-24.2-8.9-46.3-2.5-67.7,8.9c-15.5,8.2-30.2,18-46.5,24.7c-2.9,1.2-5.6,2.8-6.9,6c-1.7,0-3.3,0-5,0c-2.3-0.7-4-2.1-5.5-4
	c-8.7-11.1-15.3-23.4-21-36.2c-7.6-16.8-13.1-34.2-15.1-52.6C1.7,402.5,2.2,396.7,1,391c0-17.7,0-35.3,0-53c0.6-0.6,0.5-1.3,0.5-2
	c0-0.7,0.1-1.4-0.5-2C1,332,1,330,1,328z"/>
<path class="st0" d="M1,391c2.5,6.6,1.8,13.6,3,20.3c5.3,31.4,17,60.2,36.3,85.7c1.1,1.4,2.5,2.7,3.7,4c-13.2,0-26.3-0.1-39.5,0.1
	c-3,0-3.6-0.6-3.6-3.6C1,462,1,426.5,1,391z"/>
<path class="st1" d="M497,246.9c0.9-1.5,2.9-0.7,4-1.9c0,0.7,0,1.3,0,2c-1.3,0.3-2.7,0.6-4,1c-0.3-0.2-0.5-0.5-0.4-0.7
	C496.7,247,496.8,246.9,497,246.9z"/>
<path class="st2" d="M1,334c1.2,0.3,1,1.1,0.8,2c-0.2,0.5-0.5,0.5-0.8,0C1,335.3,1,334.7,1,334z"/>
<path class="st3" d="M1,336c0.3,0,0.6,0,0.8,0c0.2,0.9,0.2,1.7-0.8,2C1,337.3,1,336.7,1,336z"/>
<path d="M372,327.9c-5.1,2.6-10.6,3.9-16.1,4.8c-7.9,1.4-15.6,3.6-22.4,7.8c-12.3,7.6-26,9.4-40,10.5c-3.8,0.3-7.6,0.5-11.4,1.1
	c-6.4,0.9-10,5.1-7.8,10.6c3,7.3,1.2,12.8-3.9,18c-0.4-0.6-1-1.3-1.1-2c-0.3-3.2-1.2-4.2-4.2-1.9c-3.4,2.7-6.6,1-9.6-1
	c-7.4-4.9-12.2-12.2-17.1-19.3c-1.7-2.4-3.5-3.3-6.4-3.7c-13.7-1.9-26-7.6-37.7-14.6c-13.9-8.3-27.5-17.3-43.8-20.7
	c-7.4-1.6-14.8-1.7-23.1-1.5c4-3.2,8-3.7,12.1-4c11.7-0.8,22.7,2.4,33.6,5.8c11.6,3.6,23.2,6.7,35.5,7.2c6,0.3,10.6,3.6,15,7.1
	c5.4,4.3,11.2,6.6,18.4,5.2c4.3-0.9,3.9-2.8,2.4-5.4c-1.6-2.9-3.6-5.5-5.7-8.6c3.8-1.2,6.1,2.1,9.6,2.9c-1.3-3.7-3.2-6.3-5.2-8.9
	c-5.8-7.5-8.5-15.6-7.4-25.5c1.8-16.8-1.5-21-17.6-25.8c-2.4-0.7-4.8-1.2-7.2-2c-11.3-3.8-15.4-10.8-13.1-22.6
	c1.2-6.5,4.3-12,9.1-18.2c0.3,3.7,0.6,6.4,0.8,9c0.6,6.9,4.8,11.2,11.7,11.9c6.5,0.7,13-0.5,19.4-1.2c12.5-1.4,21.7,3.1,27.1,14.8
	c1,2.2,2.5,4.2,4.1,6.9c-1.8,0.2-3.3,0.4-4.9,0.5c7,11,27,10.6,42.6-0.7c-1.3,8.1-7.6,15-16.4,16.4c-5.1,0.8-6,3.1-6.6,7.7
	c-1.4,10.3-3.3,20.7-8.8,29.8c-3.3,5.4-3.3,5.4-8.2,1.6c-0.9-0.7-1.8-1.3-3-1.7c3.4,7.3,5.6,15.6,14.8,18.2
	c-0.8,2.7-4.2,0.8-5.1,3.1c6.9,3.3,16,0.1,24.5-8.6c0.7,0.1,1.1,0.5,1.3,1.2c-0.2,2.6-3.1,4.2-2.9,7.4c8.1-0.8,16.1-1.6,24.2-2.4
	c1.3-0.1,2.8-0.3,3.8-1.1c8.8-7,19.5-7.6,29.9-9.2c2.9-0.5,5.8-1.2,8.7-1.8c1-0.5,2.2-0.2,3.3-0.7
	C370.7,322.8,372.5,323.9,372,327.9z"/>
<path d="M221.1,11.9c3.8,2.3,6.6,6.1,10.1,8.3c3.9,2.4,8,7.2,13.9,3.9c0.4-0.2,1,0,1.5,0.2c0.4,0.2,0.8,0.6,1.2,1.1
	c-0.5,0.3-1,0.4-1.3,0.7c-1.5,1.2-5.1-0.5-4.6,3.1c0.4,3.3,3.2,2.7,5.5,2.8c3.3,0.2,6.4-0.2,9.8,2.2c1.9,1.4,6.5-0.2,9.9,1
	c1.3,0.4,2.6-1,3.9-0.2c2.3,4.8,4.5,9.6,6.7,14.4c1.3,2.8,2,2.2,2.5-0.3c1.9,0.1,1.2,1.3,1,2.3c0,1.5,0,2.9,0,4.3
	c2.4,1.2,1.8-2.8,4.3-1.8c1.4,6.4-2.6,11.1-6.5,16c5.1,0.9,7.6-2.8,10.8-5c2-0.1,1.8,1.1,1.3,2.4c-1.5,2.2-4.5,4.6,0.9,5.7
	c1.2,0.6,2.1,1.4,1,2.8c-0.2,0.2-0.6,0.6-0.5,0.7c4.4,5,4.3,5.3-2,8.3c-2.7,1.3-5.5,2.4-7.6,4.6c-1,1.1-2.2,2.3-1.2,3.9
	c0.9,1.3,2.4,0.8,3.7,0.6c1.6-0.2,3-1.7,4.8-0.5c-1,3.4-4.1,2.8-6.5,3.2c-2.4,0.4-5,0.2-7.5,0.3c-1.6,0.1-3.2,0.6-3.7,2
	c-0.6,1.7,1,2.6,2.2,3.5c1.3,1,2.8,1.7,4.1,2.7c1,0.8,2.5,1.8,1.9,3.1c-0.7,1.4-2.4,1.6-4,1.3c-1.6-0.3-3.2-0.8-4.9-0.9
	c-1.2-0.1-3-0.6-3.4,1.1c-0.3,1.4,1.3,1.6,2.3,2.1c1,0.5,1.9,1,3.5,1.7c-4.4,1.1-7.3-1.2-10.4-2.5c-2.3,1.1-2.2,1.1-2.5,3.3
	c-0.2,1.5,1.3,3.6-1.3,4.4c-0.7-1.1-1.2-2.4-2-3.4c-1.2-1.7-2.7-2.7-4.3-0.3c-3.3,4.6-5.8,1.5-7.6-1.1c-2.5-3.5-3.8-7.7-5-11.8
	c-1.3-4.6-2.8-9.2-5.6-13.2c-1.5-2.2-3.3-4.2-6.1-5c-1.1,2.2-1.5,4.4-1.5,6.7c0.4,1,0.9,2.1-0.9,2.1c-6.7-12.9-16.6-22.1-31.3-24.5
	c-9.8-1.6-19.6-1.4-28,5.3c-7.8,6.3-15.9,5.7-23.9,0.4c-4-2.6-7.7-5.6-11.9-8.8c3.5-0.7,5.8,0.9,8.2,1.8c5,1.8,9.6,1.8,14.1-1.6
	c7.8-6,17.2-6.6,26.5-7.2c12.7-0.8,25.1,1.6,37.4,4.6c1.5,0.4,2.8,0.5,3.1,2.5c0.3,1.8,1.7,2.9,3.4,3.4c4.1,1.2,7.7,2.5,8.4,7.8
	c0.3,2.6,3.6,3.1,6.1,3.3c1.8,0.1,3.5,0,6.1,0c-4.8,3.6-0.4,6.9-0.8,10.2c-0.2,1.6,3.1,0.6,4.8,0.8c1.4,0.2,3.6-0.5,4,1.2
	c0.5,2-1.9,2-3.1,2.4c-2.8,1-1.9,2.2-0.4,3.4c3.1,2.5,11.4,2.4,14.7-0.3c1.9-1.5,1.5-2.7-0.4-3.8c-0.9-0.5-1.9-1.1-1.5-2.2
	c0.5-1.2,1.6-0.6,2.6-0.3c1.1,0.4,2.6,1,3.2-0.1c0.8-1.3-0.7-2.4-1.3-3.5c-0.5-0.5-0.8-1.3-0.4-1.8c3.3-3.4,0.9-5.3-1.9-7.1
	c-7.8-9.9-18.5-16.6-27.8-24.7c-1.5-1.3-3-2.6-4.3-4.1c-0.8-1-3.6-2.2,0.2-3.4c1.1-0.4,0.2-2.6-0.4-4.1
	C228.6,32.2,219.1,29,210,25.4c-1.4-0.6-3,0.4-3.1,1.6c-0.4,4.4-2.8,2.6-5.1,2.1c-1.6-0.3-4.8-3.1-4.2,2c0.2,1.4-1.5,0.8-2.4,0.7
	c-3.2-0.5-6.4-3.4-9.5,0.9c-0.9,1.3-3.3-0.5-4.9-1.4c-1.6-0.9-3.3-2.3-5.1-1.2c-2.3,1.4,1.6,2.9,0.1,4.9c-3.7-0.2-6.9-2.4-10.4-3.5
	c-4.7-1.4-9.4-3.6-13.1,2.4c-1.5,2.4-4.9,1-7.5,0.6c-4.1-0.5-8.7-2.8-10.7,3.4c-0.1,0.3-0.4,0.6-0.6,0.7c-2.6,1.6-13.1-1.2-14.7-3.9
	c-0.5-0.9-1.2-1.8-0.6-2.8c0.9-1.4,2.1-0.1,3.1,0.1c0.6,0.1,1.2,0.6,1.7,1c1.7,1.1,4.2,2.4,5.4,0.6c1.3-1.8-1.6-2.7-2.7-4
	c-0.7-0.9-1.2-1.9-1.9-3.2c3.1-1.1,5.4,1,7.9,1c1.1,0,2.6,0.9,3.1-0.5c0.5-1.4-1.1-1.7-2.1-2.1c-1.2-0.4-2.3-1-4.3-1.9
	c4.6-2.3,9-1.6,12.9-2.8c2.7-0.8,5.4-1.6,8.2-1.9c2.4-0.2,4.9-2.9,7.3,0.6c0.7,1,2.7-0.5,4.1-0.9c2.8-0.7,5.4-5.6,8.8,0
	c0.7,1.2,6.2,0.5,9.3-1c-0.6-2.9-4.4-2-4.9-5c2.1,0,4.2,0,6.3,0c1.2,0,3-0.5,2.4-1.7c-2.6-5.7,2.1-3.1,3.8-3.4
	c10.5-1.3,18.5,2.9,25.7,10.5c2.8,3,8.6,2.3,13.3,2.9c-0.4-3.9-3.5-5.2-5.8-7.2C219.7,12.1,220,11.6,221.1,11.9z"/>
<path d="M328.7,145.8c-4.2,1.9-7.7,5-12.7,6.2c0.4-7.7,8.1-7.5,11.9-11.7c-2.3-1.4-4.2-0.4-6.1,0.3c-2,0.7-4,1.6-6.1,1.9
	c-3.2,0.5-5.4-0.4-5.6-4.3c-0.3-5.6,0.6-10.8,4.9-14.6c2.3-2,2.7-4,1.8-6.6c-1.1-3.1,0-4.4,3.2-4.3c1.7,0,3.7,0.2,2.6-2.6
	c-0.6-1.7,0.4-2.3,1.7-1.9c7,2,10.5-2.4,13.6-7.4c0.9-1.4,1.6-2.9,2.6-4.3c1.8-2.4,3.6-5.2,5.8-0.2c1,2.4,2.8,1.6,4.6,0.8
	c3.9-1.6,7-4.4,10.6-6.5c2.2-1.3,4.3-2.4,6.6-2.8c1.2,1,0.4,1.8,0.1,2.4c-2.6,5-1.7,6.7,3.9,6.6c4-0.1,8.9,0.4,8.2-6.2
	c-0.2-1.7,1.1-1.7,2.3-1.9c3.8-0.5,6.7,1.3,9.5,3.6c1.9,1.6,3.8,3.2,6,4.5c4.8,2.7,6.7,1.7,7.5-3.8c2.1-0.7,2.9,3.3,5,1.5
	c1.7-1.5,0.7-3.8,1-5.7c0.2-1.4-1.1-3.8,1.7-3.8c2.3,0,2.2,2.2,2.2,3.8c0,5-0.2,10-0.4,15c-0.1,3.2,0.8,5.9,3.5,7.8
	c1.2,0.8,3.3,1.4,2.5,3.2c-0.9,2-2.5-0.3-3.8-0.1c-0.6,0.1-1.2-0.1-1.9-0.1c-0.2,2.6,7.8,4.8,0.1,6.8c-0.1,2.3,3.4,1.9,2.8,4.3
	c-1.2,1.8-4.6-1.8-5,1.9c-0.4,3.4,3.3,2,4.4,3.9c-4.7,7.4-12.1,12.6-17.3,19.7c-1.6,2.1-3.9,4.1-4.5,6.5
	c-2.4,9.3-9.3,14.7-16.1,20.4c-2.9,2.4-3.6,1.1-4.3-1.3c-0.4-1.6,0-3.2,0.7-4.8c7.7-17-4.3-30.6-19.2-33c-8.1-1.3-16.3-0.9-23.6,4
	C332.2,145,330.5,145.5,328.7,145.8z"/>
<path d="M123.1,265.7c7.5,4.4,15.1,8.8,23.1,13.4c0.1-8.1-0.7-15-4.6-21.7c-9.6-16.3-20.3-31.9-28-49.3c-4.5-10.2-7.5-20.9-8.7-32
	c-0.8-1.9-0.3-3,1.9-3.1c9.5,32.1,27.2,59.9,45.4,87.5c8.9,13.4,19.5,25.2,34.4,32.4c5.6,2.7,11.2,3.7,17.3,1.5
	c2-0.7,4.6-1.5,6.7-0.1c0.7,0.5,0.4,1.9-0.3,2.7c-1.8,2.1-4.1,1.8-6.4,1.4c-0.7-0.1-1.3-0.3-2-0.3c-1.9,0.1-5-1.1-5.3,1.1
	c-0.5,2.8,2.8,3.1,4.9,3.7c1.6,0.5,3.3,0.5,4.8,1c2.8,0.9,4.9,0.8,6.5-2.1c1.2-2.2,3.1-4,6.1-3.1c1.1,0.4,1.6,0.9,1.3,2.2
	c-0.7,2.8-2.2,4.6-5.2,5.4c-3,0.8-6,0-9.2,0.7c2.6,4.8,6.6,4.4,10.7,3.5c5.1-1.1,9.6-4.4,15.3-4.5c-0.5,4.4-5.2,6.4-5.5,10.6
	c-0.1,0.8-1.4,0.5-2.2,0.5c-10.2-0.9-20.3,0.6-30.4,1c-13.4,0.5-25.2-2.8-35.8-10.9c-16.8-12.8-34.8-23.8-52.1-35.9
	c-1.3-0.9-3-1.5-3.9-3.4c3.7,0,6.7,2,10,2.6c3.5,0.6,7.4,1.5,8.8-3.4C120.4,264.8,122.5,266.4,123.1,265.7z"/>
<path d="M240.2,377.5c-6,11.3-22.8,15.3-34.9,8.7c-2.6-1.4-5.2-3-7.5-4.8c-6.8-5.2-14-8.7-23-7.3c-3.5,0.5-6.4-1.2-9.2-3.1
	c-5.6-3.9-9.2-9.7-14.9-14.4c18.3-3.8,34.1,1.3,49.5,9c6.1,3,12,6.3,18.1,9.3C225,378.2,232.2,378.6,240.2,377.5z"/>
<path class="st4" d="M361.1,221c-0.6-1.6-1.1-4.4-3.4-3.1c-8.6,5.3-17.4,2.8-26.2,1.3c-11.3-1.9-13.6-4.7-15.1-17
	c5,1.1,9.8,2.6,15,0.3c2.1-0.9,2.1,1.9,2.4,3.3c2.1,8.2,4.1,9.9,12.3,10.1c0.2,0,0.3,0,0.5,0c4.7-0.6,6.3-7.3,11.9-5.9
	c0.3-3.1-1.3-5.1-3.9-6.1c-9.8-4-16.1-12-22.7-19.6c-2.5-2.9-3.6-6.7-4.8-10.3c-0.3-0.9-0.4-2.3,0.1-2.8c1-1,2-0.1,3,0.6
	c4.7,3.1,9.5,6,14.2,9.2c7.8,5.2,16.2,7.5,26.5,6c-9.5,8.5-7.4,19.2-7.9,29.4c-0.2,3.2-0.3,6.3-0.4,9.5
	C359.9,225.1,362.5,222.3,361.1,221z"/>
<path class="st4" d="M152,113c-3.9-0.5-3.3-3.6-3.2-6c0-4.3,1.7-8.5,1.3-12.9c-0.1-1.4,0.5-3.5-1.8-3.3c-2.5,0.1-2.7-1.5-2.9-3.1
	c-0.4-2.2,0-4.6,2.1-5.7c3.4-2,7.2-1.6,10.4,0.5c2.3,1.5,0.1,3.6-0.4,5.3c-0.9,3.4-2.4,6.7,2.4,9.2c0.4-5.4,2.8-4.4,5.5-1.8
	c5,4.7,9.9,9.4,14.9,14c6.5,5.8,14.2,8.3,22.9,7.9c2.8-0.1,5.7-0.6,8.2,1.2c1.2,0.8,2.2,2,1.9,3.3c-0.4,1.7-2.1,1.4-3.4,1.2
	c-3.3-0.6-6.5-1.3-9.7-2.1c-1.5-0.4-2.9-0.7-4.3,0c-0.6,0.3-1.8,0.2-1.8,1.4c0,1.1,0.9,1.3,1.6,1.7c2.3,1.3,5.6,0.8,7.7,4.2
	c-7.7,1.1-14-3-20.9-3.4c-0.6,1.2,1.3,2,0.2,3.3c-0.3,0-0.8,0.1-1.1,0c-4.1-1.8-5.8-5.7-8.1-9.2c-1.5-2.2-3.6-5.5-5.9-4.1
	c-3.3,2.2-0.1,4.9,1.5,7.1c1.3,1.8,2.6,3.7,2.9,6.9c-8.6-3.2-15.1-7.6-17.9-16.3c-0.6-0.8-0.4-1.8-0.6-2.7c-0.3-2.1,1.6-3.9,0.9-6.1
	c-0.9,0.6-0.7,1.4-0.8,2.2C152.8,107.9,153.9,110.7,152,113z"/>
<path d="M185.8,72c5.7-0.8,9.7,1.9,12.7,6.7c3.5,5.8,4.7,12.1,3.4,18.7c-1.5,7.7-9.3,11.8-17,9.1c-8.1-2.9-14.3-8.5-18.7-15.7
	c-3.7-6-1.1-12.3,6.1-15.7C176.4,73,180.8,71.8,185.8,72z"/>
<path class="st4" d="M334.3,144.2c3.6-0.6,7.2-1.1,10.8-1.7c6.3-1,10.6,1.6,13.5,7.1c2.9,5.6,3.4,11.5,1.7,17.4
	c-2,6.6-8.2,9.9-14.9,8.2c-7.9-1.9-13.6-6.8-17.3-13.9c-2.7-5.1-1.6-9.9,2-14.3C330.7,144.9,332.4,144.4,334.3,144.2z"/>
<path class="st5" d="M372,327.9c-0.8-6.2-5.5-1.6-8.1-2.9c31.9-9.8,56.5-31.4,82.6-50.7c9.9-7.3,19.7-14.8,31.3-19.3
	c1.1-0.5,1.3,0,1.2,1c-25.4,17.1-47,39.3-73.5,55C394.7,317.2,384,323.9,372,327.9z"/>
<path class="st4" d="M222.1,438c3.7-4.7,7-9.6,9.5-14.9c5-10.4,13.2-17.8,22.5-24.1c4.1-2.8,8-5.7,11.1-9.7c0.8-1.1,2-2.1,3.4-1.3
	c1.5,1,0,2.1-0.4,3c-5.9,12.3-10.9,25.1-21.3,34.7c-6.8,6.3-15.3,9.3-23.9,12.3C222.7,438.4,222.4,438.4,222.1,438z"/>
<path class="st5" d="M106.8,173c-1.3,0.6-1.8,1.7-1.9,3.1c-6.4-20.5-11-41.3-11.9-62.8c-0.6-12.1-1.6-24.3,0-36.4
	c1.3-9.4,3-18.7,9-26.5c2.1-2.7,4.1-5.5,8.6-6.4c-4.9,8.6-9.3,16.7-10.9,25.9c-0.6,3.4-1.3,6.9-1.5,10.3c-1,25.7-0.9,51.3,4.7,76.5
	C104.2,162.1,105.5,167.6,106.8,173z"/>
<path class="st6" d="M181.2,155.9c4.9-1.4,4.9-1.4,3.7-6.1c9,6.5,16.5,1.3,24.2-1.8c2.9-1.2,5.9-2.4,9.1-1.5c1,0.3,2.6,0.4,2.6,1.8
	c0,0.8-1,1.7-1.8,2.2c-6.6,4.6-14.3,5.9-21.9,7.5c-6.2,1.4-12.2,1.1-18.1-1.3C179.1,154.9,180.3,155.6,181.2,155.9z"/>
<path class="st7" d="M231.1,99.9c4.3,5.1,7.8,10.5,6.9,18.7c-7.8-4.8-5.3-12.9-8-18.7C230.4,99.5,230.8,99.5,231.1,99.9z"/>
<path class="st8" d="M264.8,79.1c0.7,0.4,1.4,0.9,2.1,1.1c4.1,1,4.4,1.5,1.6,4.8c-0.7,0.9-1.5,1.7-1.4,3c-2.9-1.4-6.1-2.5-7.9-5.8
	c2.9-1.1,4.7,2.5,7.6,1.6C266.9,81.9,264.9,80.8,264.8,79.1z"/>
<path class="st9" d="M293,75.8c-0.3-0.9-0.7-1.9-1-2.8c2.8-1.5,5.6-3,9.2-5C299.8,73.1,295.6,73.6,293,75.8z"/>
<path class="st10" d="M260.1,119c1.5-1.7,0.4-3.8,0.9-5.6c0.4-1.4-0.1-4.3,3-2.2c-4.4,2.4-1.4,6.1-1.5,9.2c-0.1,2.1,1,4.3-1.8,5.6
	C261.7,123.5,259.8,121.3,260.1,119z"/>
<path class="st11" d="M212.8,10.1c-3.2-0.3-6-1.5-8.6-3.5c4.6-2.8,7.3,1.8,10.8,2.5C214.9,11,213.8,10.5,212.8,10.1z"/>
<path class="st10" d="M291.1,67.3c-0.1-1-0.3-1.9-1.3-2.4c1.8-2.4,4.1-4.3,7-5.9C296.6,63.1,293.8,65.2,291.1,67.3z"/>
<path class="st12" d="M270.9,35c-1.3,0.5-2.5,1.9-3.9,0.2c2.4-2.9-3.1-3.8-1.5-6.6C268.4,29.8,269.8,32.3,270.9,35z"/>
<path class="st11" d="M255.7,20.7c-4,0.6-7-0.2-9.8,0.9C248.4,18.1,251.4,18.6,255.7,20.7z"/>
<path class="st13" d="M212.8,10.1c0.8-0.1,1.7-0.1,2.2-1c2.2,0.5,4.5,1,6.1,2.8c-0.4,0.4-0.8,0.8-1.2,1.2
	C217.5,12.1,215.2,11.1,212.8,10.1z"/>
<path class="st14" d="M479,255.9c-0.4-0.3-0.8-0.7-1.2-1c2.4-2,5-3.3,8.3-3l-0.1-0.1C484.1,254,481.7,255.2,479,255.9z"/>
<path class="st15" d="M300.2,332.1c-0.4-0.4-0.8-0.8-1.3-1.2c1.4-1.6,2.8-3.2,4.1-4.8c0.9-0.1,1.5,0,1,1.1
	C303.2,329.1,302.1,330.9,300.2,332.1z"/>
<path class="st16" d="M318.9,302.5c0.7-1.9,1.2-4,4.5-4.6c-1.4,2.4-1.4,4.8-4.2,5.2C318.9,303,318.8,302.8,318.9,302.5z"/>
<path class="st17" d="M153.9,109c0,1-0.1,2.1-0.1,3.1c-0.6,0.3-1.2,0.6-1.8,0.9c1.2-2.6-0.4-5.3,0.1-8
	C154.9,105.3,153.2,107.7,153.9,109z"/>
<path class="st18" d="M123.1,265.7c-0.1,1.4-1.9,0.3-2.2,1.5c-1.3-1.2-2-3-4.5-3.7C119.8,262.5,121.2,264.7,123.1,265.7z"/>
<path class="st19" d="M497,246.9c0,0.4,0,0.7,0,1.1c-1.8,1.1-3.8,1.9-5.9,2.2c-0.3-0.2-0.4-0.5-0.3-0.8c0.1-0.3,0.2-0.4,0.2-0.4
	C492.7,247.5,494.8,247.1,497,246.9z"/>
<path class="st20" d="M491,249c0,0.4,0,0.8,0.1,1.2c-1.5,1.1-3.1,2.2-5.1,1.6c0,0,0.1,0.1,0.1,0.1C486.8,249.3,489,249.4,491,249z"
	/>
<path class="st21" d="M304.1,327.2c-0.3-0.4-0.7-0.8-1-1.1c1-1.3,2-2.7,3-4c0.5-0.4,1-0.4,1.4,0.1
	C306.3,323.8,305.2,325.5,304.1,327.2z"/>
<path class="st22" d="M361.1,221c0.6,1.6,1.1,3.3,1.7,4.9c-0.1,0.6,0.1,1.4-0.2,1.7c-0.7,0.7-1.2,0-1.3-0.5
	C361.2,225.1,361.2,223,361.1,221z"/>
<path class="st23" d="M334.3,144.2c-1.4,0.9-2.9,1.9-4.3,2.8c-0.4-0.4-0.8-0.8-1.3-1.2c1.1-1.4,2.6-2.2,4.3-2.7
	C333.5,143.5,333.9,143.8,334.3,144.2z"/>
<path class="st6" d="M222.1,438c0.3,0,0.6,0,0.9,0c-0.1,2-1.6,2.8-3.1,3.7c-0.4-0.3-0.7-0.5-1.1-0.8C219.9,440,221,439,222.1,438z"
	/>
<path class="st24" d="M181.2,155.9c-0.7,0.3-1.4,0.6-2.2,0.9c-1.5-0.4-3-0.7-5.9-1.4C176.9,154.8,179.1,154.9,181.2,155.9z"/>
<path class="st25" d="M260.8,23.5c1.9,0.5,3.2,1.6,4.3,3.6C262.4,27.1,261.8,25.1,260.8,23.5z"/>
<path class="st26" d="M227.1,93c0.3-0.7,0.6-1.4,0.9-2.1c0.6,1.7,1.2,3.4,1.8,5.2c-0.2,0.4-0.3,1-0.9,1.1
	C227.8,96,227.5,94.5,227.1,93z"/>
<path class="st5" d="M316.1,307c0.2-2,1.5-3.3,2.9-4.5c0,0-0.1,0.5-0.1,0.5l0.4,0.2c0.2,1.8-0.6,3.1-2.2,3.9
	C316.8,307.4,316.4,307.4,316.1,307z"/>
<path class="st27" d="M281.2,51.4c-0.3-0.8-0.7-1.5-1-2.3c-0.1-1-0.7-2.7,0.7-2.8c1.7-0.2,1,1.5,1.1,2.5
	C282,49.6,282,50.7,281.2,51.4z"/>
<path class="st8" d="M316.1,307c0.4,0,0.7,0,1.1,0c-0.3,1.6-1.2,2.7-2.2,3.9c-0.9,0.1-1.5,0-1-1.1
	C314.4,308.7,314.7,307.5,316.1,307z"/>
<path class="st28" d="M307.5,322.2c-0.5,0-0.9-0.1-1.4-0.1c0.3-1.4,1-2.4,2.3-2.9c0.4-0.4,0.8-0.4,1.1,0
	C308.8,320.1,308.2,321.2,307.5,322.2z"/>
<path class="st29" d="M228.9,97.1c0.3-0.4,0.6-0.7,0.9-1.1c0.4,1.3,0.9,2.6,1.3,3.9c-0.3,0-0.7,0-1,0
	C229.7,99,229.3,98.1,228.9,97.1z"/>
<path class="st30" d="M309.5,319.1c-0.4,0-0.8,0-1.1,0c-0.1-1.4,0.4-2.3,1.8-2.8c0.2-0.1,0.7,0.2,0.7,0.4
	C311.1,317.9,310.1,318.4,309.5,319.1z"/>
<path class="st31" d="M313.9,309.9c0.3,0.4,0.7,0.7,1,1.1c-0.7,1-1.4,2-2.4,3.4C311.7,312,312.8,311,313.9,309.9z"/>
<path class="st32" d="M270.5,371.7c-2-0.2-2.8,2.4-4.8,1.1c-0.2-0.2-0.3-1.1-0.1-1.3C267,370.1,268.6,369.7,270.5,371.7z"/>
<path class="st0" d="M323.8,133.1c12.1-11.8,25-14.2,39.9-8.5c7.4,2.9,14.9,2.5,22-1.9c3.4-2.1,6.9-3.9,11-4.5
	c3.1-0.4,5.8,0.4,7.2,3.3c2.3,4.5,3.9,9.1,2.2,14.3c-1.3,4.1-2.7,4.8-6.4,2.5c-2.8-1.7-5-4.5-8.9-4.3c-0.4,3.5,2.1,4.5,4.5,5.4
	c4.3,1.7,4.2,4.6,2.4,8c-1.9,3.5-4.8,3.2-7.7,1.6c-2.6-1.5-5.1-3.4-6.7-5.9c-5.4-8.5-14.2-10.3-23-12c-10.9-2-21.8-1.6-32.5,1.5
	C326.8,132.9,325.6,132.9,323.8,133.1z"/>
<path class="st33" d="M153.9,109c-1.5-0.9-0.4-3-1.8-4c0.1-1,0-2,0.3-2.9c0.3-0.9,0.9-2.1,2-1.9c1.2,0.2,1.8,1.6,1.5,2.7
	C155.4,105,154.6,107,153.9,109z"/>
<path class="st34" d="M191.8,83c-0.1,1.2-0.5,2.3-2,2.1c-1.9-0.2-2-1.8-2.2-3.3c-0.1-1.1,0.1-2,1.5-1.9
	C190.9,80.1,191.4,81.5,191.8,83z"/>
<path class="st35" d="M346.9,148c2.3,0.1,3,1.9,3.1,3.7c0.1,2-1.6,2.4-3.1,2.1c-1.9-0.3-3.5-1.2-3.3-3.5
	C343.8,148.3,345.3,148.1,346.9,148z"/>
</svg>
