<?xml version="1.0" encoding="utf-8"?>
<!-- Generator: Adobe Illustrator 20.1.0, SVG Export Plug-In . SVG Version: 6.00 Build 0)  -->
<svg version="1.1" id="Слой_1" xmlns="http://www.w3.org/2000/svg" xmlns:xlink="http://www.w3.org/1999/xlink" x="0px" y="0px"
	 viewBox="0 0 114 118" style="enable-background:new 0 0 114 118;" xml:space="preserve">
<g>
	<path d="M49,110c-0.6-3.5,1.9-3.2,4.1-3.2c12,0,24,0.2,36-0.2c2.1-0.1,4.8-2,5.9-3.9c0.6-1.1-1.3-3.9-2.5-5.6
		c-0.6-0.9-2.3-1-3.6-2.7c1.3-0.4,2.6-1.1,4-1.2c3.1-0.3,5.2-1.6,5.2-4.8c0.1-3.5-2.1-5-5.3-5.3c-1.3-0.1-2.6-0.5-3.8-0.8
		c0-0.6,0-1.1,0.1-1.7c1.9-0.2,3.9-0.6,5.8-0.7c3.4-0.1,6.1-1.4,6.1-5.1c0-3.8-2.6-5-6-5.1c-2,0-3.9-0.4-5.8-0.7c0-0.7,0-1.3-0.1-2
		c2.1-0.2,4.2-0.6,6.2-0.7c3.9-0.1,8.5,0.3,8.4-5.2c-0.1-5.3-4.8-5-8.7-5c-6.8,0-13.6,0-21.4,0c0.8-2.1,1.5-3.3,1.8-4.6
		c1.8-6.9,3.8-13.7,5.2-20.6c0.6-3.2-0.9-6.1-4.7-6.3c-3.5-0.2-5,2.1-5.3,5.3c-1.3,15.3-9.9,23.7-25.1,26.6c0,6.6,0.1,13.3,0,19.9
		C45.3,87.7,45.1,98.8,45,110c-5,0-10,0-15,0c-0.2-1.6-0.7-3.3-0.7-4.9c-0.1-15.7,0.1-31.3-0.1-47c0-3.8,0.9-5.6,5.1-5.2
		c2.8,0.3,5.7,0.1,8.5,0.1c13.9-0.1,23.2-8.6,24.4-22.5c0.4-4.6,2.2-8,7-9.1c5.1-1.1,10.1,3,9.6,8.7c-0.7,7.5-2.4,14.9-3.8,22.9
		c4.7,0,10.1,0.2,15.5-0.1c5.2-0.3,9.1,1.3,11.6,6c0,1.7,0,3.3,0,5c-1.4,1.8-2.9,3.5-4.3,5.3c2.4,6.2,2.1,7.6-2.7,13.7
		c2.4,6.2,2.1,7.7-2.8,13.3c2.8,7,2,9.3-4.2,13.7C78.3,110,63.7,110,49,110z M33,56.5c0,17,0,33.3,0,49.9c3.2,0,6,0,8.9,0
		c0-16.8,0-33.2,0-49.9C38.9,56.5,36.1,56.5,33,56.5z"/>
	<path d="M93,8c0.6,1.7,1.6,3.4,1.6,5.1c0.2,11,0.1,22,0,33c0,1.2-0.5,2.4-0.8,3.6c-0.5,0-1,0.1-1.6,0.1c-0.4-1.7-1-3.3-1-5
		c-0.1-11,0-22,0-33.3c-24.1,0-47.9,0-72.2,0c0.6,4.9-0.2,9.3-6.6,10.8c7.3,1.7,6.7,6.8,6.6,11.8c-0.2,6.1,0,12.3,0,18.2
		c2.7,0.6,4.9,1.1,8,1.8c-7.3,4.1-11.1,2.2-11.1-4.4c0-4.8,0-9.7,0-14.5c0-8.6,0-8.6-8.9-11.4c0-1,0-2,0-3c4.6-1.8,10.2-2.6,9.1-9.8
		C15.9,10.3,17.3,9.1,18,8C43,8,68,8,93,8z"/>
	<path d="M83,103.1c0-14.4,0-28.7,0-43.6C86.2,62.4,86.7,98.4,83,103.1z"/>
</g>
</svg>
