<?xml version="1.0" encoding="utf-8"?>
<!-- Generator: Adobe Illustrator 20.1.0, SVG Export Plug-In . SVG Version: 6.00 Build 0)  -->
<svg version="1.1" id="Слой_1" xmlns="http://www.w3.org/2000/svg" xmlns:xlink="http://www.w3.org/1999/xlink" x="0px" y="0px"
	 viewBox="0 0 500 500" style="enable-background:new 0 0 500 500;" xml:space="preserve">
<style type="text/css">
	.st0{fill:#E64748;}
	.st1{fill:#F3F4F4;}
</style>
<path class="st0" d="M237.2,13.5c8.8,0,17.6,0,26.4,0c4.4,0.5,8.8,0.5,13.2,0.6c8.7,0.4,17.2,1.9,25.6,3.8
	c20.4,4.5,39.8,11.6,58.2,21.2c16.5,8.6,31.8,19.1,45.9,31.3c15.8,13.7,29.6,29.2,41.3,46.5c10.7,15.7,19.3,32.4,25.9,50.2
	c4.8,12.9,8.5,26.2,11,39.7c1.6,8.8,2.3,17.6,2.6,26.5c0.2,9.4,0.1,18.9,0.2,28.3c0.2,24.7-5,48.3-13.4,71.3
	c-7.1,19.3-16.6,37.4-28.4,54.3c-5.4,7.7-11.2,15-17.5,21.9c-11.8,13.1-24.7,24.8-39,35.1c-8.5,6.1-17.4,11.6-26.7,16.6
	c-18.2,9.7-37.3,16.9-57.3,21.6c-10.8,2.5-21.6,4.3-32.7,4.7c-11.7,0.4-23.3,0.3-35,0.3c-26.8,0-52.2-6.3-76.9-16.3
	c-23.5-9.5-45-22.6-64.3-39c-21.6-18.4-39.5-40-53.5-64.8c-12.4-21.9-21-45.2-26-69.9c-1.8-8.8-2.9-17.6-2.9-26.6
	c0-2.4,0.1-4.9-0.4-7.4c0-8.8,0-17.6,0-26.4c0.4-4,0.5-8.1,0.6-12.1c0.4-13.1,3.4-25.7,6.7-38.2c3.8-14.4,9.2-28.3,15.8-41.6
	c8.7-17.5,19.2-33.7,31.9-48.6c4.1-4.7,8.2-9.4,12.6-13.8c10.1-10.1,21-19.5,32.8-27.7c9.9-6.9,20.3-13.2,31.1-18.5
	c16.2-7.9,33.1-14,50.7-18.2c10.9-2.6,21.9-4.4,33.2-4.6C231.6,13.8,234.4,14,237.2,13.5z"/>
<path class="st1" d="M250.3,211.2c53.9,0,107.8,0,161.7,0c17.9,0,31,13.2,31,31c0,5.8,0,11.7,0,17.5c0,15.3-11.8,28.4-27,29.8
	c-2.1,0.2-4.3,0.3-6.5,0.3c-106.5,0-212.9,0-319.4,0c-11.7,0-21.2-4.2-27.7-14.2c-3.2-4.9-4.8-10.3-4.8-16.1
	c0.1-7.4-0.6-14.9,0.3-22.3c1.8-15,14.7-26.2,29.8-26.2C142,211.2,196.2,211.2,250.3,211.2z"/>
</svg>
