<?xml version="1.0" encoding="utf-8"?>
<!-- Generator: Adobe Illustrator 20.1.0, SVG Export Plug-In . SVG Version: 6.00 Build 0)  -->
<svg version="1.1" id="_x31_" xmlns="http://www.w3.org/2000/svg" xmlns:xlink="http://www.w3.org/1999/xlink" x="0px" y="0px"
	 viewBox="0 0 67.5 92.8" enable-background="new 0 0 67.5 92.8" xml:space="preserve">
<g>
	<path opacity="0.71" fill-rule="evenodd" clip-rule="evenodd" fill="#FDFCFC" d="M33.9,68l-0.4-0.4L33.9,68z"/>
	<path opacity="0.71" fill-rule="evenodd" clip-rule="evenodd" fill="#FDFCFC" d="M42.3,64.4l0.6-1.2L42.3,64.4z"/>
	<path opacity="0.7" fill-rule="evenodd" clip-rule="evenodd" d="M14.2,76.7c-0.2-0.9-0.3-2-0.5-2.9C13.2,72,6.5,66,5.4,60.9
		C4.5,57,10,49.5,12.6,47.4c3-2.4,1.4-1.5,2.7-4.5c2.2-5.3,11.2-7.3,11.5-9.3c0.1-0.9-0.6-1.7-0.7-2.6c-0.1-1,0.4-2.1,0.5-3.1
		c0.2-1.9-0.1-4.1,1.8-5.2c3.6-2.1,8.9-0.9,10.4,1.6c0.8,1.4,0.3,1.5,0,2.7c-0.3,0.9,0.1,2.2,0.1,3.2c2.3,0,4.2-0.2,6.1,1.2
		c2.5-1.2,3.9-0.8,6.5-1.2c-1-1.7-0.9-7.4-2.1-10.1c-0.9-2-5.8-2.3-5.9-6.8l0.2-0.2l0.5,0l0.2,0.2c0.1-1.4,0.3-0.6-0.6-2
		c-0.4-0.6-0.8-1.6-1.3-1.9c-1-0.6-3.6-0.7-5-1.5l-1.3-3.3l1.7-2.6c3.6,1.1,8.6,2.8,10.8,5.8l-2.1,2.5c1.2,0.9,1.3,0,3.1,1.6
		c1.3,1.1,1.4,1.1,2.4,2.6c2.3,3.7-0.6,3,2.8,7.3c1.4,1.9,3,4.1,3.9,6.2c0.8,1.8,1.9,6.5,1.8,8.2c-0.9,1.4-1.4,1-3,1.4
		c-5,1.5-5.4,2.1-11.4,2.2c-0.1,1.8-0.1,3.1-0.5,5c-0.4,1.7-1.2,2.7-1.5,4c-0.4,1.4-0.4,3-0.9,4.6c-0.8,2.4-0.7,2.1-0.6,4.7
		c1.9,1.6,1.6,2.9,1.3,5.3c0,0.2,0.3,0.3,0.6,0.8c0.4,0.8,0.1,0.9,0.7,1.6c1.1,1.3,1,1.1,1.9,2.6c3.7,0.2,19.9-1.9,16.4,4.3
		c-1.1,0.7-5.5,0.8-7.7,1.6c-4.4,1.7-4.1,2.2-5.7,4c-4.5,5.1-13.4,5-17,2.2c-1.5-1.2-4.5-3-6.4-2.9C21.8,78,15.9,83.1,14.2,76.7
		L14.2,76.7z M30.6,70.1c-31.5,0.4,22.7,2.5,32.5,1.3C65,66.8,34.3,70,30.6,70.1L30.6,70.1z M28,68.9c-2.9-1.8-3.5-1.4-5.2-4.7
		C21.7,67.1,25.5,69.4,28,68.9L28,68.9z M26.3,65.9c-2.4-1-2.5-1.8-2.8-3.4c-0.1-0.5-0.1-1-0.2-1.6C22.7,63.3,23.8,65.5,26.3,65.9
		L26.3,65.9z M42.1,61.5c-2.1,2.4-3,3.6-6.4,4.4c-3.2,0.8-5.6,0.6-8.9,0.5c-0.3,0.2,1,0.2,2.2,0.3C32.7,66.8,41.2,66.4,42.1,61.5
		L42.1,61.5z M21.1,53.3c-2.9,2.6-4.4,4-8.2,5.2c3.2,6.4,2.8,10.9,7,11.2c4.1-6.6,0.6-5.1,3.4-10.2L21.1,53.3L21.1,53.3z M37.7,27.1
		c-2.3-0.5-1.3,1.3-3.7,0.5c-1.9-0.6-3.9-2.7-4.6,0.6c-1.4,7.2,1.4,2.1,1.2,7.9c-1.4-0.7,0.4-1.2-1.8-2.8c0.2,2.5,1.5,3.7,3.5,4.9
		c3,1.8,3.2-1.7,4.4-3.3c-1.1-1.1,1.3-1,0.6-3.7c-0.8,0.3-0.4,0.1-0.9,1c-0.5-0.1-1.3,0.3-1.4,0.3c-0.2-0.2-0.2-1,0.1-1.8
		c1.6-0.3,1.5,0,2.6,0.1C38.1,29.4,37.9,28.3,37.7,27.1L37.7,27.1z M51.4,31.2c-3-0.6-6.4,2.1-8,2.2l0.9-1.7c-5,0-3.2,2.8-6.3,5
		c1.5,10.7-11.6,3.1-12.5,0.9c-1.3,0.1-2,0.2-3,1.1c-1.7,1.6-1.3,1.1-2.6,1.6c-1,0.5-2.4,1.9-3.2,3.7c-2,4.6-2.6,10.8-2.5,3.6
		C12.1,49,10.5,51,9,53.3c-2.4,3.8-1,5-0.7,9.1c-0.1,0.8-0.9-2.3-1.6-3.7c-0.7,3.8,2.5,7.5,4.8,10.3c-1.9-5.5,2.9,3.6,3,4
		c0.3,1.7,0.3,6.2,2.6,6.6c0.2,0,0.4,0.1,0.5-0.1c0-0.1,0-0.2-0.1-0.2c-0.1-0.4-0.6-0.4-0.7-0.7c-1.1-3.3,0.8,0.7,1.4,0.7
		c0.1,0,0.2,0,0.4-0.1l0.1-0.1l0-0.2l0-0.2l-0.1-0.2l0.1-0.1l0.2,0.3l0.3,0.2l0.4,0.1l0.3,0l0.2-0.1l0.1-0.1l0.1-0.2l0.1-0.1l0-0.2
		l-0.1-0.1c1.3,0.4,4-1.3,1.1-1.1c-0.7-1.5-1.8-2.4-1.3-4.2c1.4-0.1,4.5,2.8,5.1,1.3l0-0.2l-0.2-0.1c-1.9-0.9-3-2.5-4.6-3
		c-5.7-1.7-3.4-0.8-6.9-8.2c-4.1-8.8-0.9-2.7,4.6-9.6c-3.6-0.9-0.5-0.8,3.4-4.1c3.4,1.4,9.5,3.8,12.9,1.2c-3.3,0.5,0-0.2,0.4-4
		c0-1.7,1.5,0.8,0.1,3.7c-3.5,4.2-5.9,2.6-10.6,2.6c0.5,2.8,4.3,3.4,4.8,4.3c-1.4,0.8-2.4,0.1-3.7,0.4c-0.2,2.4,3.6,4.1,3.9,4.8
		c-1.9,0.3-2.7-0.8-4-0.8c-1.9,2.6,2.4,4.9,5.3,4.3c0.9-1.1,1-4,2.3-4.8c0,1.5-1.1,3.1-0.5,4.7c0.9,0.3,2.1,0,3.2-0.2l1.6-0.7
		c3.9-2,1.6-3.9,1.5-7c1.5,1,1.1,3.4,1.6,4.5c1.1-1.2,1-3.3,1-4.8c0-2.6,0.8-2.7,1-5l-1.2,0.2c0.6-1.4,1.4-2.2,1.4-3.9
		c-0.7,0.1-1.5,0.7-2.5,1c-5.5,1.4,1.6-1.7,2.9-12.8c0.5-0.5,0.7-2.5,1.7-2c0.4,4.9,4.4,1.5,7.1,1c-0.4,1.3-2.3,1.6-3.3,2.3
		c1.9,0.1,3.8-0.3,5.5-0.9c0.8-0.2,1.6-0.6,2.4-0.8c1.2-0.4,1.7-0.1,2.8-0.4c1.1-3.5-2.8-11.8-5.8-14c0.5,1.6,2.3,3.2,2.1,5.4
		c-1.9-1.8-1-4.9-4.8-5.7c-0.3,5.5,4.1,12.4,4.2,12.9C53.2,34.3,52.6,32.4,51.4,31.2L51.4,31.2z M51.1,18.1
		c-0.8-0.7-0.4-0.9-1.3-1.1c-0.4,1,1.2,5.1,2.3,4.3C53.2,20.5,51.9,19.4,51.1,18.1z M51.1,18.1l0.6,0.2l-0.8-2L51.1,18.1L51.1,18.1z
		 M50.8,16.3c-0.3-0.4,0.2-0.1-0.6-0.5c-0.1-0.1-0.6-0.1-0.9-0.2L49,16.7l0.6-0.6L50.8,16.3L50.8,16.3z M51.1,14.7
		c-0.8-0.5-1.5-0.4-2.7-0.4c-0.6,1.1-1.2,2.4-0.4,3.6c0-1.3-0.1-1.7,0.8-3.3L51.1,14.7L51.1,14.7z M44.9,12.8
		c-0.2,0.4-0.2,0.2-0.5,0.4l0.4,0.8L44.9,12.8L44.9,12.8z M50.4,13.1l-2.8-0.2c-0.7,1-1.6,2.7-0.7,3.8c-0.2-1.4,0.1-1.9,0.7-3.4
		L50.4,13.1L50.4,13.1z M46.5,11.5c-0.7,1.1-1.4,2.9-0.7,4.1c-0.2-1.5,0.1-2.2,0.8-3.7l2.8,0.2L46.5,11.5L46.5,11.5z M44.9,12.8
		c0.5-0.5,1-1.5,1.2-2C45.5,11,45.1,12,44.9,12.8L44.9,12.8z M45.4,10.4c-4.2-4.6-2.9-1.7-0.5,1L45.4,10.4L45.4,10.4z M39.7,4.8
		l-1.4,2.6c6.9,1.6,1.8-2.5,8.2,2.1l1.6-1.8L39.7,4.8z"/>
	<path opacity="0.71" fill-rule="evenodd" clip-rule="evenodd" d="M36.3,52.1c-0.2,3.9-3.4,3.8-2.5,2.4c1.7-0.2,1.9-1.7,2.3-3.2
		L36.3,52.1z"/>
	<path opacity="0.71" fill-rule="evenodd" clip-rule="evenodd" d="M20.3,78.2c-0.8-0.4-1.4-1.4-1.5-2.3c0.4,0.3,0.6,0.9,0.9,1.4
		C19.8,77.7,20,78,20.3,78.2z"/>
	<path opacity="0.71" fill-rule="evenodd" clip-rule="evenodd" d="M17.6,76.6c0.2,0.5,0.8,1.4,1,1.8c0,0,0.1,0.1,0.1,0.1
		c0,0.1,0,0.1-0.1,0.1C18.6,78.6,17.5,77.1,17.6,76.6z"/>
	<path opacity="0.71" fill-rule="evenodd" clip-rule="evenodd" fill="#232167" d="M18.5,78.3l-0.6-0.9L18.5,78.3z"/>
	<path opacity="0.71" fill-rule="evenodd" clip-rule="evenodd" fill="#232167" d="M17.3,78.9L16.7,78L17.3,78.9z"/>
	<path opacity="0.71" fill-rule="evenodd" clip-rule="evenodd" fill="#232167" d="M16.7,78l-0.4-0.6L16.7,78z"/>
	<path opacity="0.71" fill-rule="evenodd" clip-rule="evenodd" d="M37.1,55.3c-0.2,3.9-3.4,3.8-2.5,2.4c1.7-0.2,1.9-1.7,2.3-3.2
		L37.1,55.3z"/>
	<path opacity="0.71" fill-rule="evenodd" clip-rule="evenodd" d="M33,30.5l1.1-0.7c-0.1,1.5-0.3,0.4-0.4,1.6c0,0.1,0.1,1.2,0.1,1.2
		L33,31.4l-1.4,0.2C31,31,31.2,31,30.8,30.6c-0.5-0.5-0.4-0.2-1-0.6l2-0.5L33,30.5z"/>
	<path opacity="0.71" fill-rule="evenodd" clip-rule="evenodd" d="M34.4,35.1c-1.2-0.2-1.7-0.3-1.7-1.4l2.5,0.9L34.4,35.1z"/>
	<path opacity="0.71" fill-rule="evenodd" clip-rule="evenodd" d="M34.8,35.7c-0.8,0.4-1.4,0.3-2.1-0.2
		C33.7,35.3,33.9,35.3,34.8,35.7z"/>
	<path opacity="0.71" fill-rule="evenodd" clip-rule="evenodd" d="M34.3,36.6c-0.5,0.8-0.1,1.2-1.4,0.1
		C33.8,36.4,33.3,36.8,34.3,36.6z"/>
	<g>
		<g>
			<defs>
				<path id="SVGID_1_" d="M46.8,77.9c-0.5-0.1-0.2,0.3-0.9,0.1c-1.2-1.2,1.3-2.7,1.8-0.4c0.4,1.6-1.3,2.6-2.7,2.4
					c-1.4-0.3-2.2-1.3-2.5-2.6c-0.7-2.9,2.1-2.7,1.6-1.4c-0.5,0.6-0.7-0.1-1.1,0c-0.1,1.6,2.5,1.2,1.9-0.5c-0.7-1.9-5.4-0.4-2.7,3.3
					c0.6,0.9,1.7,1.5,2.8,1.7c3.7,0.7,5.1-2.9,3-4.2c-1.1-0.6-2.6-0.2-3,1C44.4,79.1,47,79.3,46.8,77.9z"/>
			</defs>
			<clipPath id="SVGID_2_">
				<use xlink:href="#SVGID_1_"  overflow="visible" opacity="0.71"/>
			</clipPath>
			
				<rect x="41.3" y="74.6" opacity="0.71" clip-path="url(#SVGID_2_)" fill-rule="evenodd" clip-rule="evenodd" fill="#FFFFFF" width="7.6" height="5.9"/>
		</g>
		<g>
			<defs>
				<path id="SVGID_3_" d="M46.8,77.9c-0.5-0.1-0.2,0.3-0.9,0.1c-1.2-1.2,1.3-2.7,1.8-0.4c0.4,1.6-1.3,2.6-2.7,2.4
					c-1.4-0.3-2.2-1.3-2.5-2.6c-0.7-2.9,2.1-2.7,1.6-1.4c-0.5,0.6-0.7-0.1-1.1,0c-0.1,1.6,2.5,1.2,1.9-0.5c-0.7-1.9-5.4-0.4-2.7,3.3
					c0.6,0.9,1.7,1.5,2.8,1.7c3.7,0.7,5.1-2.9,3-4.2c-1.1-0.6-2.6-0.2-3,1C44.4,79.1,47,79.3,46.8,77.9z"/>
			</defs>
			<clipPath id="SVGID_4_">
				<use xlink:href="#SVGID_3_"  overflow="visible" opacity="0.71"/>
			</clipPath>
			<g clip-path="url(#SVGID_4_)">
				<g>
					<defs>
						<rect id="SVGID_5_" x="-5.6" y="-4.6" width="101.4" height="164.4"/>
					</defs>
					<clipPath id="SVGID_6_">
						<use xlink:href="#SVGID_5_"  overflow="visible" opacity="0.71"/>
					</clipPath>
					<g transform="matrix(1 0 0 1 0 4.768372e-07)" clip-path="url(#SVGID_6_)">
						
							<image overflow="visible" width="3008" height="1671" xlink:href="78940712.jpg"  transform="matrix(4.800000e-03 5.200000e-02 -5.200000e-02 4.800000e-03 81.2602 -4.6106)">
						</image>
					</g>
				</g>
			</g>
		</g>
		<g>
			<defs>
				<path id="SVGID_7_" d="M39.3,76.3c-0.4,0.1-0.5,0.7-1.1,0.2c-0.7-1.2,1.9-1.9,1.8,1.1C40,79,39.4,80.2,38,80.7
					c-1.4,0.5-3.2-0.3-3.1-1.9c0.2-2.4,3-1.1,1.8,0.2c-0.5,0.1-0.4-0.1-0.9-0.1c0,1.5,2.6,0.8,1.8-0.9c-0.6-1.1-2.2-1.2-3.2-0.4
					c-0.9,0.8-0.8,2.4,0.1,3.2c1,0.9,2.4,0.8,3.6,0.3c2.8-1.1,3.6-4.4,2.3-5.5c-0.9-0.7-2.7-0.7-3,0.4C36.8,77.9,39.8,78,39.3,76.3z
					"/>
			</defs>
			<clipPath id="SVGID_8_">
				<use xlink:href="#SVGID_7_"  overflow="visible"/>
			</clipPath>
			
				<rect x="33.9" y="75.1" opacity="0.71" clip-path="url(#SVGID_8_)" fill-rule="evenodd" clip-rule="evenodd" fill="#FFFFFF" width="7.2" height="6.4"/>
		</g>
		<g>
			<defs>
				<path id="SVGID_9_" d="M39.3,76.3c-0.4,0.1-0.5,0.7-1.1,0.2c-0.7-1.2,1.9-1.9,1.8,1.1C40,79,39.4,80.2,38,80.7
					c-1.4,0.5-3.2-0.3-3.1-1.9c0.2-2.4,3-1.1,1.8,0.2c-0.5,0.1-0.4-0.1-0.9-0.1c0,1.5,2.6,0.8,1.8-0.9c-0.6-1.1-2.2-1.2-3.2-0.4
					c-0.9,0.8-0.8,2.4,0.1,3.2c1,0.9,2.4,0.8,3.6,0.3c2.8-1.1,3.6-4.4,2.3-5.5c-0.9-0.7-2.7-0.7-3,0.4C36.8,77.9,39.8,78,39.3,76.3z
					"/>
			</defs>
			<clipPath id="SVGID_10_">
				<use xlink:href="#SVGID_9_"  overflow="visible" opacity="0.71"/>
			</clipPath>
			<g clip-path="url(#SVGID_10_)">
				<g>
					<defs>
						<rect id="SVGID_11_" x="-13.2" y="-3.9" width="101.4" height="164.4"/>
					</defs>
					<clipPath id="SVGID_12_">
						<use xlink:href="#SVGID_11_"  overflow="visible" opacity="0.71"/>
					</clipPath>
					<g transform="matrix(1 0 0 1 0 -2.384186e-07)" clip-path="url(#SVGID_12_)">
						
							<image overflow="visible" width="3008" height="1671" xlink:href="78940716.jpg"  transform="matrix(4.800000e-03 5.200000e-02 -5.200000e-02 4.800000e-03 73.6575 -3.9125)">
						</image>
					</g>
				</g>
			</g>
		</g>
		<g>
			<defs>
				<path id="SVGID_13_" d="M40.7,73.1c0.8-0.2,0.9,0.9,0.2,1.1C40.6,74,40.5,73.5,40.7,73.1L40.7,73.1z M41.1,75.2
					c0.6-0.4,1.1-2.7-0.3-2.4C39.5,72.9,40.4,74.9,41.1,75.2z"/>
			</defs>
			<clipPath id="SVGID_14_">
				<use xlink:href="#SVGID_13_"  overflow="visible"/>
			</clipPath>
			
				<rect x="40.1" y="72.7" opacity="0.71" clip-path="url(#SVGID_14_)" fill-rule="evenodd" clip-rule="evenodd" fill="#FFFFFF" width="1.6" height="2.5"/>
		</g>
		<g>
			<defs>
				<path id="SVGID_15_" d="M40.7,73.1c0.8-0.2,0.9,0.9,0.2,1.1C40.6,74,40.5,73.5,40.7,73.1L40.7,73.1z M41.1,75.2
					c0.6-0.4,1.1-2.7-0.3-2.4C39.5,72.9,40.4,74.9,41.1,75.2z"/>
			</defs>
			<clipPath id="SVGID_16_">
				<use xlink:href="#SVGID_15_"  overflow="visible" opacity="0.71"/>
			</clipPath>
			<g clip-path="url(#SVGID_16_)">
				<g>
					<defs>
						<rect id="SVGID_17_" x="-9.7" y="-8.3" width="101.4" height="164.4"/>
					</defs>
					<clipPath id="SVGID_18_">
						<use xlink:href="#SVGID_17_"  overflow="visible" opacity="0.71"/>
					</clipPath>
					<g transform="matrix(1 0 0 1 -7.629395e-06 0)" clip-path="url(#SVGID_18_)">
						
							<image overflow="visible" width="3008" height="1671" xlink:href="78940711.jpg"  transform="matrix(4.800000e-03 5.200000e-02 -5.200000e-02 4.800000e-03 77.1221 -8.2541)">
						</image>
					</g>
				</g>
			</g>
		</g>
		<g>
			<defs>
				<path id="SVGID_19_" d="M41.4,78.7c-0.2,0.3-0.6,1.4,0.1,1.3C42.2,80,41.8,79,41.4,78.7z"/>
			</defs>
			<clipPath id="SVGID_20_">
				<use xlink:href="#SVGID_19_"  overflow="visible"/>
			</clipPath>
			
				<rect x="41" y="78.7" opacity="0.71" clip-path="url(#SVGID_20_)" fill-rule="evenodd" clip-rule="evenodd" fill="#FFFFFF" width="0.8" height="1.3"/>
		</g>
		<g>
			<defs>
				<path id="SVGID_21_" d="M41.4,78.7c-0.2,0.3-0.6,1.4,0.1,1.3C42.2,80,41.8,79,41.4,78.7z"/>
			</defs>
			<clipPath id="SVGID_22_">
				<use xlink:href="#SVGID_21_"  overflow="visible" opacity="0.71"/>
			</clipPath>
			<g clip-path="url(#SVGID_22_)">
				<g>
					<defs>
						<rect id="SVGID_23_" x="-9.2" y="-2.8" width="101.4" height="164.4"/>
					</defs>
					<clipPath id="SVGID_24_">
						<use xlink:href="#SVGID_23_"  overflow="visible" opacity="0.71"/>
					</clipPath>
					<g transform="matrix(1 0 0 1 0 0)" clip-path="url(#SVGID_24_)">
						
							<image overflow="visible" width="3008" height="1671" xlink:href="78940713.jpg"  transform="matrix(4.800000e-03 5.200000e-02 -5.200000e-02 4.800000e-03 77.5984 -2.7967)">
						</image>
					</g>
				</g>
			</g>
		</g>
	</g>
	<g>
		
			<polygon fill-rule="evenodd" clip-rule="evenodd" stroke="#000000" stroke-width="0.216" stroke-linejoin="bevel" stroke-miterlimit="22.9256" points="
			51.2,64.1 49.7,63.8 49.5,63.6 49.3,63.4 49.1,63.2 49,63 48.8,62.8 48.7,62.6 48.5,62.4 48.4,62.2 48.3,62 48.2,61.8 48.2,61.6 
			48.1,61.4 48,61.1 48,60.9 48,60.7 48,60.5 48,60.1 48,59.8 48,59.4 48.1,59.1 48.2,58.9 48.4,58.6 48.5,58.4 48.7,58.2 
			50.2,58.4 50,58.6 49.9,58.8 49.7,59.1 49.6,59.3 49.5,59.6 49.5,59.9 49.5,60.3 49.5,60.7 49.5,60.9 49.5,61.1 49.5,61.4 
			49.6,61.6 49.7,61.8 49.7,62 49.8,62.2 49.9,62.4 50,62.7 50.2,62.9 50.3,63.1 50.5,63.3 50.6,63.5 50.8,63.7 51,63.9 		"/>
		
			<polygon fill-rule="evenodd" clip-rule="evenodd" stroke="#000000" stroke-width="0.216" stroke-linejoin="bevel" stroke-miterlimit="22.9256" points="
			50.2,58.4 48.7,58.2 48.9,58.1 49.1,58 49.4,57.9 49.7,57.8 50,57.7 50.3,57.6 50.6,57.6 51,57.6 54.1,57.5 54.2,57.5 54.3,57.5 
			54.3,57.5 55.9,57.6 55.8,57.6 55.8,57.6 55.7,57.6 52.5,57.7 52.2,57.8 51.8,57.8 51.5,57.9 51.2,57.9 50.9,58 50.6,58.1 
			50.4,58.3 		"/>
		
			<polygon fill-rule="evenodd" clip-rule="evenodd" stroke="#000000" stroke-width="0.216" stroke-linejoin="bevel" stroke-miterlimit="22.9256" points="
			56.2,70.3 54.6,70 54.7,70.1 56.2,70.4 		"/>
		
			<polygon fill-rule="evenodd" clip-rule="evenodd" stroke="#000000" stroke-width="0.216" stroke-linejoin="bevel" stroke-miterlimit="22.9256" points="
			53.5,70.6 51.9,70.3 51.9,70.3 51.9,70.3 51.9,70.3 51.9,70.3 51.9,70.3 51.9,70.2 51.9,70.2 52,70.2 52,70.2 52.1,70.2 
			52.1,70.1 53.7,70.4 53.6,70.5 53.6,70.5 53.5,70.5 53.5,70.5 53.5,70.5 53.4,70.6 53.4,70.6 53.4,70.6 53.4,70.6 53.4,70.6 		"/>
		
			<polygon fill-rule="evenodd" clip-rule="evenodd" stroke="#000000" stroke-width="0.216" stroke-linejoin="bevel" stroke-miterlimit="22.9256" points="
			53.7,70.4 52.1,70.1 52.2,70.1 52.4,70 52.4,69.9 52.5,69.8 52.6,69.7 52.6,69.5 52.6,69.4 52.6,69.2 52.3,60.1 52.3,59.7 
			52.3,59.4 52.2,59.1 52.2,58.9 52.1,58.8 52,58.6 51.9,58.6 51.7,58.6 53.3,58.7 53.4,58.8 53.5,58.8 53.6,58.9 53.7,59.1 
			53.8,59.3 53.8,59.6 53.8,59.9 53.9,60.3 54.2,69.5 54.2,69.7 54.2,69.8 54.1,70 54.1,70.1 54,70.2 53.9,70.3 53.8,70.4 		"/>
		
			<polygon fill-rule="evenodd" clip-rule="evenodd" stroke="#000000" stroke-width="0.216" stroke-linejoin="bevel" stroke-miterlimit="22.9256" points="
			53.3,67.4 51.7,67.2 51.7,67.2 51.7,67.1 51.6,67.1 51.6,67.1 51.6,67.1 51.5,67 51.5,67 51.4,67 51.4,66.9 51.4,66.9 51.4,66.8 
			51.4,66.8 51.3,66.7 51.4,66.6 51.4,66.5 51.4,66.4 51.5,66.4 51.6,66.3 51.7,66.3 51.8,66.2 51.9,66.2 53.5,66.5 53.3,66.5 
			53.2,66.5 53.1,66.6 53,66.6 53,66.7 52.9,66.8 52.9,66.9 52.9,67 52.9,67 52.9,67.1 52.9,67.1 52.9,67.2 53,67.2 53,67.3 
			53,67.3 53.1,67.4 53.1,67.4 53.2,67.4 53.2,67.4 53.2,67.4 		"/>
		
			<polygon fill-rule="evenodd" clip-rule="evenodd" stroke="#000000" stroke-width="0.216" stroke-linejoin="bevel" stroke-miterlimit="22.9256" points="
			53.5,66.5 51.9,66.2 51.9,66.1 51.9,65.9 51.8,65.7 51.7,65.6 51.5,65.4 51.4,65.2 51.2,65 51,64.8 52.5,65.1 52.7,65.3 
			52.9,65.5 53.1,65.7 53.2,65.8 53.3,66 53.4,66.2 53.5,66.3 		"/>
		
			<polygon fill-rule="evenodd" clip-rule="evenodd" stroke="#000000" stroke-width="0.216" stroke-linejoin="bevel" stroke-miterlimit="22.9256" points="
			49.2,70.8 47.7,70.5 47.7,70.5 47.6,70.5 47.6,70.5 47.6,70.4 49.1,70.7 49.1,70.8 49.1,70.8 49.1,70.8 		"/>
		
			<polygon fill-rule="evenodd" clip-rule="evenodd" stroke="#000000" stroke-width="0.216" stroke-linejoin="bevel" stroke-miterlimit="22.9256" points="
			49.1,70.7 47.6,70.4 47.6,70.4 47.6,70.4 47.7,70.4 47.7,70.4 47.8,70.3 47.8,70.3 47.9,70.2 48,70.2 49.5,70.5 49.4,70.5 
			49.3,70.6 49.3,70.6 49.2,70.7 49.2,70.7 49.1,70.7 49.1,70.7 		"/>
		
			<polygon fill-rule="evenodd" clip-rule="evenodd" stroke="#000000" stroke-width="0.216" stroke-linejoin="bevel" stroke-miterlimit="22.9256" points="
			49.5,70.5 48,70.2 48.1,70.1 48.2,70.1 48.3,70 48.4,70 48.5,69.9 48.5,69.9 48.5,69.9 48.6,69.8 50.1,70.1 50,70.1 50,70.2 
			50,70.2 49.9,70.3 49.8,70.3 49.7,70.4 49.6,70.4 		"/>
		
			<polygon fill-rule="evenodd" clip-rule="evenodd" stroke="#000000" stroke-width="0.216" stroke-linejoin="bevel" stroke-miterlimit="22.9256" points="
			50.1,70.1 48.6,69.8 48.6,69.6 48.7,69.4 48.7,69.3 48.7,69.1 48.8,69 48.8,68.8 48.8,68.7 48.9,68.5 50.4,68.8 50.3,69 
			50.3,69.1 50.3,69.2 50.2,69.4 50.2,69.6 50.2,69.7 50.1,69.9 		"/>
		
			<polygon fill-rule="evenodd" clip-rule="evenodd" stroke="#000000" stroke-width="0.216" stroke-linejoin="bevel" stroke-miterlimit="22.9256" points="
			50.4,68.8 48.9,68.5 49.7,63.8 51.2,64.1 		"/>
	</g>
	<g>
		<defs>
			<path id="SVGID_25_" d="M51.2,64.1c-1.1-1-1.7-2.2-1.8-3.4c0-1,0.2-1.8,0.8-2.2c0.5-0.4,1.3-0.6,2.3-0.7l3.2-0.1
				c0.2,0,0.3,0,0.3,0.1c0,0.1-0.1,0.1-0.3,0.1c-0.3,0.1-0.5,0.4-0.5,0.9c0.1,3,0.2,6.5,0.4,10.6c0,0.5,0.2,0.8,0.6,0.9
				c0.2,0,0.3,0.1,0.3,0.1c0,0-0.1,0.1-0.3,0.1l-2.4,0.1c-0.2,0-0.3,0-0.3,0c0-0.1,0.1-0.1,0.2-0.2c0.4-0.1,0.5-0.4,0.5-1l-0.3-9.2
				c0-1-0.2-1.6-0.6-1.6l-1.2,0c-0.8,0-1.2,0.8-1.2,2.3c0,0.7,0.3,1.4,0.8,2.2c0.5,0.6,1,1.1,1.4,1.7c0.5,0.6,0.8,1.2,0.8,1.6
				c0,0.6-0.2,0.9-0.6,0.9c-0.1,0-0.2,0-0.3-0.1c-0.1-0.1-0.2-0.2-0.2-0.4c0-0.3,0.2-0.5,0.6-0.5c0-0.4-0.3-0.8-1-1.4l-0.9,5.6
				l-2.2,0.1c-0.2,0-0.2,0-0.3,0c0,0,0.1-0.1,0.4-0.2c0.3-0.2,0.5-0.3,0.5-0.4c0.1-0.5,0.2-0.9,0.3-1.3L51.2,64.1z"/>
		</defs>
		<clipPath id="SVGID_26_">
			<use xlink:href="#SVGID_25_"  overflow="visible"/>
		</clipPath>
		<rect x="47.6" y="57.5" clip-path="url(#SVGID_26_)" fill-rule="evenodd" clip-rule="evenodd" width="8.8" height="13.3"/>
	</g>
	<g>
		<defs>
			<path id="SVGID_27_" d="M51.2,64.1c-1.1-1-1.7-2.2-1.8-3.4c0-1,0.2-1.8,0.8-2.2c0.5-0.4,1.3-0.6,2.3-0.7l3.2-0.1
				c0.2,0,0.3,0,0.3,0.1c0,0.1-0.1,0.1-0.3,0.1c-0.3,0.1-0.5,0.4-0.5,0.9c0.1,3,0.2,6.5,0.4,10.6c0,0.5,0.2,0.8,0.6,0.9
				c0.2,0,0.3,0.1,0.3,0.1c0,0-0.1,0.1-0.3,0.1l-2.4,0.1c-0.2,0-0.3,0-0.3,0c0-0.1,0.1-0.1,0.2-0.2c0.4-0.1,0.5-0.4,0.5-1l-0.3-9.2
				c0-1-0.2-1.6-0.6-1.6l-1.2,0c-0.8,0-1.2,0.8-1.2,2.3c0,0.7,0.3,1.4,0.8,2.2c0.5,0.6,1,1.1,1.4,1.7c0.5,0.6,0.8,1.2,0.8,1.6
				c0,0.6-0.2,0.9-0.6,0.9c-0.1,0-0.2,0-0.3-0.1c-0.1-0.1-0.2-0.2-0.2-0.4c0-0.3,0.2-0.5,0.6-0.5c0-0.4-0.3-0.8-1-1.4l-0.9,5.6
				l-2.2,0.1c-0.2,0-0.2,0-0.3,0c0,0,0.1-0.1,0.4-0.2c0.3-0.2,0.5-0.3,0.5-0.4c0.1-0.5,0.2-0.9,0.3-1.3L51.2,64.1z"/>
		</defs>
		<clipPath id="SVGID_28_">
			<use xlink:href="#SVGID_27_"  overflow="visible"/>
		</clipPath>
		<g clip-path="url(#SVGID_28_)">
			<g>
				<defs>
					<rect id="SVGID_29_" x="-0.3" y="-48.4" width="127.8" height="220.9"/>
				</defs>
				<clipPath id="SVGID_30_">
					<use xlink:href="#SVGID_29_"  overflow="visible"/>
				</clipPath>
				<g clip-path="url(#SVGID_30_)">
					
						<image overflow="visible" width="3008" height="1671" xlink:href="78940710.jpg"  transform="matrix(2.400000e-03 7.210000e-02 -7.210000e-02 2.400000e-03 120.2174 -48.3626)">
					</image>
				</g>
			</g>
		</g>
	</g>
	<path fill-rule="evenodd" clip-rule="evenodd" fill="none" stroke="#000000" stroke-width="0.216" stroke-miterlimit="22.9256" d="
		M51.2,64.1c-1.1-1-1.7-2.2-1.8-3.4c0-1,0.2-1.8,0.8-2.2c0.5-0.4,1.3-0.6,2.3-0.7l3.2-0.1c0.2,0,0.3,0,0.3,0.1
		c0,0.1-0.1,0.1-0.3,0.1c-0.3,0.1-0.5,0.4-0.5,0.9c0.1,3,0.2,6.5,0.4,10.6c0,0.5,0.2,0.8,0.6,0.9c0.2,0,0.3,0.1,0.3,0.1
		c0,0-0.1,0.1-0.3,0.1l-2.4,0.1c-0.2,0-0.3,0-0.3,0c0-0.1,0.1-0.1,0.2-0.2c0.4-0.1,0.5-0.4,0.5-1l-0.3-9.2c0-1-0.2-1.6-0.6-1.6
		l-1.2,0c-0.8,0-1.2,0.8-1.2,2.3c0,0.7,0.3,1.4,0.8,2.2c0.5,0.6,1,1.1,1.4,1.7c0.5,0.6,0.8,1.2,0.8,1.6c0,0.6-0.2,0.9-0.6,0.9
		c-0.1,0-0.2,0-0.3-0.1c-0.1-0.1-0.2-0.2-0.2-0.4c0-0.3,0.2-0.5,0.6-0.5c0-0.4-0.3-0.8-1-1.4l-0.9,5.6l-2.2,0.1c-0.2,0-0.2,0-0.3,0
		c0,0,0.1-0.1,0.4-0.2c0.3-0.2,0.5-0.3,0.5-0.4c0.1-0.5,0.2-0.9,0.3-1.3L51.2,64.1z"/>
	
		<path opacity="0.7" fill-rule="evenodd" clip-rule="evenodd" stroke="#000000" stroke-width="0.5669" stroke-miterlimit="22.9256" d="
		M38.5,83.3c-1.6,0.2-1.7,0.4-1.8,0.7c-0.2,0.3-0.4,0.5-0.6,0.8c-0.2,0.2-0.4,0.4-0.5,0.5c-0.2,0.2-0.3,0.4-0.6,0.5
		c-0.2,0.2-0.5,0.3-0.8,0.4c-0.3,0.2-0.7,0.3-1,0.5c-0.3,0.2-0.7,0.3-1,0.4c-0.4,0.1-0.8,0.3-1.1,0.4c-0.4,0.1-0.7,0.2-1.1,0.3
		c-0.3,0.1-0.6,0.1-0.9,0.2c-0.2,0-0.3,0.1-0.4,0.6c-0.1,0.5-0.1,1.5,0,2c0,0.5,0.1,0.5,0.2,0.5c0.2,0,0.4,0,4.7,0
		c4.3,0,12.7,0.1,16.9,0.1c4.2,0,4.2-0.1,4.2-0.6c0-0.5,0-1.5,0-2c0-0.5-0.1-0.5-0.3-0.5c-0.2,0-0.5,0-0.8-0.1
		c-0.3,0-0.5-0.1-0.9-0.1c-0.4-0.1-0.9-0.2-1.3-0.4c-0.5-0.2-0.9-0.3-1.4-0.6c-0.5-0.2-0.9-0.5-1.3-0.8c-0.4-0.3-0.6-0.5-0.9-0.8
		c-0.2-0.3-0.4-0.5-0.6-0.8c-0.2-0.3-0.4-0.7-0.6-0.9c-0.1-0.3-0.2-0.5-1.8-0.6C43.3,82.9,40.1,83.1,38.5,83.3z"/>
	
		<path opacity="0.7" fill-rule="evenodd" clip-rule="evenodd" stroke="#000000" stroke-width="0.5669" stroke-miterlimit="22.9256" d="
		M12.8,73.8c0.3,1.2,0.6,3.6,0.7,4.7c0.1,1.2-0.1,1.1-1.9,0.7c-1.8-0.4-5.2-1.3-6.9-1.7C3,77,3,76.9,2.9,76.7
		c-0.1-0.2-0.1-0.7-0.1-0.9c0-0.3,0.1-0.4,1.6-0.8c1.6-0.5,4.7-1.3,6.3-1.8C12.4,72.7,12.6,72.6,12.8,73.8z"/>
</g>
</svg>
