<?xml version="1.0" encoding="utf-8"?>
<!-- Generator: Adobe Illustrator 20.1.0, SVG Export Plug-In . SVG Version: 6.00 Build 0)  -->
<svg version="1.1" id="_x31_" xmlns="http://www.w3.org/2000/svg" xmlns:xlink="http://www.w3.org/1999/xlink" x="0px" y="0px"
	 viewBox="0 0 65.2 91" style="enable-background:new 0 0 65.2 91;" xml:space="preserve">
<style type="text/css">
	.st0{opacity:0.71;fill-rule:evenodd;clip-rule:evenodd;fill:#FDFCFC;}
	.st1{opacity:0.7;fill-rule:evenodd;clip-rule:evenodd;}
	.st2{opacity:0.71;fill-rule:evenodd;clip-rule:evenodd;}
	.st3{opacity:0.71;fill-rule:evenodd;clip-rule:evenodd;fill:#232167;}
	.st4{opacity:0.71;clip-path:url(#SVGID_2_);fill-rule:evenodd;clip-rule:evenodd;fill:#FFFFFF;}
	.st5{clip-path:url(#SVGID_4_);}
	.st6{opacity:0.71;clip-path:url(#SVGID_8_);fill-rule:evenodd;clip-rule:evenodd;fill:#FFFFFF;}
	.st7{clip-path:url(#SVGID_10_);}
	.st8{opacity:0.71;clip-path:url(#SVGID_14_);fill-rule:evenodd;clip-rule:evenodd;fill:#FFFFFF;}
	.st9{clip-path:url(#SVGID_16_);}
	.st10{opacity:0.71;clip-path:url(#SVGID_20_);fill-rule:evenodd;clip-rule:evenodd;fill:#FFFFFF;}
	.st11{clip-path:url(#SVGID_22_);}
	.st12{fill-rule:evenodd;clip-rule:evenodd;stroke:#000000;stroke-width:0.216;stroke-linejoin:bevel;stroke-miterlimit:22.9256;}
	.st13{clip-path:url(#SVGID_26_);fill-rule:evenodd;clip-rule:evenodd;}
	.st14{clip-path:url(#SVGID_28_);}
	.st15{fill-rule:evenodd;clip-rule:evenodd;fill:none;stroke:#000000;stroke-width:0.216;stroke-miterlimit:22.9256;}
	.st16{opacity:0.7;fill-rule:evenodd;clip-rule:evenodd;stroke:#000000;stroke-width:0.5669;stroke-miterlimit:22.9256;}
</style>
<g>
	<path class="st0" d="M33.2,67.1l-0.4-0.4L33.2,67.1z"/>
	<path class="st0" d="M41.6,63.5l0.6-1.2L41.6,63.5z"/>
	<path class="st1" d="M13.5,75.8c-0.2-0.9-0.3-2-0.5-2.9c-0.4-1.8-7.1-7.8-8.3-12.9c-0.9-3.9,4.6-11.5,7.2-13.6
		c3-2.4,1.4-1.5,2.7-4.5c2.2-5.3,11.2-7.3,11.5-9.3c0.1-0.9-0.6-1.7-0.7-2.6c-0.1-1,0.4-2.1,0.5-3.1c0.2-1.9-0.1-4.1,1.8-5.2
		c3.6-2.1,8.9-0.9,10.4,1.6c0.8,1.4,0.3,1.5,0,2.7c-0.3,0.9,0.1,2.2,0.1,3.2c2.3,0,4.2-0.2,6.1,1.2c2.5-1.2,3.9-0.8,6.5-1.2
		c-1-1.7-0.9-7.4-2.1-10.1c-0.9-2-5.8-2.3-5.9-6.8L43,12l0.5,0l0.2,0.2c0.1-1.4,0.3-0.6-0.6-2c-0.4-0.6-0.8-1.6-1.3-1.9
		c-1-0.6-3.6-0.7-5-1.5l-1.3-3.3L37.2,1c3.6,1.1,8.6,2.8,10.8,5.8L46,9.3c1.2,0.9,1.3,0,3.1,1.6c1.3,1.1,1.4,1.1,2.4,2.6
		c2.3,3.7-0.6,3,2.8,7.3c1.4,1.9,3,4.1,3.9,6.2c0.8,1.8,1.9,6.5,1.8,8.2c-0.9,1.4-1.4,1-3,1.4c-5,1.5-5.4,2.1-11.4,2.2
		c-0.1,1.8-0.1,3.1-0.5,5c-0.4,1.7-1.2,2.7-1.5,4c-0.4,1.4-0.4,3-0.9,4.6c-0.8,2.4-0.7,2.1-0.6,4.7c1.9,1.6,1.6,2.9,1.3,5.3
		c0,0.2,0.3,0.3,0.6,0.8c0.4,0.8,0.1,0.9,0.7,1.6c1.1,1.3,1,1.1,1.9,2.6c3.7,0.2,19.9-1.9,16.4,4.3c-1.1,0.7-5.5,0.8-7.7,1.6
		c-4.4,1.7-4.1,2.2-5.7,4c-4.5,5.1-13.4,5-17,2.2c-1.5-1.2-4.5-3-6.4-2.9C21.1,77.1,15.2,82.2,13.5,75.8L13.5,75.8z M29.9,69.3
		c-31.5,0.4,22.7,2.5,32.5,1.3C64.3,65.9,33.6,69.1,29.9,69.3L29.9,69.3z M27.3,68c-2.9-1.8-3.5-1.4-5.2-4.7
		C21,66.2,24.8,68.5,27.3,68L27.3,68z M25.6,65c-2.4-1-2.5-1.8-2.8-3.4c-0.1-0.5-0.1-1-0.2-1.6C22,62.4,23.1,64.6,25.6,65L25.6,65z
		 M41.4,60.6c-2.1,2.4-3,3.6-6.4,4.4c-3.2,0.8-5.6,0.6-8.9,0.5c-0.3,0.2,1,0.2,2.2,0.3C32,65.9,40.5,65.6,41.4,60.6L41.4,60.6z
		 M20.3,52.5c-2.9,2.6-4.4,4-8.2,5.2c3.2,6.4,2.8,10.9,7,11.2c4.1-6.6,0.6-5.1,3.4-10.2L20.3,52.5L20.3,52.5z M37,26.2
		c-2.3-0.5-1.3,1.3-3.7,0.5c-1.9-0.6-3.9-2.7-4.6,0.6c-1.4,7.2,1.4,2.1,1.2,7.9c-1.4-0.7,0.4-1.2-1.8-2.8c0.2,2.5,1.5,3.7,3.5,4.9
		c3,1.8,3.2-1.7,4.4-3.3c-1.1-1.1,1.3-1,0.6-3.7c-0.8,0.3-0.4,0.1-0.9,1c-0.5-0.1-1.3,0.3-1.4,0.3c-0.2-0.2-0.2-1,0.1-1.8
		c1.6-0.3,1.5,0,2.6,0.1C37.4,28.5,37.2,27.4,37,26.2L37,26.2z M50.7,30.4c-3-0.6-6.4,2.1-8,2.2l0.9-1.7c-5,0-3.2,2.8-6.3,5
		c1.5,10.7-11.6,3.1-12.5,0.9c-1.3,0.1-2,0.2-3,1.1c-1.7,1.6-1.3,1.1-2.6,1.6c-1,0.5-2.4,1.9-3.2,3.7c-2,4.6-2.6,10.8-2.5,3.6
		c-2.2,1.5-3.7,3.4-5.2,5.8c-2.4,3.8-1,5-0.7,9.1c-0.1,0.8-0.9-2.3-1.6-3.7c-0.7,3.8,2.5,7.5,4.8,10.3c-1.9-5.5,2.9,3.6,3,4
		c0.3,1.7,0.3,6.2,2.6,6.6c0.2,0,0.4,0.1,0.5-0.1c0-0.1,0-0.2-0.1-0.2c-0.1-0.4-0.6-0.4-0.7-0.7c-1.1-3.3,0.8,0.7,1.4,0.7
		c0.1,0,0.2,0,0.4-0.1l0.1-0.1l0-0.2l0-0.2l-0.1-0.2l0.1-0.1l0.2,0.3l0.3,0.2l0.4,0.1l0.3,0l0.2-0.1l0.1-0.1l0.1-0.2l0.1-0.1l0-0.2
		l-0.1-0.1c1.3,0.4,4-1.3,1.1-1.1c-0.7-1.5-1.8-2.4-1.3-4.2c1.4-0.1,4.5,2.8,5.1,1.3l0-0.2L24.4,73c-1.9-0.9-3-2.5-4.6-3
		c-5.7-1.7-3.4-0.8-6.9-8.2c-4.1-8.8-0.9-2.7,4.6-9.6c-3.6-0.9-0.5-0.8,3.4-4.1c3.4,1.4,9.5,3.8,12.9,1.2c-3.3,0.5,0-0.2,0.4-4
		c0-1.7,1.5,0.8,0.1,3.7c-3.5,4.2-5.9,2.6-10.6,2.6c0.5,2.8,4.3,3.4,4.8,4.3c-1.4,0.8-2.4,0.1-3.7,0.4c-0.2,2.4,3.6,4.1,3.9,4.8
		c-1.9,0.3-2.7-0.8-4-0.8c-1.9,2.6,2.4,4.9,5.3,4.3c0.9-1.1,1-4,2.3-4.8c0,1.5-1.1,3.1-0.5,4.7c0.9,0.3,2.1,0,3.2-0.2l1.6-0.7
		c3.9-2,1.6-3.9,1.5-7c1.5,1,1.1,3.4,1.6,4.5c1.1-1.2,1-3.3,1-4.8c0-2.6,0.8-2.7,1-5l-1.2,0.2c0.6-1.4,1.4-2.2,1.4-3.9
		c-0.7,0.1-1.5,0.7-2.5,1c-5.5,1.4,1.6-1.7,2.9-12.8c0.5-0.5,0.7-2.5,1.7-2c0.4,4.9,4.4,1.5,7.1,1c-0.4,1.3-2.3,1.6-3.3,2.3
		c1.9,0.1,3.8-0.3,5.5-0.9c0.8-0.2,1.6-0.6,2.4-0.8c1.2-0.4,1.7-0.1,2.8-0.4c1.1-3.5-2.8-11.8-5.8-14c0.5,1.6,2.3,3.2,2.1,5.4
		c-1.9-1.8-1-4.9-4.8-5.7c-0.3,5.5,4.1,12.4,4.2,12.9C52.5,33.4,51.9,31.6,50.7,30.4L50.7,30.4z M50.4,17.2
		c-0.8-0.7-0.4-0.9-1.3-1.1c-0.4,1,1.2,5.1,2.3,4.3C52.5,19.6,51.2,18.6,50.4,17.2z M50.4,17.2l0.6,0.2l-0.8-2L50.4,17.2L50.4,17.2z
		 M50.1,15.4c-0.3-0.4,0.2-0.1-0.6-0.5c-0.1-0.1-0.6-0.1-0.9-0.2l-0.2,1.1l0.6-0.6L50.1,15.4L50.1,15.4z M50.4,13.8
		c-0.8-0.5-1.5-0.4-2.7-0.4c-0.6,1.1-1.2,2.4-0.4,3.6c0-1.3-0.1-1.7,0.8-3.3L50.4,13.8L50.4,13.8z M44.2,11.9
		c-0.2,0.4-0.2,0.2-0.5,0.4l0.4,0.8L44.2,11.9L44.2,11.9z M49.7,12.2L46.9,12c-0.7,1-1.6,2.7-0.7,3.8c-0.2-1.4,0.1-1.9,0.7-3.4
		L49.7,12.2L49.7,12.2z M45.8,10.6c-0.7,1.1-1.4,2.9-0.7,4.1c-0.2-1.5,0.1-2.2,0.8-3.7l2.8,0.2L45.8,10.6L45.8,10.6z M44.2,11.9
		c0.5-0.5,1-1.5,1.2-2C44.8,10.1,44.4,11.1,44.2,11.9L44.2,11.9z M44.7,9.5c-4.2-4.6-2.9-1.7-0.5,1L44.7,9.5L44.7,9.5z M39,3.9
		l-1.4,2.6c6.9,1.6,1.8-2.5,8.2,2.1l1.6-1.8L39,3.9z"/>
	<path class="st2" d="M35.6,51.2c-0.2,3.9-3.4,3.8-2.5,2.4c1.7-0.2,1.9-1.7,2.3-3.2L35.6,51.2z"/>
	<path class="st2" d="M19.6,77.4c-0.8-0.4-1.4-1.4-1.5-2.3c0.4,0.3,0.6,0.9,0.9,1.4C19.1,76.8,19.3,77.1,19.6,77.4z"/>
	<path class="st2" d="M16.9,75.7c0.2,0.5,0.8,1.4,1,1.8c0,0,0.1,0.1,0.1,0.1c0,0.1,0,0.1-0.1,0.1C17.9,77.7,16.8,76.2,16.9,75.7z"/>
	<path class="st3" d="M17.8,77.4l-0.6-0.9L17.8,77.4z"/>
	<path class="st3" d="M16.6,78L16,77.1L16.6,78z"/>
	<path class="st3" d="M16,77.1l-0.4-0.6L16,77.1z"/>
	<path class="st2" d="M36.4,54.5c-0.2,3.9-3.4,3.8-2.5,2.4c1.7-0.2,1.9-1.7,2.3-3.2L36.4,54.5z"/>
	<path class="st2" d="M32.3,29.6l1.1-0.7c-0.1,1.5-0.3,0.4-0.4,1.6c0,0.1,0.1,1.2,0.1,1.2l-0.7-1.2l-1.4,0.2
		c-0.6-0.6-0.4-0.7-0.8-1.1c-0.5-0.5-0.4-0.2-1-0.6l2-0.5L32.3,29.6z"/>
	<path class="st2" d="M33.7,34.2c-1.2-0.2-1.7-0.3-1.7-1.4l2.5,0.9L33.7,34.2z"/>
	<path class="st2" d="M34.1,34.8c-0.8,0.4-1.4,0.3-2.1-0.2C33,34.4,33.2,34.4,34.1,34.8z"/>
	<path class="st2" d="M33.6,35.7c-0.5,0.8-0.1,1.2-1.4,0.1C33.1,35.5,32.6,35.9,33.6,35.7z"/>
	<g>
		<g>
			<defs>
				<path id="SVGID_1_" d="M46.1,77c-0.5-0.1-0.2,0.3-0.9,0.1C44,76,46.5,74.4,47,76.7c0.4,1.6-1.3,2.6-2.7,2.4
					c-1.4-0.3-2.2-1.3-2.5-2.6c-0.7-2.9,2.1-2.7,1.6-1.4c-0.5,0.6-0.7-0.1-1.1,0c-0.1,1.6,2.5,1.2,1.9-0.5c-0.7-1.9-5.4-0.4-2.7,3.3
					c0.6,0.9,1.7,1.5,2.8,1.7c3.7,0.7,5.1-2.9,3-4.2c-1.1-0.6-2.6-0.2-3,1C43.7,78.2,46.3,78.4,46.1,77z"/>
			</defs>
			<clipPath id="SVGID_2_">
				<use xlink:href="#SVGID_1_"  style="overflow:visible;opacity:0.71;"/>
			</clipPath>
			<rect x="40.6" y="73.8" class="st4" width="7.6" height="5.9"/>
		</g>
		<g>
			<defs>
				<path id="SVGID_3_" d="M46.1,77c-0.5-0.1-0.2,0.3-0.9,0.1C44,76,46.5,74.4,47,76.7c0.4,1.6-1.3,2.6-2.7,2.4
					c-1.4-0.3-2.2-1.3-2.5-2.6c-0.7-2.9,2.1-2.7,1.6-1.4c-0.5,0.6-0.7-0.1-1.1,0c-0.1,1.6,2.5,1.2,1.9-0.5c-0.7-1.9-5.4-0.4-2.7,3.3
					c0.6,0.9,1.7,1.5,2.8,1.7c3.7,0.7,5.1-2.9,3-4.2c-1.1-0.6-2.6-0.2-3,1C43.7,78.2,46.3,78.4,46.1,77z"/>
			</defs>
			<clipPath id="SVGID_4_">
				<use xlink:href="#SVGID_3_"  style="overflow:visible;opacity:0.71;"/>
			</clipPath>
			<g class="st5">
				<g>
					<defs>
						<rect id="SVGID_5_" x="-6.3" y="-5.5" width="101.4" height="164.4"/>
					</defs>
					<clipPath id="SVGID_6_">
						<use xlink:href="#SVGID_5_"  style="overflow:visible;opacity:0.71;"/>
					</clipPath>
					<g transform="matrix(1 0 0 1 0 0)" style="clip-path:url(#SVGID_6_);">
						
							<image style="overflow:visible;" width="3008" height="1671" xlink:href="78940717.jpg"  transform="matrix(4.800000e-03 5.200000e-02 -5.200000e-02 4.800000e-03 80.5598 -5.4965)">
						</image>
					</g>
				</g>
			</g>
		</g>
		<g>
			<defs>
				<path id="SVGID_7_" d="M38.6,75.4c-0.4,0.1-0.5,0.7-1.1,0.2c-0.7-1.2,1.9-1.9,1.8,1.1c-0.1,1.4-0.7,2.6-2.1,3.1
					c-1.4,0.5-3.2-0.3-3.1-1.9c0.2-2.4,3-1.1,1.8,0.2c-0.5,0.1-0.4-0.1-0.9-0.1c0,1.5,2.6,0.8,1.8-0.9c-0.6-1.1-2.2-1.2-3.2-0.4
					c-0.9,0.8-0.8,2.4,0.1,3.2c1,0.9,2.4,0.8,3.6,0.3c2.8-1.1,3.6-4.4,2.3-5.5c-0.9-0.7-2.7-0.7-3,0.4C36.1,77,39.1,77.1,38.6,75.4z
					"/>
			</defs>
			<clipPath id="SVGID_8_">
				<use xlink:href="#SVGID_7_"  style="overflow:visible;"/>
			</clipPath>
			<rect x="33.2" y="74.2" class="st6" width="7.2" height="6.4"/>
		</g>
		<g>
			<defs>
				<path id="SVGID_9_" d="M38.6,75.4c-0.4,0.1-0.5,0.7-1.1,0.2c-0.7-1.2,1.9-1.9,1.8,1.1c-0.1,1.4-0.7,2.6-2.1,3.1
					c-1.4,0.5-3.2-0.3-3.1-1.9c0.2-2.4,3-1.1,1.8,0.2c-0.5,0.1-0.4-0.1-0.9-0.1c0,1.5,2.6,0.8,1.8-0.9c-0.6-1.1-2.2-1.2-3.2-0.4
					c-0.9,0.8-0.8,2.4,0.1,3.2c1,0.9,2.4,0.8,3.6,0.3c2.8-1.1,3.6-4.4,2.3-5.5c-0.9-0.7-2.7-0.7-3,0.4C36.1,77,39.1,77.1,38.6,75.4z
					"/>
			</defs>
			<clipPath id="SVGID_10_">
				<use xlink:href="#SVGID_9_"  style="overflow:visible;opacity:0.71;"/>
			</clipPath>
			<g class="st7">
				<g>
					<defs>
						<rect id="SVGID_11_" x="-13.9" y="-4.8" width="101.4" height="164.4"/>
					</defs>
					<clipPath id="SVGID_12_">
						<use xlink:href="#SVGID_11_"  style="overflow:visible;opacity:0.71;"/>
					</clipPath>
					<g transform="matrix(1 0 0 1 0 0)" style="clip-path:url(#SVGID_12_);">
						
							<image style="overflow:visible;" width="3008" height="1671" xlink:href="7894071C.jpg"  transform="matrix(4.800000e-03 5.200000e-02 -5.200000e-02 4.800000e-03 72.9571 -4.7985)">
						</image>
					</g>
				</g>
			</g>
		</g>
		<g>
			<defs>
				<path id="SVGID_13_" d="M40,72.3c0.8-0.2,0.9,0.9,0.2,1.1C39.9,73.1,39.8,72.7,40,72.3L40,72.3z M40.4,74.3
					c0.6-0.4,1.1-2.7-0.3-2.4C38.8,72,39.7,74,40.4,74.3z"/>
			</defs>
			<clipPath id="SVGID_14_">
				<use xlink:href="#SVGID_13_"  style="overflow:visible;"/>
			</clipPath>
			<rect x="39.4" y="71.8" class="st8" width="1.6" height="2.5"/>
		</g>
		<g>
			<defs>
				<path id="SVGID_15_" d="M40,72.3c0.8-0.2,0.9,0.9,0.2,1.1C39.9,73.1,39.8,72.7,40,72.3L40,72.3z M40.4,74.3
					c0.6-0.4,1.1-2.7-0.3-2.4C38.8,72,39.7,74,40.4,74.3z"/>
			</defs>
			<clipPath id="SVGID_16_">
				<use xlink:href="#SVGID_15_"  style="overflow:visible;opacity:0.71;"/>
			</clipPath>
			<g class="st9">
				<g>
					<defs>
						<rect id="SVGID_17_" x="-10.4" y="-9.1" width="101.4" height="164.4"/>
					</defs>
					<clipPath id="SVGID_18_">
						<use xlink:href="#SVGID_17_"  style="overflow:visible;opacity:0.71;"/>
					</clipPath>
					<g transform="matrix(1 0 0 1 0 0)" style="clip-path:url(#SVGID_18_);">
						
							<image style="overflow:visible;" width="3008" height="1671" xlink:href="7894071D.jpg"  transform="matrix(4.800000e-03 5.200000e-02 -5.200000e-02 4.800000e-03 76.4217 -9.14)">
						</image>
					</g>
				</g>
			</g>
		</g>
		<g>
			<defs>
				<path id="SVGID_19_" d="M40.7,77.8c-0.2,0.3-0.6,1.4,0.1,1.3C41.5,79.1,41.1,78.1,40.7,77.8z"/>
			</defs>
			<clipPath id="SVGID_20_">
				<use xlink:href="#SVGID_19_"  style="overflow:visible;"/>
			</clipPath>
			<rect x="40.3" y="77.8" class="st10" width="0.8" height="1.3"/>
		</g>
		<g>
			<defs>
				<path id="SVGID_21_" d="M40.7,77.8c-0.2,0.3-0.6,1.4,0.1,1.3C41.5,79.1,41.1,78.1,40.7,77.8z"/>
			</defs>
			<clipPath id="SVGID_22_">
				<use xlink:href="#SVGID_21_"  style="overflow:visible;opacity:0.71;"/>
			</clipPath>
			<g class="st11">
				<g>
					<defs>
						<rect id="SVGID_23_" x="-9.9" y="-3.7" width="101.4" height="164.4"/>
					</defs>
					<clipPath id="SVGID_24_">
						<use xlink:href="#SVGID_23_"  style="overflow:visible;opacity:0.71;"/>
					</clipPath>
					<g transform="matrix(1 0 0 1 0 0)" style="clip-path:url(#SVGID_24_);">
						
							<image style="overflow:visible;" width="3008" height="1671" xlink:href="7894071E.jpg"  transform="matrix(4.800000e-03 5.200000e-02 -5.200000e-02 4.800000e-03 76.898 -3.6826)">
						</image>
					</g>
				</g>
			</g>
		</g>
	</g>
	<g>
		<polygon class="st12" points="50.5,63.2 49,62.9 48.8,62.8 48.6,62.6 48.4,62.4 48.3,62.2 48.1,62 48,61.8 47.8,61.5 47.7,61.3 
			47.6,61.1 47.5,60.9 47.5,60.7 47.4,60.5 47.3,60.3 47.3,60 47.3,59.8 47.3,59.6 47.3,59.2 47.3,58.9 47.3,58.6 47.4,58.3 
			47.5,58 47.7,57.8 47.8,57.5 48,57.4 49.5,57.5 49.3,57.7 49.2,57.9 49,58.2 48.9,58.4 48.8,58.7 48.8,59.1 48.8,59.4 48.8,59.8 
			48.8,60 48.8,60.2 48.8,60.5 48.9,60.7 49,60.9 49,61.1 49.1,61.3 49.2,61.6 49.3,61.8 49.5,62 49.6,62.2 49.8,62.4 49.9,62.6 
			50.1,62.8 50.3,63 		"/>
		<polygon class="st12" points="49.5,57.5 48,57.4 48.2,57.2 48.4,57.1 48.7,57 49,56.9 49.3,56.8 49.6,56.7 49.9,56.7 50.3,56.7 
			53.4,56.6 53.5,56.6 53.6,56.6 53.6,56.6 55.2,56.8 55.1,56.8 55.1,56.7 55,56.8 51.8,56.9 51.5,56.9 51.1,56.9 50.8,57 
			50.5,57.1 50.2,57.1 49.9,57.3 49.7,57.4 		"/>
		<polygon class="st12" points="55.5,69.5 53.9,69.2 54,69.2 55.5,69.5 		"/>
		<polygon class="st12" points="52.8,69.7 51.2,69.4 51.2,69.4 51.2,69.4 51.2,69.4 51.2,69.4 51.2,69.4 51.2,69.4 51.2,69.3 
			51.3,69.3 51.3,69.3 51.4,69.3 51.4,69.2 53,69.5 52.9,69.6 52.9,69.6 52.8,69.6 52.8,69.6 52.8,69.6 52.7,69.7 52.7,69.7 
			52.7,69.7 52.7,69.7 52.7,69.7 		"/>
		<polygon class="st12" points="53,69.5 51.4,69.2 51.5,69.2 51.7,69.1 51.7,69 51.8,68.9 51.9,68.8 51.9,68.7 51.9,68.5 51.9,68.3 
			51.6,59.2 51.6,58.8 51.6,58.5 51.5,58.3 51.5,58 51.4,57.9 51.3,57.8 51.2,57.7 51,57.7 52.6,57.8 52.7,57.9 52.8,57.9 
			52.9,58.1 53,58.2 53.1,58.4 53.1,58.7 53.1,59 53.2,59.4 53.5,68.6 53.5,68.8 53.5,68.9 53.4,69.1 53.4,69.2 53.3,69.3 
			53.2,69.4 53.1,69.5 		"/>
		<polygon class="st12" points="52.6,66.5 51,66.3 51,66.3 51,66.3 50.9,66.2 50.9,66.2 50.9,66.2 50.8,66.2 50.8,66.1 50.7,66.1 
			50.7,66 50.7,66 50.7,65.9 50.7,65.9 50.6,65.8 50.7,65.7 50.7,65.6 50.7,65.5 50.8,65.5 50.9,65.4 51,65.4 51.1,65.3 51.2,65.3 
			52.8,65.6 52.6,65.6 52.5,65.6 52.4,65.7 52.3,65.7 52.3,65.8 52.2,65.9 52.2,66 52.2,66.1 52.2,66.1 52.2,66.2 52.2,66.2 
			52.2,66.3 52.3,66.3 52.3,66.4 52.3,66.4 52.4,66.5 52.4,66.5 52.5,66.5 52.5,66.5 52.5,66.5 		"/>
		<polygon class="st12" points="52.8,65.6 51.2,65.3 51.2,65.2 51.2,65 51.1,64.9 51,64.7 50.8,64.5 50.7,64.3 50.5,64.2 50.3,64 
			51.8,64.2 52,64.4 52.2,64.6 52.4,64.8 52.5,64.9 52.6,65.1 52.7,65.3 52.8,65.4 		"/>
		<polygon class="st12" points="48.5,69.9 47,69.6 46.9,69.6 46.9,69.6 46.9,69.6 46.9,69.6 48.4,69.9 48.4,69.9 48.4,69.9 
			48.4,69.9 		"/>
		<polygon class="st12" points="48.4,69.9 46.9,69.6 46.9,69.5 46.9,69.5 47,69.5 47,69.5 47.1,69.5 47.1,69.4 47.2,69.4 47.3,69.3 
			48.8,69.6 48.7,69.7 48.6,69.7 48.6,69.8 48.5,69.8 48.5,69.8 48.4,69.8 48.4,69.8 		"/>
		<polygon class="st12" points="48.8,69.6 47.3,69.3 47.4,69.3 47.5,69.2 47.6,69.1 47.7,69.1 47.8,69.1 47.8,69 47.8,69 47.9,68.9 
			49.4,69.2 49.3,69.3 49.3,69.3 49.3,69.3 49.2,69.4 49.1,69.4 49,69.5 48.9,69.6 		"/>
		<polygon class="st12" points="49.4,69.2 47.9,68.9 47.9,68.7 48,68.6 48,68.4 48,68.2 48.1,68.1 48.1,67.9 48.1,67.8 48.2,67.7 
			49.7,67.9 49.6,68.1 49.6,68.2 49.6,68.4 49.5,68.5 49.5,68.7 49.5,68.9 49.4,69 		"/>
		<polygon class="st12" points="49.7,67.9 48.2,67.7 49,62.9 50.5,63.2 		"/>
	</g>
	<g>
		<defs>
			<path id="SVGID_25_" d="M50.5,63.2c-1.1-1-1.7-2.2-1.8-3.4c0-1,0.2-1.8,0.8-2.2c0.5-0.4,1.3-0.6,2.3-0.7l3.2-0.1
				c0.2,0,0.3,0,0.3,0.1c0,0.1-0.1,0.1-0.3,0.1c-0.3,0.1-0.5,0.4-0.5,0.9c0.1,3,0.2,6.5,0.4,10.6c0,0.5,0.2,0.8,0.6,0.9
				c0.2,0,0.3,0.1,0.3,0.1c0,0-0.1,0.1-0.3,0.1L53,69.8c-0.2,0-0.3,0-0.3,0c0-0.1,0.1-0.1,0.2-0.2c0.4-0.1,0.5-0.4,0.5-1l-0.3-9.2
				c0-1-0.2-1.6-0.6-1.6l-1.2,0c-0.8,0-1.2,0.8-1.2,2.3c0,0.7,0.3,1.4,0.8,2.2c0.5,0.6,1,1.1,1.4,1.7c0.5,0.6,0.8,1.2,0.8,1.6
				c0,0.6-0.2,0.9-0.6,0.9c-0.1,0-0.2,0-0.3-0.1c-0.1-0.1-0.2-0.2-0.2-0.4c0-0.3,0.2-0.5,0.6-0.5c0-0.4-0.3-0.8-1-1.4l-0.9,5.6
				l-2.2,0.1c-0.2,0-0.2,0-0.3,0c0,0,0.1-0.1,0.4-0.2c0.3-0.2,0.5-0.3,0.5-0.4c0.1-0.5,0.2-0.9,0.3-1.3L50.5,63.2z"/>
		</defs>
		<clipPath id="SVGID_26_">
			<use xlink:href="#SVGID_25_"  style="overflow:visible;"/>
		</clipPath>
		<rect x="46.9" y="56.6" class="st13" width="8.8" height="13.3"/>
	</g>
	<g>
		<defs>
			<path id="SVGID_27_" d="M50.5,63.2c-1.1-1-1.7-2.2-1.8-3.4c0-1,0.2-1.8,0.8-2.2c0.5-0.4,1.3-0.6,2.3-0.7l3.2-0.1
				c0.2,0,0.3,0,0.3,0.1c0,0.1-0.1,0.1-0.3,0.1c-0.3,0.1-0.5,0.4-0.5,0.9c0.1,3,0.2,6.5,0.4,10.6c0,0.5,0.2,0.8,0.6,0.9
				c0.2,0,0.3,0.1,0.3,0.1c0,0-0.1,0.1-0.3,0.1L53,69.8c-0.2,0-0.3,0-0.3,0c0-0.1,0.1-0.1,0.2-0.2c0.4-0.1,0.5-0.4,0.5-1l-0.3-9.2
				c0-1-0.2-1.6-0.6-1.6l-1.2,0c-0.8,0-1.2,0.8-1.2,2.3c0,0.7,0.3,1.4,0.8,2.2c0.5,0.6,1,1.1,1.4,1.7c0.5,0.6,0.8,1.2,0.8,1.6
				c0,0.6-0.2,0.9-0.6,0.9c-0.1,0-0.2,0-0.3-0.1c-0.1-0.1-0.2-0.2-0.2-0.4c0-0.3,0.2-0.5,0.6-0.5c0-0.4-0.3-0.8-1-1.4l-0.9,5.6
				l-2.2,0.1c-0.2,0-0.2,0-0.3,0c0,0,0.1-0.1,0.4-0.2c0.3-0.2,0.5-0.3,0.5-0.4c0.1-0.5,0.2-0.9,0.3-1.3L50.5,63.2z"/>
		</defs>
		<clipPath id="SVGID_28_">
			<use xlink:href="#SVGID_27_"  style="overflow:visible;"/>
		</clipPath>
		<g class="st14">
			<g>
				<defs>
					<rect id="SVGID_29_" x="-1" y="-49.2" width="127.8" height="220.9"/>
				</defs>
				<clipPath id="SVGID_30_">
					<use xlink:href="#SVGID_29_"  style="overflow:visible;"/>
				</clipPath>
				<g style="clip-path:url(#SVGID_30_);">
					
						<image style="overflow:visible;" width="3008" height="1671" xlink:href="7894071F.jpg"  transform="matrix(2.400000e-03 7.210000e-02 -7.210000e-02 2.400000e-03 119.517 -49.2486)">
					</image>
				</g>
			</g>
		</g>
	</g>
	<path class="st15" d="M50.5,63.2c-1.1-1-1.7-2.2-1.8-3.4c0-1,0.2-1.8,0.8-2.2c0.5-0.4,1.3-0.6,2.3-0.7l3.2-0.1c0.2,0,0.3,0,0.3,0.1
		c0,0.1-0.1,0.1-0.3,0.1c-0.3,0.1-0.5,0.4-0.5,0.9c0.1,3,0.2,6.5,0.4,10.6c0,0.5,0.2,0.8,0.6,0.9c0.2,0,0.3,0.1,0.3,0.1
		c0,0-0.1,0.1-0.3,0.1L53,69.8c-0.2,0-0.3,0-0.3,0c0-0.1,0.1-0.1,0.2-0.2c0.4-0.1,0.5-0.4,0.5-1l-0.3-9.2c0-1-0.2-1.6-0.6-1.6
		l-1.2,0c-0.8,0-1.2,0.8-1.2,2.3c0,0.7,0.3,1.4,0.8,2.2c0.5,0.6,1,1.1,1.4,1.7c0.5,0.6,0.8,1.2,0.8,1.6c0,0.6-0.2,0.9-0.6,0.9
		c-0.1,0-0.2,0-0.3-0.1c-0.1-0.1-0.2-0.2-0.2-0.4c0-0.3,0.2-0.5,0.6-0.5c0-0.4-0.3-0.8-1-1.4l-0.9,5.6l-2.2,0.1c-0.2,0-0.2,0-0.3,0
		c0,0,0.1-0.1,0.4-0.2c0.3-0.2,0.5-0.3,0.5-0.4c0.1-0.5,0.2-0.9,0.3-1.3L50.5,63.2z"/>
	<path class="st16" d="M37.8,82.4c-1.6,0.2-1.7,0.4-1.8,0.7c-0.2,0.3-0.4,0.5-0.6,0.8c-0.2,0.2-0.4,0.4-0.5,0.5
		c-0.2,0.2-0.3,0.4-0.6,0.5c-0.2,0.2-0.5,0.3-0.8,0.4c-0.3,0.2-0.7,0.3-1,0.5c-0.3,0.2-0.7,0.3-1,0.4c-0.4,0.1-0.8,0.3-1.1,0.4
		c-0.4,0.1-0.7,0.2-1.1,0.3c-0.3,0.1-0.6,0.1-0.9,0.2c-0.2,0-0.3,0.1-0.4,0.6c-0.1,0.5-0.1,1.5,0,2c0,0.5,0.1,0.5,0.2,0.5
		c0.2,0,0.4,0,4.7,0c4.3,0,12.7,0.1,16.9,0.1c4.2,0,4.2-0.1,4.2-0.6c0-0.5,0-1.5,0-2c0-0.5-0.1-0.5-0.3-0.5c-0.2,0-0.5,0-0.8-0.1
		c-0.3,0-0.5-0.1-0.9-0.1c-0.4-0.1-0.9-0.2-1.3-0.4c-0.5-0.2-0.9-0.3-1.4-0.6c-0.5-0.2-0.9-0.5-1.3-0.8c-0.4-0.3-0.6-0.5-0.9-0.8
		c-0.2-0.3-0.4-0.5-0.6-0.8c-0.2-0.3-0.4-0.7-0.6-0.9c-0.1-0.3-0.2-0.5-1.8-0.6C42.6,82,39.4,82.2,37.8,82.4z"/>
	<path class="st16" d="M12.1,72.9c0.3,1.2,0.6,3.6,0.7,4.7c0.1,1.2-0.1,1.1-1.9,0.7c-1.8-0.4-5.2-1.3-6.9-1.7
		c-1.7-0.5-1.8-0.5-1.9-0.8c-0.1-0.2-0.1-0.7-0.1-0.9c0-0.3,0.1-0.4,1.6-0.8c1.6-0.5,4.7-1.3,6.3-1.8C11.7,71.8,11.9,71.7,12.1,72.9
		z"/>
</g>
</svg>
