<?xml version="1.0" encoding="utf-8"?>
<!-- Generator: Adobe Illustrator 20.1.0, SVG Export Plug-In . SVG Version: 6.00 Build 0)  -->
<svg version="1.1" id="Слой_1" xmlns="http://www.w3.org/2000/svg" xmlns:xlink="http://www.w3.org/1999/xlink" x="0px" y="0px"
	 viewBox="0 0 127 88" style="enable-background:new 0 0 127 88;" xml:space="preserve">
<path d="M13.5,37.5c2.2-1,4.1-1.7,4.3-5c0.1-1.6,3.4-4.2,5.2-4.1c5.7,0.3,11.8-2.5,17.2,1.7c0.4,0.3,1.3-0.1,1.9-0.3
	c9-2.1,17.7-4.8,24.1-12c0.6-0.7,2.1-1.4,2.9-1.1c0.8,0.3,1.5,1.7,1.6,2.7c0.3,1.6,0.1,3.3,0.1,5c0.1,4.5-0.7,8.9,3.8,12.5
	c3.1,2.4,2.9,7.3-0.2,9.8c-3.9,3.2-3.5,7-3.7,11.1c-0.1,3-0.9,6-1.3,9c-2.3-1.6-4.4-3.5-6.9-4.6c-6.6-3-13.2-6.1-20.1-8.3
	c-2.2-0.7-5.3,1.3-8.4,2.2c0.6,5.3,1,10.8,2,16.1c0.5,2.8-0.2,4.2-2.5,5.3c-1,0-2,0-3,0c-1.6-5.9-3.2-11.7-4.7-17.6
	c-0.6-2.5-1.3-4.4-4.5-4.9c-1.5-0.2-3.6-2.6-3.6-4.1c-0.1-3.2-2.3-3.5-4.2-4.4C13.5,43.5,13.5,40.5,13.5,37.5z"/>
<path d="M113.5,28.5c-5.6,0-11.2,0-16.8,0c-0.4-2.4-0.7-4-1.1-6.4c-5.7,1.7-7.8,7.5-12.7,10.2c-1.2-1.1-2.5-2.3-4.2-3.9
	c6.1-4.4,8.7-12.1,17.1-12.6c0.2-1.8,0.5-3.6,0.7-5.3c5.7,0,11.3,0,17,0C113.5,16.5,113.5,22.5,113.5,28.5z M102.6,16.8
	c-1.1,4.8,0.6,5.9,4.7,4.6c0-1.5,0-2.9,0-4.6C105.7,16.8,104.3,16.8,102.6,16.8z"/>
<path d="M113.5,72.5c-5.6,0-11.2,0-17,0c-0.2-1.6-0.5-3.1-0.7-4.8C87.4,67.5,85,59.6,79,55.3c1.5-1.6,2.7-2.9,4.1-4.4
	c3.9,3.7,7.7,7.2,12.2,11.4c0.6-3.1,1-4.8,1.4-6.8c5.6,0,11.2,0,16.8,0C113.5,61.2,113.5,66.8,113.5,72.5z M107.3,61.4
	c-1.9,0.2-3.3,0.3-5,0.4c0.1,1.7,0.2,3.1,0.3,4.7c1.7,0,3.1,0,4.8,0C107.3,64.8,107.3,63.4,107.3,61.4z"/>
<path d="M113.5,50.5c-5.6,0-11.2,0-17,0c-0.3-1.9-0.5-3.5-0.8-5.8c-4.7,0-9.4,0-14.3,0c0-2.2,0-3.8,0-6.1c4.8,0,9.5,0,14.2,0
	c0.4-2.2,0.6-3.8,1.1-6.2c5.6,0,11.2,0,16.8,0C113.5,38.5,113.5,44.5,113.5,50.5z M102.6,39.4c-1.1,5,0.8,5.8,4.6,4.6
	c0-1.5,0-2.9,0-4.6C105.6,39.4,104.2,39.4,102.6,39.4z"/>
</svg>
