<?xml version="1.0" encoding="utf-8"?>
<!-- Generator: Adobe Illustrator 20.1.0, SVG Export Plug-In . SVG Version: 6.00 Build 0)  -->
<svg version="1.1" id="Слой_1" xmlns="http://www.w3.org/2000/svg" xmlns:xlink="http://www.w3.org/1999/xlink" x="0px" y="0px"
	 viewBox="0 0 407 500" style="enable-background:new 0 0 407 500;" xml:space="preserve">
<style type="text/css">
	.st0{fill:#828282;}
	.st1{fill:#FEFEFE;}
	.st2{fill:#FBFBFB;}
	.st3{fill:#F9F9F9;}
	.st4{fill:#FAFAFA;}
	.st5{fill:#EDEDED;}
	.st6{fill:#F2F2F2;}
	.st7{fill:#E8E8E8;}
	.st8{fill:#DADADA;}
	.st9{fill:#E7E7E7;}
	.st10{fill:#E2E2E2;}
	.st11{fill:#EAEAEA;}
	.st12{fill:#272727;}
	.st13{fill:#EFEFEF;}
	.st14{fill:#191919;}
	.st15{fill:#ECECEC;}
	.st16{fill:#ABABAB;}
	.st17{fill:#252525;}
	.st18{fill:#9F9F9F;}
	.st19{fill:#C4C4C4;}
	.st20{fill:#030303;}
	.st21{fill:#0A0A0A;}
	.st22{fill:#0B0B0B;}
	.st23{fill:#282828;}
	.st24{fill:#C3C3C3;}
	.st25{fill:#2E2E2E;}
	.st26{fill:#0E0E0E;}
	.st27{fill:#111111;}
	.st28{fill:#141414;}
	.st29{fill:#121212;}
	.st30{fill:#1E1E1E;}
	.st31{fill:#D9D9D9;}
	.st32{fill:#F6F6F6;}
</style>
<path d="M9,432c0-1.3,0-2.7,0-4c1.1-3.8,4.1-3.7,7.2-3.2c-0.6-4.4,1.4-8.5-0.6-12.8c-1-2.3,1.5-4.7,3.4-6.2
	c9.6-8,17.6-17.7,27.6-25.3c6.5-4.9,11.1-12,18.3-16.1c0.9-0.5,1.2-1.6,1.4-2.6c4.1-18,16.7-28.1,32.9-34.4c3.9-1.5,4.6-3.5,4-7.2
	c-0.9-5.6-1.2-11.2,0.9-16.8c1.2-3.2,0.2-6.2-1.7-8.9c-2.9-4.1-6-8-8.9-12c-2.6-3.5-5.2-7.2-6.1-11.4c-1.4-7.2-6.7-9.9-12.4-12.3
	C57.4,251.6,48.7,239,48.7,220c0-4.3-0.3-8.7,0.9-12.9c0.6-2.1-0.1-3.9-1.3-5.6c-6-8.4-8.7-18-9.4-28.1c-0.5-7.5,2.3-14.4,6.9-20.4
	c3.4-4.3,3.5-4.4-1.2-7.6c-3.3-2.2-5.8-4.9-7-8.8c-2.2-7,0.1-12.4,6.8-15.3c5.8-2.5,10.1-6.4,12.7-12.1c2.1-4.7,1.5-6.8-3.1-9.4
	c-7-3.9-11.2-9.3-10.4-17.7c0.2-2.2,0.4-4.5,2.8-5.4c2.6-1,3.3,1.4,4.5,3c1.9,2.6,4.4,3.4,7.5,2.4c2.9-1,4.9-2.8,5.1-6.1
	c0.2-4.5,0.3-9,0.1-13.5c-0.3-6.2,1.1-11.9,4.3-17.2c10-16.8,22.4-31,40.7-39c5.5-2.4,11.6-2.7,17.3-4.3c2.7,0,5.3,0,8,0
	c1.9,1.1,4,0.3,5.9,0.5c6.7,0.1,13.2,1.3,19.1,4.8c3.6,2.1,6.9,2.4,11.2,0.8c13.8-5.2,28.4-6.4,42.9-4.8c12.7,1.4,23.7,8,32,17.9
	c4.7,5.6,9.8,10.9,13.6,17.2c3.1,5,7.9,7.6,13.4,8.9c11.3,2.6,19.1,9,22.8,20.2c0.9,2.9,3.5,4.9,4.1,8c0.6,3.4,0.2,6.6-1,9.8
	c-1.8,4.6-1.3,8.7,2.7,12.2c2.8,2.4,4.9,5.5,7.1,8.3c5.9,7.5,6.1,16.2,5,25.2c-0.6,4.9-2,9.8,1.6,14.4c3.1,4.1,6.8,7,12.1,6.9
	c4-0.1,4.5,2,4.7,5.3c0.3,9.8-1.4,19.1-6.3,27.7c-1.7,3-1.5,6.1,0.2,9.1c2.2,3.6,2.3,7.2,0.2,10.9c-1.9,3.3-1.4,6.2,1.2,9.1
	c3.1,3.5,5.6,7.5,8.9,10.8c8.6,8.8,10.5,31.2,2,42.6c-2.8,3.8-2.4,6.8,0.5,10.2c3.3,4,6.9,7.7,10.1,11.7c8.8,11.1,5.9,27.7-6.9,34.5
	c3,3,6.4,5.3,9.8,7.6c15.2,10.3,29.3,22,43.6,33.5c1.6,1.3,2.7,2.9,3.7,4.7c0,3.3,0,6.7,0,10c-2.9,2.2-5.7,1-8.4-0.5
	c-3.3-1.9-6.4-4.1-9.9-5.8c1.6,1.8,2.2,3.7,0.3,5.6c-2.4,2.3-5.3,3.4-8.7,2.2c-2.5-0.9-4.9-3.1-8.2-1c1.6,2,3.9,3.1,5.4,5.1
	c3.8,4.9,1.9,9.6-4.2,10.5c-3.1,0.5-5.9-0.6-8.7-1.9c-4.8-2.2-9.5-4.8-14.4-7c4.4,2.8,8.6,5.6,12.6,8.8c3,2.4,3.8,5.3,2.7,8.9
	c-1.1,3.4-3.6,4.6-7,4.2c-0.3,1.4,0.9,2.1,1.1,3.2c1.1,5.4-2.7,9.4-8,7.9c-5.3-1.6-10.2-4-15.1-6.6c-5.3-2.9-11-5-14.9-7.2
	c2.5,1.1,6.1,3.4,9.5,6.1c2.2,1.7,3.3,3.8,2,6.5c-1.3,2.7-3.1,4.7-6.5,4.4c-3.6-0.3-6.8-1.7-9.8-3.4c-3.9-2.2-7.9-4.3-11.8-6.5
	c-3.4-1.9-6.6-4.4-10.9-1.6c-2.1,1.3-4.9,0-8-1.3c3.3,2.7,5.9,4.9,8.1,7.5c1.9,2.2,2.7,4.8,0.9,7.3c-1.9,2.6-4.7,3.3-7.5,1.5
	c-2.3-1.4-4.1-1.3-6.5-0.3c-2.8,1.2-5.9,0.6-8.7-0.6c-2-0.9-3.6-1.3-5,1.1c-1.4,2.3-3.6,1.8-5.7,0.7c-5-2.6-9.9-5.4-14.3-8.9
	c7.7,9.2,16.5,17.3,24.8,25.9c1.8,1.8,4.7,3.5,3,6.7c-1.5,3-4.1,4.8-7.8,4.3c1.6,2.4,5.1,4.2,2.2,7.6c-2.8,3.3-6,2.1-8.9,0
	c-2.6-1.8-5.4-3.3-7.9-5.3c-2.1-1.7-4.2-3.1-7.2-2.7c-1.7,0.2-3.2-0.8-4.6-1.7c-2.8-1.7-5.2-4.4-8.7-2.8c2.4,2.5,5.3,5.1,8,8.1
	c2.5,2.8,4,5.8,1.6,9.4c-0.5,0.7-0.5,1.6-0.7,2.4c-1.1,6.8-1.7,7.1-8.7,7.1c-3.1,0-6,1.7-8.2,3.6c-2.4,2-1.4,4.6,0.5,7
	c3.6,4.5,3.2,6.3-1.6,9.6c-1,0-2,0-3,0c-4.2-1.4-7.7-4-10.9-6.8c-3.5-3.1-7.3-4.5-11.7-3.3c-4.6,1.3-7.7-0.6-10.5-3.9
	c-5-5.8-10.1-11.4-16.1-16.3c-3.6-3-8.3-3.3-11.9-6.2c-0.4-0.3-1-0.4-1.4-0.1c-4.6,2.8-8.9,1.6-13.1-1.1c-1.5-1-1.8,0.2-2.4,1.3
	c-3.4,6-4.5,6.3-10.7,3.4c-4.9-2.3-9.4-5.1-13.9-8.8c2.5,3.4,2.4,6.4-0.1,9c-2.7,2.7-5.8,2.1-8.7,0.1c-9.6-6.6-19.3-13.1-28.5-20.3
	c-1.4-1.1-2.7-2.4-5.5-3c2.6,3,3,5.7,0.6,8.3c-2.5,2.6-5.4,2-8.3,0.8c-0.6-0.3-1.1-0.8-1.8-0.7c-9.7,0.8-9.7,0.8-14.9-1.7
	c0.3,8.5-6.3,13.7-14.3,10.5c-7-2.7-13.6-6.4-17.7-13.2c0-1.3,0-2.7,0-4c2.2-3.2,4.5-0.7,7,0C12.6,439.2,10.2,436,9,432z"/>
<path class="st0" d="M140,2c0,0.3,0,0.6,0.1,0.9c-2-0.2-4.3,1.1-6.1-0.9C136,2,138,2,140,2z"/>
<path class="st1" d="M145.8,192.3c0.9,9.7,0.9,9.8-8.2,7.1c-3-0.9-5,0.3-7.1,2.3c-4.8,4.7-8.5,4.9-13.2,0
	c-8.8-9.3-9.5-11.7-3.6-25.1c4.3-9.9,8-20.2,11-30.6c1.5-5.1-2.4-10.6-1.2-16.2c0-0.2-0.8-0.9-1-0.9c-0.6,0.2-1.1,0.6-1.5,1.1
	c-1.2,1.4-0.9,3.6-2.5,4.8c-6-4.8-12.2-9.5-18.1-14.5c-2.6-2.2-5.3-2.6-8.3-1.9c-2.5,0.5-4.9,0.9-7.9,0.4c5.4-9.5,4.6-20.5,7.9-30.4
	C97.8,71.2,107.8,56.9,125,50c7.7-3.1,15.6-5.6,23.4-8.8c7.2-2.9,14.9-1.5,21.4,2.6c10.8,6.8,22.7,11.2,34.4,16.1
	c13.2,5.6,24.2,13.9,33.3,25.1c4.5,5.6,8.4,11.4,11.8,17.7c1.1,2.1,1.1,2.2-1.3,3c-1.3,0.4-0.8,1.3-0.7,1.9c0.3,2,1,3.9,1.2,5.8
	c0.2,2.7,3.9,5.3,0,8.3c-0.4,0.3,2,3.9,2.5,6c0.5,2.2,4.2,5.6-1.7,6.3c-1,0.1-1,1.7-0.8,2.6c1.7,8.8,0.6,17.9,3,26.6
	c0.4,1.4,1.7,3.2-1.6,1.9c-2.3-0.9-1.5,1.4-1.6,2.5c-0.2,2.9,2.8,6.1-1.1,8.6c-0.4,0.2-0.2,1.6,0.1,2.4c1.2,4.2,1,8.6,1.6,13.5
	c3.1-3.2,2.4-7.9,5.6-10.6c2.1,2.9,1.3,6.5,2.5,9.6c0.4,1-0.1,2.5,1.6,2.6c1.4,0,1.9-1.1,2.4-2.2c0.7-1.6,1.5-3.2,2.5-5.2
	c3.5,4.2,0.7,7.5-0.7,11.6c4.1-1.7,6.2-4.4,8.4-7c2.9-3.5-2.8-6.6-0.6-10.2c5.5,4.6,7,9.5,3.5,15c-4.6,7.4-10,14.4-14.9,21.7
	c-1.5,2.3-3.6,1.1-5.4,1.4c-2.1,0.3-2.2-1.7-2.6-3c-0.5-1.7,0-4.4-1.9-4.7c-2.2-0.3-2.7,2.6-3.4,4.2c-8.5,18-20.9,33.1-34.4,47.4
	c-6.8,7.2-15.2,10.9-24.4,12.9c-9.9,2.1-18.9,6.3-27.9,10.7c-3.6,1.8-7.4,2.6-11.1,4c-4.4,1.7-7.7-1.9-10.7-4.9
	c-1.5-1.5-2.8-3.1-4.1-4.5c-2.6-0.1,0.1,2.8-3,3.4c-8,1.4-16.1,5.5-22.1-4c1.1-2,2.6,1.1,4.5-1.7c-1.8-1.4-3.9-2.9-5.8-4.6
	c-1.4-1.2-2.7-2.9-1.7-4.8c1-2,2.9-3.2,5.1-3.4c9.1-1.1,18.3-2.6,27.3,0.4c1.4,0.5,3.2,0,4.1-1.1c1-1.2-0.5-2.4-1-3.6
	c-0.4-1.1-1.2-2-1.8-3c-1.1-0.5-1.8-1.4-2.1-2.5c-0.1-0.5-0.2-0.6-0.3,0.1c0,0.5-0.2,0.9-0.6,1.1c-3.5-1.9-4.9-6.8-10.2-6.5
	c2.1-1.7,4-1.1,5.9-1.3c1-0.1,2.2-0.2,2.2-1.5c-0.1-1.2-1.1-1.6-2.2-1.2c-6.2,2-12.1-0.7-18-1.6c-2.7-0.4-4.4-1.9-5.2-4.4
	c1.5-1.1,2.4,0.1,3.5,0.9c0.8,0.6,1.4,0.9,2-0.1c1.5-2.4,1.5-2.5,4.4-1.2c2.8,1.2,5.4,1.6,8.4,0.2c5.1-2.3,10.6-2.3,16-2.3
	c5,0.1,9.9,0.1,14.9,0.2c3.1,0,5.5,0.5,5.7,4.5c0.1,2.4,1.5,4.3,4.6,4.6c-3.1-6.7,1.9-10.7,5.4-13.8c4-3.4,4.3-7.5,3.7-11
	c-0.2-1.4-1.7-3.9-2.1-7.8c-4.5,7.1-10.9,3.6-16.1,5.3c-1.4,0.4-0.9-1-1.3-1.6c-0.4-0.5-1.1-1.5-1.3-1.1c-1.6,4.1-5.3,1.7-7.8,2.9
	c-3,1.5-3.5-0.1-4.9-2.4c-0.8-1.3-5.2,3-5.7,1c-1.3-4.6-4.6-2.4-6.3-2.3c-2.9,0.2-4.3-1.3-5.1-3.1c-0.8-1.8-1.1-4.3,2-4.9
	c1.6-0.3,1.8-3.1,4.6-1.6c5.7,3,11.3,1.4,15.2-3.3c3.5-4.3,1.2-9.1-0.9-13.4C145.6,190.3,145.5,191.1,145.8,192.3z"/>
<path class="st1" d="M210,275c1.2,0,1.8-0.8,2.3-1.7c7.3-13.1,17.1-24.5,24.8-37.2c2.1-3.4,4.1-6.3,7.8-7.7
	c2.2,4.3,1.9,4.2-0.7,23.2c-1.1,8.3-5.7,14.6-11,22.1c5-2.1,7.4-5.1,10.1-7.9c1.3-1.5,2.9-2.7,4.2-4.2c0.9-1,1.9-1.1,2.3,0
	c2.1,6.5,9.4,8.5,12.2,14.6c2.2,4.8,2.3,8.1-1.4,11.7c-4.3,4.3-7.7,9.5-12.6,13.3c-0.8,1.3-1,2.3,1.1,1.9c2.8-0.9,4.3-3.8,8-6.1
	c-1.8,4-3.9,6-5.9,8c-12.4,12.2-27.6,20.1-43.5,26.7c-11.9,5-23.8,9.9-36.6,12.6c5-3.4,9.8-7,15.4-9.3c2.9-1.2,5.8-2.3,8.6-3.6
	c0.5-0.2,1.8-0.4,1.2-1.6c-0.5-0.8-1.2-0.9-2.1-0.5c-4.8,2.1-9.8,3.9-14.5,6.3c-6.5,3.3-13.5,5.2-20.4,7.2c-2,0.6-4.4,0.7-6.4,0.1
	c-13.8-3.8-26.2-10.5-38.3-19.4c14.1,0.1,25.9,7.7,39.3,8.5c-0.2-3.1-2-4.5-3.7-6.1c-1.5-1.5-2.9-3.2-4.3-4.8c2.5-2.8,7.4-0.9,9-5
	c-0.3-1-2.4-0.2-1.9-2c7.7-4.5,16.1-7.3,24.8-9.2c3.7-0.8,6-4,8.8-6.1c5.7-4.5,11.3-9.2,16.9-13.9c0.8-0.7,2.7-1.3,1.9-2.9
	c-1-1.8-1.8,0.9-2.8,0.4c-2.3-1.2-3.9,1.2-6.5,1c3.3-5.2,8.7-7.3,12.9-10.6C209.8,273.3,209.2,274.5,210,275z"/>
<path class="st1" d="M172.3,359.4c8-1.8,14.7,1.9,21.4,4.9c7.2,3.2,14.3,6.7,21.5,10c0.9,0.4,1.9,0.5,2.8,0.9
	c1.3,0.6,2.6,1.2,3.6-0.1c1.1-1.6-0.7-2.2-1.4-3.2c-0.5-0.8-1.9-0.8-1.8-2.5c2.8,0.5,5.1,1.8,7.3,3.3c1.1,0.7,2.2,1.5,3.4,2
	c2.9,1.2,8.5-1,9.5-3.6c0.8-2-0.3-3.1-5.2-5.3c2.9-0.7,2.9-0.7,6.2,0c1.4,0.3,3.1,1.3,4.3,0.8c2.2-0.9,5.5-1.4,5.7-4.1
	c0.2-2.4-2.7-2.9-4.8-3.4c-1.4-0.4-2.8-0.9-4.7-1.5c2.8-0.6,5.5-0.5,5-4c-0.2-1.8,0.9-1.8,2.2-1.5c1.5,0.3,2.9,0.6,4.4,0.9
	c2.3,0.5,4-0.4,4.9-2.4c1.1-2.5-1-3.1-2.6-3.8c-0.6-0.3-1.1-0.6-1.7-1c2.2-1.7,4.4,0.1,6.5-0.2c1.7-0.2,3.2-0.4,3.9-2.4
	c0.7-1.9-0.5-2.9-1.9-3.5c-1.5-0.7-2.1-1-0.7-2.6c2.2-2.3-1.6-2.7-1.7-4.5c1-0.8,2.3,0.5,2.9,0.1c2.2-1.6,6.4,3,7.8-2.4
	c0.1-0.5,5.8-2.3,9.2-1.1c1.2,0.4,2.3-0.1,2.6-1.5c0.3-1.5-0.2-2.4-1.8-2.9c-3.6-1.1-7.4-1.8-11.1-4.1c3.4-0.8,6.2-1.4,9.6-0.8
	c9.2,1.7,9.1,1.4,4.8,9.7c-8.1,15.8-18.9,29.9-29,44.4c-6.3,9.1-12.4,18.4-20.1,26.5c-1,1-3.1,2.6,0.7,2.8c1.2,0.1,0.4,0.9,0.1,1.2
	c-1.7,1.8-2.7,4.7-5.2,4.9c-1,0.1-2.5-2.6-3.3-4.3c-9.8-20.6-29.1-31.1-46.5-43.7c-0.9-0.6-2.1-0.9-3.2-1.2
	C174.8,359.7,173.6,360.9,172.3,359.4z"/>
<path class="st1" d="M119.4,370.8c-10.3,4-18.6,10.7-27.8,16.1c-8,4.7-16.7,6.5-25.9,5c-1.2-0.2-1.9-0.6-1.4-1.9
	c1.8-5,2.3-10.3,4.6-15.1c0.6-1.2,1.2-2.3,2.5-1.8c5.1,1.8,3.1-1.9,3-4.2c2.9,0.8,3.1,4.1,5.3,5.2c1.4,0.7,2.3,2.8,4.3,1.6
	c1.6-1,1-2.7,0.9-4.1c0-1-0.4-1.9-0.7-3.3c2.3,1.6,4.2,3.2,6.3,4.3c3.4,1.9,4.7,1,4.8-3.2c3,1.3,5.9,6.1,9.2,2.5
	c3.5-3.9-3.6-5.6-3.3-10.4C106.6,366.4,114.4,364.8,119.4,370.8z"/>
<path class="st1" d="M98.8,217.8c-16.6-12.2-15.6-31-19.5-49.1c8.3,2.8,15,6.3,22.7,6.7c1.3,0.1,2.5,1.1,1.4,3.2
	c-1.8,3.5-2.6,7.6-4.7,10.9c-4.8,7.5-3.2,15.1-1.2,22.8C97.9,214.1,98.3,215.9,98.8,217.8z"/>
<path class="st2" d="M149,232.7c-5.7,1.1-10.9-0.8-16.3-0.9c-2.6-0.1-4.9-0.1-7,1.3c-3.9,2.5-6.7,0.7-9.5-2.1
	c-1.7-1.7-0.8-2.8,0.5-4c1.8-1.6,2.4,0.5,2.8,1.2c2.1,3.6,3.9,4.7,5.9,0c1.2-2.7,5-1.5,5.5-1.3c5.6,2.3,11.9,1.4,17.2,4.5
	C148.5,231.5,148.7,232.1,149,232.7z"/>
<path class="st3" d="M113,142.1c-7.4-0.3-13.8-0.6-20.2,0.2c-2.2,0.3-3.9-0.9-4.3-2.6c-0.4-2,1.9-2.2,3.4-2.7
	C99.8,134.1,106.6,135.7,113,142.1z"/>
<path class="st4" d="M82.4,230.9c11.1,3.3,11.8,4.8,7.4,14.6C83.7,242.6,83.4,236.8,82.4,230.9z"/>
<path class="st2" d="M197.4,475.2c-4.3-0.5-7.7-1.2-8.2-4.9c-0.5-4.3,3.8-5,6.4-5.1c3.2-0.2,5,2.9,5.1,6
	C200.7,473.5,199.7,475.9,197.4,475.2z"/>
<path class="st2" d="M191.3,406.1c-2.7-0.4-5.2-1.8-5.2-5.1c-0.1-3.2,3.1-3.3,5.1-3.3c2.6,0,5.9,0.7,5.6,4.1
	C196.6,404,194.6,406.1,191.3,406.1z"/>
<path class="st5" d="M96,159c5.1-2.8,11.4-2.8,14.7,0.1c-5,1-9.7,2.7-14.6,0.6c-0.3-0.1-0.5-0.3-0.4-0.5C95.8,159.1,95.9,159,96,159
	z"/>
<path class="st6" d="M290.7,311.8c-6,0.5-15.7-1.1-19.2-3.2C276.6,307.5,286,309.1,290.7,311.8z"/>
<path class="st5" d="M185.2,416c3.3-0.5,5.8-0.8,8.3-1.2c0.9-0.2,1.7-0.3,1.9,0.7c0.2,1-0.6,1.4-1.5,1.5
	C191.3,417.2,188.5,420,185.2,416z"/>
<path class="st7" d="M106.9,166.8c-2.9,0.6-5.6,3.4-9,0.7c1.8-0.6,3.4-1.1,5-1.6C104.4,165.7,106.1,164.4,106.9,166.8z"/>
<path class="st8" d="M281.5,317.5c2.2-1.4,4.2-0.3,6.9-0.2C285.8,320.9,283.6,317.1,281.5,317.5z"/>
<path class="st9" d="M153,314.2c0.6,0.7,1.3,1.3,1.9,2c-2.6,0-5.1,0-7.7,0c0-0.3-0.1-0.5-0.1-0.8C149.1,315,151.1,314.6,153,314.2z"
	/>
<path class="st10" d="M119.6,215.1c0.4,1.6,1.9,2.3,1.4,3.8c-0.2,0.7-0.6,1.4-1.2,1.1c-1.1-0.5-1.8-1.5-1.5-2.7
	C118.4,216.5,119,215.9,119.6,215.1z"/>
<path class="st11" d="M94.3,153.7c-2.4-1.4-3.1-2.7-3.1-4.4c0-0.1,0.9-0.5,1.3-0.3C94.3,149.8,94.1,151.5,94.3,153.7z"/>
<path class="st12" d="M137.1,256c1.1,0.7,1.5,1.9,1.8,3.1c-2.5,2.9-2.5,0.2-3.1-1.3c0-0.6,0-1.1,0-1.7
	C136.2,255.6,136.7,255.6,137.1,256z"/>
<path class="st13" d="M176.2,409.8c-2.7-1.4-3.2-3.3-1.7-6.1C175.1,406,175.7,407.9,176.2,409.8z"/>
<path class="st14" d="M249.2,303.1c-0.8,0.9-1.6,2.8-2.8,1.5c-0.9-1,0.5-2.5,1.7-3.4C248.1,302,248.3,302.7,249.2,303.1z"/>
<path class="st15" d="M111.8,153.3c0,2-0.8,1.8-1.3,1.8c-1.3,0.2-1.7-0.5-1.5-1.7c0.1-0.6,0.2-1.4,1-1.2
	C110.9,152.5,111.6,153.2,111.8,153.3z"/>
<path class="st16" d="M106.9,166.8c-1.1-1.3-2.7-0.3-4-0.9c1.2-0.3,2.5-0.9,3.7-0.8C108.5,165.2,108.4,166,106.9,166.8z"/>
<path class="st17" d="M145.8,192.3c-0.6-1-1.3-2.1-2.4-3.9c2.2,0.4,3.1,1.2,3.7,2.5C146.7,191.4,146.3,191.8,145.8,192.3z"/>
<path class="st18" d="M96,159c0.2,0.2,0.2,0.5,0.1,0.8c-1.2-0.4-2.4-0.8-4-1.3C93.8,157.8,95,157.7,96,159z"/>
<path class="st19" d="M210,275c-1.4-0.2-0.9-1.4-1.1-2.2c0.6-0.3,0.8-2.7,1.7-0.3C210.8,272.9,209.7,273.9,210,275z"/>
<path d="M165,159c0.4,0.9,1.3,0.8,2.1,1.1c1,0.3,2.7,0.5,2.1,2c-0.7,1.8-1.9,0.3-2.8,0c-1-0.4-1.9-0.3-3,0.3c2,2.9,5.1,4,8,5.6
	c1.3,0.7,3.7,1.3,2.7,3.4c-0.8,1.5-3,0.5-4.1,0c-7.1-2.9-15.4-4.7-16.1-14.8c-0.1-1.2-1-2.2-2.2-3c-2.4-1.7-2.3-3.6-0.4-6.3
	c0.6-0.8-2-7-3.3-7.6c-2-0.9-4.1-1.4-5.9-2.5c-1.2-0.8-7.1-0.1-1.9-4c0.1-0.1,0-0.3,0.1-0.5c0.6-1.8-3.6-2.7-1.1-4.3
	c0.9-0.6,3.3,1.6,4.9,1.4c3.2-0.2,6.5-0.6,9.2-2.8c5.9-4.9,12.5-6.1,19.9-4c6.2,1.8,12.4,3.5,18.5,5.2c4.7,1.3,7.4,4.6,9.2,8.9
	l0.1-0.1c-6.2-3.7-13.4-4-20.2-5.8c-6.6-1.7-11.9,1.6-17.4,4.2c1,2,3.4,0.7,4.5,2.7c-4.8,3.2-10.3-1.8-15.2,1.2
	c5.4,2.9,11.1,3.2,16.7,3c9.8-0.4,19.2,0.8,26.9,7.6c2.1,1.8,4.6,0.3,6.6,1.5c-5.1,3.9-10.6,4.2-15.4,0.6c-1,3.8-2.9,6.9-7.1,6.8
	c-4.4-0.2-7.9-2.1-8.5-7.2c-0.2-1.3-0.2-3.7-2.7-3.4c-2,0.2-4.2,0.2-5.2,2.6c-0.9,1.9-0.9,3.2,1.5,4c1.6,0.5,3.5,0.8,4.7,2.4
	c-1.5,2-3.4,0.8-5.1,0.9c-0.6,0-1.2-0.1-1.8-0.2C163.8,158.2,164.5,158.4,165,159z"/>
<path class="st20" d="M170.7,216.7c-4-2-7-4.8-9.4-8.8c-3.7-6-8.3-11.6-12.5-17.2c-0.8-1-2.4-1.9-1.4-3.3c1.4-1.8,2.7,0.1,3.8,0.8
	c5.2,3.6,9.9,7.6,12.4,13.8c1.8,4.4,3.5,8.9,7.1,12.3C171.3,215,171.2,215.8,170.7,216.7z"/>
<path class="st21" d="M255.9,196.3c2.8,0.9,6.5,0.6,6.6,4.1c0,0.8-3.1,4.8-4.5,4.3C254.2,203.3,257.3,199.1,255.9,196.3z"/>
<path class="st22" d="M170.4,161.7c3.2-1.2,5.8-0.6,9-0.1C175.9,163.6,174.7,163.6,170.4,161.7z"/>
<path class="st23" d="M138.4,185.7c0.8,0.3,2.9-0.8,2.4,1.1c-0.7,2.6-3.6,0-5.2,1.5c-0.4,0.4-1.9,0-1.5-1.1
	C134.8,185,136.7,185.7,138.4,185.7z"/>
<path class="st14" d="M201,137.2c2.2-0.4,3.3,1.1,4.3,2.6c0.3,0.5-0.3,1.4-1.1,1.1c-1.7-0.7-3.2-1.6-3.1-3.8
	C201.1,137,201,137.2,201,137.2z"/>
<path class="st24" d="M165,159c-1.9,0-3.3-1-5.5-2.9c2.6,0.6,4.3,0.2,5.5,1.8C165,158.3,165,158.6,165,159z"/>
<path class="st23" d="M137.1,256c-0.4,0-0.8,0.1-1.3,0.1c-1.3-0.9-1.3-2-0.5-3.3C137,253.3,137,254.6,137.1,256z"/>
<path class="st14" d="M179.4,171.6c-1,0.9-2.1,0.8-3.1,0.2c-0.2-0.1,0-0.8,0.1-1.2C177.4,170.7,178.6,170.4,179.4,171.6z"/>
<path class="st25" d="M185.4,160.1c0.1,0.2,0.6,0.5,0.6,0.8c0,1.1-0.7,1.3-1.6,1.1c-0.4-0.1-1-0.2-0.6-0.9
	C184,160.3,184.4,159.9,185.4,160.1z"/>
<path class="st26" d="M223.8,283.4c0.5-4.2,3.8-5.9,5.8-8.7c0.5-0.7,1.5-2.1,2.8-0.7c1.1,1.2,0.8,2.5-0.4,3.4
	C229.3,279.5,226.5,281.4,223.8,283.4z"/>
<path class="st27" d="M202.3,326.3c3.1-3.4,6.9-5.3,11.2-6C210.4,323.6,206.8,325.9,202.3,326.3z"/>
<path class="st28" d="M245,305.3c-0.8,3.1-2.9,4.9-6.5,6.5C239.7,307.8,242.7,306.9,245,305.3z"/>
<path class="st29" d="M215.7,289c0.6-2.3,1.7-3.4,3.6-3.8c0.2,0,0.7,0.8,0.6,1.1C219.2,287.8,218.2,288.9,215.7,289z"/>
<path class="st30" d="M220,316.6c-0.1,0.7-0.3,1.2-1.1,1.4c-0.8,0.1-1.7,0.3-1.7-0.8c0-0.4,0.7-0.9,1.2-1.2
	C219,315.7,219.7,315.9,220,316.6z"/>
<path class="st31" d="M180,146.8c-1.4-0.3-2.8-0.7-4.2-1c2.2-0.9,4.3-1.5,6.3,0.1C181.7,146.7,180.6,146.3,180,146.8z"/>
<path class="st32" d="M180,146.8c0.7-0.3,1.4-0.6,2.1-0.9c1.3,0,2.8-0.6,4.9,1.6C184,147.2,182,147,180,146.8z"/>
</svg>
