<?xml version="1.0" encoding="utf-8"?>
<!-- Generator: Adobe Illustrator 20.1.0, SVG Export Plug-In . SVG Version: 6.00 Build 0)  -->
<svg version="1.1" id="Слой_1" xmlns="http://www.w3.org/2000/svg" xmlns:xlink="http://www.w3.org/1999/xlink" x="0px" y="0px"
	 viewBox="0 0 300 409.9" style="enable-background:new 0 0 300 409.9;" xml:space="preserve">
<style type="text/css">
	.st0{fill:#32322F;}
	.st1{fill:#21221F;}
	.st2{fill:#53544E;}
	.st3{fill:#FEFEFE;}
	.st4{fill:#60615F;}
	.st5{fill:#D6D6D6;}
	.st6{fill:#2B2C2A;}
</style>
<path class="st0" d="M150.7,0.5c49.9,0,99.8,0,149.8,0c0.4,0.8,0.2,1.7,0.2,2.6c0,134.9,0,269.7,0,404.6c0,3.3,0.4,3-2.9,3
	c-48.2,0-96.3,0-144.5,0c-0.9,0-1.8,0.1-2.6-0.1c-0.7-0.6-0.7-1.4-0.7-2.2c0-12.1,0-24.2,0-36.3c0-0.3,0.1-0.6,0.1-0.9
	c0.9-1.7,2.6-1.3,4-1.4c2.7-0.2,2.8-0.2,2.9-2.9c0-3.8,0-7.7,0-11.5c0-3.7,0.6-4.4,4.4-4.8c6.2-0.6,12.1-1.9,17.7-4.8
	c10.9-5.6,16.2-14.6,16.7-26.6c0.3-7.6-0.9-14.8-5.8-21c-3.7-4.7-8.6-7.5-14-9.8c-5.5-2.3-11.1-4.1-16.9-5.5
	c-3.7-0.9-4.1-1.4-4.1-5.2c0-5.2-0.1-10.4,0-15.6c0-3.2,0.9-3.9,4-3.2c7.2,1.5,13.9,4.4,20.2,8c2.4,1.4,2.4,1.4,3.7-1.1
	c2.7-5.2,5.4-10.3,8.2-15.5c0.7-1.3,0.6-2.2-0.8-2.9c-9.4-4.9-19.1-9-29.7-10.4c-2.9-0.4-3.6-1.1-3.7-4c-0.1-3.3-0.1-6.6,0-9.8
	c0-1.9-0.7-2.6-2.6-2.5c-1.7,0.1-3.4,0-5,0c-0.9,0-1.9,0-2.7-0.8c0.1-1.6,2-1.1,2.5-2.1c0.7-1.1,0.7-2.3,0.7-3.5
	c0-6.9,0-13.9,0-20.8c0-1.1-0.2-2.3,0.6-3.2c1.3-1,2.7-0.7,4.2-0.7c23.6,0,47.1,0,70.7,0c1.3,0,2.6,0.3,3.7-0.5
	c0.9-1,0.9-2.2,0.9-3.4c0-6.9,0-13.8,0-20.6c0-3.3-0.8-4-4.2-4c-23.9,0-47.8,0-71.7,0c-1.3,0-2.6,0.3-3.7-0.6
	c-0.7-0.8-0.5-1.8-0.5-2.8c0-8.2,0-16.3,0-24.5c0-0.9-0.1-1.9,0.5-2.8c1.3-1.1,2.9-0.9,4.3-0.9c23.5,0,47.1,0,70.6,0
	c1.3,0,2.6,0.3,3.7-0.5c0.9-1,0.9-2.2,0.9-3.4c0-6.9,0-13.8,0-20.6c0-3.3-0.8-4-4.2-4c-23.9,0-47.8,0-71.7,0c-1.2,0-2.6,0.3-3.7-0.6
	c-0.7-0.9-0.5-2-0.5-3c0-31.3,0-62.5,0-93.8C150,2.6,149.8,1.4,150.7,0.5z"/>
<path class="st1" d="M150.7,160.3c25.6,0,51.3,0,76.9,0c3.2,0,3.2,0,3.2,3.3c0,8.1,0,16.1,0,24.2c0,0.9,0.3,1.9-0.5,2.7
	c-1-1-0.9-2.3-0.9-3.6c0-7.3,0-14.6,0-21.8c0-3.1-0.2-3.3-3.2-3.3c-50.4,0-100.9,0-151.3,0c-3.1,0-3.3,0.2-3.3,3.3
	c0,7,0,14.1,0,21.1c0,3.2,0.2,3.4,3.4,3.4c23.7,0,47.5,0,71.2,0c1.4,0,2.9-0.3,4.1,0.8c0.4,5.2,0.2,10.4,0.2,15.5
	c0,4.5,0.3,8.9-0.2,13.4c-1.1,0.2-2.4-0.4-3.4,0.5c0.8,0.7,0.8,1.7,0.8,2.7c0,3.5,0.1,7,0,10.5c-0.1,2.9-0.6,3.5-3.6,4
	c-6.9,1.2-13.5,3.2-19.3,7.4c-7.3,5.4-11.6,12.6-13.2,21.5c-0.2,1.3-0.4,2.5-0.6,3.8c-0.6,1.8-0.6,3.7-0.1,5.5
	c0.8,4.2,1.4,8.5,3.9,12.2c3.7,5.5,9,9,14.9,11.6c5.4,2.3,10.9,4,16.5,5.7c1.3,0.4,2.7,0.6,2.9,2.4c-0.2,6.6-0.2,13.2,0,19.8
	c-0.5,2.1-2.1,1.6-3.5,1.3c-5.7-1.1-11.1-2.9-16.4-5.2c-3.7-1.6-7.3-3.3-10.5-5.7c-1.2-0.9-1.8-0.5-2.4,0.6
	c-3.1,5.8-5.9,11.7-8.9,17.6c-0.9,1.7,0.1,2.5,1.4,3.2c6,3.6,12.4,6.2,19.1,8.2c5.3,1.6,10.7,2.6,16.2,3.4c3.2,0.5,3.5,0.8,3.6,4.2
	c0,3.8,0,7.7,0,11.5c0,1.8-0.1,3.6,2.2,4.1c0.4,0.1,0.5,0.6,0.5,1c0,12.2,0,24.5,0,36.7c0,0.9,0.2,1.8-0.2,2.6
	c-0.9,0.3-1.7,0.2-2.6,0.2c-48.2,0-96.4,0-144.6,0c-0.9,0-1.8,0.2-2.6-0.2c0-112.8,0-225.6,0-338.4c0.5-0.9,0.9-1.9,2.1-2.2
	c1.3-0.4,2.7-0.2,4.1-0.2c19.6,0,39.2,0,58.8,0c4.2,0,4.2,0,4.2-4.1c0-20.2,0-40.5,0-60.7c0-1.5-0.1-3.1,1-4.3c26.6,0,53.1,0,79.7,0
	c0.5,0.9,0.2,1.9,0.2,2.8c0,31.4,0,62.8,0,94.2c0,0.9-0.2,1.9,0.2,2.8c25.6,0,51.3,0,76.9,0c3.2,0,3.2,0,3.2,3.3
	c0,8.1,0,16.1,0,24.2c0,0.9,0.3,1.9-0.5,2.7c-1-1-0.9-2.3-0.9-3.6c0-7.3,0-14.5,0-21.8c0-3.1-0.2-3.3-3.2-3.3
	c-50.4,0-100.9,0-151.3,0c-3.1,0-3.3,0.2-3.3,3.2c0,6.8,0,13.6,0,20.4c0,4.2,0,4.2,4.1,4.2c23.5,0,47,0,70.5,0
	c1.4,0,2.9-0.3,4.1,0.8c0.4,0.9,0.2,1.9,0.2,2.8c0,8.2,0,16.3,0,24.5C150.5,158.6,150.3,159.5,150.7,160.3z"/>
<path class="st2" d="M70.6,0.5c0,22.3,0,44.6,0,66.9c0,3.2,0,3.2-3.3,3.2c-21.8,0-43.6,0-65.5,0c-0.4,0.3-0.9,0.4-1.3,0
	c0-0.2,0-0.3,0-0.5c0.6-1.2,1.4-2.3,2.4-3.2c21.3-21.3,42.6-42.6,64-64c1-1,2-1.8,3.2-2.4C70.2,0.5,70.4,0.5,70.6,0.5z"/>
<path class="st3" d="M0.5,410.4c49,0,97.9,0,146.9,0c1,0,1.9,0,2.9-0.1c0.2-0.2,0.4-0.2,0.5,0c0.8,0,1.6,0.1,2.4,0.1
	c48.2,0,96.5,0,144.7,0.1c2.2,0,2.7-0.6,2.7-2.7c-0.1-135.7,0-271.5,0-407.2c0.1,0.1,0.5-0.2,0.5,0.2c0,0.6,0,1.3,0,1.9
	c0,135.4,0,270.7,0,406.1c0,1.8-0.4,2.2-2.2,2.2c-98.7-0.1-197.4,0-296.2-0.1C1.9,410.9,1,411.4,0.5,410.4z"/>
<path class="st4" d="M150.7,100.3c-0.8-0.9-0.4-2-0.4-3c0-32.3,0-64.6,0-96.8c0.2,0,0.3,0,0.5,0C150.7,33.8,150.7,67,150.7,100.3z"
	/>
<path class="st5" d="M0.5,70.6c0.4,0,0.9,0,1.3,0C1.6,71.2,1,71.6,0.5,72C0.5,71.5,0.5,71,0.5,70.6z"/>
<path class="st4" d="M150.3,370.6c0.1,0,0.3,0,0.4,0c0,13.2,0,26.5,0.1,39.7c-0.2,0-0.4,0-0.5,0
	C150.2,397.1,150.3,383.8,150.3,370.6z"/>
<path class="st4" d="M150.3,130.6c0.1,0,0.3,0,0.4,0c0,9.9,0,19.8,0,29.7c-0.6-0.5-0.4-1.2-0.4-1.8
	C150.3,149.2,150.3,139.9,150.3,130.6z"/>
<path class="st4" d="M150.3,190.6c0.1,0,0.3,0,0.4,0c0,9,0,18,0,27c0,0.6,0.1,1.3-0.5,1.8C150.3,209.8,150.3,200.2,150.3,190.6z"/>
<path class="st6" d="M148.8,306.8c0,6.9,0,13.7,0,20.6c-0.4-0.4-0.4-0.8-0.4-1.3c0-6,0-12,0-17.9
	C148.3,307.6,148.4,307.1,148.8,306.8z"/>
<path class="st6" d="M110.4,269.8c0,1.9,0,3.8,0,5.7C109.7,273.6,109.7,271.7,110.4,269.8z"/>
<path class="st0" d="M156,318.2c0-2.6,0.1-5.1,0-7.7c-0.1-1.6,0.5-1.7,1.8-1.3c2.7,1,5.3,2.2,7.7,3.9c2.4,1.8,3.4,4.3,3.1,7.3
	c-0.3,3.3-2.3,5.1-5.1,6.3c-1.3,0.6-2.7,0.9-4.2,1.1c-3.3,0.4-3.3,0.5-3.3-2.9C156,322.7,156,320.5,156,318.2z"/>
<path class="st1" d="M148.8,278.4c-0.3,0.5-0.8,0.5-1.3,0.3c-2-0.9-4-1.6-5.8-2.8c-3.5-2.1-4.9-5.2-4.3-9.1c0.5-3.8,3.2-5.8,6.5-6.9
	c1.4-0.5,2.9-0.8,4.5-0.6c0.5,4.1,0.1,8.2,0.2,12.3C148.7,273.8,148.3,276.1,148.8,278.4z"/>
<path class="st6" d="M148.8,278.4c-0.6-0.7-0.4-1.5-0.4-2.3c0-5.6,0-11.2,0-16.9c0.6,0.6,0.5,1.3,0.5,2
	C148.8,266.9,148.8,272.7,148.8,278.4z"/>
</svg>
