<?xml version="1.0" encoding="utf-8"?>
<!-- Generator: Adobe Illustrator 20.1.0, SVG Export Plug-In . SVG Version: 6.00 Build 0)  -->
<svg version="1.1" id="Слой_1" xmlns="http://www.w3.org/2000/svg" xmlns:xlink="http://www.w3.org/1999/xlink" x="0px" y="0px"
	 viewBox="0 0 512.2 512.2" style="enable-background:new 0 0 512.2 512.2;" xml:space="preserve">
<style type="text/css">
	.st0{fill:#FE5319;}
	.st1{fill:#FEBBA4;}
	.st2{fill:#FE7C50;}
	.st3{fill:#FE7F54;}
	.st4{fill:#FED3C4;}
	.st5{fill:#FEA88B;}
	.st6{fill:#C82F00;}
	.st7{fill:#FEFEFE;}
	.st8{fill:#7F8082;}
	.st9{fill:#272525;}
	.st10{fill:#FEECB4;}
	.st11{fill:#FDE086;}
	.st12{fill:#CFD0D2;}
	.st13{fill:#9E7669;}
	.st14{fill:#59595B;}
	.st15{fill:#A5A7A9;}
	.st16{fill:#AFB1B3;}
	.st17{fill:#916D63;}
</style>
<g>
	<path class="st0" d="M248.6,0.5c5.3,0,10.6,0,15.8,0c1.1,0.5,2.3,0.1,3.5,0.2c1.3,0,2.6,0,3.9,0c18-0.2,35.4,3,52.6,7.7
		c17.4,4.7,34.1,11.2,50.1,19.5c15.6,8.1,30.3,17.8,44,28.9c8.4,6.9,16.5,14.2,23.9,22.1c14.7,15.5,27.3,32.5,37.9,51
		c8.4,14.7,15.1,30.1,20.4,46.2c3,9,5.3,18.2,7.4,27.5c0.2,1.1,0.7,2.3,0,3.5c-0.9,0.9-1.6,0.2-2.3-0.3c-0.8-0.5-1.4-1.3-2.1-2
		c-29.8-29.8-59.6-59.6-89.4-89.3c-1.2-1.2-2-2.9-3.8-3.5c-1.8-2.3-3.4-4.7-6.6-5.6c-6.1-1.7-12.1,2.4-12.3,8.8c0,1.5,0,3,0,4.6
		c0,1.2-0.3,2.2-1.2,3c-3.4,1.9-7.2,2.6-10.8,3.7c-15,4.5-30,9-44.9,13.4c-18,5.4-35.9,10.7-53.9,16.1c-6.6,2-13.3,3.9-19.9,6
		c-1.2,0.4-2.4,0.8-3.7,0.9c-0.3,0-0.6,0.1-0.8,0.1c-1.4,0.3-2.9,0.2-4.3,0.2c-27,0-54.1,0.1-81.1,0c-5.8,0-10.3,1.7-12.8,7.3
		c-0.2,0.5-0.6,0.9-1.1,1.2c-1.3,0.7-2.8,0.7-4.2,0.7c-8.1,0-16.2-0.1-24.2,0c-5,0.1-10,0.6-14.7,2.7c-9.1,3.9-16.1,14.1-16.2,24
		c-0.1,8.9,0,17.8,0,26.6c0,1.4,0,2.7-0.2,4.1c0.3,9.2,0.3,18.5,0.1,27.7c-0.2,9.7,3.7,17.3,11,23.3c0.3,0.3,0.6,0.5,0.9,0.8
		c1,1.7,2.2,3.2,3.8,4.3c0.7,0.5,1.3,1.2,1.9,1.8c21.4,21.4,42.8,42.8,64.2,64.1c1.2,1.2,2.2,2.7,3.6,3.9c1.1,1.7,1.2,3.6,1.5,5.5
		c2.1,11,4.1,22.1,6.1,33.1c0.8,4.1,3.1,7.1,5.9,9.8c0.7,1.4,1.6,2.6,2.9,3.4c0.7,0.5,1.3,1.1,2,1.8c31.9,31.9,63.8,63.8,95.7,95.7
		c1.1,1.1,2.8,2.1,2.3,4.1c-2,2-4.8,1.5-7.2,1.9c-7.8,1.3-15.7,1.3-23.6,1.5c-6.2,0.2-12.5,0.1-18.7,0.2
		c-23.7,0.2-46.7-3.7-69.3-10.7c-13.5-4.2-26.5-9.3-39.1-15.7c-16.4-8.2-31.8-18.1-46.1-29.7c-9.1-7.3-17.7-15.2-25.7-23.7
		c-14.1-15.1-26.4-31.6-36.7-49.6C20.3,361.5,11.3,338,5.6,313.2c-2.6-11.3-4.7-22.7-4.7-34.3c0-2.3-0.2-4.6-0.2-6.9
		c0-1.3,0-2.6,0-4c-0.1-1.2,0.3-2.4-0.2-3.5c0-5.3,0-10.6,0-15.8c0.5-1.1,0.1-2.3,0.2-3.4c0-0.8,0-1.5,0-2.3c0-0.8,0-1.5,0-2.3
		c-0.1-14.2,1.9-28.1,5.1-42c5.2-22.4,13.2-43.7,24.1-64c7.6-14.1,16.5-27.3,26.5-39.8c7.9-9.7,16.4-18.8,25.5-27.3
		c13.1-12.2,27.3-22.8,42.7-32c16.1-9.6,33.1-17.4,50.9-23.3c15.3-5.1,31-8.7,47.1-10.7c5.9-0.7,11.9-0.9,17.9-0.8
		c0.8,0,1.5,0,2.3,0c0.8,0,1.6,0,2.3,0C246.4,0.6,247.5,1,248.6,0.5z"/>
	<path class="st1" d="M272.2,0.5c0,0.1,0,0.3,0,0.4c-1.4,0-2.9,0-4.3,0c-0.4-0.1-0.4-0.2-0.1-0.4C269.3,0.5,270.7,0.5,272.2,0.5z"/>
	<path class="st1" d="M0.9,272.2l-0.2,0l-0.2,0c0-1.4,0-2.9,0-4.3c0.2-0.3,0.3-0.3,0.4,0.1C0.9,269.3,0.9,270.8,0.9,272.2z"/>
	<path class="st2" d="M248.6,0.5c-1,0.8-2.3,0.4-3.4,0.4c-0.2-0.1-0.2-0.2-0.2-0.3c0.1-0.1,0.1-0.1,0.2-0.1
		C246.4,0.5,247.5,0.5,248.6,0.5z"/>
	<path class="st3" d="M267.8,0.5c0,0.1,0.1,0.3,0.1,0.4c-1.2,0-2.4,0.4-3.4-0.4C265.6,0.5,266.7,0.5,267.8,0.5z"/>
	<path class="st2" d="M0.9,245.2c0,1.1,0.4,2.4-0.4,3.4c0-1.1,0-2.2,0-3.4C0.6,245,0.7,245,0.9,245.2z"/>
	<path class="st3" d="M0.9,267.9c-0.1,0-0.3,0-0.4-0.1c0-1.1,0-2.2,0-3.4C1.3,265.5,0.9,266.8,0.9,267.9z"/>
	<path class="st4" d="M240.5,0.9c0-0.1,0-0.3,0-0.4c0.8,0,1.6,0,2.4,0c0.3,0.2,0.3,0.3,0,0.4C242,0.9,241.3,0.9,240.5,0.9z"/>
	<path class="st5" d="M242.8,0.9c0-0.1,0-0.3,0-0.4c0.8,0,1.6,0,2.4,0c0,0.1,0,0.3,0,0.4C244.4,0.9,243.6,0.9,242.8,0.9z"/>
	<path class="st4" d="M0.5,240.5c0.1,0,0.3,0,0.4,0c0,0.8,0,1.6,0,2.4c-0.1,0.4-0.2,0.4-0.4,0C0.5,242.1,0.5,241.3,0.5,240.5z"/>
	<path class="st5" d="M0.5,242.9c0.1,0,0.3-0.1,0.4,0c0,0.8,0,1.6,0,2.4c-0.1,0-0.3,0-0.4,0C0.5,244.5,0.5,243.7,0.5,242.9z"/>
	<path class="st6" d="M507.8,207.4c1.5,5.5,2.1,11.1,2.8,16.7c1.6,13.1,2.3,26.2,2,39.4c-1,33.1-7.5,65-21.2,95.2
		c-34.2,75.1-91.3,123.9-171,145.8c-7,1.9-14,3.7-21.2,4.3c-0.7-0.8-1.5-1.7-2.2-2.5c-33-33-66-66-98.9-99c-0.7-0.7-1.6-1.3-2-2.3
		c1-0.8,2-0.3,2.9,0.1c2.1,1,4.2,1.3,6.5,1.3c9,0,18.1,0,27.1,0c9.4,0,16.1-8.1,14.4-17.4c-4.2-22.5-8.3-45.1-12.5-67.6
		c-1.3-7-2.6-14-3.8-21c-0.2-1.3-0.7-2.7,0.2-3.9c0.6-0.7,1.4-1,2.3-1c7.9,0,15.8-0.3,23.6,0.1c4.6,0.6,8.9,2.3,13.4,3.6
		c31.9,9.6,63.9,19,95.8,28.7c7.2,2.2,14.4,4.2,21.6,6.4c1.1,0.4,2.3,0.6,3.2,1.6c1.1,1.7,0.5,3.6,0.7,5.4c0.2,3.3,0.9,6.6,3.7,8.8
		c2.9,2.3,6.3,3.1,9.9,1.5c3.7-1.6,5.8-4.4,5.9-8.5c0.3-1.7,0.4-3.3,0.4-5c0-34.7,0-69.3,0-104c0-1.4,0-2.7-0.1-4.1
		c0-0.3,0-0.6-0.1-0.9c-0.3-1.6-0.2-3.2-0.2-4.8c0-35,0-70,0-105c0-1.8,0.1-3.7-0.1-5.5c-0.1-0.8-0.1-1.6,0.6-2.2
		c1.2-0.1,1.6,0.9,2.2,1.5c30.7,30.7,61.4,61.4,92.2,92.1C506.3,206.1,507.1,206.8,507.8,207.4z"/>
	<path class="st7" d="M257.2,162.3c7.5-2.7,15.2-4.7,22.8-7c36.4-10.9,72.9-21.8,109.3-32.7c0.3-0.1,0.6-0.1,0.9-0.2
		c1.1,0.1,1.3,1,1.4,1.9c0.1,1.1,0.1,2.2,0.1,3.4c0,32.3,0,64.6,0,96.9c0,1.7,0.3,3.5-0.8,5.1c-1.6,1.1-3.5,0.9-5.3,0.9
		c-34.9,0-69.8,0-104.7,0c-6.6,0-13.3,0-19.9,0c-1.3,0-2.7,0.2-3.9-0.8c-0.8-0.9-0.6-2-0.6-3c0-6.1,0-12.3,0-18.4
		c0-14.2,0-28.4,0-42.6C256.6,164.5,256.3,163.3,257.2,162.3z"/>
	<path class="st8" d="M156.5,171.6c1.8-5.7,6.3-9.5,14.1-9.4c27.7,0.2,55.4,0.1,83.1,0.1c1,0,2.1,0,3.1,0.1c0.5,0.8,0.3,1.7,0.3,2.6
		c0,14.5,0,28.9,0,43.4c-0.1,7.3,0.2,14.5-0.1,21.8c-0.9,1.1-2.2,0.9-3.3,0.9c-5.5,0.1-11,0-16.5,0c-24.5,0-49.1,0-73.6,0
		c-0.7,0-1.4,0-2.2,0c-3.3,0.1-3.7,0.4-3.7,3.8c0,15.7,0,31.3,0,47c0,1.5,0.4,3.1-0.9,4.3c-1.3,0.1-1.4-0.9-1.5-1.7
		c-0.2-0.9-0.1-1.8-0.1-2.6c0-16.2,0-32.4,0-48.6c0-1,0.1-2.1,0.1-3.1c-0.3-18.3-0.1-36.5-0.1-54.8
		C155,173.8,155.2,172.5,156.5,171.6z"/>
	<path class="st9" d="M230.9,297.1c2.7,14.4,5.4,28.7,8.1,43.1c3,16.2,5.9,32.4,8.9,48.6c1.9,10.1-5.3,18.8-15.6,18.8
		c-8.3,0-16.6-0.1-25,0.1c-4.1,0.1-7.9-0.5-11.5-2.6c-4-3.2-6-7.4-6.9-12.4c-1.9-11.3-4.1-22.6-6.2-33.9c-0.2-1-0.6-2-0.9-2.9
		c-2.1-3.4-2.2-7.3-2.9-11.1c-2.4-12.6-4.7-25.3-7-37.9c-0.5-2.5-1.1-5-1.3-7.6c-0.1-1-0.1-1.9,0.8-2.6c0.9-0.6,2-0.5,3-0.5
		c17.6,0,35.2,0,52.9,0C228.7,296.1,230,295.8,230.9,297.1z"/>
	<path class="st10" d="M156.5,171.6c-0.6,18.3-0.1,36.6-0.3,55c0,1.1-0.1,2.2-0.2,3.3c-0.8,1-1.9,1.1-3,1.1c-17.8,0-35.6,0-53.4,0
		c-1.1,0-2.3,0-3-1.1c0-10.6-0.3-21.3,0-31.9c0.4-13.6,12.7-25.6,26.3-26.2C134.1,171.3,145.3,171.7,156.5,171.6z"/>
	<path class="st11" d="M96.6,229.9c19.8,0,39.6,0,59.4,0c0,17.7,0,35.3,0.1,53c0,1.1-0.2,2.2,0.4,3.3c0.5,0.5,0.5,1.1,0.1,1.7
		c-0.8,0.9-1.9,0.8-2.9,0.8c-9.7,0-19.3,0.1-29,0c-5.9-0.1-11.4-1.4-15.7-5.9c-6.4-4.8-10.8-10.9-12.2-19c-0.1-0.5-0.2-1.1-0.2-1.7
		C96.5,251.3,96.5,240.6,96.6,229.9z"/>
	<path class="st12" d="M390.6,229.4c0-3.8,0.1-7.5,0.1-11.3c0-30.8,0-61.7,0-92.5c0-1.1,0.3-2.2-0.4-3.3c0.7-1.9,0.3-3.9,0.3-5.9
		c0.1-5.8,3.1-9.9,8.2-11.2c4.9-1.2,9.6,1.1,12.2,6.1c0.1,0.1,0.2,0.2,0.3,0.3c0.5,1.9,0.6,3.9,0.6,5.9c0,36.3,0,72.6,0,108.8
		c0,1-0.1,1.9-0.1,2.9c-0.7,0.8-1.6,0.7-2.4,0.7c-5.4,0-10.9,0-16.3,0C392.2,230.1,391.2,230.3,390.6,229.4z"/>
	<path class="st6" d="M109,282.6c6,3.8,12.6,5,19.6,4.9c9.3-0.2,18.6,0,27.8,0c1.1,0.1,1.5,1.1,1.9,1.9c2.3,3.9,5.4,6.4,10.2,6.3
		c1.1,0,2.5-0.3,2.8,1.4c3.4,18.7,6.9,37.3,10.3,56c0.2,0.9,0.1,1.7,0.2,2.6c-1.9-1.3-3.3-3-4.8-4.6C155,329.1,133,307,111,284.9
		C110.3,284.2,109.6,283.4,109,282.6z"/>
	<path class="st13" d="M256.8,208.3c0-15.3,0-30.7,0-46c0.2,0,0.3-0.1,0.5,0c0,15.4,0,30.7,0,46.1
		C257.1,208.6,256.9,208.6,256.8,208.3z"/>
	<path class="st12" d="M390.6,229.4c7,0,14.1,0,21.1,0c0.1,0.2,0.1,0.3,0,0.5c-0.2,0.2-0.4,0.4-0.7,0.6c-1.3,0.7-2.7,0.5-4,0.5
		c-4.2,0-8.3,0-12.5,0c-2.7,0-3.2,0.5-3.2,3.3c0,1,0,2.1,0,3.1c0,31.7,0,63.3,0,95c0,1.4,0.8,3.1-1,4.1c-27.8-8.3-55.6-16.6-83.5-25
		c-16.1-4.8-32.2-9.6-48.3-14.4c-0.5-0.1-0.9-0.3-1.3-0.5c-1.3-1.1-1-2.6-1-4c0-11.9,0-23.8,0-35.7c0-7.7,0-15.3,0-23
		c0-1.3-0.2-2.6,0.6-3.7c0.1-0.3,0.3-0.6,0.5-0.8C301.8,229.4,346.2,229.4,390.6,229.4z"/>
	<path class="st14" d="M257.2,229.9c0,22.2,0,44.4,0,66.7c-7.7,0.1-15.3,0.1-23,0.2c-1.1,0-2.2-0.2-3.3,0.3c-19.8,0-39.7,0-59.5,0
		c-0.5-0.1-1.1-0.3-1.6-0.3c-6.8,0.3-11.1-3.1-13.4-9.3c0-0.4,0-0.9,0-1.3c0-17.5,0-35,0.1-52.5c0-3.7,0-3.7,3.6-3.7
		c32.2,0,64.5,0,96.7,0C257,229.6,257.1,229.7,257.2,229.9z"/>
	<path class="st15" d="M390.3,336.5c0-34.4,0-68.7,0-103.1c0-3.5,0-3.5,3.6-3.5c5.8,0,11.7,0,17.5,0c0.5,0.9,0.2,1.9,0.2,2.8
		c0,36.2,0,72.4,0,108.5c0,1-0.1,1.9,0.1,2.9c-0.9,5.8-5.5,9.7-11.1,9.4c-5.8-0.3-10.1-4.7-10.3-10.8
		C390.3,340.6,390.3,338.6,390.3,336.5z"/>
	<path class="st16" d="M411.8,344.1c-0.6-1-0.4-2.2-0.4-3.3c0-37,0-74,0-110.9c0.1,0,0.3,0,0.4,0c0,0.6,0.1,1.3,0.1,1.9
		c0,36.8,0,73.6,0,110.4C411.8,342.9,411.8,343.5,411.8,344.1z"/>
	<path class="st17" d="M257.2,229.9c-0.1,0-0.3,0-0.4-0.1c0-7.2,0-14.4,0-21.5c0.1,0,0.3,0,0.4,0c0.1,7,0.1,14.1,0.2,21.1
		C257.3,229.6,257.3,229.8,257.2,229.9z"/>
</g>
</svg>
