<?xml version="1.0" encoding="utf-8"?>
<!-- Generator: Adobe Illustrator 20.1.0, SVG Export Plug-In . SVG Version: 6.00 Build 0)  -->
<svg version="1.1" id="_x31_" xmlns="http://www.w3.org/2000/svg" xmlns:xlink="http://www.w3.org/1999/xlink" x="0px" y="0px"
	 viewBox="0 0 96.3 21" enable-background="new 0 0 96.3 21" xml:space="preserve">
<path fill-rule="evenodd" clip-rule="evenodd" d="M12.9,15.7c0,0.6-0.6,0.9-1.9,0.9c-2.2,0-4.2-0.6-6-1.8c-2.2-1.4-3.3-3.4-3.3-5.9
	c0-2.5,0.7-4.3,2.1-5.4c1-0.7,2.1-1.1,3.5-1.1c0.5,0,1.1,0.1,1.7,0.4c0.6,0.2,1,0.3,1.1,0.3c0.4,0,0.6-0.1,0.7-0.3
	c0.2-0.4,0.5-0.7,1-0.7c0.6,0,1,0.3,1,1c0,0.1,0,0.1,0,0.2c0,0.1,0,0.1,0,0.2c-0.2,0.6-0.7,1.4-1.4,2.3c-0.2,0.2-0.3,0.4-0.4,0.7
	c-0.1,0.3-0.3,0.5-0.4,0.8c-0.1,0.3-0.2,0.5-0.3,0.8c-0.1,0.2-0.1,0.4-0.1,0.5c0,0.3,0.1,0.5,0.4,0.6c0.2,0.2,0.3,0.4,0.3,0.6
	c0,0.7-0.3,1-0.9,1c-0.2,0-0.3,0-0.5-0.1c-0.8-0.4-1.2-1-1.2-1.9c0-0.1,0-0.3,0.1-0.5C8.4,8,8.5,7.8,8.6,7.5C8.6,7.2,8.7,7,8.8,6.7
	c0.1-0.2,0.1-0.4,0.1-0.5c0-1.2-0.5-1.9-1.4-1.9c-1.3,0-2,1.2-2,3.5c0,2.3,0.8,4.1,2.3,5.3c1,0.7,2.4,1.2,4.3,1.6
	C12.6,14.8,12.9,15.1,12.9,15.7z"/>
<path fill-rule="evenodd" clip-rule="evenodd" d="M93.2,13.9c0.4,0,0.6,0,0.8,0.1c0.2,0.1,0.3,0.2,0.4,0.3c0.1,0.1,0.1,0.2,0.1,0.4
	c0,0.1,0,0.3,0,0.4c0,0.3-0.1,0.5-0.4,0.7c-0.3,0.2-0.7,0.2-1.3,0.2h-8.3c-0.4,0-0.7-0.1-0.9-0.2c-0.2-0.1-0.3-0.3-0.3-0.6
	c0-0.1,0-0.2,0-0.3c0-0.1,0-0.2,0.1-0.3c0.1-0.1,0.2-0.2,0.3-0.3c0.2-0.1,0.4-0.1,0.6-0.2c-0.4-0.7-0.7-1.4-0.8-2.2
	c-0.1-0.8-0.1-1.6,0.2-2.4c0.2-0.8,0.6-1.6,1.2-2.4c0.6-0.8,1.4-1.4,2.3-2c-0.4-0.4-0.9-0.6-1.5-0.6c-0.7,0-1.1,0.3-1.3,0.8
	c0,0.2-0.1,0.6-0.1,1.3c0,0.3-0.1,0.6-0.4,0.8c-0.2,0.2-0.5,0.3-0.8,0.3c-0.3,0-0.5-0.1-0.7-0.3c-0.2-0.2-0.3-0.4-0.3-0.6
	c0-0.1,0-0.3,0.1-0.5c0.1-0.2,0.1-0.4,0.1-0.7c0-0.2-0.3-0.5-0.8-1c-0.5-0.5-0.8-1-0.8-1.4c0-0.5,0.2-0.7,0.6-0.7
	c0.1,0,0.2,0,0.4,0.1c0.1,0.1,0.3,0.1,0.4,0.2c0.2,0.1,0.3,0.1,0.4,0.2C82.8,2.9,83,3,83,3c0.1,0,0.4-0.1,0.9-0.4
	c0.5-0.2,1-0.4,1.5-0.4c0.4,0,1.1,0.1,2.1,0.4c1,0.2,1.6,0.4,1.8,0.4c0.3,0,0.6-0.1,1-0.3c0.5-0.2,0.8-0.3,0.9-0.3
	c0.3,0,0.5,0.1,0.7,0.3c0.2,0.2,0.3,0.4,0.3,0.7c0,0.2,0,0.3,0,0.4c0,0.1-0.1,0.2-0.2,0.3c-0.1,0.1-0.2,0.1-0.4,0.2
	c-0.2,0-0.5,0.1-0.8,0.1c-0.4,0.3-0.9,0.8-1.5,1.3c-0.5,0.5-1.1,1.1-1.5,1.7c-0.5,0.6-0.8,1.3-1.1,2.1c-0.3,0.7-0.3,1.5-0.2,2.3
	c0.1,0.6,0.3,1.1,0.7,1.5c0.4,0.4,0.9,0.7,1.5,0.7c0.7,0,1.2-0.1,1.6-0.6c0.4-0.4,0.6-0.9,0.8-1.4c0.1-0.5,0.1-1-0.1-1.4
	c-0.2-0.4-0.4-0.6-0.8-0.6c-0.4,0-0.6,0.3-0.6,0.9c0,0.2,0.1,0.3,0.2,0.5c-0.2,0-0.5,0-0.7,0c-0.2,0-0.4-0.1-0.6-0.3
	c-0.5-0.3-0.7-0.9-0.7-1.5c0-0.9,0.3-1.5,0.9-1.9c0.5-0.4,1.1-0.6,1.8-0.6c0.4,0,0.9,0.1,1.3,0.3c0.5,0.2,0.9,0.4,1.2,0.8
	c0.4,0.3,0.7,0.8,0.9,1.3c0.2,0.5,0.4,1.1,0.4,1.7c0,0.6-0.1,1.2-0.2,1.7C94,13.1,93.6,13.6,93.2,13.9z"/>
<path fill-rule="evenodd" clip-rule="evenodd" d="M16.1,9.7c0-0.1-0.1-0.2-0.2-0.2c-0.1,0-0.2-0.1-0.3-0.1c-0.4,0-0.6-0.2-0.6-0.6
	c0-0.4,0.2-0.6,0.6-0.6l2.8,0h2.3c0.4,0,0.6,0.2,0.6,0.6c0,0.4-0.2,0.6-0.6,0.6c-0.1,0-0.2,0.1-0.3,0.2c-0.1,0.1-0.2,0.2-0.2,0.4
	v4.2c0,0.1,0.1,0.2,0.2,0.4c0.1,0.1,0.2,0.2,0.3,0.2c0.4,0,0.6,0.2,0.6,0.6c0,0.4-0.2,0.6-0.6,0.6h-2.8c-0.4,0-0.6-0.2-0.6-0.6
	c0-0.4,0.2-0.6,0.6-0.6c0.1,0,0.2-0.1,0.3-0.2c0.1-0.1,0.2-0.2,0.2-0.4V9.6h0c-0.1,0-0.3,0-0.5,0c-0.2,0-0.4,0.1-0.5,0.3
	c-0.4,0.4-0.7,0.8-1,1.3c-0.3,0.5-0.5,1-0.7,1.5c-0.2,0.5-0.3,1-0.4,1.6c-0.1,0.5-0.1,1,0,1.4c0.1,0.4,0.2,0.8,0.5,1
	c0.2,0.3,0.6,0.4,1,0.5c0.2,0,0.2,0,0.2-0.1c0-0.1,0-0.2,0-0.3c0-0.1-0.1-0.3-0.2-0.5c0.1-0.1,0.4-0.1,0.6-0.1c0.2,0,0.3,0,0.5,0.1
	c0.1,0.1,0.3,0.2,0.4,0.3c0.1,0.1,0.2,0.2,0.3,0.4c0.1,0.1,0.1,0.3,0.1,0.5c0,0.4-0.2,0.7-0.5,1c-0.3,0.3-0.8,0.4-1.3,0.4
	c-0.8,0-1.4-0.2-1.9-0.5c-0.4-0.3-0.8-0.7-0.9-1.3c-0.2-0.5-0.2-1.1-0.2-1.8c0.1-0.7,0.2-1.3,0.4-2c0.2-0.7,0.5-1.3,0.9-1.9
	C15.3,10.7,15.7,10.1,16.1,9.7z"/>
<path fill-rule="evenodd" clip-rule="evenodd" d="M29,12.1c0,1.1-0.4,2.1-1.1,2.9c-0.7,0.8-1.5,1.2-2.5,1.2c-1,0-1.8-0.4-2.5-1.2
	c-0.7-0.8-1.1-1.8-1.1-2.9c0-1.1,0.4-2.1,1.1-2.9C23.6,8.4,24.4,8,25.4,8c1,0,1.8,0.4,2.5,1.2C28.6,10,29,11,29,12.1L29,12.1z
	 M24.4,13.9c0.3,0.7,0.6,1,1,1c0.4,0,0.7-0.3,1-0.8c0.3-0.5,0.4-1.2,0.4-2l0-0.6c0-0.3-0.1-0.7-0.2-1.1c-0.3-0.7-0.6-1.1-1.1-1.1
	c-0.4,0-0.7,0.3-1,0.8c-0.3,0.5-0.4,1.2-0.4,2l0,0.7C24.1,13,24.2,13.3,24.4,13.9z"/>
<path fill-rule="evenodd" clip-rule="evenodd" d="M33.8,14.6c0.3,0,0.5,0,0.7-0.2c0.1-0.1,0.3-0.3,0.4-0.5c0.1-0.3,0.1-0.6,0.1-0.9
	c-0.1-0.3-0.2-0.5-0.3-0.6c-0.2-0.2-0.4-0.3-0.6-0.4c-0.2-0.1-0.5-0.2-0.8-0.2c-0.1,0-0.2,0-0.3,0c-0.1,0-0.2,0-0.3,0
	c-0.1,0-0.1-0.1-0.1-0.1c0-0.1,0-0.1,0-0.1c0-0.1,0-0.1,0-0.2c0,0,0-0.1,0.1-0.1c0.1,0,0.2,0,0.3,0c0.1,0,0.2,0,0.3,0
	c0.4,0,0.8-0.1,1-0.3c0.3-0.2,0.4-0.5,0.4-0.9c0-0.2,0-0.4-0.1-0.5c-0.1-0.1-0.2-0.2-0.4-0.3l-1.4,0c-0.1,0-0.2,0.1-0.3,0.2
	c-0.1,0.1-0.1,0.2-0.1,0.4v0.6v3.1v0.5c0,0.1,0.1,0.3,0.2,0.4c0.1,0.1,0.2,0.2,0.3,0.2L33.8,14.6L33.8,14.6z M30.5,10
	c0-0.2-0.1-0.3-0.2-0.4c-0.1-0.1-0.2-0.1-0.4-0.1c-0.1,0-0.3-0.1-0.4-0.2c-0.1-0.1-0.2-0.2-0.2-0.5c0-0.4,0.2-0.6,0.6-0.6h3.9
	c0.7,0,1.3,0.2,1.8,0.5c0.5,0.3,0.7,0.8,0.7,1.3c0,0.3-0.1,0.6-0.2,0.8c-0.2,0.2-0.5,0.4-0.9,0.6c1,0.2,1.6,0.7,1.8,1.5
	c0.1,0.4,0,0.9-0.1,1.3c-0.1,0.4-0.4,0.7-0.7,1c-0.3,0.3-0.8,0.5-1.4,0.6c-0.6,0.1-1.3,0.2-2.1,0.1H30c-0.4,0-0.6-0.2-0.6-0.6
	c0-0.2,0.1-0.4,0.2-0.4c0.1-0.1,0.2-0.1,0.4-0.1c0.1,0,0.3-0.1,0.4-0.1c0.1,0,0.2-0.2,0.2-0.4V10z"/>
<path fill-rule="evenodd" clip-rule="evenodd" d="M44.8,12.1c0,1.1-0.4,2.1-1.1,2.9c-0.7,0.8-1.5,1.2-2.5,1.2c-1,0-1.8-0.4-2.5-1.2
	c-0.7-0.8-1.1-1.8-1.1-2.9c0-1.1,0.4-2.1,1.1-2.9C39.4,8.4,40.2,8,41.2,8c1,0,1.8,0.4,2.5,1.2C44.4,10,44.8,11,44.8,12.1L44.8,12.1z
	 M40.1,13.9c0.3,0.7,0.6,1,1,1c0.4,0,0.7-0.3,1-0.8c0.3-0.5,0.4-1.2,0.4-2l0-0.6c0-0.3-0.1-0.7-0.2-1.1c-0.3-0.7-0.6-1.1-1.1-1.1
	c-0.4,0-0.7,0.3-1,0.8c-0.3,0.5-0.4,1.2-0.4,2l0,0.7C39.9,13,40,13.3,40.1,13.9z"/>
<path fill-rule="evenodd" clip-rule="evenodd" d="M48.8,8.2h2.9c0.5,0,0.7,0.2,0.7,0.5c0,0.2-0.1,0.5-0.4,0.6
	c0.3,0.4,0.4,0.8,0.4,1.3c0,0.6-0.2,1.1-0.6,1.4c-0.3,0.3-0.7,0.4-1,0.4c-0.3,0-0.6-0.1-0.8-0.2c-0.3-0.2-0.4-0.4-0.4-0.8
	c0-0.3,0.1-0.5,0.3-0.6c0.2-0.1,0.4-0.2,0.6-0.1c0,0-0.1,0.1-0.1,0.2c0,0.2,0.1,0.4,0.3,0.4c0.2,0,0.4-0.2,0.4-0.5
	c0-0.5-0.2-0.9-0.5-1.1c-0.3-0.2-0.6-0.3-1-0.3h-1.2v4.8c0,0.1,0.1,0.2,0.2,0.4c0.1,0.1,0.2,0.2,0.3,0.2c0.4,0,0.6,0.2,0.6,0.6
	c0,0.4-0.2,0.6-0.6,0.6H46c-0.4,0-0.6-0.2-0.6-0.6c0-0.4,0.2-0.6,0.6-0.6c0.1,0,0.2-0.1,0.3-0.2c0.1-0.1,0.2-0.2,0.2-0.4V9.9
	c0-0.1-0.1-0.2-0.2-0.4c-0.1-0.1-0.2-0.2-0.3-0.2c-0.4,0-0.6-0.2-0.6-0.6c0-0.4,0.2-0.6,0.6-0.6H48.8z"/>
<path fill-rule="evenodd" clip-rule="evenodd" d="M60.4,11.1c0,1.7-0.5,3-1.5,3.8c-0.7,0.6-1.7,1-3.1,1.1V18c0,0.4-0.1,0.8-0.4,1
	c-0.3,0.3-0.7,0.4-1.1,0.4c-0.3,0-0.6-0.1-0.9-0.3c-0.3-0.2-0.4-0.4-0.4-0.7c0.7,0,1.1-0.4,1.1-1.2V9.9c0-0.1-0.1-0.2-0.2-0.4
	c-0.1-0.1-0.2-0.2-0.3-0.2c-0.4,0-0.6-0.2-0.6-0.6c0-0.4,0.2-0.6,0.6-0.6h4.2c0.9,0,1.6,0.3,2.1,0.9C60.2,9.7,60.4,10.3,60.4,11.1
	L60.4,11.1z M58,11.8c0-0.6,0-1.1-0.2-1.6c-0.2-0.5-0.6-0.8-1.2-0.8h-0.3c-0.1,0-0.2,0.1-0.3,0.2c-0.1,0.1-0.2,0.2-0.2,0.4v3.8v1.2
	c0.5-0.1,0.9-0.4,1.3-0.7C57.6,13.5,58,12.8,58,11.8z"/>
<path fill-rule="evenodd" clip-rule="evenodd" d="M68.1,15.9h-4.7c-0.5,0-1-0.2-1.4-0.5c-0.6-0.4-0.9-1-0.9-1.7
	c0-0.9,0.3-1.6,0.9-2.2c0.7-0.6,1.8-1,3.4-1.3l0-0.5c-0.7,0.1-1.4,0.2-2,0.2c-0.7,0-1.2-0.2-1.6-0.6c-0.3-0.3-0.4-0.6-0.4-1
	c0-0.2,0.1-0.5,0.2-0.7c0.1-0.2,0.3-0.3,0.6-0.3c0.2,0,0.5,0.1,0.8,0.3c0.4,0.3,0.7,0.5,0.9,0.6C64,8.5,64.4,8.6,65,8.6
	c0.4,0,0.9-0.1,1.4-0.3C67,8.1,67.3,8,67.5,8c0.4,0,0.6,0.2,0.5,0.6c0,0.2-0.2,0.4-0.5,0.7c-0.3,0.3-0.5,0.7-0.4,1.1l0.4,3.8
	c0,0.1,0.1,0.2,0.2,0.4c0.1,0.1,0.2,0.2,0.3,0.2c0.4,0,0.6,0.2,0.6,0.6C68.7,15.7,68.5,15.9,68.1,15.9L68.1,15.9z M63.9,14.6
	c0.2,0.1,0.4,0.1,0.5,0.1h0.7c0.1,0,0.2-0.1,0.3-0.2c0.1-0.1,0.2-0.2,0.1-0.4l-0.1-1l-0.2-2c-0.4,0.1-0.9,0.3-1.3,0.7
	c-0.5,0.4-0.7,0.9-0.8,1.4C63.2,13.9,63.5,14.3,63.9,14.6z"/>
<path fill-rule="evenodd" clip-rule="evenodd" d="M73.9,15.9c-1.4-0.2-2.4-0.5-3.1-1.1c-1-0.8-1.5-2.1-1.5-3.8
	c0-0.8,0.2-1.4,0.7-1.9c0.5-0.6,1.2-0.9,2.1-0.9h1.9V7.7c0-0.1-0.1-0.2-0.2-0.4c-0.1-0.1-0.2-0.2-0.3-0.2c-0.4,0-0.6-0.2-0.6-0.6
	C72.8,6.2,73,6,73.4,6h2.8c0.4,0,0.6,0.2,0.6,0.6c0,0.4-0.2,0.6-0.6,0.6c-0.1,0-0.2,0.1-0.3,0.2c-0.1,0.1-0.2,0.2-0.2,0.4v0.5h1.9
	c0.9,0,1.6,0.3,2.1,0.9c0.4,0.5,0.7,1.2,0.7,1.9c0,1.7-0.5,2.9-1.5,3.8c-0.7,0.6-1.8,1-3.1,1.1V18c0,0.4-0.1,0.8-0.4,1
	c-0.3,0.3-0.7,0.4-1.1,0.4c-0.3,0-0.6-0.1-0.9-0.3c-0.3-0.2-0.4-0.4-0.4-0.7c0.7,0,1.1-0.4,1.1-1.2V15.9L73.9,15.9L73.9,15.9z
	 M75.7,11.9v3c0.5-0.1,0.9-0.4,1.3-0.7c0.1-0.1,0.3-0.3,0.5-0.6c0.2-0.3,0.3-0.6,0.4-0.9c0.1-0.3,0.2-0.7,0.2-1.1
	c0-0.4-0.1-0.8-0.2-1.3c-0.3-0.5-0.7-0.8-1.2-0.8h-0.3c-0.1,0-0.2,0.1-0.3,0.2c-0.1,0.1-0.2,0.2-0.2,0.4V11.9L75.7,11.9z M73.9,9.9
	c0-0.1-0.1-0.2-0.2-0.4c-0.1-0.1-0.2-0.2-0.3-0.2h-0.3c-0.6,0-1,0.3-1.2,0.8c-0.2,0.4-0.2,0.9-0.2,1.3c0,0.4,0.1,0.8,0.2,1.1
	c0.1,0.3,0.2,0.6,0.4,0.9c0.2,0.3,0.3,0.5,0.5,0.6c0.4,0.4,0.8,0.6,1.3,0.7v-3V9.9z"/>
</svg>
