<?xml version="1.0" encoding="utf-8"?>
<!-- Generator: Adobe Illustrator 20.1.0, SVG Export Plug-In . SVG Version: 6.00 Build 0)  -->
<svg version="1.1" id="Слой_1" xmlns="http://www.w3.org/2000/svg" xmlns:xlink="http://www.w3.org/1999/xlink" x="0px" y="0px"
	 viewBox="0 0 511.7 220.8" style="enable-background:new 0 0 511.7 220.8;" xml:space="preserve">
<style type="text/css">
	.st0{fill:#FCC693;}
	.st1{fill:#2872C8;}
	.st2{fill:#FEFEFE;}
	.st3{fill:#F8A571;}
</style>
<path class="st0" d="M120,0.5c4.8,0,9.6,0,14.4,0c1.4,0.5,2.8,0.3,4.2,0.4c5.9,0.5,11,2.8,15.6,6.3c13.2,10.1,28.1,16.1,44.5,18.1
	c2.9,0.4,5.9,0.7,8.8,0.6c12.6-0.1,25.1-0.2,37.7,0c18.9,0.3,35.2,7.1,48.8,20.3c4.8,4.7,8.7,10.2,11.5,16.4
	c2.5,5.6,3.2,11.2-0.6,16.6c-1.6,2.2-3.6,3.8-6,5.1c-4.9,2.7-10.1,4.2-14.9,4c1.2-0.2,3.3-0.1,5.4-0.1c7,0,13.9,0.3,20.9,0
	c14.1-0.6,28.2-0.9,42.2-3.2c10.7-1.8,20.4-5.5,29.5-11.3c21.7-13.6,43.7-26.8,65.7-40.1c9.7-5.9,20-10.8,31-13.9
	c13.8-3.8,21.9-0.1,30.2,10.5c2.4,3.1,3.7,6.5,3.5,10.4c-0.1,1.8,0,3.5,0,5.3c0,3.2-1,5.9-3.3,8.2c-4.2,4.2-9.2,7.4-13.8,11.1
	C474,82,452.6,98.4,431.3,115c-13.6,10.6-27.1,21.1-40.7,31.6c-7.2,5.6-14.4,11.1-21.5,16.8c-5.6,4.5-11.8,8.1-19,9.1
	c-3.6,0.5-7.3,0.8-11,1.1c-6.4,0.5-12.7,1.7-19,2.7c-14.3,2.1-28.6,4.4-42.9,6.6c-15.2,2.4-30.3,4.7-45.5,7
	c-11.9,1.8-23.8,3.6-35.9,4.6c-10.1,0.8-20.2,1.4-30.4,1.4c-39,0-77.9,0-116.9,0c-1.6,0-3.4,0.4-4.6-1.3c-0.6-1.1-0.4-2.4-0.4-3.5
	c0-50.6,0-101.2,0-151.8c0-1,0-1.9,0.1-2.9c0.5-1.5,1.7-2.5,2.9-3.4C63.8,20.7,81.9,10.3,102,3.8c5.6-1.8,11.3-2.9,17.1-3.1
	C119.4,0.7,119.7,0.7,120,0.5z"/>
<path class="st1" d="M44.7,194.9c0,8.1-0.1,16.1,0,24.2c0,1.8-0.4,2.3-2.2,2.2c-14-0.1-28,0-42,0c0-70.6,0-141.1,0-211.7
	c0.8-1,1.9-1,3.1-1c12.7,0,25.4-0.1,38.1,0c3.2,0,3.9,0.8,4,4c0.1,6.4,0,12.8,0,19.2c0,1.3-0.4,2.5-1,3.7c0,0.7-0.1,1.4-0.1,2.2
	c0,51.7,0,103.4,0,155.1C44.6,193.4,44.7,194.1,44.7,194.9z"/>
<path class="st2" d="M44.7,35.5c0-7.9-0.1-15.8,0-23.7c0-1.8-0.5-2.2-2.3-2.2c-14,0.1-28,0-41.9,0c0-2.7,0-5.4,0-8.1
	c0-0.8,0.1-1.2,1-1c0.4,0.1,0.8,0,1.2,0c39.1,0,78.3,0,117.4,0c-3.5,0.8-7,1.5-10.4,2.3c-11.8,2.7-22.7,7.5-33.4,13
	C65.2,21.5,54.7,28.2,44.7,35.5z"/>
<path class="st3" d="M217.7,80.2c14.9,0,29.7,0,44.6,0c6.7,0,10.6,5.1,8.9,11.6c-1,3.9-4.2,6.2-8.6,6.2c-13,0-25.9,0-38.9,0
	c-16.2,0-32.3,0-48.5,0c-4.4,0-8.8,0.6-13,2c-7.2,2.4-11.9,7.5-11.6,15.6c0.2,4.5-2.9,8.1-6.9,8.8c-5.1,0.8-9.3-1.3-10.4-5.8
	c-0.9-3.7-0.5-7.6,0.4-11.4c2.7-11.4,10-18.9,20.7-23.1c7-2.7,14.3-3.9,21.8-3.9C190,80.2,203.9,80.2,217.7,80.2z"/>
</svg>
