<?xml version="1.0" encoding="utf-8"?>
<!-- Generator: Adobe Illustrator 20.1.0, SVG Export Plug-In . SVG Version: 6.00 Build 0)  -->
<svg version="1.1" id="Слой_1" xmlns="http://www.w3.org/2000/svg" xmlns:xlink="http://www.w3.org/1999/xlink" x="0px" y="0px"
	 viewBox="0 0 141.5 128" style="enable-background:new 0 0 141.5 128;" xml:space="preserve">
<style type="text/css">
	.st0{fill:#FDFDFD;}
	.st1{fill:#F9F9F9;}
</style>
<path d="M99.5,123.5c0.4-3.8-1-5.6-5.1-6.7c-9.6-2.5-15.6-9.1-18.3-18.6c-0.7-2.6-1.2-4.9-4.7-4.3c-2,0.3-3-0.5-3-2.8
	c0-2.2,0.8-3.2,2.9-2.8c3.4,0.6,4.1-1.5,4.8-4.2c2.7-9.9,9.1-16.4,19.1-19.1c2.6-0.7,4.8-1.4,4.1-4.8c-0.4-2.2,0.7-2.8,2.8-2.8
	c2.2,0,3.1,0.9,2.7,3c-0.5,3.1,1.3,3.9,3.8,4.6c9.4,2.4,16.1,8.3,18.7,17.5c1.4,4.7,3.4,6.6,8,6.1c0,1.7,0,3.3,0,5
	c-4.2,1.2-6.1,4.2-7.5,8.3c-2.6,7.4-7.9,12.7-15.4,15.3c-3.8,1.3-6.8,3.1-8.4,6.8C102.6,123.9,101,124.4,99.5,123.5z"/>
<path class="st0" d="M104.6,123.5c-0.5-4.2,1.7-5.8,5.6-6.9c8.5-2.4,14.6-8.2,17.1-16.6c1.4-4.8,3.2-7.1,8.2-6.6
	c0,9.5-0.1,19,0.1,28.5c0,2.2-0.4,2.6-2.6,2.6c-9.5-0.2-19-0.1-28.5-0.1C103.9,124.1,104,123.8,104.6,123.5z"/>
<path d="M49.4,6.4c5.4-1.2,10.7-1.1,16.1,0.1c12.3,8.6,16.1,9.4,14.2,25.2c-0.1,0.8-0.4,1.9,0,2.4c4.1,5.9,0.7,10.7-2.1,15.5
	c-3.1,5.3-4.5,11-3.8,17.1c0.1,0.5,0.1,1.2,0.3,1.4c5.8,2.9,1.3,5.8-0.2,8.4c-1.5,2.7-0.8,7.2-6,7.3c-2.6,0-4,2.4-3.9,5
	c0.1,3.2-1.4,8.1,2.4,8.8c6.2,1.1,6.2,5.9,8.3,9.7c-1.1,1.7-2.9,1.3-4.6,1.3c-19.3,0-38.6-0.1-58,0.1c-3.7,0-5-1-4.8-4.8
	c0.3-3.8,0-7.6,0-11.5c0.5-2.9,2.8-4.4,4.8-6.1c6.9-5.5,14.3-10.2,22-14.5c6.3-3.5,7.6-8.3,5.3-15.4c-1.7-5.1-5.6-9-6.4-14.4
	c-0.4-2.5-1.3-4.9,0.9-7c0.8-0.8,0.6-1.8,0.5-2.8C33.5,19.3,37.7,12.1,49.4,6.4z"/>
<path class="st1" d="M110.8,84.3c0.1,1-0.4,1.6-1.3,1.8c-1.6,0.2-3.5,0.7-4.5-1.1c-0.8-1.4-1.5-2.7-3.4-2c-0.6,0.2-1.3,1.2-1.4,1.9
	c-0.3,2,1,2.9,2.6,3.8c1.9,1,3.9,1.9,5.6,3.2c3.2,2.6,3.4,7.3,0.5,10.1c-1.6,1.6-4.5,2-4.7,5.2c0,0.8-2.8,0.9-2.9,0
	c-0.5-3.4-3.6-3.3-5.4-5c-1.6-1.5-4-3.6-1.8-5.7c1.5-1.5,4.3-1.5,5.6,1.7c0.5,1.3,1.9,1.8,3.4,1.5c1.1-0.3,1.6-1.2,1.7-2.2
	c0.2-1.5-0.5-2.6-1.8-3.3c-1.9-1-3.9-1.8-5.7-3c-3.6-2.5-4.2-7.4-1.4-10.4c1.8-1.9,5.4-2,5.5-5.7c0-0.6,2-0.8,2.1-0.4
	c1.1,4.2,6.2,5.2,7.2,9.3C110.7,84,110.7,84.2,110.8,84.3z"/>
</svg>
