<?xml version="1.0" encoding="utf-8"?>
<!-- Generator: Adobe Illustrator 20.1.0, SVG Export Plug-In . SVG Version: 6.00 Build 0)  -->
<svg version="1.1" id="Слой_1" xmlns="http://www.w3.org/2000/svg" xmlns:xlink="http://www.w3.org/1999/xlink" x="0px" y="0px"
	 viewBox="0 0 559 818" style="enable-background:new 0 0 559 818;" xml:space="preserve">
<style type="text/css">
	.st0{fill:#6F616C;}
	.st1{fill:#6C5E69;}
	.st2{fill:#998F97;}
	.st3{fill:#CEC9CD;}
	.st4{fill:#9D949B;}
	.st5{fill:#9B9299;}
	.st6{fill:#C9C4C8;}
	.st7{fill:#3E2C3A;}
	.st8{fill:#D6AFCC;}
	.st9{fill:#BB608F;}
	.st10{fill:#BB618F;}
	.st11{fill:#F5E2DD;}
	.st12{fill:#AD8A80;}
</style>
<path class="st0" d="M-635.1,416c-0.1,1.1,0.5,2.4-0.4,3.4c0-1.1,0-2.2,0-3.4C-635.4,415.9-635.2,415.9-635.1,416z"/>
<path class="st1" d="M-635.5,435.8c0.9,1,0.3,2.3,0.4,3.4c-0.2,0.2-0.3,0.1-0.4-0.1C-635.5,438-635.5,436.9-635.5,435.8z"/>
<path class="st2" d="M-371.1-133.1c-1,0-2,0.5-2.8-0.4c1,0,1.9,0,2.9,0c0.2,0.1,0.2,0.2,0.1,0.3C-371-133.2-371-133.1-371.1-133.1z"
	/>
<path class="st1" d="M-371.1-133.1c0-0.1,0-0.3,0.1-0.4c1,0,1.9,0,2.9,0C-369-132.7-370.1-133.1-371.1-133.1z"/>
<path class="st1" d="M-350.8-133.1c-1,0-2.1,0.5-2.9-0.4c1,0,1.9,0,2.9,0c0.1,0.1,0.2,0.1,0.2,0.2
	C-350.7-133.2-350.8-133.1-350.8-133.1z"/>
<path class="st2" d="M-350.8-133.1c0-0.1,0-0.3-0.1-0.4c1,0,1.9,0,2.9,0C-348.8-132.6-349.9-133.1-350.8-133.1z"/>
<path class="st3" d="M-635.5,411.3c0.1,0,0.3,0,0.4,0c0,0.8,0,1.6,0,2.4c-0.1,0.3-0.2,0.3-0.4,0
	C-635.5,412.9-635.5,412.1-635.5,411.3z"/>
<path class="st4" d="M-635.5,413.7c0.1,0,0.3-0.1,0.4,0c0,0.8,0,1.6,0,2.4c-0.1,0-0.3,0-0.4,0C-635.5,415.3-635.5,414.5-635.5,413.7
	z"/>
<path class="st5" d="M-635.5,439.1c0.1,0,0.3,0,0.4,0.1c0,0.8,0,1.6,0,2.4c-0.1,0.2-0.3,0.2-0.4,0
	C-635.5,440.7-635.5,439.9-635.5,439.1z"/>
<path class="st6" d="M-635.5,441.5c0.1,0,0.3,0.1,0.4,0c0,0.8,0,1.6,0,2.4c0,0-0.2,0-0.2,0l-0.2,0
	C-635.5,443.1-635.5,442.3-635.5,441.5z"/>
<g>
	<path class="st7" d="M294,11.2c1.9,1,4,0.6,6,0.8c46.3,4.4,87.1,21.8,122.2,52.2c34.8,30.1,58,67.6,68.8,112.4
		c12.2,50.3,6.9,99.1-15.3,145.9c-5.9,12.5-13.1,24.2-21.3,35.2c-1,1.3-0.7,1.8,0.4,2.8c40.5,33.9,69.5,75.7,86.1,125.9
		c10.2,30.9,14.9,62.8,13.6,95.3c-2.7,65.8-25.7,123.6-69.2,173c-18.9,21.5-40.8,39.3-65.4,54c-2.9,1.7-5.9,2.5-9.3,2.5
		c-87.1,0-174.2,0-261.4,0c-3.2,0-6.1-0.8-8.9-2.4c-64-39-106.2-94.5-126-166.8c-4.8-17.5-7.4-35.3-8.5-53.4
		c-0.3-0.8-0.1-1.6-0.2-2.4c0-0.8,0-1.6,0-2.4c-0.1-1.1,0.3-2.3-0.2-3.4c0-5.4,0-10.9,0-16.3c0.5-1.1,0.1-2.3,0.2-3.4
		c0-0.8,0-1.5,0-2.3c0-0.8,0-1.5,0-2.3c0-14.3,2.4-28.3,5.3-42.3c3.6-17,8.9-33.5,15.7-49.5c7.2-17.1,16.3-33.1,26.8-48.4
		c11.6-16.8,25.1-31.9,39.9-45.9c3.3-3.1,6.7-6.1,10.3-9c2.2-1.7,2.2-1.9,0.6-4c-21.2-29-34.3-61.2-39.8-96.7
		c-1.3-8.3-1.7-16.7-2.2-25c-0.4-6.7,0-13.4,0.3-20.1c0.5-11.3,2.2-22.4,4.6-33.5c3.8-17.4,9.7-34.2,17.6-50.1
		c8.1-16.4,18.3-31.5,30.2-45.4c10-11.6,21.1-22,33.3-31.3c13.2-10,27.3-18.4,42.4-25.2c10.8-4.9,21.9-8.9,33.4-11.9
		c11.7-3,23.5-5.5,35.6-6.1c2.1-0.1,4.3,0.2,6.4-0.4c0.3,0,0.6,0,1,0c0.9,0.5,1.9,0.1,2.9,0.2c1-0.1,2,0.3,2.9-0.2
		c4.8,0,9.6,0,14.4,0c0.9,0.5,1.9,0.1,2.9,0.2c1-0.1,2,0.3,2.9-0.2C293.3,11.2,293.6,11.2,294,11.2z"/>
	<path class="st8" d="M518,499.9c4.4,14.1,7.4,28.4,9.2,43.1c1.3,10.8,2,21.7,1.8,32.5c-0.6,36.5-8.7,71.2-24.5,104.1
		c-12.8,26.8-29.9,50.6-51.2,71.3c-13.2,12.8-27.6,24-43.2,33.7c-1.3,0.8-2.7,0.9-4.1,0.9c-79.4,0-158.7,0-238.1,0
		c-4.8,0-9.6,0-14.4,0c-1.4,0-2.6-0.3-3.8-1.1C89.6,746.3,51.9,692.4,36.3,623c-4.2-18.8-5.8-37.9-5.2-57.2
		c0.7-22.5,4.2-44.5,10.9-66c0.6-1,1.5-0.8,2.4-0.7c7.1,0.9,14.2,1.9,21.4,2c1.9,0,3.1,1,3.4,3c2.3,7.9,7.5,11.3,16.5,10.3
		c4.2-0.5,8.4-0.4,12.7-0.7c12-1,23.8-2.8,35.5-5.5c21.6-4.9,42.1-12.7,61.6-23.2c15.6-8.4,30.1-18.5,43.5-30.1
		c5.3-4.6,10.5-9.4,15.4-14.5c8.4-8.6,16.1-17.8,23.1-27.5c0.5-0.7,1-1.4,1.6-2.1c1.7-2.3,2.2-2.3,3.8,0c2.1,2.8,4.1,5.7,6.3,8.5
		c20.1,25.8,44.2,47,72.6,63.2c25.9,14.8,53.6,24.5,83.1,29.1c9.1,1.4,18.2,2.5,27.4,2.6c0.6,0,1.3,0,1.9,0.2
		c7.5,1.4,14.7-1.4,16.8-10.6c0.3-1.5,1.4-2,2.8-2.2c5.2-0.6,10.5-0.7,15.7-1.4c1.9-0.3,3.8-0.5,5.7-0.7
		C516.1,499.2,517.1,499.1,518,499.9z"/>
	<path class="st9" d="M518,499.9c-5.2,0.5-10.4,1-15.6,1.7c-2.8,0.4-5.7,0.2-8.5,0.6c-1.6,0.2-2.2,0.8-2.6,2.1
		c-0.9-0.7-0.6-1.8-0.7-2.7c-0.4-6-4.4-10.2-10.3-11.1c-4.7-0.7-9.4-0.4-14.1-0.8c-11-0.9-21.9-2.6-32.7-5
		c-16.8-3.9-33-9.7-48.4-17.4c-15.9-7.9-30.8-17.6-44.4-29.2c-4.9-4.2-9.7-8.4-14.1-13c-13-13.1-24.4-27.5-33.7-43.5
		c-1-1.7-1.9-3.5-3.4-4.9c-5.7-5.6-14.9-4.6-18.9,2.3c-6.4,10.8-13.3,21.1-21.3,30.7C236,425.4,221,439.3,203.9,451
		c-17.1,11.8-35.5,21-55.2,27.7c-14,4.8-28.5,8-43.2,9.9c-8.5,1.1-17,1.3-25.6,1.8c-5.6,0.4-10.4,5.2-10.6,10.8
		c0,1.2,0.4,2.4-0.7,3.4c-0.2-2.5-1.9-2.8-4-2.8c-7.3,0-14.4-1.2-21.6-2.1c-0.4,0-0.8,0.1-1.2,0.1c6.3-20.7,15.2-40.2,26.5-58.5
		c10.8-17.4,23.5-33.3,38.2-47.6c8-7.8,16.6-15,25.6-21.7c6.5-4.9,7.5-13,2.3-19.1c-10-11.6-18.4-24.3-25.4-38
		c-7.7-15.2-13.3-31.1-16.7-47.8c-3.3-15.8-4.6-31.8-3.8-47.9c1.2-24.3,6.8-47.7,16.9-69.9c10.6-23.4,25.3-43.8,44.2-61.2
		C176.9,63,208.6,46.9,244.9,40c13.5-2.6,27.2-3.7,41-3.2c23.8,0.9,46.7,5.8,68.6,15.1c25.5,10.8,47.6,26.4,66.3,46.8
		c23.4,25.5,39,55.2,46.4,89.1c2.1,9.4,3.3,18.8,3.9,28.4c2.3,37-5.6,71.7-23.2,104.3c-6.1,11.4-13.4,21.9-21.9,31.7
		c-5.8,6.7-5.1,14.7,1.9,20c10,7.6,19.6,15.7,28.4,24.6c25.9,26.4,45.3,56.9,57.8,91.7C515.6,492.3,517,496,518,499.9z"/>
	<path class="st10" d="M362.1,645.7c-2.3,4.4-5.7,8.2-8.6,12.2c-2.1,2.9-4.8,5.3-6.4,8.5c-1.1,0.2-1.8-0.6-2.6-1.1
		c-5-2.8-10.7-2.1-14.8,1.9c-3,3-5.8,6.2-8.8,9.2c-12.2,12.3-25.1,23.9-38.6,34.8c-1.8,1.5-2.8,1.5-4.7,0
		c-6.7-5.4-13.3-11-19.7-16.8c-5.8-5.2-11.5-10.4-16.9-16c-12-12.3-23.6-25-33.3-39.3c-7.9-11.6-14.6-23.8-18.1-37.6
		c-3-12-2.7-23.7,3.5-34.7c7.1-12.6,17.8-20.3,32.2-22.5c13.9-2.1,25.9,2.4,36.1,11.7c3.2,2.9,5.8,6.4,7.9,10.2
		c4.6,8.4,16.8,8.2,21.5,0c7.7-13.5,19.6-20.9,34.9-22.3c10.8-1,20.8,2.2,29.4,9c11.6,9.1,17.4,21.1,17.2,35.8
		c-0.1,9-2.7,17.5-6.3,25.7c-1.9,4.3-3.9,8.6-6.4,12.6c-3.7,6.1-3.3,12.6,1.9,17.2C362,644.7,362.3,645.1,362.1,645.7z"/>
	<path class="st7" d="M362.1,645.7c-2.6-2.4-4.8-5-5.4-8.7c-0.6-3.3,0.1-6.2,1.7-9c5.3-9.3,9.8-19,12-29.6
		c3.3-15.7,0-29.7-11.3-41.1c-16.2-16.3-40.8-16.9-57.9-2.7c-4,3.3-7.2,7.2-9.8,11.7c-5.4,9.3-17.3,9.3-22.8,0.1
		c-8.9-14.8-22.1-22.5-39.4-21.8c-21.2,0.8-37.8,17.3-40.4,37.3c-1.5,12.1,1.7,23.3,6.5,34.1c6.4,14.6,15.7,27.4,25.8,39.7
		c7.3,8.8,15.1,17.2,23.3,25.1c10.9,10.6,22.3,20.6,34,30.3c1.2,0.9,2,0.9,3.1,0c10.4-8.5,20.5-17.3,30.2-26.6
		c5.6-5.3,11-10.7,16.1-16.4c4.9-5.6,12.9-6.9,19.2-1.6c5.4,6.4,5.4,12.8-0.2,18.9c-18.1,19.6-38,37.3-59.2,53.4
		c-4.6,3.5-10.5,3.7-15,0.3c-32.5-24.7-62.4-52-85.7-85.9c-9.9-14.3-18-29.7-21.9-46.8c-5.8-25-1.1-47.6,17-66.4
		c15.3-16,34.4-22.7,56.5-20.6c15.4,1.5,28.7,7.9,39.9,18.5c1.4,1.3,1.9,1,3.2-0.1c20.1-18.1,43.4-23.7,69-15
		c25.4,8.6,40.7,27.1,45.6,53.6c2.9,15.9-0.5,31.1-6.4,45.9c-2.4,5.9-5.2,11.7-8.4,17.2C376.8,647.7,370.9,649.6,362.1,645.7z"/>
	<path class="st7" d="M68.8,504.6c-0.1-3.5,0-6.9,2.3-9.8c2.5-3.2,5.6-5.1,9.8-5.1c48.9-1.1,93-16.2,131.9-45.9
		c23.2-17.7,42.1-39.3,56.8-64.6c5.4-9.3,17.3-9.4,22.7,0c9.2,15.6,19.9,29.9,32.5,42.9c16.6,17.1,35.5,31.2,56.6,42.3
		c18.5,9.7,38,16.7,58.5,20.8c12.2,2.5,24.6,4,37.1,4.1c7.7,0.1,12.6,3.6,14.2,10c0.4,1.6,0,3.2,0.2,4.8c-1.6,7.7-6.7,11.3-15.5,11
		c-15.3-0.6-30.4-2.3-45.4-5.6c-46-10.3-85.9-31.8-119.6-64.8c-10.6-10.4-20.2-21.6-28.7-33.8c-1.3-1.8-1.7-1.2-2.7,0.1
		c-30.2,42.4-69.8,72.5-118.8,90.1c-20.3,7.3-41.2,11.6-62.6,13.3c-5.2,0.4-10.4,0.6-15.6,0.7C75.3,515.3,70.5,511.6,68.8,504.6z"/>
	<path class="st7" d="M152.4,202.4c0.2-70.8,57.2-128.4,128.8-127.7c69.3,0.6,126.2,56.4,126.2,127.6c0.1,70.8-57.1,127.7-128,127.5
		C208.8,329.5,152.8,272.5,152.4,202.4z"/>
	<path class="st11" d="M280.5,304.1c-49.4,0-91.7-35-100.7-83c-1.4-7.6-1.8-15.2-1.7-22.9c0-1.6,0.7-2.3,2.1-2.9
		c40-18.6,72.8-45.9,98.4-81.8c1.3-1.8,1.8-1.5,2.9,0.1c24.1,33.9,54.9,60.2,92.1,78.8c1.4,0.7,2.8,1.7,4.3,2c3.5,0.9,4,3.1,4,6.3
		c0.2,49.2-32.7,90.5-80.7,101.2C294.3,303.5,287.2,304.2,280.5,304.1z"/>
	<path class="st12" d="M373.8,163.2c-26.6-14.9-48.9-34.6-67.2-59c15.3,3.9,28.7,11.1,40.5,21.5C358.9,136,368,148.4,373.8,163.2z"
		/>
	<path class="st12" d="M185.8,163.7c12.3-30.5,40-53.1,68-59.7C235.1,128.5,212.8,148.2,185.8,163.7z"/>
	<path class="st7" d="M243.8,217.2c-2.2,0-4.3,0-6.5,0c-6.8-0.1-12.2-5.5-12.4-12.4c-0.2-6.9,5-12.8,11.9-13.1
		c4.8-0.2,9.6-0.2,14.4,0c6.7,0.3,12.1,6.1,12,12.8c-0.1,7-5.7,12.6-12.6,12.7C248.3,217.2,246,217.2,243.8,217.2z"/>
	<path class="st7" d="M316.8,217.2c-1.8,0-3.7,0-5.5,0c-6.9-0.1-12.4-5.5-12.6-12.2c-0.1-7.3,4.9-13,11.9-13.3
		c4.1-0.2,8.3-0.2,12.5,0c6.9,0.3,12.2,6.1,12,13c-0.1,6.9-5.7,12.4-12.6,12.5C320.7,217.2,318.7,217.2,316.8,217.2z"/>
</g>
</svg>
