<?xml version="1.0" encoding="utf-8"?>
<!-- Generator: Adobe Illustrator 20.1.0, SVG Export Plug-In . SVG Version: 6.00 Build 0)  -->
<svg version="1.1" id="Слой_1" xmlns="http://www.w3.org/2000/svg" xmlns:xlink="http://www.w3.org/1999/xlink" x="0px" y="0px"
	 viewBox="0 0 361 450" style="enable-background:new 0 0 361 450;" xml:space="preserve">
<style type="text/css">
	.st0{fill:#333333;}
	.st1{fill:#FED2AD;}
	.st2{fill:#A4CCEE;}
	.st3{fill:#3A87D5;}
	.st4{fill:#37638D;}
	.st5{fill:#A48C78;}
	.st6{fill:#FEFEFE;}
	.st7{fill:#665A52;}
	.st8{fill:#504944;}
	.st9{fill:#FDD1AD;}
</style>
<g>
	<path class="st0" d="M223.4,9.5c2,0.9,4.2,0.9,6.4,1.4c24.8,5.5,43.7,27,46.1,52.3c0.2,2.2,0.3,4.5,0.3,6.7c0,22.2,0,44.3,0,66.5
		c0,1.6,0.5,2.4,1.9,3.1c12,6.6,18.5,16.8,18.3,30.5c-0.1,13.6-6.8,23.5-18.6,29.9c-1.4,0.7-1.9,1.4-2.1,3
		c-2.4,20.4-10.5,38.2-24.3,53.4c-2.1,2.3-4.4,4.4-6.7,6.8c6.4,2.6,12.4,5.4,17.9,9.2c26.2,17.8,40.6,42.5,42.8,74.1
		c0.3,3.5,0.2,7,0.2,10.5c0,23.7,0,47.4-0.1,71c0,2.2,0.6,2.7,2.6,2.5c1.8-0.2,3.7-0.1,5.5,0c3.3,0.1,5.9,2.9,5.8,6.1
		c-0.1,3.2-2.6,5.8-5.8,5.9c-0.4,0-0.8,0-1.2,0c-87,0-174.1,0-261.1,0.1c-4.9,0-8-4.3-6.5-8.1c0.9-2.4,2.9-3.9,5.5-3.9
		c1.8,0,3.7-0.1,5.5,0c2,0.2,2.7-0.3,2.6-2.5c-0.1-17.8-0.1-35.5-0.1-53.3c0-8.2-0.1-16.5,0-24.7c0.5-24.5,9.2-45.6,25.8-63.5
		c9.7-10.4,21.3-18,34.9-23.4c-2-1.9-3.8-3.5-5.6-5.4c-14.9-15.6-23.5-34.2-25.8-55.6c-0.1-1.2-0.7-1.7-1.7-2.3
		c-12.1-6.7-18.6-16.8-18.5-30.7c0.1-12.9,6.2-22.5,17.2-29.1c1.7-1,2.5-2,2.4-4.1c-0.2-3.3-0.2-6.6,0-9.8c0.1-2-0.4-2.5-2.5-2.5
		c-17.1,0.1-34.2,0.1-51.4,0c-3.1,0-5.6-2-6.1-4.7c-0.6-3,1-5.8,3.8-7c0.9-0.4,1.9-0.3,2.8-0.3c17,0,33.9,0,50.9,0
		c1.9,0,2.5-0.3,2.5-2.4c-0.1-13.5-0.1-27-0.1-40.6c0-29.6,21.8-54.7,51.1-58.8c0.4-0.1,1,0.2,1.2-0.5
		C167.4,9.5,195.4,9.5,223.4,9.5z"/>
	<path class="st0" d="M12.2,434.3c1.9-3.1,4.6-4.2,8.2-3.9c2.9,0.3,5.9,0,8.9,0.1c3.5,0.1,6,2.7,6,6.1c-0.1,3.3-2.5,5.8-6,5.9
		c-3,0-5.9-0.2-8.9,0.1c-3.6,0.3-6.3-0.8-8.2-3.9C12.2,437.2,12.2,435.8,12.2,434.3z"/>
	<path class="st0" d="M339.6,430.5c1.9,0,3.8,0,5.8,0c3.5,0.1,5.7,2.4,5.7,6c0,3.5-2.2,6-5.7,6c-3.8,0.1-7.7,0.1-11.5,0
		c-3.3-0.1-5.8-2.8-5.8-6.1c0-3.2,2.5-5.8,5.7-5.9C335.7,430.4,337.7,430.5,339.6,430.5z"/>
	<path class="st1" d="M135.1,123.8c18.2,0,36.3,0,54.5-0.1c17,0,34.1,0,51.1,0c1.9,0,2.4,0.5,2.4,2.4c-0.6,15.6,2,30.5,8.7,44.7
		c2.8,5.9,6.1,11.4,10.1,16.5c1.6,2,2.2,3.9,2.1,6.5c-0.3,11-2.4,21.6-7,31.6c-13.1,28.1-35.1,44.4-65.8,48.7
		c-3.8,0.5-7.6,0.8-11.5,0.4c-9.4-2.9-17.4-8.3-24.8-14.6c-12.8-10.9-21.7-24.5-26.9-40.4c-2.7-8.3-4.2-16.9-4.2-25.7
		c0.1-7,0-14.1,0-21.1c0-3.3,1.5-4.3,4.8-3.2c1.6,3.4,4.3,4.7,8.1,4.6c8.1-0.2,16.3-0.1,24.5-0.1c5.5,0,8.1,2.6,8.2,8
		c0,4.6,0,9.1,0,13.7c0,1,0,2.1,0.3,3.1c0.8,2.5,3.2,4.2,5.7,3.8c2.4-0.3,4.5-2.3,4.6-4.8c0.1-6.6,0.3-13.1-0.1-19.7
		c-0.5-7.9-8.1-14.6-16.3-14.8c-6.3-0.1-12.6,0-18.9,0c-1.1,0-2.2,0.1-3.3-0.3c-1.4-1.1-0.1-1.9,0.4-2.6c2.2-3,3.4-6.3,4.3-9.8
		c0.6-2.3,0.2-4.4-0.7-6.5c-2.4-5.9-5.7-11.2-8.9-16.6C135.7,126.4,134.7,125.3,135.1,123.8z"/>
	<path class="st2" d="M141.8,430.4c-7.4,0-14.7-0.1-22.1,0.1c-2,0-2.5-0.6-2.5-2.5c0.1-38.5,0-77.1,0.1-115.6
		c0-10.2-1.8-20-5.7-29.4c-0.7-1.8-0.5-2.6,1.2-3.5c4.1-2.1,8.3-4.1,13.1-5.7c0,1.9,0,3.6,0,5.3c-0.1,14.8,4.8,27.9,15.1,38.5
		c15.6,16.2,34.8,21.7,56.3,15.5c21.5-6.2,34.5-21,39.5-42.8c1.1-4.7,1.2-9.5,1-14.3c-0.1-1.8,0.4-2,2-1.4c3.7,1.5,7.3,3.1,10.9,5
		c1.2,0.7,1.7,1.2,1.1,2.8c-4.2,10.2-5.9,20.8-5.9,31.8c0.1,37.9,0,75.8,0.1,113.7c0,2.2-0.5,2.8-2.7,2.8
		c-7.1-0.2-14.2-0.1-21.4-0.1c-0.9-1-0.6-2.3-0.6-3.4c0-12.4,0.1-24.8,0-37.2c-0.1-9.1-2.9-17.3-8.6-24.4
		c-7.2-8.9-16.5-13.8-28-14.8c-17.1-1.5-32.3,9-38.4,22.3c-2.4,5.3-3.8,10.8-3.8,16.7c0.1,12.5,0,25,0,37.4
		C142.5,428.1,142.7,429.4,141.8,430.4z"/>
	<path class="st3" d="M168.2,21.6c16.9,0,33.7-0.5,50.6,0.1c22.9,0.7,41.9,18.7,44.8,41.5c0.2,1.5,0.2,3,0.2,4.5c0,13.7,0,27.3,0,41
		c0,2-0.4,2.8-2.6,2.8c-10.1-0.1-20.1-0.1-30.2,0c-2,0-2.6-0.6-2.5-2.6c0.1-5.8,0.1-11.5,0-17.3c0-11.5-9.2-20.7-20.7-20.7
		c-10.8,0-21.6,0-32.4,0c-10.3,0-18.9,7.5-20.3,17.7c-0.4,6.6-0.1,13.2-0.2,19.8c0,0.9,0.2,1.9-0.2,2.8l0,0
		c-5.1,0.4-10.3,0.3-15.4,0l0,0c-0.7-0.9-0.6-1.9-0.6-3c0-13.7-0.5-27.5,0.1-41.2c0.9-19.2,9.9-34,26.3-44.3
		C166.1,22.2,167.2,22.1,168.2,21.6z"/>
	<path class="st4" d="M168.2,21.6c-3,2.2-6.3,3.9-9.2,6.3c-9.9,8.2-16.1,18.6-18.6,31.2c-0.7,3.7-1,7.4-1,11.2c0,13.7,0,27.3,0,41
		c-12.6,0-25.3,0-37.9,0.1c-1.9,0-2.4-0.5-2.4-2.4c0.1-13.2,0-26.4,0.1-39.6c0.1-21.9,14.3-40.2,34.8-46.1c3.5-1,7-1.6,10.6-1.7
		C152.4,21.4,160.3,21.6,168.2,21.6z"/>
	<path class="st2" d="M209.9,430.4c-18.7,0-37.4,0-56.1,0c-0.8-0.8-0.7-1.9-0.7-2.9c0-12.6-0.1-25.2,0-37.9
		c0.2-19.2,18.9-32.8,37.3-27.2c13,4,20,16.5,19.9,26.6c-0.2,13.1-0.1,26.2,0,39.3C210.2,429,210.3,429.7,209.9,430.4z"/>
	<path class="st1" d="M258,368.7c0-19.5-0.1-39,0-58.5c0-7.2,1.6-14.1,3.9-20.9c0.6-1.6,1.1-1.5,2.3-0.5
		c15.9,13.9,25.4,31.2,28.3,52.1c0.6,4.3,0.7,8.6,0.7,12.9c0,24.6,0,49.3,0.1,73.9c0,2.4-0.7,2.9-2.9,2.9c-9.8-0.1-19.7-0.2-29.5,0
		c-2.6,0-2.9-0.8-2.9-3.1C258,407.8,258,388.2,258,368.7C258,368.7,258,368.7,258,368.7z"/>
	<path class="st5" d="M135.1,123.8c2.4,4.2,4.8,8.4,7.1,12.7c0.4,0.6,0.6,1.3,1,1.9c5.8,8.7,3.8,16.7-2.4,24.2
		c-1.2,1.2-2.7,0.7-4,0.7c-5.6,0.1-6.1,0.4-8.1,5.6c-0.1,0.2-0.3,0.4-0.5,0.5c-0.2,0-0.3,0-0.5,0c-2.6,0-3.5,1.2-3.4,3.9
		c0.2,7.5-0.1,15,0.1,22.5c0.6,18.5,6.8,35.1,18,49.8c9.4,12.4,21.3,21.7,35.6,27.8c0.6,0.2,1.1,0.6,1.6,1
		c-11.5,0.1-22.5-2.5-32.9-7.5c-21-10-35.4-26.1-43.3-48c-3.2-8.9-4.4-18.1-4.5-27.5c0-1,0.3-1.8,1-2.6
		c10.3-12.6,16.5-27.1,19.1-43.1c1.1-6.5,1.2-13,1-19.6c-0.1-2,0.6-2.6,2.5-2.5C126.8,123.9,131,123.8,135.1,123.8z"/>
	<path class="st1" d="M103.3,296.1c0.7,3.4,1.5,6.9,1.6,10.4c0.2,0.8,0.1,1.6,0.1,2.4c0,39.5,0,79,0,118.5c0,2.8,0,2.8-2.9,2.8
		c-5.8,0-11.5-0.1-17.3,0c-1.7,0-2.3-0.6-2.4-2.2c0-1,0-2.1,0-3.1c0-24.9-0.1-49.9,0-74.8c0.1-15.4,4.2-29.7,11.8-43
		c1.9-3.3,3.9-6.6,6.4-9.6C101.3,296.8,101.8,295.5,103.3,296.1z"/>
	<path class="st6" d="M209.9,430.4c-0.5-1-0.4-2-0.4-3.1c0-12.7-0.2-25.4,0-38.1c0.2-10-6.5-21.1-17.7-25.6
		c-9.6-3.9-21.8-1.4-29.5,6.1c-5.7,5.6-8.5,12.5-8.6,20.4c-0.1,13.4,0,26.9,0,40.3c-4,0-8,0-12,0c0-13.9-0.3-27.8,0.1-41.8
		c0.4-15.1,7.6-26.4,20.6-34c5.9-3.5,12.5-5.2,19.2-5.1c9.2,0.1,17.7,2.8,25,8.8c10.4,8.5,15.2,19.6,15.2,32.9c0,13,0,26.1,0,39.1
		C217.9,430.4,213.9,430.4,209.9,430.4z"/>
	<path class="st5" d="M103.3,296.1c-2,0.8-2.8,2.8-3.9,4.3c-8.9,12.8-14.3,26.8-15.8,42.4c-0.3,3.4-0.4,6.9-0.4,10.3
		c0,24.6,0,49.1,0,73.7c0,3.3,0,3.3,3.4,3.3c5,0,9.9,0,14.9,0c3.4,0,3.4,0,3.4-3.3c0-37.2,0-74.4,0-111.6c0-2.9,0-5.8,0-8.6
		c0.7,1.2,0.4,2.5,0.4,3.7c0,39.2,0,78.4,0.1,117.6c0,2.1-0.5,2.7-2.7,2.7c-10.1-0.2-20.2-0.2-30.2-0.1c-1.8,0-2.3-0.4-2.3-2.3
		c0.1-26.4-0.3-52.8,0.2-79.2c0.3-19.2,7.2-36.3,19.7-51c2.8-3.3,5.9-6.3,9.1-9.2c1-0.9,1.5-1,1.9,0.5
		C101.9,291.6,102.6,293.9,103.3,296.1z"/>
	<path class="st5" d="M154.7,313.4c-6.2-4.4-10.4-10.5-13.4-17.4c-2.4-5.6-3.3-11.5-3.4-17.5c-0.1-2.1,0.6-1.9,2.1-1.2
		c14.2,7,29.2,10.1,45,9.6c12.4-0.4,24.3-3.3,35.7-8.4c0.6-0.3,1.2-0.4,1.8-0.6c0.4,1-0.3,1.7-0.8,2.4c-7.4,9.5-16.5,17-27,22.8
		c-9.8,5.4-20.1,8.9-31.2,10.2C160.5,313.6,157.6,314.7,154.7,313.4z"/>
	<path class="st1" d="M154.7,313.4c19.5-0.7,36.8-7.1,52.1-19.2c5.3-4.2,10-8.9,14.2-14.2c0.5-0.7,1-1.4,1.4-2.2
		c0.9-0.7,1.9-1.4,3.3-1.7c0.5,10.6-2.1,20.1-8.3,28.6c-14.3,19.9-42.4,24.2-61.8,9.5C155.3,314.1,155,313.7,154.7,313.4z"/>
	<path class="st7" d="M199.4,111.3c-10,0-20,0-29.9,0.1c-1.8,0-2.3-0.5-2.3-2.3c0.1-5.7,0-11.5,0-17.2c0-5,3.6-8.8,8.7-8.8
		c6.7-0.1,13.4,0,20.1,0c2.3,1.7,3.1,4.2,3.5,6.8c1.1,5.8,0.4,11.7,0.5,17.6C200.1,108.7,200.4,110.1,199.4,111.3z"/>
	<path class="st8" d="M199.4,111.3c0-4.9-0.1-9.7,0-14.6c0.2-4.9-0.8-9.5-3.4-13.7c3.7,0,7.5,0,11.2,0c5.3,0,8.9,3.7,8.9,9
		c0,5.5-0.1,11,0.1,16.5c0.1,2.4-0.7,2.9-3,2.9C208.7,111.2,204,111.3,199.4,111.3z"/>
	<path class="st7" d="M263.5,166.5c-3.1-5.4-5-11.3-6.4-17.4c-1.8-7.8-2.2-15.8-2-23.7c0-1.3,0.6-1.6,1.7-1.6c6.4-0.3,6.4-0.4,6.4,6
		c0,7.3-0.2,14.6,0.1,21.8C263.5,156.5,263.7,161.5,263.5,166.5z"/>
	<path class="st7" d="M99.9,166.5c-0.1-7.3-0.6-14.5,0-21.7c0.5-6.1,0.2-12.3,0.1-18.4c0-2,0.5-2.6,2.5-2.6c5.2,0.1,5.1,0,5.3,5.3
		c0.5,12.4-1.8,24.2-6.9,35.5c-0.2,0.4-0.3,0.7-0.5,1.1C100.3,166,100.1,166.2,99.9,166.5z"/>
	<path class="st1" d="M276.2,186.4c0-11.3,0-22.2,0-33.1C285.2,159.1,288.4,176.2,276.2,186.4z"/>
	<path class="st9" d="M86.6,153.6c0.2,0.4,0.4,0.5,0.4,0.6c0,10.4,0,20.8,0,31.7c-4.7-4-7-8.8-7.4-14.4
		C78.9,164.5,81.4,158.5,86.6,153.6z"/>
	<path class="st4" d="M154.8,111.3c0-6.9,0-13.7,0-20.6c0-0.7-0.1-1.4,0.4-2c0,7,0,14,0,21.1C155.2,110.3,155.3,110.9,154.8,111.3z"
		/>
	<path class="st4" d="M139.4,111.3c5.1,0,10.3,0,15.4,0c-1,0.9-2.3,0.5-3.4,0.4C147.4,111.5,143.3,112.3,139.4,111.3z"/>
	<path class="st0" d="M128.3,169.4c0.3-4.8,2.3-6.8,7.2-6.8c1.8,0,3.6,0,5.5-0.1c7.4,0,14.9,0.1,22.3,0.1c9.6,0,17.4,7.7,17.6,17.3
		c0.1,5.8,0,11.5,0,17.3c0,3.6-2.5,6.2-5.9,6.2c-3.5,0-6.1-2.6-6.2-6.2c-0.1-5.4,0-10.7,0-16.1c0-4.1-2.3-6.3-6.4-6.3
		c-9,0-18.1,0-27.1,0C131.2,174.7,129.4,173.3,128.3,169.4z"/>
	<path class="st6" d="M254.1,202.4c0,4,0,8,0,12c0,4-2.4,6.4-6.2,6.4c-3.5,0-5.9-2.6-5.9-6.4c0-8.1,0-16.3,0-24.4
		c0-3.6,2.5-6.2,5.9-6.2c3.6,0,6.1,2.5,6.1,6.2C254.2,194.1,254.1,198.2,254.1,202.4z"/>
	<path class="st0" d="M217.2,174.6c-4,0-8,0-12,0c-3.5,0-6.2-2.6-6.2-5.9c-0.1-3.4,2.7-6.1,6.3-6.1c7.8,0,15.7,0,23.5,0
		c3.8,0,6.3,2.4,6.2,6c0,3.6-2.5,5.9-6.3,6C224.8,174.7,221,174.6,217.2,174.6z"/>
	<path class="st0" d="M181.9,239c-3.9,0-7.8,0-11.8,0c-3.8,0-6.3-2.5-6.2-6.1c0-3.5,2.5-5.9,6.1-5.9c7.9,0,15.8,0,23.8,0
		c3.6,0,6.1,2.5,6.1,5.9c0,3.6-2.5,6-6.2,6.1C189.7,239,185.8,239,181.9,239z"/>
	<path class="st0" d="M218.2,190c-3.4,0-6.1-2.7-6.1-6.1c0-3.3,2.6-5.9,5.9-5.9c3.4,0,6.2,2.6,6.2,5.9
		C224.3,187.3,221.6,190,218.2,190z"/>
	<path class="st0" d="M150.3,178c3.5,0,6,2.7,5.9,6.1c-0.1,3.4-2.7,6-6.2,5.9c-3.3-0.1-5.8-2.6-5.8-6
		C144.2,180.5,146.8,178,150.3,178z"/>
	<path class="st6" d="M258,82.3c0,5.6,0,11.2,0,16.8c0,3.9-2.3,6.4-5.9,6.4c-3.6,0-6.2-2.5-6.2-6.4c0-9.6-0.1-19.2,0-28.8
		c0.1-7.3-2-13.8-6.4-19.6c-3.2-4.2-1.3-9.5,3.7-10.2c2.5-0.3,4.3,0.8,5.8,2.7c5.6,7.1,8.7,15.2,8.9,24.3
		C258.1,72.4,258,77.4,258,82.3z"/>
	<path class="st6" d="M218.7,27.5c2.2,0.1,5.3,0.5,8.4,1.3c3.6,1,5.5,3.9,4.8,7.4c-0.7,3.3-3.9,5.3-7.6,4.5c-2.4-0.5-4.8-0.9-7.3-1
		c-4.1-0.2-6.8-2.8-6.6-6.3C210.6,29.7,213.5,27.3,218.7,27.5z"/>
	<path class="st6" d="M272.9,386.9c0-9.7,0-19.3,0-29c0-2.6,0.9-4.8,3.3-6c2.1-1.1,4.4-1,6.4,0.4c2,1.4,2.7,3.6,2.7,5.9
		c0,19.1,0.1,38.2,0,57.3c0,5.6-5.1,8.6-9.5,5.9c-2.2-1.4-2.9-3.5-2.9-6C272.9,405.9,272.9,396.4,272.9,386.9z"/>
	<path class="st6" d="M285.1,339.4c-0.1,3.2-3.2,6.2-6.3,6.1c-3.3-0.2-6.1-3.1-6-6.3c0.1-3.2,2.9-6.1,6.2-6.1
		C282.2,333.1,285.2,336.2,285.1,339.4z"/>
</g>
</svg>
