<?xml version="1.0" encoding="utf-8"?>
<!-- Generator: Adobe Illustrator 20.1.0, SVG Export Plug-In . SVG Version: 6.00 Build 0)  -->
<svg version="1.1" id="Слой_1" xmlns="http://www.w3.org/2000/svg" xmlns:xlink="http://www.w3.org/1999/xlink" x="0px" y="0px"
	 viewBox="0 0 510 531.2" style="enable-background:new 0 0 510 531.2;" xml:space="preserve">
<style type="text/css">
	.st0{fill:#F8C473;}
	.st1{fill:#E1AE66;}
	.st2{fill:#FBE981;}
	.st3{fill:#F6CAA3;}
	.st4{fill:#E98149;}
	.st5{fill:#D26F3D;}
	.st6{fill:#FBE980;}
	.st7{fill:#E7B996;}
	.st8{fill:#508CA2;}
	.st9{fill:#5D9DB9;}
	.st10{fill:#E5E5E5;}
	.st11{fill:#ECD87C;}
	.st12{fill:#989898;}
	.st13{fill:#CBCBCB;}
	.st14{fill:#DFB293;}
	.st15{fill:#808080;}
	.st16{fill:#666666;}
	.st17{fill:#F1F1F1;}
	.st18{fill:#4D4D4D;}
	.st19{fill:#FEFEFE;}
	.st20{fill:#80807F;}
	.st21{fill:#FBE7C9;}
	.st22{fill:#E98249;}
</style>
<path class="st0" d="M282.1,4.8c4.3,1.8,6,5.2,5.7,9.7c-0.1,1.7,0.1,3.4,0,5c-0.2,2.3,0.5,3.3,2.9,3.9c15.4,3.5,29.4,10.2,41.9,19.8
	c23,17.8,37.3,41,42.7,69.6c1.1,6,1.7,12,1.8,18.1c0,1.6,0.5,2.2,2.2,2.2c8.9-0.4,8,1,9.5,7.9c1.4,6.7,2.7,13.4,4.1,20.1
	c0.9,4.1-0.5,6.8-5.3,6.5c-3.3-0.2-6.5,0-9.8,0c-1.1,0.9-2.4,0.6-3.7,0.6c-12.2,0-24.4,0-36.6,0c-4,0-4.1,0-5.4,3.9
	c-2.4,7.4-5.1,14.8-7.6,22.2c-0.6,2.1-2.2,2.7-4.2,2.7c-6,0-12.1-0.1-18.1,0.1c-1.6-0.2-3.2-0.1-4.8-0.1c-19.9,0-39.8,0-59.7,0
	c-3.7,0-7.4,0-11-0.1c-6.2,0.1-12.4,0-18.5,0c-1.7,0-3.2-0.2-3.9-2c-2.2-7.2-5-14.2-7.3-21.4c-0.9-2.9-1.7-5.9-5.5-6
	c-0.5-4,0.6-7.9,1.1-11.9c0.9-6.6,1.7-13.2,2.7-19.7c0.3-1.9-0.4-2.4-2.1-2.4c-5.4,0.2-5.2-0.3-5.1-5.4c0.6-27.1,7.2-52.5,22.2-75.3
	c6.3-9.6,14-17.8,23.8-24c3.7-2.3,7.5-4.3,11.6-5.8c1.7-0.6,2.4-1.6,2.4-3.4c-0.1-4,0-8,0-12c0-1-0.1-2.1,0.7-3
	C259.7,4.8,270.9,4.8,282.1,4.8z"/>
<path class="st1" d="M248.5,4.8c0,5.2-0.1,10.4,0,15.6c0,1.7-0.6,2.6-2.2,3.2c-7.7,2.9-14.6,7-20.8,12.5
	c-13.2,11.7-21.6,26.4-27.9,42.6c-4.2,10.8-6.6,22.1-8.2,33.5c-0.8,6.1-1.3,12.4-1.1,18.6c0,1.6,0.4,2.5,2.1,2.2c0.5-0.1,1,0,1.4,0
	c4.3,0,4.2,0,3.6,4.2c-1.2,8.2-2.1,16.5-3.4,24.8c-0.3,1.9,0,3.8-0.9,5.6c-0.9,1-2.2,0.8-3.3,0.8c-2.3,0-4.5,0.1-6.8,0
	c-9.3,0.1-18.6,0-28,0.1c-1,0-1.9-0.1-2.7-0.8c-3.4,0-6.9-0.2-10.3,0c-3.8,0.3-5.7-1.9-4.9-6.2c0.8-3.7,1.5-7.5,2.3-11.2
	c0.9-4.5,1.8-9.1,2.8-13.6c0.6-2.6,1.9-3.5,4.5-3.7c2-0.1,4.6,0.9,5.7-0.5c1-1.3,0.6-3.8,0.7-5.8c1.2-22.4,8.5-42.6,21.8-60.6
	c16.5-22.2,38.3-36.5,65.2-43c1.6-0.4,2.1-1,2-2.5c-0.1-2,0-4,0-6c-0.2-4.5,1.3-8,5.7-9.8C246.9,4.8,247.7,4.8,248.5,4.8z"/>
<path class="st2" d="M12.3,162.2c1.3-2.2,2.9-4,5.8-3.9c2.2,0.1,3.9,0.9,4.9,2.8c3.4,6,6.8,11.9,10.1,17.9c1.8,3.2,0.9,6.8-1.9,8.4
	c-3,1.7-6.2,0.8-8.1-2.6c-3.4-5.8-6.6-11.7-9.9-17.5c-0.3-0.5-0.6-0.9-0.9-1.4C12.3,164.8,12.3,163.5,12.3,162.2z"/>
<path class="st3" d="M181.3,167.5c3.4,0,6.7,0,10.1,0c4,0.1,4,0.1,5.4,4c2.3,6.7,4.6,13.4,6.9,20.1c0.3,0.9,0.5,1.8,0.7,2.8
	c-0.4,1-1.3,1.3-2.1,1.9c-3,2-5.6,4.5-7,8c-0.8,2.1-0.4,2.6,1.9,2.4c10.7-1.1,21.3-1.2,32,0c0.9,0.1,2.1,0.5,2.7-0.4
	c0.6-0.9-0.1-1.8-0.5-2.7c-0.8-1.9-2.3-3.5-3.7-5c-0.6-0.6-1.4-1.1-1.3-2.1c24.7,0,49.4,0,74.1,0c0.6,0,1.3-0.1,1.8,0.3
	c0,0.5-0.2,1-0.6,1.3c-2.6,2.5-4.6,5.3-5.3,8.9c7.5-0.9,15.2-1.2,22.9-1.1c4,0,8,0.5,11.9,0.8c0.9,0.1,2.1,0.6,2.7-0.3
	c0.6-0.9-0.2-1.8-0.5-2.7c-1.5-3.3-4-5.7-7-7.6c-0.9-0.5-1.9-0.9-2.4-1.9c2.7-8,5.4-16,8.1-24c0.6-1.8,1.5-2.6,3.6-2.6
	c14.1,0.1,28.1,0.1,42.2,0.1c0.4,3.6,0.9,7.2,1.2,10.9c0.4,4.3,0.7,8.7,1.1,13c1,0.9,1.1,2,1.2,3.3c1.2,12.6,2.4,25.2,3.6,37.9
	c0.3,3.3,0.6,6.7,0.9,10c0.1,0.8,0,1.6-0.5,2.3c0.7,5.2,0.7,10.5,0.4,15.8c-0.8,18.5-7.3,34.9-18.6,49.6
	c-7.3,9.5-16.8,16.2-26.4,23.1c-3.6,2.6-7.1,5.1-10.7,7.7c-0.4,0.3-1.8,0.7-0.5,1.6c-6.4,3.6-12,8.3-17.9,12.6
	c-3.6,2.5-7.1,5.2-10.7,7.6c-9.8,6.5-20.6,9.9-32.3,10.8c-8.4,0.6-16.5-0.5-24.5-3c-0.9-0.3-1.8-0.6-2.6-1.1
	c-4.1-2.7-7.3-6.2-10.3-9.9c-12.5-15.4-25-30.8-37.5-46.2c-3.2-4-6.5-7.9-9.7-11.9c-5.8-7.1-9.7-15.2-11.4-24.3
	c-1.1-5.5-0.9-11.1-0.4-16.7c0.7-8,1.4-16.1,2.2-24.1c0.8-8,1.5-16.1,2.2-24.1c0.7-7.9,1.4-15.7,2.1-23.6c0.6-6.6,1.1-13.2,1.9-19.8
	C180.7,168.5,180.9,167.9,181.3,167.5z"/>
<path class="st4" d="M332,343.2c10.4,1.8,19.9,6,28.3,12.3c16.6,12.4,26.1,29,28.7,49.6c0.3,2.3,0.4,4.6,0.4,6.9c0,34,0,68,0.1,102
	c0,2.5-0.6,3-3.1,3c-37-0.1-74.1-0.1-111.1-0.1c-0.8,0-1.6,0-2.4,0c-0.8-0.8-0.7-1.9-0.7-2.9c0-35.4,0-70.7,0-106.1
	c0-1.1-0.3-2.5,0.8-3.1c1.1-0.6,2.1,0.4,3,1c6.3,4.4,12.5,8.9,18.8,13.3c5.9,4.1,11.7,8.4,17.6,12.5c2.3,1.6,2.5,1.6,3.1-1.3
	c3.5-19.3,7-38.6,10.5-57.8c1.6-8.6,3.1-17.2,4.6-25.7C330.9,345.4,330.9,344.1,332,343.2z"/>
<path class="st5" d="M332,343.2c-2,11.2-4.1,22.3-6.1,33.5c-2.8,15.6-5.5,31.3-8.3,46.9c-0.6,3.1-1.4,6.2-1.8,9.4
	c-0.3,1.8-0.8,1.3-1.8,0.6c-6.5-4.6-13-9.2-19.5-13.8c-6.7-4.8-13.4-9.5-20.1-14.3c-0.3-0.2-0.7-0.4-1.5-0.8c0,37.6,0,74.9,0,112.1
	c-5.8,0.2-11.5,0.2-17.3,0c-1.1-1.2-0.7-2.7-0.7-4.1c0-34.5,0-69.1,0-103.6c0-0.9,0.2-1.8-0.2-2.6c-1.1,0.1-1.7,0.9-2.4,1.4
	c-11.6,8.3-23.3,16.6-35,24.9c-0.1,0.1-0.3,0.2-0.4,0.3c-3.5,2.4-4.2,2.2-4.9-1.9c-3.7-20.1-7.3-40.3-10.9-60.4
	c-0.1-0.8-0.1-1.6-0.6-2.3c-0.5-0.1-0.8,0.2-1,0.5c-8.6,10.9-13.7,23.2-15.1,37c-0.5,4.7-0.4,9.4-0.4,14.1c0,30.6,0,61.3,0,91.9
	c0,4.8,0,4.8-4.8,4.8c-12.3,0-24.6,0-36.9,0c-0.9,0-1.8,0.2-2.6-0.2c0-1-0.1-1.9-0.1-2.9c0-33.9,0.1-67.8,0-101.7
	c-0.1-32.5,23.6-62,56.5-68.7c1-0.2,2-0.4,3-0.5c1.1-0.7,2.2-0.4,3.1,0.3c4.6,3.4,9.4,6.7,13.9,10.2c0.7,0.5,1.3,1.2,1.6,2
	c4.4,12.2,12.1,21.6,23.5,27.6c12.8,6.8,26.2,7.8,39.9,2.9c14.1-5.1,23.8-14.9,29.4-28.7c0.3-0.8,0.7-1.6,1.3-2.3
	c4.3-3.9,9.3-6.8,13.8-10.4c1.2-0.9,2.3-2,4-1.6C330.4,342.8,331.3,342.5,332,343.2z"/>
<path class="st6" d="M79.4,193.4c4.1-0.9,8.2-0.6,12.3-0.3c9.9,0.7,19.3,3.5,28.1,8.3c1.1,0.6,2.2,1.2,3.3,1.8
	c0.5,1-0.2,1.7-0.6,2.4c-6.7,13.2-2.5,27.9,10.2,35.5c2.6,1.6,5.6,2.3,8.6,2.9c0.8,0.2,1.8,0.1,2.3,1c0.7,1.8-0.1,3.5-0.1,5.2
	c-0.5,12.2,0.7,24.1,5,35.6c0.4,1,0.9,2.1,0.1,3.2c-3.5,8.4-8.9,15.6-15.6,21.7c-4.7,4.4-9.9,8-15.6,10.8c-7.3-0.4-14.6-0.1-22-0.2
	c-1.3,0-2.6,0.1-3.8-0.4c-1-0.7-0.9-1.8-0.9-2.8c0-12.2,0-24.5,0-36.7c0-2.1,0.8-3.4,2.8-4.2c7-2.8,11.2-8,12.7-15.4
	c0.5-2.5,0.2-2.9-2.5-3c-0.5,0-1,0-1.4,0c-4.2,0-4.2,0-5.9,4c-1.9,4.5-5.7,6.7-11.1,6.6c-4.3-0.1-8.3-3-9.7-7.3
	c-1-2.9-0.4-3.3-4.7-3.3c-0.2,0-0.5,0-0.7,0c-4.6,0-4.9,0.4-3.7,4.8c1.8,6.4,5.8,11,11.9,13.5c2.5,1,3.3,2.5,3.3,5.1
	c-0.1,11.7,0,23.5-0.1,35.2c0,1.2,0.2,2.4-0.8,3.4c-4.1,1-8.3,0.3-12.5,0.4c-1,0-2,0.1-2.9-0.3c-5.6-3.6-9.3-9-12.7-14.4
	c-4.7-7.5-7.7-15.6-9.5-24.2c-3.8-17.8-3.2-35.4,2.7-52.7c3.1-9.2,7.7-17.6,14.3-24.7c5.2-5.6,11.3-10.2,19.2-11.4
	c0.3,0,0.5-0.1,0.2-0.1C79.5,193.6,79.5,193.4,79.4,193.4z"/>
<path class="st4" d="M139.6,516.4c13.7,0,27.3,0,41,0.1c2.2,0,2.6-0.7,2.6-2.7c-0.1-34.3-0.2-68.6,0-102.9c0.1-9.2,2.2-18.1,6-26.6
	c2.6-6,6.2-11.3,10-16.5c0.4-0.5,0.8-1,1.6-2c0.6,3,1.1,5.3,1.5,7.6c1.7,9.5,3.4,19.1,5.1,28.6c1.8,10.2,3.7,20.5,5.4,30.7
	c0.3,1.6,0.9,1.7,2,0.9c12.4-8.8,24.7-17.7,37.1-26.5c1.1-0.8,2.1-1.7,3.6-2.1c0,37.4,0,74.6,0,111.9c-5.6,0-11.2,0-16.8,0
	c-32.2,0-64.5,0.1-96.7,0C141.4,516.9,140.3,517.4,139.6,516.4z"/>
<path class="st7" d="M148.7,289c-1.3-4.4-2.8-8.8-3.8-13.3c-2.2-9.5-2.6-19.2-1.5-29c0.1-0.6,0-1.3,0-1.9c-1.4-2.4-0.3-4.9-0.1-7.2
	c1.4-14.6,2.8-29.2,4.2-43.8c0.1-0.8,0.1-1.6,0.7-2.2c1-1.3,0.5-2.9,0.7-4.4c0.6-6.6,1.7-13.1,1.7-19.7c10.2,0,20.5,0,30.7,0
	c-0.4,6.6-1.1,13.1-1.8,19.7c-0.5,4-0.7,8.1-1.1,12.1c-0.6,6.6-1.3,13.1-1.8,19.7c-0.4,4.1-0.7,8.2-1,12.4
	c-0.6,6.2-1.3,12.5-1.8,18.7c-0.3,3.8-0.8,7.6-1,11.4c-0.4,7-0.4,13.9,1.7,20.8c2.1,6.6,5.1,12.7,9.4,18.1
	c6.7,8.4,13.5,16.7,20.3,25c7.3,9,14.7,18,22.1,27c3,3.7,6.1,7.4,9.1,11c1.9,2.2,4.2,3.9,6.4,5.7c-0.8,0.7-1.7,0.3-2.4-0.1
	c-8.2-3.3-15.4-8.2-22.1-13.8c-3-3.2-7-5.2-10.3-8c-1.5-1.3-3.2-2.3-4.8-3.5c-0.9-0.7-1.9-1.1-3.1-1c0.9-1.3-0.4-1.5-1-1.9
	c-7.8-5.8-15.8-11.3-23.5-17.3c-10.6-8.3-18.5-18.9-24.1-31.1C150,291.2,149.6,289.9,148.7,289z"/>
<path class="st8" d="M484.1,514.9c-2,1.1-4.2,1.7-6.4,1.8c-7.7,0.2-15.4,0.9-23-0.3c-11.7-1.9-21-12.5-22-24.3
	c-0.2-2.6-0.3-5.1-0.3-7.7c0-36.5,0.1-73.1,0-109.6c0-8.8,0.7-17.2,7.3-24.5c-2,0-3.4,0.1-4.8,0c-5-0.2-8.5-3.9-8.4-8.9
	c0.1-4.8,3.7-8.3,8.6-8.3c6.4,0,12.8,0,19.2,0c1.7-1.1,3.7-0.6,5.5-0.6c0.7,0,1.4,0,2,0.4c0.5,1.3-0.7,1.3-1.3,1.7
	c-2,1.4-3.6,3.1-4,5.7c-0.7,5,2.6,9.1,7.8,9.4c2.8,0.2,5.6,0,8.4,0.1c0.8,0,1.8-0.1,2.2,0.7c0.4,0.8-0.3,1.5-0.8,2.1
	c-3.7,4.6-5.2,10-5.9,15.7c-0.6,1.6,0.1,3.4-0.6,5c-0.2,0.3-0.5,0.5-0.9,0.6c-1.3-0.6-2.3-0.3-2.9,1c-3.7,2.4-4.9,5.9-4.9,10.3
	c0.1,29.5,0.1,59,0.1,88.5c0,0.4,0,0.8,0,1.2c-0.1,4.6,1.9,7.8,6.4,9.3c2.2,0.5,2.9,2,2.7,4.1c-0.1,0.6,0,1.3,0.2,1.9
	c0.7,7.1,3.1,13.5,8.4,18.6c1.7,1.7,3.7,3,5.8,4.2C483.1,513.4,484.2,513.6,484.1,514.9z"/>
<path class="st9" d="M484.1,514.9c-3-2.2-6.4-3.8-8.9-6.7c-4.5-5.1-7.1-10.9-7.4-17.7c-0.5-1.6-0.1-3.3-0.2-5
	c-0.1-1.1,0.8-1.5,1.6-1.8c4.1-1.6,5.6-4.6,5.6-8.8c-0.1-30.5-0.1-61.1,0-91.6c0-4.2-1.5-7.1-5.4-8.7c-1.4-0.5-2-1.5-1.8-3
	c0.2-1.2-0.2-2.4,0.2-3.5c0.3-6.6,2.6-12.3,7.3-17.8c-3.8,0-7.2,0-10.6,0c-6.5-0.1-10.6-6.4-8-12.3c1.1-2.4,3.1-3.9,5.6-4.9
	c0.6-0.8,1.5-0.8,2.4-0.8c4.2-0.1,8.4-0.1,12.7,0c0.8,0,1.6,0.1,2.2,0.7c6.6,0,13.1,0.1,19.7,0.1c5,0,8.6,3.6,8.6,8.6
	c0,4.9-3.6,8.7-8.5,8.7c-1.4,0-2.7,0-4,0c-0.4,0.7,0.2,1.1,0.5,1.5c4,5.1,5.8,10.9,5.8,17.4c0,39.8,0.1,79.7,0,119.5
	c0,11.4-5.4,19.8-15.4,25.2C485.4,514.2,484.8,514.6,484.1,514.9z"/>
<path class="st10" d="M479.4,333c-5.8,0.1-11.5,0.1-17.3,0.2c-0.6-0.1-1.3-0.1-1.9-0.2c-1.1-1.2-0.7-2.7-0.7-4.1c0-27,0-54.1,0-81.1
	c0-15.4,0-30.9,0-46.3c0-2.7-0.6-5-2.1-7.2c-3.5-5.4-6.8-11.1-10.3-16.5c-1.2-1.8-1.4-3.5-0.8-5.7c4-14.3,7.8-28.7,11.8-43
	c0.2-0.9,0.4-1.7,1.1-2.4c6.3,0,12.6,0,18.9-0.1c1.8,0,2.4,0.5,2.9,2.3c3.9,14.6,7.8,29.2,11.9,43.7c0.5,1.9,0.1,3.3-0.8,4.7
	c-4,6.4-8,12.9-12,19.3c-0.6,1-0.8,2-0.8,3.2C479.4,244.3,479.4,288.6,479.4,333z"/>
<path class="st11" d="M79.4,193.4c0.3,0,0.6,0.1,1.6,0.2c-8.6,1.9-15.2,6.1-20.5,12c-8.1,8.9-13,19.5-16.1,31.1
	c-2.7,10.2-3.4,20.6-2.7,31c1.1,16.5,5.7,31.9,16,45.2c2.2,2.8,4.7,5.3,7.4,7.7c-0.6,0.8-1.5,0.8-2.4,0.8c-2.6-0.1-5.2,0.3-7.8-0.3
	c-6.4-3.8-12.5-8.1-17.6-13.6c-10-10.8-16.1-23.4-17.9-38.1c-1.6-13.6,0.2-26.6,6.5-38.8c10.5-20.2,26.9-32.6,49.4-36.8
	C76.8,193.5,78.1,193.4,79.4,193.4z"/>
<path class="st2" d="M63.7,393.3c-3.2,9.9-7,18.9-11.1,28c11-0.5,21.5-1,32.7-1.6c-7.2,12.6-14,24.8-21.7,36.8
	c2.6,0.6,5.1,0.4,7.5,0.7c5.5,0.7,10.9,1.1,16.4,1.5c1.8,0.1,1.6,0.8,0.8,1.9c-7.4,9.7-14.7,19.5-22.8,28.7c-2.7,3-5.4,5.9-8,8.9
	c-0.3,0.3-0.6,0.8-1.2,0.7c-0.5-0.9,0.1-1.7,0.4-2.4c2.7-7.6,5.7-15.1,9-22.4c1-2.3,1.1-2.4-1.6-2.3c-9.1,0.4-18.2,0.9-27.2,1.4
	c-0.7,0-1.7,0.5-2.2-0.4c-0.3-0.6,0.4-1.3,0.7-1.9c6.4-10.9,12.5-22,19.3-32.6c1.1-1.7,0.7-2-1.1-2.1c-7.3-0.5-14.6-1.3-21.9-1.9
	c-1.3-0.1-1.5-0.5-0.6-1.6c6.8-9.1,13.6-18.2,21-26.7c3.2-3.7,6.3-7.4,9.8-10.8C62.3,394.7,62.8,394.2,63.7,393.3z"/>
<path class="st6" d="M403.4,139.4c1.9-5.2,4.5-9.3,7-13.4c4.5-7.4,9.4-14.5,14.8-21.2c0.9-1.1,1-1.9-0.2-3
	c-8.1-7.6-15.6-15.8-23.1-24c-2.4-2.6-2.5-2.6,0-4.9c14.6-13.1,29.8-25.4,47.3-34.4c1.3-0.6,2.6-1.2,4.3-2
	c-1.4,4.1-3.4,7.3-5.3,10.5c-5.3,9.1-11.3,17.8-18.1,25.9c-1.3,1.5-1.3,2.4,0.3,3.9c8.3,7.8,15.8,16.3,23.1,24.9
	c1.2,1.4,0.5,2.1-0.5,2.9c-8.8,7.8-17.8,15.3-27.5,21.9C418.7,131.2,411.6,135.6,403.4,139.4z"/>
<path class="st12" d="M91.5,320.5c7.9,0,15.8,0,23.7,0.1c0.8,0,2-0.5,2.3,0.9c0,6.4,0,12.8-0.1,19.1c-0.2,14.1-11.6,27.2-25.4,29.4
	c-5.5-0.4-10-3.2-14-6.7c-7-6.2-10.9-14-10.7-23.6c0.1-5.3,0-10.6,0-15.8c0-1.1-0.2-2.3,0.6-3.2c4.3-0.1,8.7-0.1,13-0.2
	C84.5,319.5,88,319.4,91.5,320.5z"/>
<path class="st13" d="M459.2,126.7c-0.6,4.9-2.4,9.6-3.6,14.3c-2.9,10.9-5.9,21.8-9,32.7c-0.3,1,0,1.7,0.4,2.4
	c4,6.4,7.9,12.8,11.8,19.1c0.9,1.5,1.3,3,1.3,4.8c0,44.3,0,88.6,0,133c-1.9,0-3.9,0-5.8,0c0-5.4,0.1-10.9,0.1-16.3
	c0-38.9,0-77.7,0-116.6c0-1.9-0.5-3.5-1.5-5.2c-3.9-6.3-7.8-12.6-11.7-18.9c-0.5-0.8-0.6-1.5-0.3-2.5c4.1-14.9,8.2-29.8,12.2-44.7
	c0.4-1.7,1.2-2.5,3-2.2C457.1,126.8,458.1,126.7,459.2,126.7z"/>
<path class="st14" d="M148.2,191.5c-0.1,6.9-1.1,13.7-1.8,20.6c-0.4,3.7-0.7,7.4-1.1,11.1c-0.7,6.5-1.3,12.9-1.9,19.4
	c-0.1,0.7,0,1.4-0.1,2.2c-10.3-0.3-20.8-8.9-23.5-19c-2.2-8.1-0.8-15.6,3.4-22.7c3.8-4.9,8.3-8.7,14.4-10.5
	C141,191.6,144.6,191.3,148.2,191.5z"/>
<path class="st14" d="M385.3,244.8c-0.6-6-1.3-12-1.9-17.9c-0.6-5.8-1-11.5-1.5-17.3c-0.6-6.1-1.3-12.1-1.9-18.2
	c7.1-0.4,13.5,1.4,19.2,5.8c11.8,9.1,13.4,27.8,3.3,38.7C397.8,241.1,392.2,244.1,385.3,244.8z"/>
<path class="st15" d="M68,320.7c0,6.3,0.2,12.6,0,18.9c-0.6,13.9,10,26.8,23,30c0.4,0.1,0.7,0.3,1,0.5c-7,1.4-13.9,0.7-20.2-2.8
	C60.8,361.2,55,351.8,55,339c0-6,0-12,0-18c2.4-1,4.9-0.2,7.4-0.4c0.9-0.1,1.9-0.1,2.8-0.1C66.1,320.6,67,320.6,68,320.7z"/>
<path class="st2" d="M92,155c0,3.7,0,7.5,0,11.2c0,3.5-2.3,5.9-5.5,6c-3.2,0.1-5.9-2.6-6-5.9c-0.1-7.6-0.1-15.2,0-22.7
	c0-3.5,2.6-5.9,5.9-5.9c3.4,0.1,5.6,2.4,5.6,6C92,147.5,92,151.3,92,155z"/>
<path class="st4" d="M215.4,90.7c-0.4-26.2,22.2-49.3,50-48.6c25.2,0.6,47.8,21.8,47.5,49.5c-0.3,26.1-22,48.5-49.6,48.1
	C237,139.3,214.9,117.3,215.4,90.7z"/>
<path class="st16" d="M323.9,194c5.2,2.2,9,5.7,10.8,11.1c0.6,1.8,0.2,2.4-1.8,2.2c-7.5-1-15.1-1.2-22.7-1c-4.2,0.1-8.3,0.4-12.4,1
	c-1.9,0.3-2.2-0.5-1.7-2.1c1.1-3.6,3.4-6.3,6.2-8.7c2.3-0.8,4.7-0.3,7.1-0.4c3.7-0.1,7.5-0.1,11.2,0
	C322.4,196.3,323.5,195.8,323.9,194z"/>
<path class="st16" d="M226.3,196.3c2.6,2.4,5.1,4.9,6.2,8.3c0.9,2.8,0.8,2.9-2,2.6c-7.5-0.9-15-1.1-22.5-0.9
	c-4.1,0.1-8.1,0.4-12.2,1c-1.6,0.2-2.4,0-1.8-2c1.6-5.4,5.4-8.7,10.2-11.1c0.6,1.7,1.8,2,3.5,2C214,196.2,220.1,196.3,226.3,196.3z"
	/>
<path class="st14" d="M277.3,235.3c0,6.3,0,12.6,0,18.9c0,7.1-5.8,13-12.8,13c-7.3,0-13.5-5.9-13.6-13c0-13,0-25.9,0-38.9
	c0-1.9,0.5-2.5,2.4-2.4c7.2,0.1,14.4,0.1,21.6,0c2.1,0,2.5,0.7,2.5,2.6C277.2,222.2,277.3,228.8,277.3,235.3z"/>
<path class="st14" d="M217.2,355.2c3.2,1.2,5.5,3.8,8.2,5.6c5.1,3.4,10.3,6.7,16.3,8.3c6,2.3,12.2,3.5,18.6,3.9
	c12.3,0.9,23.7-1.9,34.5-7.2c5.1-2.5,9.5-6,14.1-9.4c0.9-0.7,1.7-1.5,2.8-1.7c-2.5,8.6-7.3,15.7-13.9,21.7
	c-7.1,6.4-15.3,10.5-24.8,12.1c-14.5,2.4-27.5-0.7-39.2-9.7c-7.5-5.7-12.9-13-16.2-21.8C217.5,356.4,217.4,355.8,217.2,355.2z"/>
<path class="st17" d="M228.2,303.3c-3.9-3.3-6.5-7.5-8.7-12.4c1.5-0.1,2.5,0.5,3.5,0.9c9.7,4,19.7,6.9,30.1,8.1
	c13.6,1.6,27,0.3,40.1-3.7c4.7-1.4,9.2-3,13.7-4.8c0.5-0.2,1-0.7,1.6-0.3c0.7,0.6,0,1.2-0.2,1.7c-1.7,3.8-4.3,6.9-6.9,10
	c-0.3,0.4-0.8,0.5-1.3,0.6c-2.7,1.8-5.9,2.5-8.9,3.3c-10.5,2.9-21.3,4.1-32.2,3.5c-9.7-0.5-19.1-2.5-28.3-5.6
	C229.9,304.3,229.1,303.7,228.2,303.3z"/>
<path class="st18" d="M204.8,235.9c0-2.3,0-4.6,0-7c0-4.7,3.5-8.4,7.9-8.6c5-0.2,9.1,3,9.3,7.9c0.2,5,0.2,10.1,0,15.1
	c-0.2,4.6-4.3,8.2-8.8,8c-4.8-0.2-8.3-3.8-8.4-8.7C204.8,240.4,204.8,238.1,204.8,235.9z"/>
<path class="st18" d="M306.6,235.7c0-2.3,0-4.6,0-7c0.1-4.7,3.6-8.4,8.3-8.5c4.8-0.1,8.8,3.3,8.9,8.1c0.2,4.9,0.2,9.9,0,14.9
	c-0.2,4.5-4.3,8.3-8.8,8.1c-4.8-0.2-8.4-3.9-8.4-8.7C306.5,240.3,306.6,238,306.6,235.7z"/>
<path class="st18" d="M228.2,303.3c3.6,0.5,6.8,2,10.3,2.9c20.4,5.5,40.5,4.3,60.4-2.6c0.4-0.2,0.9-0.2,1.4-0.2
	c-2.4,3.6-6.1,5.8-9.8,7.8c-16.7,8.9-33.7,9.2-50.7,0.9C235.4,309.8,231.4,307.2,228.2,303.3z"/>
<path class="st6" d="M353.8,436.8c-3.3,6.9-7.2,12.8-11.5,18.3c-2.1,2.6-2.2,2.7,0.2,5c3.8,3.7,7.2,7.7,10.7,11.7
	c0.6,0.6,1.4,1.2,0.3,2.1c-8,7.3-16.5,13.8-26.3,18.6c-0.2,0.1-0.4,0.1-1,0.2c2.7-5.8,6-10.9,9.7-15.8c2.8-3.8,2.8-3.7-0.5-7.1
	c-3.4-3.5-6.7-7.1-10.1-10.6c-0.6-0.7-1.3-1.2-0.3-2.1c8.3-7.3,16.7-14.3,26.7-19.3C352.2,437.4,352.7,437.2,353.8,436.8z"/>
<path class="st19" d="M91.5,320.5c-3.5,0-7,0-10.5,0c0-13,0-25.9,0-38.9c0-1.9-0.4-2.9-2.4-3.7c-7.6-3-12-8.7-13.4-16.7
	c-0.5-2.7-0.2-3,2.6-3c1.9,0,3.8,0,5.8,0c1.3,0,1.9,0.3,2.2,1.8c0.9,5.3,5,8.6,10.1,8.9c5.4,0.3,9.9-3.4,10.9-8.8
	c0.3-1.6,0.8-2,2.3-1.9c2.2,0.1,4.3,0.1,6.5,0c1.7-0.1,2.1,0.6,1.9,2.1c-1.2,8.2-5.3,14.3-13.1,17.4c-2.3,0.9-2.8,2-2.7,4.1
	C91.5,294.8,91.5,307.6,91.5,320.5z"/>
<path class="st20" d="M245.2,486.9c0,4.5-3.7,8.3-8.1,8.4c-4.4,0.1-8.6-4.1-8.6-8.6c0-4.5,3.9-8.2,8.6-8.2
	C241.9,478.5,245.2,481.9,245.2,486.9z"/>
<path class="st20" d="M245.2,452.9c0,4.6-3.9,8.3-8.5,8.3c-4.2-0.1-8.4-4.4-8.3-8.7c0.1-4.6,4-8.1,8.7-8.1
	C241.9,444.4,245.2,447.9,245.2,452.9z"/>
<path class="st9" d="M465.4,484.8c-5-1.4-7.2-4.4-7.2-9.6c0-30.1,0.1-60.1-0.1-90.2c0-5,1.4-8.7,5.8-11.1c0.7-0.8,1.6-0.3,2.4-0.5
	c0.3,0,0.6,0,1,0c0.8,0.8,0.8,1.9,0.8,2.9c0,35.1,0,70.2,0,105.3C468.1,484.7,467.7,485,465.4,484.8z"/>
<path class="st8" d="M465.4,484.8c2,0.3,1.9-1,1.9-2.4c0-13.2,0-26.4,0-39.5c0-23.2,0-46.3,0-69.5c0.3-1.8-0.5-3.6,0.5-5.3
	c0,0.4,0.1,0.8,0,1.2c-0.5,2.7,0.4,4.3,3.2,5.3c3,1.1,4.5,3.7,4.5,7c0,31.6,0,63.3,0,94.9c0,3.2-2.4,7-5.3,7.5
	c-2.1,0.4-2.6,1.4-2.4,3.3c0.1,1,0,2.1,0,3.1c-0.8-0.8-0.5-1.8-0.4-2.7C467.6,486.2,467,485.2,465.4,484.8z"/>
<path class="st8" d="M466.4,373.4c-0.7,0.8-1.6,0.4-2.4,0.5C464.4,371.8,465.3,372.3,466.4,373.4z"/>
<path class="st21" d="M228.2,90.7c-0.6-19.2,16.5-35.9,36-35.8c19.1,0.1,36.1,16.4,35.8,36.2c-0.3,20-16,35.6-36.1,35.8
	C244.4,127,227.5,110.1,228.2,90.7z"/>
<path class="st22" d="M277,65.1c-2.7,5.8-5.9,10.6-9.4,15.3c-3,4-3,4,0.4,7.6c2.8,3,5.6,6.2,8.4,9.2c0.6,0.7,1.2,1.2,0.2,2.1
	c-7.3,6.5-14.9,12.5-23.8,16.8c-0.2,0.1-0.4,0.1-0.9,0.2c1-2.9,2.5-5.3,4-7.7c1.9-2.9,3.8-5.8,6-8.4c1.3-1.6,0.8-2.4-0.4-3.5
	c-4-3.4-7.2-7.4-10.7-11.3c-0.6-0.7-0.9-1.2-0.1-2c7.7-6.8,15.6-13.3,24.8-17.9C275.7,65.6,276,65.5,277,65.1z"/>
</svg>
