<?xml version="1.0" encoding="utf-8"?>
<!-- Generator: Adobe Illustrator 20.1.0, SVG Export Plug-In . SVG Version: 6.00 Build 0)  -->
<svg version="1.1" id="Слой_1" xmlns="http://www.w3.org/2000/svg" xmlns:xlink="http://www.w3.org/1999/xlink" x="0px" y="0px"
	 viewBox="0 0 531 522" style="enable-background:new 0 0 531 522;" xml:space="preserve">
<style type="text/css">
	.st0{fill:#2D527B;}
	.st1{fill:#2D527C;}
	.st2{fill:#CDE7F9;}
</style>
<g>
	<path class="st0" d="M307.2,11.7c4.5,1.1,9.2,1.8,13.6,3.3c24.4,8.2,41.5,31.3,42.1,57c0.3,12.2,0.1,24.5,0.1,36.7
		c0,2.2,0.5,2.8,2.7,2.8c31.7-0.1,63.4-0.1,95,0c26.3,0,49.6,16.1,58.7,40.3c2.7,7.3,4.1,14.8,4.1,22.5c0,17.4,0,34.9,0,52.3
		c0,7.5-5.5,13.9-12.7,15c-7.7,1.2-14.7-3-17.2-10.3c-0.6-1.9-0.8-3.9-0.8-5.9c0-17,0-34.1,0-51.1c0-18.1-14-32.2-32.2-32.2
		c-36.2,0-72.3,0-108.5,0c-39,0-78.1,0.2-117.1,0.1c-15.4-0.1-29,10.6-31.9,25.6c-0.4,2.3-0.7,4.6-0.7,6.9c0,54-0.3,108,0.1,162
		c0.2,36.2,12.4,68.3,36.5,95.4c22.6,25.5,50.8,41.6,84.4,46.9c47.8,7.6,89.7-5.5,125-38.7c22.2-21,35.9-46.9,41.9-76.8
		c1.7-8.4,2.6-16.9,2.6-25.5c0-8.8-0.1-17.6,0-26.4c0.1-7,4.5-12.8,11-14.7c6.3-1.9,13.2,0.6,16.9,6c1.7,2.4,2.7,5.1,2.7,8.1
		c-0.1,14.5,0.6,29-0.9,43.4c-2.1,19.8-7.1,38.8-15.9,56.7c-24.6,49.7-63.7,81.9-117.5,95.7c-22.6,5.8-45.5,6.8-68.5,2.8
		c-59.2-10.2-102.5-42.4-130.4-95.4c-0.8-1.5-1.6-2.2-3.4-2.2c-46.5-0.6-87-16.6-120.8-48.6c-27.3-25.8-44.3-57.4-51.6-94.2
		c-1.3-6.7-2.2-13.4-2.6-20.2c0-0.5,0.2-1.1-0.4-1.5c0-60,0-120,0-180c0.2-6,1.7-11.8,4.1-17.3c8.6-19.9,23.6-32.3,44.6-37.6
		c2.3-0.6,4.7-0.3,7.1-0.8C147.2,11.7,227.2,11.7,307.2,11.7z"/>
	<path class="st1" d="M346.7,429.9c-28.9-1.4-52.4-13.6-67-40.6c-2.4-4.4-4.2-9-2.8-14.2c1.6-6.2,6.8-10.8,13-11.5
		c6.6-0.7,12.9,2.6,15.5,8.5c6.8,15,18.6,23.4,34.5,26.3c20.4,3.6,41.8-6.9,49.9-25.6c3.5-8.1,12.4-11.4,20.2-8
		c7.9,3.5,11.3,12.4,7.6,20.5c-10.9,23.9-29.7,37.7-55.1,43c-2.1,0.4-4.3,0.7-6.4,0.9C353.3,429.5,350.5,429.6,346.7,429.9z"/>
	<path class="st1" d="M272.5,257.5c5.3,0,10.6-0.1,15.8,0c8.3,0.3,14.6,7,14.5,15.3c0,8.1-6.4,15-14.6,15.1
		c-10.6,0.2-21.3,0.2-31.9,0c-8.2-0.1-14.5-6.9-14.5-15.1c0-8.4,6.2-15,14.5-15.3C261.8,257.3,267.1,257.5,272.5,257.5z"/>
	<path class="st1" d="M423.2,257.5c5.3,0,10.5-0.1,15.8,0c8.4,0.3,14.8,7.1,14.6,15.5c-0.1,8.1-6.5,14.8-14.7,14.9
		c-10.5,0.1-20.9,0.1-31.4,0c-8.4-0.1-14.8-6.8-14.9-15c-0.1-8.4,6.3-15.1,14.8-15.4C412.6,257.3,417.9,257.5,423.2,257.5z"/>
	<path class="st2" d="M171.8,296.9c0,12.7,0,25,0,37.3c0,14.9,1.5,29.6,5.2,44c0.7,2.8,0.7,2.9-2.3,2.6
		c-15.3-1.4-30.2-4.8-44.2-11.1c-46.1-20.8-74.8-56-85.8-105.4c-2.1-9.2-2.8-18.6-2.8-28.1c0-53.7,0-107.3,0-161
		c0-16.8,10.5-29.6,26.7-32.6c2.1-0.4,4.3-0.4,6.4-0.4c74.7,0,149.4,0,224.1,0c16.6,0,29.1,10,32.5,25.9c0.5,2.2,0.7,4.4,0.7,6.7
		c0,11.4-0.1,22.7,0.1,34.1c0,2.2-0.7,2.6-2.7,2.6c-31.6-0.1-63.2,0-94.8-0.1c-12.1,0-23.4,2.9-33.6,9.4
		c-16.4,10.4-26.1,25.4-29.1,44.6c-0.4,2.7-0.6,5.6-0.6,8.4c0,29.6,0,59.2,0,88.8c0,2.1-0.6,2.7-2.6,3.2
		c-23.9,5.9-41.6,19.6-51.9,42.3c-3.4,7.5-0.7,15.7,6,19.6c8.1,4.7,18,1.6,21.9-7.1c4.9-10.9,13-18.2,23.8-22.7
		C169.9,297.5,170.7,297.3,171.8,296.9z"/>
	<path class="st1" d="M111.8,157.6c5.2,0,10.4,0,15.6,0c8.2,0,14.9,6.8,15.1,15.2c0.1,7.9-6.5,15.1-14.5,15.3
		c-10.7,0.2-21.4,0.1-32.1-0.1c-6.9-0.1-12.5-4.9-14.1-11.5c-1.6-6.7,1.4-13.6,7.4-17c2.2-1.2,4.5-1.9,7.1-1.9
		C101.4,157.7,106.6,157.6,111.8,157.6z"/>
</g>
</svg>
