<?xml version="1.0" encoding="utf-8"?>
<!-- Generator: Adobe Illustrator 20.1.0, SVG Export Plug-In . SVG Version: 6.00 Build 0)  -->
<svg version="1.1" id="Слой_1" xmlns="http://www.w3.org/2000/svg" xmlns:xlink="http://www.w3.org/1999/xlink" x="0px" y="0px"
	 viewBox="0 0 56.8 61.5" style="enable-background:new 0 0 56.8 61.5;" xml:space="preserve">
<style type="text/css">
	.st0{fill:#26B899;}
</style>
<path class="st0" d="M51.3,5.7c0.3,0.8,1.4,0.1,1.9,1.1c-1.5,1-3,1.9-4.5,2.9C40.6,15.5,35.4,23,35.4,33.3c0,1.9,0.5,2.7,2.5,2.6
	c3.6-0.2,7.1,0,10.8,0c-0.2,1-0.8,1.4-1.3,1.8c-6.4,6.4-12.8,12.7-19.2,19.1c-1.3,1.3-2,1.1-3.2-0.1c-6.4-6.4-12.8-12.7-19.2-19.1
	c-0.5-0.5-0.8-1.2-1.6-1.3c0-0.2,0-0.3,0-0.5c0.9-0.8,1.9-0.6,3-0.6c2.6,0,5.1,0,7.7,0c1.5,0,2.2-0.6,2.2-2.1c0-1.4,0.2-2.7,0.4-4
	C19.1,18,25.9,11,36.1,6.9c1.9-0.8,4-0.7,6-1.2C45.2,5.7,48.2,5.7,51.3,5.7z"/>
</svg>
