<?xml version="1.0" encoding="utf-8"?>
<!-- Generator: Adobe Illustrator 20.1.0, SVG Export Plug-In . SVG Version: 6.00 Build 0)  -->
<svg version="1.1" id="Слой_1" xmlns="http://www.w3.org/2000/svg" xmlns:xlink="http://www.w3.org/1999/xlink" x="0px" y="0px"
	 viewBox="0 0 500 529" style="enable-background:new 0 0 500 529;" xml:space="preserve">
<style type="text/css">
	.st0{fill:#4D4D4D;}
	.st1{fill:#E7604B;}
	.st2{fill:#F6CAA3;}
	.st3{fill:#8FBB42;}
	.st4{fill:#F8C473;}
	.st5{fill:#666666;}
	.st6{fill:#86A93C;}
	.st7{fill:#E7B996;}
	.st8{fill:#AE7C38;}
	.st9{fill:#F66B4F;}
	.st10{fill:#95652A;}
	.st11{fill:#DFB293;}
	.st12{fill:#F29282;}
	.st13{fill:#F1F1F1;}
	.st14{fill:#71C4F3;}
	.st15{fill:#FEFEFE;}
</style>
<path class="st0" d="M125.1,7.5c4.6,1.8,6.9,6,10,9.3c3.5,3.7,3.4,3.8,8.1,1.8c17.8-7.4,36.3-10.2,55.4-9.1c2.5,0.1,5.1,0.1,7.6,0.9
	c-0.3,1.2-1.3,0.9-2.1,1c-21,3.2-39.9,11.4-56.7,24.4C129,50,116,68.2,107.7,89.8c-2.1,5.4-3.4,10.8-2.1,16.6
	c2.2,9.9,8.1,16.3,17.7,19.3c4.5,1.4,9.1,2.3,13.8,3.1c1.8,0.3,1.8,0.3,1.7,1.9c-1.8,0.8-3.7,0.9-5.7,0.8
	c-8.1,1.1-16.1,0.2-24.1-0.5c-1.7-0.2-3.5-0.3-4.9-1.5c-6.9-1.3-13.9-2.2-20-6c-9.9-6.3-14.4-18.9-10.6-30.2
	c8.8-25.9,24.5-46.7,47-62.3c1.6-1.1,2.1-1.8,0.5-3.3c-1.3-1.2-2.4-2.7-3.6-4.1c-5.6-6.5-4.3-12.7,3.5-16.2
	C122.2,7.5,123.7,7.5,125.1,7.5z"/>
<path class="st1" d="M35.8,378.9c-2.3-2-4.9-3.5-6.9-5.8c-3.5-3.9-6-8.3-7.5-13.4c-0.2-0.8-0.1-1.8-1-2.3c0-3.5,0-7,0-10.6
	c2-7.7,7.5-13.3,12.3-19.3c5.5-7,7.8-15.5,8.9-24.2c1.1-8.7,0.7-17.4-0.5-26c0-0.5-0.7-1.3,0.5-1.4c0.2,0.3,0.4,0.6,0.6,0.9
	c3.6,5.5,6.2,11.4,7.5,18c2.1,11.2-0.7,20.8-8.6,29c-9.4,9.8-10.2,22.5-3.7,33.8c4.1,7.1,10,12.1,18.2,13.7
	c5.9,1.2,11.8,0.1,17.5-1.5c0.9-0.2,2-1.3,2.8,0.2c-2.5,4.2-6.7,6.5-10.9,8.6c-0.8,0.8-1.7,1.4-2.8,1.7c-5.5,1.5-11,2.7-16.8,2.3
	C41.9,381.7,38.5,381.4,35.8,378.9z"/>
<path class="st2" d="M133.3,130.9c1.9-0.2,3.8-0.4,5.7-0.6c0.8-0.8,1.8-0.9,2.9-1c12-1.7,23.3-5.2,34.3-10.2c7.2-3.3,14-7.2,20.4-12
	c0.8-0.6,1.5-1.2,2.6-1c7.6,2.1,15.2,4,23.1,5.1c5.4,0.9,10.7,1.4,16.2,1.8c4.5,0.3,8.9,0.5,13.4,0.4c18-0.3,35.4-3.4,51.9-10.9
	c2.3-1,4.4-2.3,6.6-3.5c0.8-0.4,1.6-1.2,2.6-0.7c2.6,4.4,5.5,8.6,7.8,13.2c3.7,7.3,6.6,14.9,9,22.7c-1,1-2.2,0.8-3.4,0.8
	c-8.2,0-16.3,0-24.5,0c-1,0-2.1,0-3.1,0.1c-2.5,0.4-4.3,2.4-4.4,4.7c-0.1,2.3,1.4,4.6,3.7,5.3c1.2,0.4,2.5,0.4,3.8,0.4
	c8.9,0,17.8,0,26.6,0c1.2,0,2.6-0.3,3.7,0.7c0.9,3.2,0.9,6.6,1.4,9.9c0.3,1.8,0.4,3.6,0.5,5.5c-1,0.9-2.2,0.7-3.4,0.7
	c-6.6,0-13.3,0-19.9,0c-3.5,0-5.5,1.9-5.7,4.9c-0.1,2.6,1.5,4.6,4.2,5.4c1.4,0.4,2.9,0.3,4.3,0.3c6.9-0.2,13.7,0.5,20.6-0.4
	c0.3,0,0.6,0.1,0.9,0.3c0.4,3.5,0.9,6.9,0.9,10.4c0.8,0.7,1.1,1.5,1.2,2.5c1.1,12.2,2.4,24.3,3.5,36.5c0.3,3.9,0.7,7.8,1.2,11.7
	c0.2,1.6,0.5,3.2-0.5,4.6c1,5.4,1.2,10.8,0.8,16.2c-0.5,8.2-2,16.3-4.6,24.1c-5.1,14.8-13.3,27.5-25,38
	c-7.6,6.8-16.3,12.3-24.5,18.4c-1.8,1.3-3.5,2.7-5.3,4.1c-2.3,2.8-5.7,4.3-8.4,6.6c-4,2.9-8.1,5.8-12.1,8.8
	c-6.4,4.7-12.9,9.3-20.4,12.1c-2.1,0.8-4.2,1.5-6.4,2.1c-1.1,0.3-2.1,0.5-2.3-1.1c1.1-4.7,2.2-9.3,1.8-14.2
	c-0.6-7.7-2.5-15-7.5-21.1c-2.9-3.6-6.7-5.9-11.6-5.7c-4.4,0.1-7.7,2.5-10.3,5.7c-4.8,5.9-6.7,13-7.3,20.4
	c-0.3,4.3,0.1,8.6,1.4,12.8c0.3,0.8,0.5,1.7,0.2,2.6c-0.5,1.1-1.4,0.8-2.2,0.6c-1.4-0.4-2.9-0.8-4.2-1.6
	c-6.3-3.7-10.4-9.6-14.9-15.1c-15.3-18.7-30.5-37.4-45.7-56.2c-7-8.7-10.8-18.7-11.9-29.9c-0.6-6,0.4-11.8,0.8-17.7
	c0.6-8,1.4-15.9,2.1-23.9c0.7-7.7,1.4-15.4,2.1-23.1c0.7-8,1.5-15.9,2.2-23.9c0.7-7.9,1.5-15.7,2.2-23.6c0.6-6.2,1.2-12.4,1.7-18.6
	C132.3,133.9,132.3,132.3,133.3,130.9z"/>
<path class="st3" d="M273.9,345.4c2.8-2.2,5.6-4.4,8.6-6.2c5.1,1,10.1,2,15,3.8c19.7,7.5,33.8,20.9,42.3,40.2
	c0.3,1.1-0.5,1.6-1.1,2.2c-13.8,15.3-22.9,33-25.5,53.5c-3,23.5,2.7,44.4,19.9,61.5c3.2,3.2,6.9,5.9,10.8,8.3
	c1.3,0.8,1.9,1.7,1.7,3.3c-0.2,2.5,0.2,4.9-0.2,7.4c-1,0.1-2.1,0.2-3.1,0.2c-68.6,0-137.3,0-205.9,0c-15.6,0-31.2,0.1-46.8,0
	c-0.8,0-1.8,0.5-2.4-0.5c1.1-1,2.6-0.8,3.9-0.8c12.2,0,24.4,0,36.6,0c3.7,0,3.8,0,3.8-3.7c0-7.2,0-14.4,0-21.5
	c0-1.2-0.1-2.4,0.2-3.6c1.5-2.1,3.8-1.6,5.9-1.7c1.2,0,1,1.5,1.2,2.3c1,3.7,3.7,5.8,7.5,5.7c3.5-0.1,6.5-2.7,7.2-6.2
	c0.6-3.1-0.9-6.2-4.1-7.9c-1.9-1-2.1-2.1-1.5-4c3.2-10.1-2.4-19.2-12.8-21c-1.1-0.2-2.2-0.2-3.1-1c-0.6-1-0.4-2-0.4-3
	c0-14.1-0.3-28.2,0.1-42.2c0.4-17.1,6.1-32.4,17-45.7c2.3-2.8,4.7-5.4,7.4-7.8c0.7-0.6,1.5-1.4,2.5-0.9c0.9,0.4,0.7,1.5,0.7,2.4
	c0,5.8,0,11.7,0,17.5c0.1,12.5,3.2,24.1,10.6,34.3c10,13.8,23.5,22,40.5,23.7c19.5,2,35.8-4.7,48.9-19.2c6.8-7.6,11-16.6,12.9-26.7
	c0.8-4,1-7.9,1-11.9c-0.1-9,0-18.1,0-27.1C273.3,347.8,273.1,346.5,273.9,345.4z"/>
<path class="st4" d="M345.5,519.4c0.7-5.7,0.3-10.8-6.2-13c-15.7-11.8-24.3-27.6-26.8-46.8c-2-15.3,0.7-30,6.5-44.2
	c4.7-11.5,11.4-21.7,19.8-30.8c0.4-0.4,0.7-0.9,1.1-1.3c2.5-2.3,4.8-4.7,7.4-6.8c6.8-5.4,15.5-5.4,22.3,0c6.2,4.9,13.2,7.7,21,7.6
	c12.4-0.2,22.2-5.5,28.6-16.2c3.1-5.1,6.9-8.9,12.9-10.1c3.8-0.8,7.3-0.2,10.7,1.5c19.1,9.7,30.9,25.1,35.1,45.9
	c5.4,26.6-1.7,50.5-17.3,72.1c-13.4,18.4-30.9,31.2-52.6,38.2c-7.2,2.3-14.5,3.6-22.1,3.9c-13.6,0.7-26.5-1.7-38.6-8.1
	c-0.3-0.2-0.7-0.2-1.1-0.4C345.4,513.7,346.5,516.6,345.5,519.4z"/>
<path class="st5" d="M198.9,106.4c-4.2,2.7-8.3,5.6-12.7,8.1c-13.8,8-28.6,13.2-44.4,15.4c-0.9,0.1-1.8,0.7-2.8,0.4
	c-1.3-1.6-3.3-0.9-4.9-1.3c-4.7-1.2-9.5-1.8-14-3.8c-8.2-3.5-13.1-9.8-15.1-18.4c-1.5-6.6,0.3-12.8,2.7-18.8
	c4.7-11.7,10.8-22.6,18.7-32.4c9.7-12.1,21.4-22,34.9-29.7c10.6-6,21.8-10.6,33.7-13.2c3.7-0.8,7.4-1.4,11.2-2.2
	c6.8,0.7,13.6,1.9,20,4.3c11.9,4.4,18.7,17.5,15.8,29.9c-0.1,0.6-0.2,1.2-0.3,1.9c0.2,1.9-0.7,3.6-1.4,5.2
	c-7.1,18.5-17.9,34.5-32.6,47.8C205,102.1,202.4,104.9,198.9,106.4z"/>
<path class="st6" d="M273.9,345.4c0,10.8,0,21.6,0,32.4c0,13.1-4.1,24.9-12.2,35.2c-8.8,11.2-20.3,18.4-34.3,21.1
	c-17.5,3.4-33.4-0.8-47.3-11.9c-11.9-9.5-18.7-22.2-20.9-37.2c-1.1-7.7-0.5-15.5-0.6-23.2c0-1.8,0-3.5,0-5.6
	c-3.3,1.7-5.4,4.4-7.5,6.8c-5,5.5-9.1,11.7-12.1,18.5c-3.4,7.6-5.7,15.5-6.3,23.9c-1.1,16.8-0.2,33.7-0.5,50.6
	c-0.4,1-1.4,0.9-2.2,1.1c-7.1,1.5-12.4,7.7-12.5,14.8c-0.1,7.7,4.6,14.1,12,16c1,0.3,2.1,0.2,2.8,1.2c0,9.1-0.1,18.2,0.1,27.4
	c0,2.2-0.5,3-2.9,3c-14.1-0.1-28.2-0.1-42.2-0.1c0-1-0.1-1.9-0.1-2.9c0-35.4-0.1-70.7,0-106.1c0.1-17.5,6.2-33,17.6-46.2
	c11.5-13.3,25.9-21.5,43.3-24.5c0.6-0.1,1.2-0.3,1.9-0.5c1.1-0.3,1.8,0.5,2.5,1c5.7,4.1,11.3,8.2,16.9,12.3c0.7,0.5,1.4,1.1,1.7,2
	c0.5,6.8,0.1,13.6,0.2,20.4c0.2,8.6,1.4,17,5.9,24.6c7.8,13.1,19,20.9,34.2,22.6c13.4,1.6,25.1-2.5,35.1-11.4
	c7.7-6.9,12.2-15.7,14.1-25.8c0.5-2.5,0.6-5.1,0.5-7.6c0-6.6,0-13.1,0-19.7c0-1.2-0.1-2.4,0.7-3.5
	C265.9,351.2,269.9,348.3,273.9,345.4z"/>
<path class="st7" d="M170.7,354c-6.9-5-13.8-10-20.7-14.9c-8.4-6.2-17-12.2-25.2-18.6c-17.1-13.4-27.8-31-32.3-52.2
	c-1.5-7-2.1-14.2-1.9-21.4c0.1-2.2,0.1-4.5,0.5-6.7c0.3-1.6-0.5-1.9-1.6-2.3c0.7-0.9,1.1-1.8,1.3-3c1.6-16.5,3.1-33,4.8-49.4
	c0.1-0.8,0.1-1.6,0.7-2.2c0.8-1.8,0.7-3.8,0.9-5.7c0.2-1.5,0.2-3,0.6-4.5c1.1-0.8,2.3-0.2,3.5-0.2c6.5,0,12.9,0,19.4,0
	c1.3,0,2.5-0.2,3.7-0.8c2.2-1.1,3.4-3.3,3-5.4c-0.4-2.4-2.4-4.2-5-4.3c-6.8-0.1-13.6,0-20.3-0.1c-1.2,0-2.4,0.2-3.4-0.7
	c1-10.3,2.2-20.5,5.3-30.4c0.2-0.5,0.4-1.1,0.1-1.6c8.9,1.4,17.8,2.3,26.8,1.5c0.8-0.1,1.6,0,2.4-0.1c-0.6,6.2-1.3,12.5-1.9,18.7
	c-0.4,4-0.7,7.9-1,11.9c-0.6,6.5-1.3,13-1.8,19.4c-0.4,4.2-0.7,8.4-1,12.6c-0.6,6.3-1.2,12.6-1.8,19c-0.4,3.9-0.7,7.8-1,11.6
	c-0.6,6.6-1.3,13.1-1.8,19.7c-0.3,3.8-0.6,7.6-1,11.4c-0.9,7.4-0.2,14.7,1.9,21.9c2.1,7.3,5.6,13.8,10.5,19.6
	c5.2,6.1,10.2,12.4,15.2,18.7c5.4,6.6,10.7,13.2,16.1,19.8c6,7.3,11.9,14.7,17.8,22.1c3,3.8,6.4,7,10.4,9.8
	c-1.1,0.9-2.1,0.1-3.1-0.2c-6.8-2.6-12.7-6.5-18.4-10.9C171.5,355.4,171.1,354.7,170.7,354z"/>
<path class="st8" d="M312.8,98.3c-14.5,8.6-30.3,13.1-47,14.9c-14.2,1.5-28.3,0.7-42.4-1.2c-0.5-0.1-0.9-0.3-1.4-0.4
	c-0.1-1.2,0.9-1.6,1.7-2.1c15.2-10.2,27.4-23.2,36.7-38.9c5.2-8.8,9.4-18,11.9-27.9c0.1-0.5,0.2-0.9,0.6-1.2
	c7.9,1.2,15.2,4.3,22.4,7.5c7.6,3.4,15,7.2,22.7,10.3c8.7,3.5,17.7,6,27.5,6.2C337.1,79.2,326.3,90,312.8,98.3z"/>
<path class="st8" d="M45,381.9c6.9,0.3,13.4-1.1,19.8-3.3c0,40.1,0,80.1,0,120.2c0,7.5-4.1,12.9-11.2,14.6
	c-6.8-3.5-9.5-9.2-9.4-16.7c0.1-36.8,0-73.6,0-110.4C44.2,384.8,43.9,383.2,45,381.9z"/>
<path class="st9" d="M75.7,369.9c-2.7,0-5.2,1.2-7.8,1.7c-10.5,2.1-19.7,0.1-27-8c-10.7-11.8-12-28.9,0.1-41
	c4.7-4.7,7.5-10.5,8.3-17.3c1-9-1.6-17.1-5.6-24.9c-0.6-1.2-1.4-2.3-1.6-3.7c8.5,10.4,15.9,21.6,22.6,33.2
	c5.4,9.4,10.2,19.1,13.2,29.6c2.2,7.8,3.4,15.7,1.2,23.8C78.4,365.8,77.5,368.1,75.7,369.9z"/>
<path class="st10" d="M273,41.4c-0.4,5.5-2.8,10.4-4.9,15.4c-4.6,11.1-11,21.2-18.7,30.4c-7.2,8.7-15.6,16.1-25,22.4
	c-0.8,0.6-1.9,0.9-2.4,1.9c-6.7-0.5-13.1-2.3-19.6-3.9c-1.2-0.3-2.4-0.8-3.6-1.2c2.2-1.9,4.3-3.8,6.5-5.6
	c16.5-14.2,28.1-31.6,35.4-52.1c0.3-0.7,0.6-1.5,0.9-2.2c8.1-4.5,16.7-6.6,25.9-5.9C269.5,40.7,271.3,40.9,273,41.4z"/>
<path class="st10" d="M45,381.9c0,38.8,0,77.7,0,116.5c0,5.9,2.5,10.4,7.5,13.5c0.5,0.3,1.6,0.2,1.1,1.4
	c-8.5,2.4-17.9-4.5-17.9-14.2c0.1-39.6,0-79.2,0-118.7c0-0.5,0.1-1,0.1-1.4C38.8,380.1,41.8,381.3,45,381.9z"/>
<path class="st11" d="M341.1,238.5c-0.3-6.8-1.2-13.6-1.9-20.4c-0.6-5.6-1-11.2-1.5-16.8c-0.6-6.1-1.3-12.1-1.9-18.2
	c7.4-0.3,14,1.5,19.9,6.1c13.8,10.6,13.7,32.8-0.2,43.4C351.3,235.9,346.5,237.7,341.1,238.5z"/>
<path class="st11" d="M96.3,183.2c-0.2,6.7-1.1,13.4-1.8,20.1c-0.4,3.9-0.7,7.7-1.1,11.6c-0.6,6.1-1.2,12.1-1.8,18.2
	c-0.1,1-0.1,1.9-0.1,2.9c0.1,1.5-0.6,2-2,1.9c-9.2-0.9-18.8-9.5-21.5-19.2c-4.6-16.7,6-33,23.2-35.4C92.9,183,94.6,183.2,96.3,183.2
	z"/>
<path class="st8" d="M332,146.2c-10.7,0-21.4,0-32.1,0c-2.6,0-4.7-1-5.8-3.4c-1.1-2.2-0.9-4.3,0.6-6.3c1.2-1.6,3-2.3,5-2.3
	c10,0,20,0,30,0c4.9,0.2,7.6,2.7,7.2,6.7C336.5,143.8,334.5,145.2,332,146.2z"/>
<path class="st8" d="M334.9,172.7c-1.5,0.6-3.1,0.8-4.7,0.8c-6.5,0-13.1,0-19.6,0c-5.3-0.1-8.3-4.9-5.6-9.2c1.1-1.9,2.8-2.7,5-2.7
	c8,0,15.9,0,23.9,0C339.1,164.5,339.5,169,334.9,172.7z"/>
<path class="st8" d="M98.7,161.5c7.7,0,15.5,0.2,23.2-0.1c3.5-0.1,6.1,2.3,6.5,5.7c0.3,2.9-2.4,6.2-5.7,6.2
	c-8.3,0.1-16.6,0.7-24.8-0.3C92.7,169.2,93.1,164.3,98.7,161.5z"/>
<path class="st12" d="M41.5,275.9c-0.5,0.4-0.3,1-0.5,1.4c-0.2-0.5-0.3-1-0.4-1.5c-0.1-0.3-0.1-0.7,0.4-0.6
	C41.2,275.2,41.3,275.6,41.5,275.9z"/>
<path class="st11" d="M170.7,354c6.2,4.8,12.5,9.3,19.8,12.1c1,0.4,2,0.9,3.2,0.9c1.9,0.5,3.6,2,5.8,1.4c1,0.1,1.1,1.1,1.4,1.8
	c3.9,10.4,9.1,20.1,15.3,29.2c1.2,0.1,1.3-1,1.7-1.6c5.6-8.8,10.6-18,14.3-27.8c0.3-0.7,0.1-1.9,1.4-2c0.3,1.3,1.2,0.5,1.7,0.4
	c8.9-2.6,16.9-6.9,24.2-12.5c0.8-0.6,1.7-1.2,2.5-1.8c0,8.2,0,16.3,0,24.5c-0.1,21-16.2,39.9-36.9,43.8
	c-24.6,4.6-47.9-11.3-53.1-35.3c-0.8-3.7-1-7.4-1.1-11.2C170.7,368.6,170.7,361.3,170.7,354z"/>
<path class="st11" d="M202.9,228.5c0-6.9,0-13.8,0-20.6c0-1.7,0.5-2.2,2.2-2.2c7.7,0.1,15.4,0.1,23,0c1.7,0,2.2,0.5,2.2,2.2
	c-0.1,13.5,0,27-0.1,40.6c0,5.7-5.1,13.5-14.5,13c-6.8-0.3-12.8-6.3-12.8-13.3C202.9,241.6,202.9,235.1,202.9,228.5z"/>
<path class="st8" d="M233.6,367.9c-4,11.1-9.5,21.5-15.9,31.4c-0.8,1.3-0.8,1.3-1.8,0.8c-3.6-9.9-5.9-20.2-7.7-30.6
	c-2-11.3-1.6-22.6,1.2-33.7c0.6-2.2,1.3-4.3,2.4-6.2c0.9-1.6,2.1-2.8,4-3.2c6.2-0.4,10.3,2.9,13.4,7.6c6.3,9.6,7.8,20.1,5.1,31.3
	C234,366.1,233.8,367,233.6,367.9z"/>
<path class="st13" d="M178.5,294.6c-3-4-6.4-7.7-8.4-13.4c31.1,13.8,61.8,14.1,92.6,0.4c-1.9,5.5-4.9,10.1-9.4,13.5
	c-4.2,2.2-8.9,3.2-13.4,4.3c-9.4,2.2-18.9,3.1-28.6,2.6c-9.9-0.6-19.7-2.5-29.1-5.7C180.9,295.8,179.8,294.9,178.5,294.6z"/>
<path class="st10" d="M215.8,326.3c-2.5,1.7-4,4-4.9,6.8c-3,9.5-3.8,19.3-2.9,29.2c1.2,12.6,4.5,24.6,8,36.7
	c0.1,0.4,0.3,0.7-0.1,1.1c-6.6-10-12.2-20.5-16.3-31.7c-1.4-5-2.4-10-2-15.3c0.6-7.6,2.5-14.7,7.3-20.8
	C207.7,328.9,211.1,326.3,215.8,326.3z"/>
<path class="st0" d="M172.7,226c0,2.6,0.1,5.1,0,7.7c-0.2,4.8-4.2,8.5-8.9,8.5c-4.9,0-8.8-3.9-8.8-8.8c0-4.9,0-9.7,0-14.6
	c0-4.8,3.8-8.5,8.4-8.6c5.1-0.1,9.1,3.3,9.3,8.3C172.8,220.9,172.7,223.4,172.7,226C172.7,226,172.7,226,172.7,226z"/>
<path class="st0" d="M260.4,225.8c0-2.4,0-4.8,0-7.2c0-4.8,3.7-8.7,8.5-8.9c4.7-0.2,9,3.4,9.2,8.2c0.2,5.3,0.3,10.5,0,15.8
	c-0.3,4.9-4.5,8.3-9.3,8.1c-4.9-0.2-8.4-3.9-8.5-8.9C260.4,230.6,260.4,228.2,260.4,225.8z"/>
<path class="st0" d="M178.5,294.6c2.2-0.2,4,1,5.9,1.6c12.1,3.8,24.4,5.7,37.1,5c10-0.5,19.8-2.5,29.3-5.7c0.8-0.3,1.6-0.8,2.5-0.5
	c-0.6,1.9-2.3,2.8-3.7,3.8c-20.4,15.7-50.4,14.4-69.5-2.9C179.5,295.5,179,295,178.5,294.6z"/>
<path class="st5" d="M269.6,183.1c-6.7-0.1-12.8,0.3-18.8,1.1c-1.9,0.3-2.2-0.4-1.7-2c1.8-5.9,5.9-9.5,11.4-11.8
	c8.9-3.6,19.1-1.3,25.2,5.7c0.6,0.7,1.2,1.5,1.7,2.3c1.1,1.7,2.6,3.9,1.7,5.5c-0.7,1.2-3.3,0.1-5.1-0.1
	C279.1,183.4,274,183,269.6,183.1z"/>
<path class="st5" d="M180.8,184.1c-7.2-1-15-1.1-22.8-0.9c-4.2,0.1-8.4,0.4-12.6,1c-2.1,0.3-2.3-0.4-1.7-2.1
	c2.2-6.7,7-10.4,13.5-12.4c8.6-2.6,18,0.2,23.6,7c1.2,1.4,2,3.1,2.6,4.8C184.3,184.3,184.3,184.3,180.8,184.1z"/>
<path class="st9" d="M132.3,488.9c-5.3-0.7-9.7-2.9-12.7-7.5c-6.6-10-0.5-23.5,11.4-25.1c0.5-0.1,0.9-0.3,1.4-0.4
	c9.1,0.4,15.3,5.3,17,13.6c0.7,3.2,0.3,6.4-1,9.4c-0.4,1-0.6,1.5,0.8,2.1c3.9,1.6,6,5.5,5.1,9.2c-0.9,4.1-4.3,6.7-8.5,6.5
	c-4.1-0.1-6.9-2.7-7.6-7.2c-0.2-1.2-0.6-1.2-1.5-1C135.2,488.6,133.7,488.7,132.3,488.9z"/>
<path class="st9" d="M252.5,499.7c-4.4,0-8.4-4-8.3-8.3c0.1-4.5,3.9-8.2,8.4-8.2c4.4,0,8.2,3.9,8.2,8.3
	C260.9,495.9,257,499.7,252.5,499.7z"/>
<path class="st9" d="M277.2,450c0-4.8,3.3-8.1,8.1-8.1c4.6,0,8.2,3.6,8.2,8.2c0,4.5-3.7,8.1-8.3,8.2
	C280.6,458.2,277.2,454.8,277.2,450z"/>
<path class="st9" d="M329.6,425.9c-0.2-6.7,4.9-13.6,13.5-13.6c8.1,0,13.4,6.3,13.4,13.6c0,7.3-6.1,13.5-13.4,13.5
	C335.6,439.5,329.6,433.4,329.6,425.9z"/>
<path class="st3" d="M396.8,484c0,7.4-6.2,13.6-13.6,13.5c-7.2-0.1-13.5-5.5-13.5-13.7c0.1-7.8,5.7-13.3,13.7-13.4
	C390.6,470.3,396.8,476.8,396.8,484z"/>
<path class="st5" d="M439.6,474.4c-0.1,7.4-6.2,13.4-13.5,13.3c-7.5-0.1-13.5-6.3-13.4-13.9c0.1-7.3,6.2-13.2,13.7-13.2
	C433.7,460.7,439.7,466.9,439.6,474.4z"/>
<path class="st14" d="M360.4,464c0,7.6-5.9,13.4-13.6,13.4c-7.4,0-13.4-6.1-13.3-13.5c0.1-7.5,6.1-13.4,13.7-13.4
	C354.6,450.6,360.4,456.5,360.4,464z"/>
<path class="st15" d="M424.2,392c0-7.3,6-13.5,13.3-13.5c7.3,0,13.5,6.1,13.5,13.4c0,7.1-6.1,13.3-13.3,13.4
	C430.5,405.5,424.2,399.3,424.2,392z"/>
</svg>
