<?xml version="1.0" encoding="utf-8"?>
<!-- Generator: Adobe Illustrator 20.1.0, SVG Export Plug-In . SVG Version: 6.00 Build 0)  -->
<svg version="1.1" id="Слой_1" xmlns="http://www.w3.org/2000/svg" xmlns:xlink="http://www.w3.org/1999/xlink" x="0px" y="0px"
	 viewBox="0 0 437 531" style="enable-background:new 0 0 437 531;" xml:space="preserve">
<style type="text/css">
	.st0{fill:#78B8EA;}
	.st1{fill:#C8E2F6;}
	.st2{fill:#3C5D76;}
	.st3{fill:#FE9711;}
	.st4{fill:#D70027;}
	.st5{fill:#FE5023;}
</style>
<g>
	<path class="st0" d="M218,7.2c68.3,0,136.6,0,205,0c0.5,0.8,0.2,1.7,0.2,2.6c0,143.3,0,286.6,0,429.9c0,0.8,0.1,1.6-0.1,2.4
		c-1.4,1.4-3.3,1.1-5,1.1c-21.7,0-43.3,0-65,0c-1,0-2.1,0-3.1,0c-1.8,0-2.6,0.9-2.7,2.7c0,1,0,2.1,0,3.1c0,21.3,0,42.5,0,63.8
		c0,2.1,0,4.2-0.4,6.2c-0.5,0.8-1.3,0.5-2,0.5c-41.9,0-83.8,0-125.7,0c-0.2,0-0.5,0-0.7-0.1c-1-0.4-1.4-1.2-1.5-2.2
		c-0.1-1.3-0.1-2.6-0.1-3.8c0-22.3,0-44.6,0-66.9c0-1.5-0.1-3,0.3-4.5c0.8-1.6,0.1-3.2,0-4.9c-0.4-1.8-0.3-3.7-0.3-5.5
		c0-41,0-82.1,0-123.1c0-5.6,0-5.6-5.6-5.6c-38.1,0-76.2,0-114.2,0c-1.4,0-2.9,0-4.3-0.1c-2.7-0.2-3.4-0.8-3.5-3.5
		c-0.2-5.6,0-11.2-0.1-16.8c0-5.4-0.1-10.9,0-16.3c0.1-3.7,0.6-4.2,4.4-4.3c1.4,0,2.7,0,4.1,0c37.8,0,75.5,0,113.3,0
		c5.9,0,5.9,0,5.9-6c0-8.4,0-16.8,0-25.2c0-4.2-0.3-4.5-4.5-4.5c-38.5,0-77,0-115.4,0c-1.5,0-3,0-4.6-0.1c-2.2-0.2-3-0.9-3.1-3.2
		c-0.2-3.2-0.1-6.4-0.1-9.6c0-7.8,0-15.5,0-23.3c0-4.5,0.4-4.9,5-5c27.8,0,55.7,0,83.5,0c11.7,0,23.4,0,35,0c3.7,0,4.1-0.4,4.1-4.2
		c0-9,0-17.9,0-26.9c0-4.4-0.2-4.7-4.8-4.7c-38.5,0-77,0-115.4,0c-1.5,0-3,0-4.6-0.1c-1.7-0.1-2.6-1.1-2.7-2.7
		c-0.1-1.3-0.1-2.6-0.1-3.8c0-9.7,0-19.4,0-29c0-5,0.4-5.3,5.3-5.3c38.6,0,77.3,0,115.9,0c6.4,0,6.4,0,6.4-6.4c0-29.9,0-59.8,0-89.8
		C216.9,10.5,216.4,8.6,218,7.2z"/>
	<path class="st1" d="M218,7.2c0,4.8,0.1,9.6,0.1,14.4c0,28.2,0,56.3,0,84.5c0,3.4,0,3.4-3.4,3.4c-40.3,0-80.6,0-120.9,0
		c-3.4,0-3.4,0-3.4,3.4c0,10.6,0,21.1,0,31.7c0,3.7,0,3.7,3.8,3.7c39.9,0,79.8,0,119.7,0c0.7,0,1.4,0,2.2,0c1.4-0.1,2,0.5,2,1.9
		c0,11.4,0,22.7,0,34.1c0,1.9-1,2-2.4,2c-6.2,0-12.5,0-18.7,0c-34.4,0-68.8,0-103.2,0c-3.4,0-3.4,0-3.4,3.3
		c0,10.8,0.1,21.6-0.1,32.4c0,2.5,0.7,3.1,3.1,3.1c40.3-0.1,80.6,0,120.9,0c3.8,0,3.8,0,3.8,3.8c0,10.4-0.1,20.8,0.1,31.2
		c0,2.5-0.7,3.1-3.1,3.1c-40.4-0.1-80.8,0-121.2,0c-3.5,0-3.5,0-3.5,3.5c0,10.6,0,21.3,0,31.9c0,3.3,0,3.3,3.2,3.3
		c40.2,0,80.5,0,120.7,0c3.8,0,3.8,0,3.8,3.8c0,44.2,0,88.5,0,132.7c-1.2,0.5-2-0.3-2.7-1c-8.5-8.4-16.8-16.8-25.2-25.2
		c-0.8-0.8-1.4-1.7-1.6-2.9c0.4-2.7,1.9-5.1,2.6-7.7c3.7-14.7,0.2-27.4-10.7-37.9c-6.3-6-14.1-9.2-22.9-9.8c-0.8,0-1.6-0.1-2.4-0.2
		c-7.8,0.2-15,2.5-21.5,6.9c-14.5,10.1-19.9,29.6-12.7,45.7c0.4,0.9,0.9,1.9,0.8,3c-0.4,1.6-1.4,2.6-2.5,3.7
		c-8.3,8.2-16.5,16.5-24.8,24.7c-0.6,0.6-1.3,1.1-1.7,2.2c3.2,1.1,6.5,1.4,9.6,2.1c2.6,0.6,5.3,1.1,8,1.6c2.3,0.4,3.6,1.6,4.1,4
		c1,5.2,2,10.5,3.2,15.7c0.1,0.6-0.1,1.5,0.6,1.7c0.8,0.3,1.2-0.6,1.7-1.1c10.5-10.4,20.9-20.9,31.4-31.4c3.7-3.7,4.3-3.7,8.1,0.1
		c10.3,10.3,20.6,20.6,30.9,30.9c0.5,0.5,1,1.5,1.9,1.3c0.8-0.2,0.7-1.3,0.9-2.1c1-4.8,2-9.7,2.9-14.6c0.5-2.7,1.8-4.2,4.6-4.7
		c4.8-0.8,9.5-1.9,14.3-2.8c1.1-0.2,2.4-0.8,3.3,0.5c0,25.3,0,50.5,0,75.8c0,0.8,0,1.6,0.5,2.3c-0.7,0.6-1.5,0.3-2.3,0.3
		c-66.8,0-133.6,0-200.4,0c-0.8,0-1.6,0.2-2.4-0.2c0-169.9,0-339.9,0-509.8c0-1.8,0.2-2.4,2.3-2.4C83.1,7.2,150.5,7.2,218,7.2z"/>
	<path class="st2" d="M282.8,109.5c20.2,0,40.5,0,60.7,0c2.3,0,3.2,0.4,3.1,3c-0.2,11-0.1,21.9,0,32.9c0,2.2-0.7,2.6-2.7,2.6
		c-41-0.1-81.9-0.1-122.9,0c-1.9,0-2.6-0.4-2.6-2.5c0.1-11.2,0.1-22.4,0-33.6c0-1.9,0.6-2.4,2.4-2.4
		C241.5,109.5,262.1,109.5,282.8,109.5z"/>
	<path class="st2" d="M218.4,224.6c0-12.8,0-25.5,0-38.3c0.7-0.5,1.5-0.3,2.3-0.3c41.2,0,82.4,0,123.5,0c0.8,0,1.6-0.3,2.3,0.3
		c0,12.7,0,25.4,0,38.2c-0.7,0.7-1.5,0.3-2.3,0.3c-41.2,0-82.4,0-123.5,0C220,224.9,219.2,225.1,218.4,224.6z"/>
	<path class="st2" d="M282.5,301.5c-20.5,0-41,0-61.4,0c-2.1,0-2.7-0.5-2.7-2.6c0.1-11.1,0.1-22.2,0-33.4c0-2.1,0.7-2.5,2.6-2.5
		c41,0.1,81.9,0.1,122.9,0c2.1,0,2.7,0.5,2.7,2.6c-0.1,11-0.1,22.1,0,33.1c0,2.3-0.8,2.7-2.9,2.7
		C323.3,301.4,302.9,301.5,282.5,301.5z"/>
	<path class="st2" d="M422.8,442.2c0.2,0.9-0.6,1.3-1,1.7c-24.8,24.8-49.6,49.6-74.4,74.4c-0.2,0.2-0.5,0.4-0.8,0.6
		c-0.5-0.9-0.3-1.9-0.3-2.8c0-23.6,0-47.2,0-70.8c0-3.2,0-3.2,3.1-3.2C373.9,442.2,398.4,442.2,422.8,442.2z"/>
	<path class="st3" d="M189.1,409.6c9,9,18,18,27,26.9c0.6,0.6,1.3,1.2,1.9,1.8c0.6,0.7,1.2,1.5,1.8,2.2c-0.4,0.6-1.2,0.4-1.7,0.7
		c-6.4,1.3-12.8,2.5-19.3,3.7c-1.3,0.2-1.4,1-1.6,2c-1.2,6.2-2.5,12.4-3.7,18.5c-0.1,0.7-0.1,1.4-0.8,2c-0.6-0.6-1.3-1.2-1.9-1.8
		c-11.3-11.3-22.5-22.5-33.7-33.8c-1.4-1.5-2.1-1.6-3.7-0.1c-11.2,11.3-22.5,22.5-33.7,33.8c-0.6,0.6-1,1.4-1.6,2.2
		c-1.2-1.1-1.1-2.2-1.3-3c-1.2-5.9-2.4-11.7-3.5-17.6c-0.3-1.4-0.7-2.2-2.3-2.4c-6.2-1.1-12.4-2.4-18.6-3.7
		c-0.6-0.1-1.2-0.3-2.7-0.7c10.7-10.6,21.1-20.8,31.4-30.9c1.6-0.2,2,1.1,2.6,2.1c5,7.8,12.1,12.7,20.8,15.5c3.4,1.1,7,1.5,10.6,1.7
		c8.9-0.2,16.8-3.1,23.8-8.7c3-2.4,5.5-5.3,7.6-8.6C187.1,410.7,187.5,409.2,189.1,409.6z"/>
	<path class="st0" d="M346.6,186.4c-0.8-0.1-1.6-0.2-2.4-0.2c-41.2,0-82.4,0-123.6,0c-0.7,0-1.4,0.1-2.2,0.1
		c0.8-0.7,1.8-0.5,2.7-0.5c40.9,0,81.8,0,122.7,0C344.8,185.8,345.8,185.6,346.6,186.4z"/>
	<path class="st0" d="M218.4,224.6c1,0,1.9,0.1,2.9,0.1c40.7,0,81.5,0,122.2,0c1,0,2.1-0.1,3.1-0.2c-0.8,0.8-1.8,0.6-2.7,0.6
		c-40.9,0-81.8,0-122.7,0C220.3,225.1,219.3,225.4,218.4,224.6z"/>
	<path class="st4" d="M189.1,409.6c-4.7,7.9-11.1,14-19.7,17.4c-4.6,1.8-9.3,2.9-14.2,2.6c-0.9-0.6-1.1-1.5-1.1-2.5
		c0-1.2,0-2.4,0-3.6c0-22,0-43.9,0-65.9c0-1.6-0.5-3.4,1.1-4.7c16.8-0.9,33.4,12,37.4,29.1C194.7,391.6,193.5,400.8,189.1,409.6z"/>
	<path class="st5" d="M155.1,352.9c0,25.6,0,51.1,0,76.7c-14.6-0.1-25.5-6.7-33.2-18.8c-0.3-0.4-0.5-0.8-0.8-1.2
		c-4.7-9.4-5.8-19.2-2.9-29.3C122.9,364,139,352.1,155.1,352.9z"/>
</g>
</svg>
