<?xml version="1.0" encoding="utf-8"?>
<!-- Generator: Adobe Illustrator 20.1.0, SVG Export Plug-In . SVG Version: 6.00 Build 0)  -->
<svg version="1.1" id="Слой_1" xmlns="http://www.w3.org/2000/svg" xmlns:xlink="http://www.w3.org/1999/xlink" x="0px" y="0px"
	 viewBox="0 0 627 604" style="enable-background:new 0 0 627 604;" xml:space="preserve">
<g>
	<path d="M550,596c-156.7,0-313.3,0-470,0c-0.9-0.3-1.8-0.7-2.8-0.9c-33.6-6.1-55.3-25.5-65.4-58.1c-1.2-3.9-1.9-8-2.8-12.1
		c0-78.3,0-156.7,0-235c3.4-7.4,9.3-9.8,17.3-9.8c36.5,0.2,72.9,0.1,109.4,0.1c1.9,0,3.9,0,6.3,0c0-2.5,0-4.5,0-6.4
		c0-83.6,0.1-167.2-0.1-250.8c0-8.1,2.4-13.9,10-17.1c153,0,306,0,459,0c4.7,1.9,8.1,5.2,10,10c0,169.7,0,339.3,0,509
		c-0.3,0.9-0.7,1.9-0.9,2.8c-6.2,34-26,55.8-59,65.6C557.5,594.5,553.7,595.2,550,596z M168.3,32.4c0,2.4,0,4.5,0,6.6
		c0,96.2,0,192.3,0,288.5c0,62.3-0.1,124.7,0,187c0,19.4-5.6,36.7-17.7,51.9c-0.7,0.9-1.3,1.8-2.4,3.5c2.2,0,3.6,0,5.1,0
		c128.7,0,257.3,0,386,0c32.3,0,55.4-23.3,55.4-55.6c0-158.8,0-317.7,0-476.5c0-1.8-0.2-3.5-0.3-5.3
		C452.3,32.4,310.7,32.4,168.3,32.4z M35.4,307c-0.1,1.9-0.2,3.5-0.2,5.1c0,67.5,0,135,0,202.4c0,4.3,0.4,8.7,1.3,12.9
		c5.8,26.4,30.8,44.9,56.4,42.1c28.8-3.2,49-25.2,49-53.6c0.1-68.1,0-136.3,0-204.4c0-1.5-0.2-2.9-0.3-4.5
		C106.3,307,71,307,35.4,307z"/>
	<path d="M447.5,446.6c-27,0-54,0-81,0c-2.2,0-4.4-0.1-6.5-0.5c-5.6-1.2-9.6-6-10-11.6c-0.4-5.8,3.1-11.5,8.6-13.3
		c2.2-0.7,4.6-0.9,6.9-0.9c54.7-0.1,109.3-0.1,164,0c11,0,17.7,8,14.6,17.3c-1.9,5.8-6.7,9-14,9c-19.5,0.1-39,0-58.5,0
		C463.5,446.6,455.5,446.6,447.5,446.6z"/>
	<path d="M447.3,302.1c-27.8,0-55.7,0.1-83.5,0c-10.4,0-16.9-9.6-12.7-18.5c2.4-5.2,6.7-7.7,12.4-7.7c10.3,0,20.7,0,31,0
		c45.2,0,90.3,0,135.5,0c10.7,0,17.3,8.7,13.7,17.9c-2,5.3-6.7,8.3-13.5,8.3C502.7,302.1,475,302.1,447.3,302.1z"/>
	<path d="M447.4,157.9c-27.7,0-55.3,0.1-83,0c-9.9,0-16.6-8-14-16.6c1.6-5.4,5.3-8.7,11.1-9.4c1.8-0.2,3.7-0.2,5.5-0.2
		c53.5,0,107,0,160.5,0c11,0,17.1,4.5,17.3,12.9c0.2,8.4-6.3,13.4-17.3,13.4C500.8,157.9,474.1,157.9,447.4,157.9z"/>
	<path d="M251.2,144.2c8.6-9.4,16.9-18.5,25.2-27.5c12.4-13.5,24.7-27.1,37.1-40.6c3.8-4.2,8.5-5.8,14-4.1c5.1,1.6,8.7,5.2,8.8,10.4
		c0.1,3.7-1,8.3-3.3,10.9c-23.8,26.6-47.8,52.9-72,79.1c-5.5,5.9-13.5,5.9-19.1,0.2c-9.9-10.1-19.6-20.4-29.2-30.9
		c-5.4-5.8-4.9-13.7,0.6-18.7c5.4-4.9,13.2-4.6,18.8,1.1C238.5,130.6,244.7,137.3,251.2,144.2z"/>
	<path d="M251.2,294.8c14.4-15.7,28.4-31.1,42.5-46.4c6.4-7,12.8-14.1,19.2-21c6-6.4,13.7-7.2,19.4-2c5.8,5.2,6,13.1,0.1,19.5
		c-23.5,25.9-47.1,51.7-70.8,77.5c-6.2,6.7-14.2,6.7-20.6,0.1c-9.3-9.7-18.6-19.6-27.8-29.4c-5.7-6.1-5.7-13.9-0.3-19.2
		c5.6-5.4,13.5-5,19.5,1.2C238.7,281.5,244.8,288.1,251.2,294.8z"/>
	<path d="M251.2,445.5c13.2-14.4,26-28.4,38.7-42.4c7.5-8.2,15-16.5,22.6-24.7c6-6.6,14.1-7.5,19.8-2.4c5.9,5.3,5.9,13.1-0.3,19.9
		c-23.2,25.5-46.5,50.9-69.8,76.4c-7.1,7.7-14.7,7.7-21.9,0.1c-8.8-9.3-17.6-18.6-26.4-28c-6.2-6.6-6.6-14.5-1-19.9
		c5.7-5.5,13.7-4.8,20.2,2C239,432.6,244.8,438.8,251.2,445.5z"/>
</g>
</svg>
