<?xml version="1.0" encoding="utf-8"?>
<!-- Generator: Adobe Illustrator 20.1.0, SVG Export Plug-In . SVG Version: 6.00 Build 0)  -->
<svg version="1.1" id="Слой_1" xmlns="http://www.w3.org/2000/svg" xmlns:xlink="http://www.w3.org/1999/xlink" x="0px" y="0px"
	 viewBox="0 0 816 794" style="enable-background:new 0 0 816 794;" xml:space="preserve">
<g>
	<path d="M8.5,782c0-12.2,0.1-24.3,0-36.5c-0.1-9.8,3.7-17.6,11.4-23.8c23.6-18.9,49-35.1,75.9-48.7c3.6-1.8,4.9-4,4.9-8
		c-0.2-15.7,0-31.3-0.2-47c0-2-1.2-4.4-2.6-5.8c-5.5-5.4-8.6-11.7-8.6-19.5c0-19-0.2-38,0.1-57c0.3-27.3,21.4-49.1,48.7-50.4
		c12.6-0.6,25.4-0.9,37.1,5.4c18,9.6,27.7,24.6,28.2,45c0.5,18.8,0.1,37.6,0.1,56.5c0,8-3,14.5-8.6,20c-1.4,1.4-2.7,3.8-2.7,5.8
		c-0.2,16,0,32-0.2,48c0,3.6,1.4,5.3,4.4,6.8c26.5,13.4,51.4,29.3,74.8,47.7c9,7,13.3,15.7,13.1,27.1c-0.2,11.5,0.1,23,0.2,34.5
		C192.5,782,100.5,782,8.5,782z"/>
	<path d="M532.5,782c0.1-11.7,0.4-23.3,0.2-35c-0.2-11,4-19.5,12.7-26.3c23.4-18.4,48.3-34.3,74.8-47.8c3.7-1.9,4.9-4.1,4.8-8.1
		c-0.2-15.3-0.1-30.7,0-46c0-3-0.7-5.2-3.1-7.3c-5.7-5-8.4-11.5-8.4-19.1c0-18.7,0-37.3,0-56c0.1-27.5,21-49.8,48.5-51.3
		c13-0.7,26-1,38,5.6c17.1,9.4,26.9,23.7,27.5,43.4c0.6,19.6,0.2,39.3,0.2,59c0,7.4-3.2,13.4-8.3,18.7c-1.6,1.7-2.9,4.4-2.9,6.7
		c-0.2,15.7,0,31.3-0.2,47c0,3.7,1.3,5.6,4.6,7.3c24.4,12.3,47.5,26.8,69.3,43.4c6.9,5.3,13.6,10.6,17.3,18.8c0,15.7,0,31.3,0,47
		C715.8,782,624.2,782,532.5,782z"/>
	<path d="M271.3,305.5c0-14.6-0.4-29.1,0.2-43.5c0.3-7.1,4.8-12.6,10.3-17c23.6-19,48.9-35.2,75.9-48.8c4-2,5.4-4.4,5.3-8.8
		c-0.3-15.2-0.2-30.3-0.1-45.5c0-3-0.5-5.2-3-7.3c-5.5-4.8-8.3-11.1-8.3-18.5c0-19.5-0.2-39,0.1-58.5c0.4-26.3,22.6-48.8,48.9-49.3
		C409.5,8,418.9,8,427.7,10c22.3,5.2,37.6,25.1,37.9,48.1c0.2,19.2,0.1,38.3,0.1,57.5c0,7.8-3.1,14.1-8.7,19.5
		c-1.4,1.4-2.5,3.9-2.5,5.9c-0.2,15.8,0,31.7-0.2,47.5c0,3.5,1.2,5.3,4.3,6.9c26.9,13.7,52.4,29.8,76,48.7c8,6.4,12,14.4,11.9,24.6
		c-0.1,12.2,0,24.3,0,36.9C454.7,305.5,363.1,305.5,271.3,305.5z"/>
	<path d="M389.7,441.2c0-24-0.1-48,0-72c0.1-13.9,11.5-23,23.9-19.2c7.3,2.2,11.8,7.2,13.1,14.8c0.4,2.4,0.4,5,0.4,7.5
		c0,46.8,0.1,93.6-0.1,140.4c0,3.9,1.2,6.2,4.5,8.4c40,25.8,79.9,51.7,119.9,77.7c9,5.8,12.2,14.2,9.1,23
		c-4.2,11.7-17.3,15.9-28.4,8.9c-19.8-12.6-39.4-25.5-59.1-38.3c-20.3-13.1-40.6-26.2-60.7-39.5c-3-2-5-1.8-7.9,0.1
		c-39.5,25.7-79.1,51.3-118.6,77c-5.3,3.4-10.8,5.3-17,3.5c-7.4-2.1-12-7.1-13.3-14.7c-1.4-8,1.4-14.4,8.3-18.9
		c20.9-13.6,41.9-27.2,62.8-40.8c19.4-12.6,38.8-25.3,58.3-37.7c3.5-2.2,4.9-4.5,4.9-8.7C389.5,488.8,389.7,465,389.7,441.2z"/>
</g>
</svg>
