<?xml version="1.0" encoding="utf-8"?>
<!-- Generator: Adobe Illustrator 20.1.0, SVG Export Plug-In . SVG Version: 6.00 Build 0)  -->
<svg version="1.1" id="Слой_1" xmlns="http://www.w3.org/2000/svg" xmlns:xlink="http://www.w3.org/1999/xlink" x="0px" y="0px"
	 viewBox="0 0 529 530" style="enable-background:new 0 0 529 530;" xml:space="preserve">
<g>
	<path d="M518.2,410.8c-2.6,3.9-5.9,6.5-10.8,4.8c-4.7-1.7-5.2-5.8-5.2-10.3c0.1-88.3,0-176.7,0-265c0-2,0-3.9,0-6.4
		c-2.3,0-4.1,0-5.9,0c-22.8,0-45.7,0-68.5,0c-8.8,0-11.1-2.3-11.1-11.3c0-22.5,0-45,0-67.5c0-2,0-3.9,0-6.2c-57.5,0-114.6,0-172.2,0
		c0,2.3,0,4.2,0,6.2c0,17.7,0,35.3,0,53c0,5.3-3,8.6-7.6,8.7c-4.7,0.2-8-3.2-8.4-8.6c-0.1-1.3,0-2.7,0-4c0-22.8,0-45.7,0-68.5
		c0-11.1-1.8-12.9-12.6-12.9c-60.5,0-121,0-181.5,0c-10.1,0-12.1,2.1-12.1,12.4c0,83.5,0,167,0,250.5c0,9.6,2.3,11.9,11.7,11.9
		c61,0,122,0,183,0c9.3,0,11.6-2.3,11.6-11.4c0-43,0-86,0-129c0-1.3,0-2.7,0-4c0.2-6.1,3-9.4,8-9.4c5,0,7.9,3.3,8,9.4
		c0.1,23.3,0,46.7,0,70c0,21.5,0,43,0,64.5c0,16.3-9.9,26.1-26.2,26.1c-34.7,0.1-69.3,0-104,0c-2,0-3.9,0-6.2,0
		c0,63.1,0,125.7,0,188.7c131.2,0,262.4,0,394.1,0c0-8.8,0-17.6,0-26.4c0-7.2,0.1-14.3,0-21.5c-0.1-4.5,0.1-8.8,5-10.9
		c5-2.2,8,1,11,4.2c0,23.6,0,47.3,0,71c-140.3,0-280.7,0-421,0c-4.5-2.5-5.5-6.4-5.5-11.3c0.1-62.3,0.1-124.6,0.1-186.9
		c0-2.1,0-4.3,0-6.9c-2.3,0-4.1,0-5.9,0c-18.2,0-36.3,0.1-54.5,0c-10.8-0.1-18.8-4.9-23.3-14.9c-0.6-1.3-1.3-2.6-1.9-3.9
		c0-89.7,0-179.3,0-269c3.2-9.5,9.6-15.8,19-19c66.7,0,133.3,0,200,0c12.3,4.1,19.3,12.3,19.6,25.8c2.6,0,4.5,0,6.5,0
		c56.8,0,113.5-0.1,170.3,0.1c3.3,0,7.5,1.2,9.8,3.4c29.1,28.7,57.9,57.7,86.8,86.7C518.2,218.8,518.2,314.8,518.2,410.8z
		 M488.1,117.7c-18.3-18.3-36.9-36.9-55-55c0,17.5,0,36.2,0,55C452.1,117.7,470.7,117.7,488.1,117.7z"/>
	<path d="M245.6,375.8c0.1-20.2,4-37.4,11.8-53.7c3.3-6.8,7.4-9,12.3-6.5c4.7,2.4,5.4,6.7,2.2,13.4c-24.8,51.9-3.2,113.4,48.5,138.1
		c64.3,30.7,140.1-12.2,146.8-83.2c4.1-43.1-18.7-83.8-57.6-102.7c-38.7-18.9-84.9-11.7-116.3,18.2c-1.2,1.1-2.3,2.4-3.6,3.4
		c-3.5,2.8-7.9,2.7-10.9-0.2c-3.2-3-3.6-8-0.1-11.2c7.3-6.5,14.5-13.4,22.8-18.6c75.1-47,173.4,1.8,181.7,90
		c7,74.6-56.5,137.5-130.7,129.6C291.8,486.1,245.9,435.2,245.6,375.8z"/>
	<path d="M457.3,209.2c2.9-3.1,4.7-5.1,6.5-7c0.6-0.5,1.1-1,1.7-1.6c-1.6-0.8-3.5-1.4-4.8-2.6c-10.8-10.1-21.6-20.3-32.3-30.6
		c-4.7-4.5-5.3-8.9-2-12.6c3.5-3.9,8.2-3.5,13.1,1.1c13.6,12.8,27.1,25.7,40.6,38.5c5.2,5,5.3,9.1,0.3,14.1
		c-3.6,3.6-7.5,7-11.4,10.6c7.4,7.9,10.3,16.3,7.3,25.9c-5.7,18.5-28,24.5-41.7,10.9c-42.2-41.9-84.2-84-126.1-126.2
		c-1.8-1.8-2.7-4.5-3.8-6.8c-0.5-1-0.5-2.3-0.6-3.4c-1-15-7.3-27.3-18.9-36.9c-1-0.8-1.9-1.9-2.7-3c-2.7-3.6-2.4-7.9,0.7-10.9
		c3.2-3,7.9-3,11.2,0.3c4.1,4.1,7.7,8.8,11.9,12.8c1.8,1.7,4.3,3.1,6.7,3.7c5.5,1.4,11,2.7,16.6,3.3c8.3,0.9,14.2,5,20,10.8
		c34.4,34.8,69.2,69.4,103.8,104C454.6,205.3,455.7,207,457.3,209.2z M410.1,183.3c-23.7-23.7-47.4-46.8-70.4-70.7
		c-6.5-6.8-14-7.9-22.6-9.4c1.5,8.3,2.1,15.6,8.7,21.9c22.9,22.1,45.2,44.8,67.7,67.3c1.2,1.2,2.6,2.4,3.8,3.6
		C401.7,191.7,405.7,187.7,410.1,183.3z M409.3,208.2c12.2,12.2,24.4,24.6,36.8,36.8c3.8,3.7,8,3.3,11.9-0.5
		c4.1-3.9,4.6-8.4,0.8-12.3c-12.2-12.4-24.6-24.7-37-37C417.7,199.4,413.7,203.6,409.3,208.2z"/>
	<path d="M354.2,305.9c1.4-6.8-2.2-17,8.8-16.7c10.2,0.3,6.8,9.8,8,16.7c7.3,0,14.6,0,21.8,0c2.2,0,4.4-0.1,6.5,0.1
		c4.7,0.5,7.9,4.1,7.7,8.3c-0.2,4.3-3.4,7.5-8.3,7.6c-7.5,0.2-15,0.1-22.5,0.1c-1.6,0-3.3,0-5.2,0c0,15.1,0,29.6,0,44.9
		c3.9,0,7.5-0.1,11.1,0c15,0.5,24.9,10.5,25,25.5c0.1,8.2,0.1,16.3,0,24.5c-0.2,14.6-10.3,24.7-24.9,24.9c-3.6,0-7.3,0-11,0
		c-1.8,6.6,2.5,16.9-8.7,16.7c-10.6-0.2-6.8-10.1-8.2-16.7c-6.1,0-12.1,0-18,0c-9.6,0-13.5-2.3-13.6-7.9c-0.1-5.7,3.8-8.1,13.3-8.1
		c6,0,11.9,0,18.3,0c0-14.6,0-28.8,0-43.9c-2.6,0-5,0.1-7.5,0c-13.8-0.4-23.6-9.8-24.1-23.6c-0.4-9.5-0.4-19,0-28.5
		c0.5-13.9,10.5-23.4,24.5-23.8C349.5,305.9,351.8,305.9,354.2,305.9z M371,425.3c0.7,0.2,1.2,0.4,1.7,0.4c3.2,0,6.3,0.1,9.5,0
		c5.8-0.2,8.8-3.1,9-9.1c0.1-5.3-0.2-10.7,0.1-16c0.8-18.8-3-17.9-18.9-17.9c-0.3,0-0.6,0.2-1.2,0.4C371,397.2,371,411.2,371,425.3z
		 M354.6,365.9c0-14,0-27.5-0.1-41.1c0-0.9-0.5-2.1-1.2-2.5c-5.4-3.2-14.5,1.5-14.7,7.9c-0.3,9.1-0.3,18.3,0,27.4
		c0.1,5.4,3.2,8,8.6,8.3C349.4,365.9,351.6,365.9,354.6,365.9z"/>
	<path d="M125.2,32.5c27.6,0,55.3,0,82.9,0c8.5,0,10.9,2.5,10.9,11c0,12.3,0,24.6,0,37c0,7.9-2.6,10.6-10.4,10.6
		c-55.4,0-110.9,0-166.3,0C34.6,91.2,32,88.6,32,81c-0.1-12.8-0.1-25.6,0-38.5c0-7.6,2.6-10.1,10.3-10.1
		C69.9,32.5,97.5,32.5,125.2,32.5z M48.3,74.7c51.8,0,103,0,154.5,0c0-8.8,0-17.2,0-25.8c-51.6,0-103,0-154.5,0
		C48.3,57.6,48.3,66.1,48.3,74.7z"/>
	<path d="M168.7,228.8c0-16.1,0-32.3,0-48.4c0-8.6,2.5-11.1,10.9-11.1c9.5,0,19,0,28.5,0c8.2,0,10.9,2.7,10.9,10.7
		c0,32.5,0,64.9,0,97.4c0,7.9-2.7,10.5-10.5,10.6c-9.8,0-19.6,0-29.5,0c-7.8,0-10.4-2.7-10.4-10.6
		C168.6,261.1,168.7,244.9,168.7,228.8z M202.7,271.5c0-28.7,0-57.1,0-85.8c-6,0-11.7,0-17.7,0c0,28.8,0,57.2,0,85.8
		C191,271.5,196.8,271.5,202.7,271.5z"/>
	<path d="M193.7,151c-5.5,0-11,0.1-16.5,0c-5.4-0.2-8.4-2.9-8.5-8.4c-0.2-11.2-0.2-22.3,0-33.5c0.1-5.3,3.3-8.2,8.7-8.2
		c11-0.1,22-0.1,33,0c5.2,0.1,8.4,3.2,8.5,8.5c0.2,11,0.2,22,0,33c-0.1,5.7-3.1,8.5-8.8,8.7C204.7,151.1,199.2,151,193.7,151z
		 M202.7,117.2c-6.2,0-11.9,0-17.7,0c0,6,0,11.6,0,17.5c6,0,11.7,0,17.7,0C202.7,128.7,202.7,123.1,202.7,117.2z"/>
	<path d="M32,194.5c0-5.5-0.1-11,0-16.5c0.1-5.7,2.9-8.6,8.7-8.7c10.8-0.2,21.7-0.2,32.5,0c6,0.1,8.9,3.1,9,9
		c0.1,10.7,0.1,21.3,0,32c-0.1,6.2-3,9.2-9.3,9.3c-10.7,0.1-21.3,0.2-32,0c-6-0.1-8.7-3.1-8.9-9.1c0-0.3,0-0.7,0-1
		C31.9,204.5,31.9,199.5,32,194.5z M48.2,203.1c6.3,0,12,0,17.6,0c0-6,0-11.6,0-17.4c-6,0-11.7,0-17.6,0
		C48.2,191.6,48.2,197.2,48.2,203.1z"/>
	<path d="M150.4,194.3c0,5.3,0.1,10.7,0,16c-0.1,6.1-2.8,9.1-8.7,9.2c-10.8,0.2-21.6,0.2-32.5,0c-5.9-0.1-8.9-3.2-8.9-9.1
		c-0.1-10.7-0.1-21.3,0-32c0.1-6,2.9-9.1,8.8-9.2c10.8-0.2,21.6-0.2,32.5,0c6,0.1,8.7,3,8.8,9.1C150.5,183.6,150.4,189,150.4,194.3z
		 M116.7,185.6c0,6.1,0,11.8,0,17.5c6.1,0,11.8,0,17.5,0c0-6,0-11.6,0-17.5C128.3,185.6,122.7,185.6,116.7,185.6z"/>
	<path d="M100.3,262.3c0-5.2-0.1-10.3,0-15.5c0.1-6,3-9,8.8-9.1c10.8-0.1,21.6-0.1,32.5,0c6,0.1,8.8,2.9,8.8,9
		c0.1,10.7,0.1,21.3,0,32c-0.1,6.3-2.9,9.1-9.2,9.1c-10.5,0.1-21,0.1-31.5,0c-6.5,0-9.3-3-9.4-9.5
		C100.2,272.9,100.3,267.6,100.3,262.3z M116.6,254c0,6,0,11.7,0,17.4c6.1,0,11.8,0,17.4,0c0-6.1,0-11.8,0-17.4
		C128,254,122.4,254,116.6,254z"/>
	<path d="M56.8,287.8c-5.3,0-10.7,0.1-16,0c-5.8-0.1-8.7-2.8-8.8-8.5c-0.1-11-0.1-22,0-33c0.1-5.7,3-8.5,8.7-8.6
		c10.8-0.1,21.6-0.1,32.5,0c5.9,0.1,8.9,3,8.9,9c0.1,10.7,0.1,21.3,0,32c-0.1,6.2-3,9-9.3,9.1C67.5,287.9,62.1,287.8,56.8,287.8z
		 M66,254.1c-6.2,0-11.9,0-17.6,0c0,6.1,0,11.8,0,17.3c6.1,0,11.8,0,17.6,0C66,265.5,66,260,66,254.1z"/>
	<path d="M56.7,151c-5.3,0-10.7,0.1-16,0c-5.8-0.1-8.7-2.9-8.7-8.6c-0.1-11-0.1-22,0-33c0.1-5.7,3.1-8.5,8.8-8.6
		c10.8-0.1,21.6-0.1,32.5,0c5.8,0.1,8.8,3.2,8.8,9.1c0.1,10.7,0.1,21.3,0,32c-0.1,6-2.9,8.8-8.9,9.1c-0.3,0-0.7,0-1,0
		C67.1,151,61.9,151,56.7,151z M48.1,134.5c5.9,0,11.7,0,17.7,0c0-5.9,0-11.7,0-17.3c-6.1,0-11.8,0-17.7,0
		C48.1,123.1,48.1,128.6,48.1,134.5z"/>
	<path d="M150.4,125.8c0,5.5,0.1,11,0,16.5c-0.1,5.7-2.9,8.6-8.6,8.7c-10.8,0.1-21.6,0.1-32.5,0c-6-0.1-8.9-3-9-8.9
		c-0.1-10.8-0.1-21.6,0-32.5c0.1-5.6,3.2-8.7,8.7-8.7c11-0.1,22-0.1,33,0c5.3,0.1,8.3,3.1,8.4,8.5
		C150.5,114.8,150.4,120.3,150.4,125.8z M134.2,117.2c-6.3,0-12,0-17.6,0c0,6,0,11.6,0,17.4c6,0,11.7,0,17.6,0
		C134.2,128.7,134.2,123.1,134.2,117.2z"/>
	<path d="M177.9,374.6c8.5,0,17-0.1,25.5,0c5.7,0.1,8.9,3,9,7.8c0,4.8-3.2,8.1-8.8,8.1c-17.2,0.1-34.3,0.1-51.5,0
		c-5.6,0-8.9-3.2-9-8c0-5,3.3-7.9,9.3-8C161,374.5,169.4,374.6,177.9,374.6z"/>
	<path d="M177.7,433.2c-8.5,0-17,0.1-25.5,0c-5.7-0.1-9-3-9.1-7.7c-0.1-5,3.3-8.2,9.2-8.2c17-0.1,34-0.1,50.9,0c5.8,0,9,3,9.1,7.8
		c0.1,5-3.2,8.1-9.2,8.1C194.7,433.3,186.2,433.2,177.7,433.2z"/>
</g>
</svg>
