<?xml version="1.0" encoding="utf-8"?>
<!-- Generator: Adobe Illustrator 20.1.0, SVG Export Plug-In . SVG Version: 6.00 Build 0)  -->
<svg version="1.1" id="Слой_1" xmlns="http://www.w3.org/2000/svg" xmlns:xlink="http://www.w3.org/1999/xlink" x="0px" y="0px"
	 viewBox="0 0 629 438" style="enable-background:new 0 0 629 438;" xml:space="preserve">
<g>
	<path d="M519.5,8.3c3.3,2.1,5.1,4.8,5.1,9c-0.1,41.8-0.1,83.7-0.1,125.5c0,0.6-0.1,1.3-0.2,2.4c-0.9-0.4-1.7-0.7-2.2-1.1
		c-11.2-8.8-23.6-15.7-37.1-20.1c-3.2-1-3.4-2.9-3.4-5.6c0.1-20.3,0-40.7,0-61c0-1.8,0-3.6,0-5.8c-143.3,0-286.4,0-429.8,0
		c0,87.3,0,174.7,0,262.7c1.9,0,3.9,0,5.8,0c91,0,182,0,273-0.1c4.2,0,6.8,1,9.4,4.7c9.8,14.1,22.3,25.5,37,34.5
		c1.4,0.9,2.8,1.8,4.2,2.7c0.1,0.1,0.1,0.3,0.4,1c-8.4,0-16.6,0-25.4,0c0,8.3-0.1,16,0.1,23.8c0,1.4,1.6,2.8,2.6,4.1
		c8.8,9.8,17.6,19.6,26.4,29.4c5.9,6.6,5.9,8.9,0.2,15.1c-79,0-158,0-237,0c-6.5-4.7-6.9-8.2-1.5-14.3c9-10,18.1-20,27.1-30.1
		c1.2-1.3,2.8-3,2.8-4.5c0.3-7.6,0.1-15.2,0.1-23.3c-2.5,0-4.5,0-6.5,0c-50.5,0-100.9,0-151.4,0.1c-4.5,0-8.1-1.1-10.6-4.9
		c0-114.6,0-229.2,0-344C178.8,8.3,349.2,8.3,519.5,8.3z"/>
	<path d="M620.5,408.3c-1.3,2.3-2.4,4.8-4,6.8c-6.9,8.5-19,8.6-27.3,0.4c-27.4-27.3-54.7-54.6-82-82c-1.3-1.3-2.3-2.8-3.6-4.4
		c-27.8,18.4-57.3,23.7-88.7,14.9c-24.2-6.8-43.4-21-57.4-41.7c-28.7-42.6-22-98.8,15.7-133.9c36.7-34.2,93.6-36.7,133.6-6
		c41.1,31.5,55.1,92.5,21.4,142.4c1.3,1,2.9,1.9,4.2,3.2c25.9,25.8,51.7,51.5,77.4,77.4c3.9,3.9,7.1,8.6,10.7,12.9
		C620.5,401.6,620.5,405,620.5,408.3z M444.1,170.9c-40.3-0.5-73.8,32.1-74.4,72.6c-0.6,40.3,32.1,74,72.4,74.7
		c40.9,0.7,74.5-32,75.1-73C517.8,204.8,485,171.4,444.1,170.9z"/>
	<path d="M99.5,185.3c0-19.5,0-38.9,0-58.4c0-5,2-8.7,6.3-11.1c4.2-2.3,8.9-2.4,12.1,0.9c2.6,2.6,5,6.7,5,10.2
		c0.4,39.1,0.3,78.2,0.2,117.3c0,7.6-5.1,12.5-12.1,12.4c-6.9-0.1-11.5-5.2-11.5-12.9C99.4,224.2,99.5,204.7,99.5,185.3z"/>
	<path d="M167.5,201.4c0,13.8,0,27.7,0,41.5c0,8.5-4.5,13.7-11.8,13.7c-7.3,0-11.9-5.2-11.9-13.7c0-28,0-56,0-84
		c0-8.2,5.1-13.7,12.1-13.6c6.9,0.1,11.6,5.6,11.6,13.5C167.5,173.1,167.5,187.2,167.5,201.4z"/>
	<path d="M232.5,201.3c0-14.2,0-28.3,0-42.5c0-7.9,4.8-13.3,11.7-13.4c6.9-0.1,12,5.3,12,13.2c0.1,28.3,0.1,56.7,0,85
		c0,8-4.9,13.1-12,13.1c-7.1-0.1-11.7-5.2-11.7-13.3C232.5,229.3,232.5,215.3,232.5,201.3z"/>
	<path d="M300.5,225.4c0,6.3,0.1,12.7,0,19c-0.1,7.1-4.7,12-11.2,12.2c-6.8,0.3-12.2-4.4-12.4-11.6c-0.3-13-0.3-26,0-39
		c0.2-7.2,5.5-12,12.2-11.8c6.7,0.2,11.2,5.2,11.4,12.6C300.6,213,300.5,219.2,300.5,225.4z"/>
	<path d="M211.7,225.6c0,6.3,0.1,12.7,0,19c-0.1,7.3-5,12.1-11.9,12c-6.6-0.1-11.4-4.8-11.5-11.9c-0.2-12.8-0.2-25.6,0-38.5
		c0.1-7.3,5.1-12.1,11.9-12c6.7,0.1,11.4,5,11.5,12.4C211.8,212.9,211.7,219.3,211.7,225.6z"/>
</g>
</svg>
