<?xml version="1.0" encoding="utf-8"?>
<!-- Generator: Adobe Illustrator 20.1.0, SVG Export Plug-In . SVG Version: 6.00 Build 0)  -->
<svg version="1.1" id="Слой_1" xmlns="http://www.w3.org/2000/svg" xmlns:xlink="http://www.w3.org/1999/xlink" x="0px" y="0px"
	 viewBox="0 0 626 627" style="enable-background:new 0 0 626 627;" xml:space="preserve">
<g>
	<path d="M349,9c9.9,4.2,13.5,11.8,12.9,22.3c-0.5,8.1-0.1,16.3-0.1,25c2.1,0.1,3.8,0.3,5.6,0.3c9,0,18-0.1,27,0.1
		c11,0.3,17.7,7,17.8,18c0.1,20.8,0.1,41.7,0,62.5c-0.1,11.2-7,17.9-18.2,18c-10.5,0.1-20.9,0-31.8,0c0,21.1,0,41.8,0,63.1
		c2.1,0,4,0,6,0c36.8,0,73.7,0.1,110.5-0.1c7.7,0,13.7,2.3,18.8,8.4c8.1,9.7,16.7,19.1,25,28.6c7.2,8.2,7.3,16.7,0,25.1
		c-8.6,9.8-17.3,19.4-25.7,29.3c-4.4,5.2-9.8,7.6-16.6,7.5c-37.2-0.1-74.3,0-111.5,0c-2,0-4,0-6.8,0c0,2.1,0,4,0,5.9
		c0,47.3,0,94.7,0,142c0,14.6-6.3,20.9-21.1,20.9c-18.8,0-37.7,0-56.5,0c-15,0-21.1-6.3-21.1-21.4c0-47,0-94,0-141c0-2,0-3.9,0-6.5
		c-2.2,0-4,0-5.7,0c-31.3,0-62.7,0-94,0c-13.7,0-20.2-6.6-20.3-20.2c0-19.5,0-39,0-58.5c0-13.3,6.7-20,20-20c31.2,0,62.3,0,93.5,0
		c2,0,3.9,0,6.2,0c0-21.2,0-41.9,0-63.1c-2.2,0-4.2,0-6.1,0c-60,0-120-0.1-180,0.1c-7.8,0-13.7-2.3-18.7-8.4
		c-7.9-9.5-16.3-18.5-24.4-27.8c-8-9.2-8-17.2-0.1-26.2C41.7,83.5,50,74.4,57.9,65c5-6,10.9-8.5,18.7-8.5
		c59.8,0.1,119.7,0.1,179.5,0.1c2.1,0,4.3,0,7.1,0c0-8.7,0.4-17-0.1-25.3C262.5,20.8,266,13.2,276,9C300.3,9,324.7,9,349,9z"/>
	<path d="M7,477c1.2-4.5,2.1-9,3.6-13.4C17,444,30.1,429.4,46,417c21.2-16.4,45.1-27.4,70.2-36.3c33.7-11.9,68.5-19.4,103.9-24
		c0.6-0.1,1.3-0.1,2.4-0.2c0,15.7,0,31.2,0,47.2c-9.8,1.7-19.8,3.3-29.7,5.2c-35.6,7-70.4,16.4-101.9,35.1
		c-9.8,5.8-19,13.1-26.9,21.2c-13,13.6-12.4,27.2,0.1,41.3c9.7,11,22,18.8,34.9,25.5c28.8,14.8,59.6,23.7,91.2,29.9
		c58.1,11.4,116.7,13.5,175.6,9.2c42.7-3.1,84.6-10.2,125.1-24.3c21.5-7.5,42.3-16.4,59.9-31.1c5.7-4.7,10.7-10.5,15-16.6
		c6.1-8.7,6.2-18.6,0-27.1c-5.2-7-11.3-13.7-18.1-19c-20.9-16.1-45-26-70.1-32.8c-23.1-6.2-46.7-10.4-70.1-15.5
		c-1.6-0.4-3.3-0.6-5.2-1c0-15.6,0-31.2,0-47.6c10.2,1.6,20.2,3,30.1,4.8c38.3,6.9,75.7,16.9,110.8,34.1c21.2,10.4,41,23,56.2,41.6
		c9.2,11.3,15.6,23.9,17.7,38.5c0.1,0.6,0.5,1.2,0.8,1.8c0,5.7,0,11.3,0,17c-0.2,0.4-0.6,0.9-0.7,1.3c-2.9,21-14,37.4-29.3,51.4
		c-20,18.4-43.9,30.5-69,40.2c-49.5,19-101.1,27.9-153.8,32.1c-8.8,0.7-17.5,1.3-26.3,2c-17.7,0-35.3,0-53,0
		c-1.5-0.3-2.9-0.7-4.4-0.8c-14.3-1.1-28.6-1.8-42.8-3.2c-38.8-3.9-77-11.1-114.1-23.3c-29.2-9.6-57.2-21.8-81.4-41.4
		c-14.7-11.9-26.7-26-32.7-44.4c-1.5-4.6-2.4-9.3-3.6-13.9C7,488.3,7,482.7,7,477z"/>
</g>
</svg>
