<?xml version="1.0" encoding="utf-8"?>
<!-- Generator: Adobe Illustrator 20.1.0, SVG Export Plug-In . SVG Version: 6.00 Build 0)  -->
<svg version="1.1" id="Слой_1" xmlns="http://www.w3.org/2000/svg" xmlns:xlink="http://www.w3.org/1999/xlink" x="0px" y="0px"
	 viewBox="0 0 500 500" style="enable-background:new 0 0 500 500;" xml:space="preserve">
<g>
	<path d="M170,2c0,37.8,0,75.5,0,113.2c10.8-0.5,21.1-1,31.9-1.6c0,61.7,0,122.7,0,184.3c61.6,0,122.6,0,183.6,0
		c2.4,29.2-4.8,74.4-32.5,115.7c8.3,8.3,17,16.6,25.1,25.3c3.2,3.4,6.2,7.6,7.7,12c3.7,10.7-1,22.3-10.5,28.2
		c-9.7,6.1-21.9,5-30.4-3.1c-7.2-6.9-14.2-14.1-21.2-21.2c-1.3-1.3-2.2-2.9-3.3-4.4c-21.3,18.2-44.1,31.5-69.9,38.9
		c-12.6,3.6-25.7,5.3-38.6,7.8c-1.3,0.3-2.5,0.6-3.8,0.9c-9.3,0-18.7,0-28,0c-4.1-0.6-8.2-1.3-12.2-1.9C90.1,486.1,24,425.9,7,349.4
		c-2.2-9.7-3.4-19.6-5-29.4c0-9.3,0-18.7,0-28c0.6-3.9,1.2-7.8,1.8-11.8C14.8,212,51.2,162.6,113.2,132c1.5-0.8,3.1-1.6,5.1-2.6
		c-4.3-4.3-8.4-8-12.1-12c-2.3-2.5-4.8-3.5-8.2-3.5C65.9,114.1,34,114,2,114C2,76.7,2,39.5,2,2C58,2,114,2,170,2z M169.9,180.9
		c-1.8-1.7-3.1-2.7-4.2-3.8c-10.6-10.6-21.3-21.1-31.8-31.9c-2.4-2.5-4.3-2.9-7.6-1.6C51.6,174.4,6.9,254.7,20.2,334.3
		C38.3,442.5,148.4,507.9,252.1,472c20.7-7.2,39.2-18,56.8-33c-2.2-1.8-4.5-3.1-6.1-5c-5.3-6.1-10.6-9-19.8-8.5
		c-27.9,1.7-50-21.9-48.9-50.1c1.1-26.8,25.6-47.9,52.6-45.3c27.5,2.7,47,27.9,42.7,55.5c-0.2,1.5-0.3,3.6,0.5,4.6
		c3.5,4.1,7.3,7.9,11.3,12.1c17.6-27.4,27-56.3,28.6-88.4c-61.4,0-122.4,0-183.9,0c0-61.5,0-122.5,0-183.9c-5.5,0.6-10.6,1.1-16,1.6
		C169.9,148.2,169.9,164.1,169.9,180.9z M18.1,98c2.2,0,4,0,5.8,0c26.5,0,53,0.1,79.5-0.1c4.1,0,7.1,1,10,4
		c11.9,12.3,24.2,24.4,36.3,36.5c1.1,1.1,2.3,2.1,3.9,3.6c0-41.7,0-82.7,0-123.6c-45.4,0-90.4,0-135.6,0
		C18.1,44.9,18.1,71.1,18.1,98z M314,378.3c0.2-17.6-14.2-32.2-31.8-32.3c-17.5-0.1-31.9,14.1-32.2,31.5
		c-0.2,17.7,14,32.4,31.6,32.5C299.3,410.1,313.8,395.9,314,378.3z M310.2,418.7c14.9,14.9,30.3,30.5,45.9,45.9
		c3.6,3.5,8.8,3.1,12.1-0.3c3.4-3.4,3.7-8.2,0.5-12.2c-0.9-1.2-2.1-2.2-3.1-3.2c-13.3-13.3-26.6-26.6-39.8-39.9
		c-1.3-1.3-2-3.1-2.2-3.6C318.5,410.4,314.5,414.4,310.2,418.7z"/>
	<path d="M498,226c-21.1,0-42.2,0-63.7,0c0-58.7,0-117,0-176c21.2,0,42.4,0,63.7,0C498,108.7,498,167.3,498,226z M481.8,66.3
		c-10.8,0-21.1,0-31.5,0c0,48,0,95.7,0,143.4c10.7,0,21.1,0,31.5,0C481.8,161.7,481.8,114.1,481.8,66.3z"/>
	<path d="M337.5,115.4c2.7,7,10.8,9.1,16.4,15.9c0-17.3,0-33,0-48.9c21.4,0,42.3,0,63.7,0c0,47.7,0,95.6,0,143.5
		c-1.9,0.2-3.6,0.4-5.6,0.6c4.4,18.2,6.7,36.5,5.9,55.4c-66.6,0-132.9,0-199.6,0c0-66.5,0-132.8,0-199.5c17-0.7,33.6,1,50.1,4.7
		c20.8,4.7,40.2,12.8,58.4,23.8C329.9,112.5,333.5,113.6,337.5,115.4z M402.7,265.8c-2.1-12-4.2-23.2-6-34.6c-0.7-4.4-2.8-5.4-7-5.3
		c-11.8,0.3-23.5,0.1-35.7,0.1c0-2.3,0-4.1,0-5.9c0-20.8,0-41.6,0-62.5c0-1.7,0-4-1.1-5.1c-4.4-4.6-9.2-8.9-14.9-14.4
		c0,30.2,0,58.9,0,87.5c-21.7,0-42.7,0-63.7,0c0-37.3,0-74.2,0-111.8c7.6,0,15.1,0,22.5,0c-19.8-9.5-40.5-14.5-62.4-15.6
		c0,56,0,111.7,0,167.6C290.2,265.8,345.7,265.8,402.7,265.8z M401.6,209.8c0-37.5,0-74.6,0-111.5c-10.6,0-20.9,0-31.3,0
		c0,37.3,0,74.3,0,111.5C380.8,209.8,391.1,209.8,401.6,209.8z M290.4,130c0,27,0,53.4,0,79.6c10.7,0,21.1,0,31.4,0
		c0-26.7,0-52.9,0-79.4c-1-0.1-1.8-0.2-2.6-0.2C309.6,130,300.2,130,290.4,130z"/>
	<path d="M73.9,274c-13.3-0.1-24.1-11.1-23.9-24.3c0.2-13,11-23.7,24.1-23.6c13.1,0,23.8,10.8,23.9,23.8C98,263.1,87.2,274,73.9,274
		z M82,250c0-4.3-3.6-7.9-7.9-7.9c-4.3,0-7.9,3.5-8.1,7.8c-0.1,4.5,3.7,8.3,8.1,8.2C78.5,257.9,82,254.2,82,250z"/>
	<path d="M138.2,338c-13.3,0.1-24.2-10.8-24.1-24.1c0-13.1,10.8-23.8,23.8-23.9c13.1-0.1,24,10.6,24.1,23.6
		C162.2,326.9,151.4,337.9,138.2,338z M146,314.4c0.2-4.3-3.2-8.1-7.5-8.3c-4.2-0.3-8.1,3.1-8.5,7.3c-0.4,4.4,3.2,8.5,7.7,8.6
		C142,322.1,145.7,318.7,146,314.4z"/>
	<path d="M142.7,255.3c-22.5,22.5-45,45-67.6,67.6c-3-3.3-6.4-7-9.3-10.1c22.2-22.2,44.7-44.7,67.4-67.4
		C136,248.4,139.4,251.9,142.7,255.3z"/>
	<path d="M138.2,385.7c0-5.2,0-10.1,0-15.4c5.1,0,10.1,0,15.5,0c0,5,0,10.1,0,15.4C148.6,385.7,143.7,385.7,138.2,385.7z"/>
	<path d="M185.6,385.9c-5.2,0-10,0-15.2,0c0-5.1,0-10.2,0-15.6c5,0,10,0,15.2,0C185.6,375.6,185.6,380.7,185.6,385.9z"/>
	<path d="M202.3,370.2c5.1,0,10,0,15.3,0c0,5,0,10,0,15.4c-4.9,0-10,0-15.3,0C202.3,380.6,202.3,375.5,202.3,370.2z"/>
	<path d="M34.4,34.2c34.6,0,68.9,0,103.4,0c0,5.1,0,10.1,0,15.4c-34.3,0-68.7,0-103.4,0C34.4,44.7,34.4,39.6,34.4,34.2z"/>
	<path d="M34.1,81.7c0-5.2,0-10.1,0-15.3c34.4,0,68.8,0,103.5,0c0,4.9,0,9.9,0,15.3C103.3,81.7,68.9,81.7,34.1,81.7z"/>
	<path d="M289.7,385.8c-5.2,0-10.1,0-15.4,0c0-5.1,0-10.2,0-15.5c5.1,0,10.1,0,15.4,0C289.7,375.4,289.7,380.3,289.7,385.8z"/>
</g>
</svg>
