<?xml version="1.0" encoding="utf-8"?>
<!-- Generator: Adobe Illustrator 20.1.0, SVG Export Plug-In . SVG Version: 6.00 Build 0)  -->
<svg version="1.1" id="Слой_1" xmlns="http://www.w3.org/2000/svg" xmlns:xlink="http://www.w3.org/1999/xlink" x="0px" y="0px"
	 viewBox="0 0 500 500" style="enable-background:new 0 0 500 500;" xml:space="preserve">
<style type="text/css">
	.st0{fill:#F1F1F1;}
	.st1{fill:#FEFEFE;}
	.st2{fill:#FED05C;}
	.st3{fill:#F0543F;}
	.st4{fill:#40596B;}
	.st5{fill:#4CDAC3;}
	.st6{fill:#FE7058;}
	.st7{fill:#EEEDEE;}
	.st8{fill:#DFD4D4;}
	.st9{fill:#FBFBFB;}
	.st10{fill:#E8DFDF;}
</style>
<path class="st0" d="M1.5,483.8c0-155.5,0-311,0-466.6C2,9.6,6.3,4.5,12.8,1c2-1.1,4.3-1,6.4-1.5c122.9,0,245.8,0,368.6,0
	c10.6,1,18.2,11.1,18.1,23.4c-0.1,19.4,0,38.9,0,58.3c0,1.7,0.2,3.4-0.3,5c-0.5,1.3-1.6,0.8-2.4,0.6c-8.1-2.2-14.9,0.3-20.7,6.1
	c-8,8.1-16.2,16.1-24.2,24.3c-1.7,0.3-3,1.4-4.2,2.6c-10.5,10.5-21,21.1-31.5,31.6c-1.1,1.1-2.2,2.4-4,2.5c-1.7,0.3-3.4,0.2-5,0.2
	c-89,0-177.9,0-266.9,0c-6.1,0-5.5-0.5-5.5,5.6c0,5.2,0,10.4,0,15.6c0,2.7,0.2,2.9,2.9,2.9c1,0,2.1,0,3.1,0c80.2,0,160.3,0,240.5,0
	c1.7,0,3.4-0.1,5,0.2c1.3,0.3,1.5,1,0.7,2.1c-0.5,0.6-1.1,1.2-1.6,1.8c-17.9,17.9-35.8,35.8-53.7,53.6c-1.1,1.1-2.2,2.4-4,2.5
	c-1.6,0.3-3.2,0.2-4.8,0.2c-61,0-122,0-183,0c-5.6,0-5.1-0.4-5.2,5.2c0,5.1,0,10.2,0,15.4c0,3.5,0.1,3.6,3.7,3.6c2.8,0,5.6,0,8.4,0
	c50.1,0,100.3,0,150.4,0c1.5,0,3-0.1,4.5,0.2c1.3,0.3,1.5,1,0.7,2.1c-0.5,0.7-1.2,1.3-1.8,1.9c-8.2,8.2-16.4,16.4-24.5,24.6
	c-0.8,0.8-1.8,1.4-1.8,2.7c-1.3,7.3-2.8,14.6-4.3,21.9c-0.2,1.1-0.5,2.2-1.7,2.8c-1.6,0.5-3.2,0.4-4.8,0.4c-41.3,0-82.7,0-124,0
	c-4.9,0-4.9,0-4.9,4.8c0,5.5,0,11,0,16.5c0,2.6,0.2,2.7,2.7,2.8c1,0,1.9,0,2.9,0c39.3,0,78.7,0,118,0c1.6,0,3.2-0.2,4.7,0.4
	c1.1,0.7,1,1.7,0.8,2.8c-2.1,10.3-3.9,20.8-6.3,31c-0.7,5.2-1.9,10.4-2.9,15.6c-2.4,12.6-4.8,25.3-7.2,37.5
	c17.6-3.5,35.5-6.9,53.3-10.3c17.5-3.7,35.1-7,52.7-10.6c10.3-2.1,20.6-4,30.8-6.3c0.9-0.4,1.5-1.1,2.2-1.8
	c19.6-19.5,39.3-38.9,58.6-58.7c16.6-17.1,33.6-33.7,50.3-50.7c0.7-0.7,1.3-1.4,2.1-2c0.9-0.7,1.6-0.6,2,0.6
	c0.3,1.3,0.2,2.7,0.2,4.1c0,60.4,0,120.8,0,181.2c0,3.4-0.3,6.7-1.2,10c-2.5,9.3-10.4,15.2-20,15.2c-121.2,0-242.4,0-363.6,0
	c-8,0-13.6-3.8-17.8-10.2C2.1,488.9,2.1,486.3,1.5,483.8z"/>
<path class="st1" d="M19.2-0.5c-1,0.8-2.2,0.6-3.4,1c-7.6,2.7-12.4,7.9-14,16c-0.1,0.3-0.3,0.5-0.4,0.8c0-5.5,0-11,0-16.6
	c0-1,0.2-1.2,1.2-1.2C8.2-0.5,13.7-0.5,19.2-0.5z"/>
<path class="st2" d="M291.4,403.6c-2.9,1.6-6.1,1.6-9.2,2.2c-24.9,5-49.9,10-74.8,14.9c-1.1-0.3-1.8-1-2.5-1.7
	c-13.3-13.4-26.7-26.7-40-40c-0.6-0.6-1.1-1.2-1.5-1.9c2.3-11,4.6-22,6.6-33c-0.5-1-0.2-2,0-3c1.3-6.7,2.7-13.3,4-20
	c0.2-1.1,0.6-2.2,1.3-3.1c1.7-8.3,3.3-16.6,5-24.8c1.1-0.7,2.3-1.1,3.6-1.3c19.9-3.2,39.9-6.3,59.8-9.5c0.8-0.1,1.6-0.3,2.3,0.2
	c1,1.2,0.6,2.6,0.4,3.9c-3,19.3-6.1,38.5-9.1,57.8c-0.1,0.6-0.2,1.1-0.3,1.7c-0.4,1.8,0.7,1.8,1.9,1.6c4.2-0.7,8.4-1.4,12.6-2
	c15-2.4,30-4.8,45-7.1c1.6-0.2,3.1-0.8,4.7-0.1c0.9,1.1,0.5,2.3,0.3,3.5c-3.2,19.8-6.3,39.6-9.4,59.4
	C291.9,401.9,291.5,402.8,291.4,403.6z"/>
<path class="st3" d="M245.7,282.7c-7.5,1.2-15.1,2.5-22.6,3.7c-14,2.2-28,4.5-42,6.7c-0.3,0-0.6,0-1,0.1c0.2-0.9,1.1-1.4,1.7-2
	c9.1-9.2,18.3-18.4,27.4-27.6c0-1,0.7-1.6,1.4-2.2c7.4-7.4,14.8-14.8,22.2-22.2c0.7-0.8,1.6-1.3,2.5-1.8c0.5-0.4,1-0.8,1.4-1.3
	c18.6-18.6,37.2-37.2,55.8-55.8c0.4-0.4,0.8-0.9,1.3-1.4c0.1-1.1,0.9-1.7,1.6-2.3c7.3-7.3,14.6-14.6,21.8-21.9
	c0.8-0.8,1.7-1.4,2.7-1.9c11.7-11.7,23.4-23.3,35.1-35c0.9-0.9,1.7-1.7,3-0.9c1.7,0.4,2.1,2.1,3.3,3.1c1,1.7,2.6,2.9,4,4.3
	c5.6,5.7,11,11.7,16.8,17.3c0.9,0.9,1.9,1.7,2,3.1c-0.1,1.6-1.4,2.5-2.3,3.5c-21.4,21.4-42.7,42.8-64.1,64.1
	c-14.4,14.4-28.7,29-43.3,43.2c-8.8,8.5-17.4,17.2-26.1,25.7C247.5,282.1,246.9,283.1,245.7,282.7z"/>
<path class="st3" d="M291.4,403.6c-1.2-1.7-0.1-3.4,0.2-5c3-19.5,6.2-39,9.3-58.6c0.1-0.5,0-1.1,0.1-1.7c-0.3-0.6,0.1-1.1,0.4-1.5
	c0.5-0.6,1.1-1.2,1.7-1.7c44.4-44.4,88.7-88.7,133.1-133.1c0.9-0.9,1.6-2,3-2.2c1.1,0.1,1.8,0.9,2.5,1.7c5.8,6,12,11.6,17.9,17.4
	c1.2,1.2,2.3,2.6,3.8,3.5c1.2,1.5,3.4,2.1,4,4.2c-0.1,1.2-1,1.8-1.7,2.5c-19.6,19.6-39.2,39.2-58.8,58.8c-0.6,0.6-1.2,1.3-1.8,1.9
	c-1.2,1.1-2.3,2.2-3.5,3.3c-15.7,15.7-31.4,31.2-46.9,47C333.8,361.5,312.5,382.5,291.4,403.6z"/>
<path class="st4" d="M467.5,226.6c-1.3-1.4-3.3-2.2-4.3-4c-1.2-1.2-2.4-2.4-3.6-3.6c-17.3-17-34.4-34.2-51.5-51.3
	c-1.1-1.1-2.2-2.1-3.3-3.1c-3.3-3.6-6.8-6.9-10.2-10.4c-9.8-9.8-19.6-19.6-29.3-29.5c-1.4-1.4-2.7-2.7-4.1-4.1
	c-1.5-0.7-2-2.3-3.1-3.3c0-1,0.9-1.5,1.5-2.1c7.5-7.5,15.1-15,22.5-22.6c6.6-6.7,14.2-8.8,23.2-5.8c3.3,1.5,6.1,3.7,8.7,6.3
	c26.1,26.1,52.1,52.4,78.4,78.3c7.6,7.5,8.4,21.3,3.6,28.5c-0.7,1.1-1.6,2.2-2.5,3.2c-7.7,7.8-15.5,15.5-23.2,23.3
	C469.2,227.1,468.5,227.6,467.5,226.6z"/>
<path class="st5" d="M198.8,72.4c51.8,0,103.5,0,155.3,0c3.1,0,3.1,0,3.1,3.1c0,6.8-0.1,13.6,0,20.4c0,1.9-0.4,2.6-2.5,2.6
	c-104,0-208,0-312,0c-2,0-2.4-0.6-2.4-2.5c0.1-7,0.2-13.9,0-20.9c-0.1-2.5,0.8-2.8,3-2.8c20.2,0.1,40.3,0,60.5,0
	C135.4,72.4,167.1,72.4,198.8,72.4z"/>
<path class="st5" d="M319.9,153c-8.7,8.7-17.4,17.4-26.1,26.1c-1.1,0-2.2-0.1-3.4-0.1c-82.3,0-164.6,0-246.9,0
	c-3.6,0-3.2,0.4-3.2-3.2c0-7,0-13.9,0-20.9c0-1.5,0.4-2.3,2-2.1c0.6,0.1,1.1,0,1.7,0c90.8,0,181.7,0,272.5,0
	C317.7,152.9,318.8,153,319.9,153z"/>
<path class="st5" d="M235.3,237.6c-8.7,8.7-17.4,17.4-26.1,26.1c-1.1,0-2.2-0.1-3.4-0.1c-54.1,0-108.3,0-162.4,0
	c-3.1,0-3.1,0-3.1-3.1c0-7,0-13.9,0-20.9c0-1.6,0.3-2.2,2.1-2.2c64,0,128,0,191.9,0C234.7,237.5,235,237.6,235.3,237.6z"/>
<path class="st5" d="M175.2,318c-1.6,8.7-3.3,17.4-5.3,26.1c-42.2,0-84.3,0-126.5,0c-3.5,0-3.1,0.4-3.1-3c0-6.7,0.1-13.4-0.1-20.2
	c-0.1-2.3,0.6-2.9,2.9-2.9c43,0.1,85.9,0.1,128.9,0.1C173.1,318.1,174.2,318,175.2,318z"/>
<path class="st5" d="M87.2,401.6c14.5,0,29,0.1,43.4-0.1c2.4,0,2.9,0.7,2.9,3c-0.1,7-0.1,13.9,0,20.9c0,1.7-0.3,2.4-2.2,2.4
	c-29.6-0.1-59.2-0.1-88.8,0c-1.7,0-2.1-0.6-2.1-2.2c0.1-7.2,0.1-14.4,0-21.6c0-1.9,0.6-2.4,2.4-2.4
	C57.6,401.6,72.4,401.6,87.2,401.6z"/>
<path class="st4" d="M163.4,377.2c0.7,0,1.1,0.6,1.6,1c14,14,28,28,42.1,42.1c0.2,0.2,0.3,0.4,0.4,0.6c-10.8,2.1-21.6,4.2-32.4,6.3
	c-6.7,1.3-13.3,2.5-20,3.9c-1.7,0.4-2,0.1-1.7-1.7c3.3-16.8,6.5-33.7,9.8-50.5C163.3,378.3,163.3,377.7,163.4,377.2z"/>
<path class="st6" d="M439.2,200.1c-0.7,0.6-1.3,1.1-2,1.8c-44.8,44.8-89.7,89.7-134.5,134.5c-0.6,0.6-1.2,1.3-1.7,2
	c-9,1.4-17.9,2.9-26.9,4.3c-11.6,1.9-23.2,3.7-34.9,5.6c-3.5,0.6-3.6,0.6-3.1-2.8c2.2-13.9,4.4-27.8,6.6-41.7c1-6.2,2-12.4,2.9-18.6
	c0.1-0.8,0-1.6,0-2.4c1.5-1.4,3-2.8,4.5-4.3c44.1-43.3,87.6-87.2,131.3-130.8c0.8-0.8,1.9-1.5,2.1-2.8c1-0.5,1.7,0.2,2.3,0.8
	c6.4,6.4,12.8,12.6,19.1,19.1c11.2,11,22.3,22.2,33.4,33.3C438.9,198.6,439.6,199.2,439.2,200.1z"/>
<path class="st7" d="M404.6,165.2c-6.3-6.2-12.5-12.4-18.8-18.6c-0.7-0.7-1.2-1.5-2.2-1.7c-3.3-4.2-7.3-7.7-11-11.7
	c-2.6-2.8-5.2-5.6-7.9-8.3c-0.2-0.5,0.1-0.6,0.5-0.5c11.7,11.7,23.4,23.3,35.1,35c1.6,1.6,3.3,3,4.6,4.8
	C404.9,164.5,405.1,165,404.6,165.2z"/>
<path class="st8" d="M365.3,124.3c-0.2,0.2-0.3,0.4-0.5,0.5c-1.3-1.4-3.1-2.3-3.7-4.3C363,121.2,364,122.9,365.3,124.3z"/>
<path class="st9" d="M404.6,165.2c0.1-0.3,0.3-0.7,0.4-1c0.6,0.5,1.2,1,1.8,1.5c17.5,17.5,35,34.9,52.4,52.4
	c0.2,0.2,0.4,0.5,0.6,0.7c0.1,0.4,0,0.7-0.5,0.5c-6.1-5.8-12.2-11.6-18.2-17.4c-0.6-0.6-1.3-1.2-1.9-1.8c-0.6-0.7-1.2-1.4-1.9-2.1
	c-10.3-10.3-20.6-20.6-30.9-30.9C405.8,166.5,405.2,165.8,404.6,165.2z"/>
<path class="st10" d="M459.4,219.4c0.2-0.2,0.3-0.3,0.5-0.5c1.2,1.1,2.8,2,3.3,3.7C461.4,222.2,460.5,220.6,459.4,219.4z"/>
</svg>
