<?xml version="1.0" encoding="utf-8"?>
<!-- Generator: Adobe Illustrator 20.1.0, SVG Export Plug-In . SVG Version: 6.00 Build 0)  -->
<svg version="1.1" id="Слой_1" xmlns="http://www.w3.org/2000/svg" xmlns:xlink="http://www.w3.org/1999/xlink" x="0px" y="0px"
	 viewBox="0 0 528 527" style="enable-background:new 0 0 528 527;" xml:space="preserve">
<style type="text/css">
	.st0{fill:#227FBA;}
	.st1{fill:#579DCB;}
	.st2{fill:#5A9FCC;}
	.st3{fill:#C7DEED;}
	.st4{fill:#8FBEDC;}
	.st5{fill:#CCE1EF;}
	.st6{fill:#33495F;}
	.st7{fill:#2B3E51;}
	.st8{fill:#2280BC;}
	.st9{fill:#94A4A5;}
	.st10{fill:#7E8B8C;}
	.st11{fill:#227FBB;}
	.st12{fill:#2687C7;}
	.st13{fill:#2380BD;}
	.st14{fill:#2482C0;}
	.st15{fill:#2483C1;}
	.st16{fill:#278ACB;}
	.st17{fill:#2585C4;}
	.st18{fill:#BCC2C6;}
	.st19{fill:#EBEFF0;}
	.st20{fill:#2586C4;}
	.st21{fill:#278CCE;}
	.st22{fill:#D45400;}
	.st23{fill:#E77D04;}
	.st24{fill:#F49C00;}
	.st25{fill:#2583C0;}
	.st26{fill:#2582C0;}
	.st27{fill:#2583BF;}
	.st28{fill:#2586C5;}
	.st29{fill:#E77E04;}
	.st30{fill:#2785C2;}
	.st31{fill:#288ED1;}
	.st32{fill:#D55600;}
	.st33{fill:#D45500;}
	.st34{fill:#308AC0;}
	.st35{fill:#2F88BC;}
	.st36{fill:#2A85BF;}
	.st37{fill:#2A87C1;}
</style>
<g>
	<path class="st0" d="M8.6,245.1c0.2-1.3-0.1-2.6,0.5-3.9c2.5,0.6,3.7,2.5,4.8,4.6c-1.4,8.2-1,16.4-0.7,24.6
		c0.4,11.2,1.6,22.3,3.5,33.3c3.7,21.1,10,41.5,18.7,61.1c6.4,14.5,14.5,27.9,23.5,40.9c10.2,14.7,22,28,35.2,40.2
		c14.7,13.6,30.9,25.3,48.5,35.1c27.8,15.5,57.5,25.1,89,29.4c7.7,1,15.4,1.4,23.1,2c8.2,0.6,16.3,0.3,24.4-0.2
		c19.9-1.2,39.5-4.8,58.6-10.7c13.9-4.3,27.5-9.5,40.5-16.2c18.2-9.4,35-20.8,50.6-34.1c2-1.7,3.8-3.7,5.9-5.2
		c0.6-0.3,1.3-0.6,1.8-1.1c3.8-3.8,7.7-7.6,11.4-11.4c0.3-0.3,0.6-0.8,0.8-1.2c0.2-0.3,0.4-0.6,0.6-0.8c1.4-1.2,2.8-2.4,3.7-4
		c0.2-0.3,0.4-0.5,0.6-0.8c0.9-0.7,1.8-1.5,2.3-2.6c0.2-0.3,0.4-0.5,0.6-0.8c0.7-0.6,1.4-1.2,1.8-2.1c0.2-0.3,0.4-0.5,0.6-0.7
		c0.6-0.4,1.1-1,1.3-1.7c0.1-0.3,0.3-0.5,0.6-0.7c0.7-0.5,1.1-1.2,1.4-2c2.8-4.3,6-8.2,8.9-12.5c3.5-5.2,6.7-10.5,10.1-15.7
		c0.8-0.6,1.3-1.4,1.4-2.4c0.1-0.4,0.3-0.8,0.6-1.1c1-0.9,1.5-2,1.8-3.2c0.1-0.4,0.3-0.8,0.6-1.1c2.7-3.9,4.5-8.4,6.6-12.7
		c0.1-0.2,0.2-0.4,0.3-0.6c0.8-1.5,1.6-3,2.2-4.7c0.1-0.2,0.2-0.4,0.2-0.6c0.5-0.9,0.9-1.8,1.2-2.8c0.1-0.2,0.1-0.4,0.2-0.6
		c0.3-0.6,0.6-1.2,0.8-1.9c0.1-0.2,0.1-0.4,0.2-0.5c0.3-0.6,0.6-1.2,0.7-1.9c0.1-0.2,0.1-0.4,0.2-0.6c0.3-0.6,0.5-1.3,0.8-2
		c0.1-0.2,0.1-0.4,0.2-0.6c0.9-1.9,1.4-4,2.1-6c0.1-0.2,0.2-0.4,0.2-0.6c0.9-2.1,1.6-4.3,2.1-6.5c0-0.2,0.1-0.4,0.2-0.6
		c0.6-1.9,1.3-3.7,1.7-5.7c0-0.2,0.1-0.4,0.2-0.6c0.4-1.1,0.7-2.2,0.6-3.3c0.5-3.2,1.2-6.3,2.3-9.4c0.5-0.7,0.6-1.5,0.5-2.3
		c0-0.7,0.1-1.3,0.4-1.9c0.4-0.6,0.6-1.3,0.7-2c0-0.2,0.1-0.4,0.2-0.6c0.3-0.6,0.2-1.3,0.4-2c0-0.2,0.1-0.4,0.2-0.6
		c0.2-0.7,0.2-1.4,0.3-2.1c0-0.2,0.1-0.4,0.2-0.6c0.2-0.6,0.2-1.2,0.3-1.8c0-0.2,0.1-0.4,0.2-0.6c0.3-0.8,0.2-1.6,0.3-2.4
		c0-0.2,0.1-0.4,0.1-0.6c0.3-0.9,0.1-1.8,0.3-2.7c0-0.2,0.1-0.4,0.1-0.6c0.3-1,0.1-2.1,0.3-3.2c0-0.2,0.1-0.4,0.1-0.6
		c0.3-1.1,0.1-2.2,0.3-3.3c0-0.2,0.1-0.4,0.1-0.7c0.4-1.4,0.1-2.8,0.3-4.1c0-0.2,0.1-0.5,0.1-0.7c0.4-1.7,0-3.4,0.3-5.1
		c0-0.3,0.1-0.5,0.2-0.8c0.4-2.9,0-5.8,0.3-8.7c0-0.3,0.1-0.5,0.2-0.8c0.4-5.2,0.2-10.5,0.1-15.7c-0.1-0.3-0.1-0.5-0.2-0.8
		c-0.4-2.2,0.3-4.5-0.5-6.7c0.4-2.5,2.1-3.9,4.4-4.7c0,0.3,0,0.6,0,1c0.6,1.2,0,2.6,0.4,3.8c0,1.6,0.1,3.2,0.1,4.8
		c0.5,4,0.2,8,0.2,12c0,2.8,0.3,5.6-0.2,8.4c-0.1,1.7-0.1,3.5-0.2,5.2c-0.3,1.1,0.2,2.3-0.3,3.4c-0.1,1.1-0.1,2.2-0.2,3.3
		c-0.3,0.8,0.1,1.7-0.3,2.4c0,0.8-0.1,1.6-0.1,2.3c-0.4,0.8,0.1,1.7-0.4,2.4c-1,8.7-2.3,17.3-4.2,25.8c-2.2,9.8-4.8,19.5-8.2,29
		c-4.3,12.1-9.2,23.9-15.3,35.2c-7.1,13.2-15.1,25.9-24.4,37.7c-4.5,5.6-9.1,11-13.9,16.4c-3.8,4.3-7.9,8.4-12,12.3
		c-4.5,4.2-9.1,8.2-13.9,12.1c-6.9,5.7-14,11-21.4,15.8c-12.8,8.5-26.3,15.7-40.4,21.8c-18,7.8-36.7,13.3-56,16.8
		c-5.1,0.9-10.2,1.9-15.3,2c-0.8,0.5-1.7,0-2.4,0.4c-0.8,0-1.6,0.1-2.3,0.1c-0.8,0.4-1.7,0-2.5,0.3c-1.1,0.1-2.2,0.1-3.3,0.2
		c-1.1,0.5-2.3,0-3.4,0.3c-1.7,0.1-3.5,0.1-5.2,0.2c-6.8,0.3-13.5,0.4-20.3,0c-1.6,0-3.2-0.1-4.8-0.1c-1.3-0.4-2.6,0.2-3.8-0.4
		c-1,0-1.9-0.1-2.9-0.1c-0.9-0.4-2,0.2-2.9-0.4c-6.8-0.1-13.6-1.3-20.3-2.5c-13.1-2.3-25.9-5.6-38.4-10
		c-26.6-9.2-51.1-22.4-73.4-39.7c-10.8-8.3-20.8-17.4-30.1-27.3c-13.8-14.8-25.8-31-35.8-48.6c-9.4-16.5-16.9-33.8-22.4-51.9
		c-5.2-17.2-8.6-34.8-10.1-52.7c-0.2-2-0.3-4-0.5-6c-0.3-0.8-0.1-1.6-0.2-2.4c0-0.8,0-1.6,0-2.4c-0.1-1.1,0.3-2.3-0.2-3.4
		c0-5.3,0-10.6,0-15.8c0.5-1.1,0.1-2.3,0.2-3.4c0-0.8,0-1.6,0-2.4C8.5,246.7,8.3,245.9,8.6,245.1z"/>
	<path class="st0" d="M99.3,65.2c11.9-10,24.5-18.8,38-26.5c18.8-10.7,38.6-18.9,59.4-24.6c8.3-2.3,16.7-4.1,25.2-5.5
		c5.3-0.9,10.7-1.3,16.1-2c0.8-0.5,1.6,0,2.4-0.3c1-0.1,1.9-0.1,2.9-0.2c1.1-0.5,2.3,0.1,3.4-0.4c0.5-0.1,1-0.1,1.4-0.2
		c0.8-0.3,1.6-0.1,2.4-0.2c0.8,0,1.6,0,2.4,0c1.1-0.1,2.3,0.3,3.4-0.2c5.3,0,10.6,0,15.8,0c1.1,0.5,2.3,0.1,3.4,0.2
		c0.8,0,1.6,0,2.4,0c0.8,0.1,1.6-0.2,2.4,0.2c0.5,0.1,1,0.1,1.5,0.2c1.1,0.4,2.3-0.2,3.4,0.4c0.8,0,1.6,0.1,2.4,0.1
		c0.9,0.4,2-0.1,2.9,0.4c0.6,0,1.3,0.1,1.9,0.1c0.8,0.4,1.7-0.1,2.4,0.4c4.9,0.8,9.8,1.4,14.7,2.3c7.3,1.2,14.4,3,21.6,4.8
		c6.8,1.8,13.5,3.9,20.2,6.3c10.4,3.8,20.6,8.2,30.4,13.3c11.9,6.1,23.1,13.2,33.9,21c4.6,3.3,9.3,6.6,13.1,10.8
		c-0.5,2-1.6,3.3-3.8,3.4c-7.8-6.2-15.6-12.2-24-17.6c-16.3-10.5-33.6-19.1-51.9-25.7c-17-6.1-34.4-10.3-52.3-12.7
		c-14-1.9-28-2.6-42.1-2c-25.4,1.1-50.3,5.7-74.3,14.3c-27.3,9.8-52.2,23.7-74.6,42.1c-0.9,0.7-1.7,1.5-2.8,1.7
		C100.6,68.5,99.5,67.2,99.3,65.2z"/>
	<path class="st1" d="M8.6,249.9c-0.1,1.1,0.5,2.4-0.4,3.4c0-1.1,0-2.2,0-3.4C8.3,249.7,8.5,249.7,8.6,249.9z"/>
	<path class="st1" d="M256.4,5.1c-1,0.9-2.3,0.3-3.4,0.4c-0.1-0.1-0.2-0.2-0.1-0.3c0.1-0.1,0.1-0.1,0.2-0.1
		C254.1,5.1,255.2,5.1,256.4,5.1z"/>
	<path class="st2" d="M275.6,5.6c-1.1-0.1-2.4,0.5-3.4-0.4c1.1,0,2.2,0,3.4,0c0.2,0.1,0.2,0.2,0.2,0.3
		C275.7,5.5,275.6,5.6,275.6,5.6z"/>
	<path class="st2" d="M8.2,269.1c0.9,1,0.3,2.3,0.4,3.4c-0.2,0.2-0.3,0.2-0.4,0C8.2,271.4,8.2,270.2,8.2,269.1z"/>
	<path class="st3" d="M250.6,5.5c-0.8,0-1.6,0-2.4,0c0-0.1,0-0.3,0-0.4c0.8,0,1.6,0,2.4,0c0.2,0.1,0.2,0.2,0.1,0.3
		C250.7,5.5,250.6,5.5,250.6,5.5z"/>
	<path class="st4" d="M250.6,5.5c0-0.1,0-0.3,0-0.4c0.8,0,1.6,0,2.4,0c0,0.1,0,0.3,0,0.4C252.2,5.5,251.4,5.5,250.6,5.5z"/>
	<path class="st4" d="M275.6,5.6c0-0.1,0-0.3,0-0.4c0.8,0,1.6,0,2.4,0c0.1,0.1,0.2,0.2,0.2,0.3c0,0.1-0.1,0.1-0.1,0.1
		C277.2,5.5,276.4,5.6,275.6,5.6z"/>
	<path class="st5" d="M8.6,274.9c0,0.8,0,1.6,0,2.4c-0.1,0-0.3,0-0.4,0c0-0.8,0-1.6,0-2.4C8.4,274.6,8.5,274.7,8.6,274.9z"/>
	<path class="st5" d="M278,5.5c0-0.1,0-0.3,0-0.4c0.8,0,1.6,0,2.4,0c0,0.1,0,0.3,0,0.4C279.6,5.5,278.8,5.5,278,5.5z"/>
	<path class="st4" d="M8.6,249.9c-0.1,0-0.3,0-0.4,0c0-0.8,0-1.6,0-2.4c0.1-0.2,0.3-0.2,0.4,0C8.6,248.3,8.6,249.1,8.6,249.9z"/>
	<path class="st4" d="M8.6,274.9c-0.1,0-0.3,0-0.4,0c0-0.8,0-1.6,0-2.4c0.2,0,0.3,0,0.4,0C8.6,273.3,8.6,274.1,8.6,274.9z"/>
	<path class="st3" d="M8.6,247.5c-0.1,0-0.3,0-0.4,0c0-0.8,0-1.6,0-2.4c0.1,0,0.3,0,0.4,0C8.6,245.9,8.6,246.7,8.6,247.5z"/>
	<path class="st6" d="M425.4,69c1.3-1,2.4-2.1,3.4-3.5c0.8-0.1,1.3,0.4,1.9,0.9c22.7,19.7,41.7,42.5,56.5,68.6
		c0.2,0.3,0.3,0.7,0.5,1.1c-0.2,1-1,1.6-1.7,2.3c-28.8,28.9-57.7,57.7-86.6,86.6c-0.6,0.6-1.1,1.2-1.8,1.5c-0.2,0.1-0.5,0.1-0.7,0
		c-1-0.5-1.7-1.4-2.5-2.2c-18.8-18.7-37.5-37.5-56.3-56.2c-1.3-1.3-2.6-2.6-3.8-3.9c-2.4-2.4-2.4-2.4,0-4.9
		c7.2-7.2,14.4-14.4,21.6-21.6c2.6-2.5,5.2-5.1,7.7-7.7c4-4,8-8,12-12c4-4,8-8,12-12c4.2-4.1,8.3-8.3,12.5-12.5
		c4.2-4.1,8.3-8.3,12.4-12.4c0.7-0.7,1.4-1.3,2.1-2c1.6-1.6,3.2-3.2,4.8-4.8c1.6-1.5,3.1-3.1,4.6-4.6C424.4,69.4,424.8,69,425.4,69z
		"/>
	<path class="st7" d="M397.5,226.3c0.5-0.5,0.9-1.1,1.4-1.6c29-29.1,58.1-58.1,87.1-87.1c0.5-0.5,1.1-0.9,1.6-1.4
		c5.1,8.3,9.2,17.2,12.9,26.2c8,19,13.5,38.8,16.7,59.2c1,6.5,2.1,13,2.1,19.7c-1.6,1.3-3,2.7-4.3,4.3c0,0.4-0.2,0.7-0.4,0.9
		c-2.6,2.7-5.3,5.3-8,8.1c-11.1,11-22.1,22.1-33.1,33.1c-2.2,2.1-4.3,4.2-6.4,6.4c-1.3,1.3-2.3,1.4-3.6,0c-1.2-1.4-2.7-2.5-3.7-4
		c-0.7-1-1.6-1.8-2.4-2.7c-19.4-19.4-38.8-38.8-58.2-58.3C398.5,228.4,397.1,227.9,397.5,226.3z"/>
	<path class="st0" d="M519.9,271.2c0-6.8,0-13.5,0-20.3C520.5,257.6,520.5,264.4,519.9,271.2z"/>
	<path class="st0" d="M253.9,516.8c6.8,0,13.5,0,20.3,0C267.5,517.4,260.7,517.4,253.9,516.8z"/>
	<path class="st0" d="M245.3,516.3c1.3,0.1,2.6-0.4,3.8,0.4C247.8,516.7,246.5,516.8,245.3,516.3z"/>
	<path class="st0" d="M519.8,246.1c-0.7-1.2-0.2-2.6-0.4-3.8C519.9,243.5,519.8,244.8,519.8,246.1z"/>
	<path class="st0" d="M519.4,279.8c0.1-1.1-0.4-2.3,0.3-3.4C519.8,277.5,519.9,278.7,519.4,279.8z"/>
	<path class="st8" d="M285.2,6.1c-1.1-0.1-2.3,0.4-3.4-0.4C283,5.7,284.1,5.6,285.2,6.1z"/>
	<path class="st0" d="M279.4,516.7c1.1-0.7,2.3-0.2,3.4-0.3C281.7,516.8,280.6,516.7,279.4,516.7z"/>
	<path class="st8" d="M290.5,6.5c-1-0.1-2,0.3-2.9-0.4C288.6,6.2,289.6,6.1,290.5,6.5z"/>
	<path class="st0" d="M239.5,515.8c1,0.1,2-0.3,2.9,0.4C241.4,516.2,240.4,516.3,239.5,515.8z"/>
	<path class="st0" d="M518.5,290.3c0.1-0.8-0.3-1.7,0.4-2.4C518.9,288.7,518.9,289.5,518.5,290.3z"/>
	<path class="st8" d="M294.8,7c-0.8-0.1-1.7,0.3-2.4-0.4C293.2,6.6,294,6.6,294.8,7z"/>
	<path class="st0" d="M518.9,285.5c0.1-0.8-0.3-1.7,0.3-2.4C519.3,283.9,519.3,284.7,518.9,285.5z"/>
	<path class="st0" d="M290.9,515.7c0.7-0.6,1.6-0.3,2.4-0.4C292.6,515.8,291.8,515.8,290.9,515.7z"/>
	<path class="st0" d="M286.1,516.2c0.8-0.6,1.6-0.3,2.5-0.3C287.8,516.3,287,516.3,286.1,516.2z"/>
	<path class="st9" d="M99.3,65.2c0.6,1.7,2.1,2.7,3.4,3.8c0.7,0.3,1.3,0.8,1.8,1.3c1.7,1.7,3.4,3.4,5.1,5.1c1.6,1.6,3.2,3.2,4.8,4.8
		c0.5,0.5,1.1,1.1,1.6,1.6c4,4,7.9,7.9,11.9,11.9c4.1,4.2,8.3,8.3,12.5,12.5c4.1,4.2,8.3,8.3,12.5,12.5c3.8,3.9,7.7,7.7,11.5,11.5
		c2.5,2.6,5.1,5.2,7.7,7.7c7.2,7.2,14.4,14.4,21.6,21.6c2.5,2.7,2.5,2.8,0,5.3c-1.3,1.3-2.6,2.6-3.8,3.9
		c-18.6,18.5-37.2,37.2-55.8,55.7c-0.9,0.9-1.6,2-3,2.4c-0.2,0-0.5,0-0.7-0.1c-0.7-0.4-1.3-1-1.8-1.5
		c-29.3-29.2-58.4-58.5-87.7-87.7c-0.2-0.2-0.4-0.5-0.6-0.7c9.4-16.9,20.6-32.5,33.5-46.8C81.8,81,90.3,72.8,99.3,65.2z"/>
	<path class="st10" d="M40.4,136.6c0.9,0,1.4,0.7,2,1.2c29.1,29.1,58.2,58.2,87.3,87.3c0.4,0.4,0.7,0.9,1,1.3c0,1.4-1.1,2-1.9,2.8
		c-19.2,19.2-38.4,38.4-57.6,57.6c-1,1-2,1.9-2.7,3.1c-1.2,1.4-2.6,2.6-3.8,3.9c-1.1,1.1-2.2,1.3-3.3,0.1c-1.9-2-4.1-3.8-6-5.8
		c-0.2-0.2,0.1,0-0.1-0.2c-10.8-11.1-21.7-22.1-32.9-32.8c-3.2-2.9-6.1-6.2-8.8-9.6c-1.3-1.6-2.7-3.1-4.4-4.3
		c-0.3-4.7,0.5-9.4,1.1-14c2.4-18.1,6.6-35.7,12.8-52.8C27.8,161.4,33.5,148.7,40.4,136.6z"/>
	<path class="st8" d="M246.7,5.7c-1.1,0.7-2.3,0.2-3.4,0.4C244.4,5.6,245.6,5.7,246.7,5.7z"/>
	<path class="st8" d="M240.5,6.2c-0.7,0.6-1.6,0.3-2.4,0.3C238.8,6.1,239.7,6.1,240.5,6.2z"/>
	<path class="st0" d="M13.5,245.6c3.5,2.6,5.8,6.4,9.1,9.2c0.7,0.9,0.6,1.9,0.6,3c0,2.6,0,5.3,0,7.9c0.1,21.2,3.2,41.9,9,62.2
		c4.1,14.2,9.3,27.9,15.9,41.1c8.4,16.9,18.7,32.6,30.9,47c5.2,6.2,10.6,12.2,16.4,17.8c15.7,15.2,33,28.3,52.2,38.9
		c24.3,13.4,50.2,22.4,77.6,26.9c8.7,1.4,17.4,2.2,26.2,2.7c6.4,0.4,12.8,0.5,19.2,0.3c18.9-0.5,37.6-2.9,55.9-7.8
		c16.3-4.4,32.1-10.3,47.2-17.9c16.6-8.4,32.1-18.6,46.3-30.7c19.1-16.3,35.6-34.9,49-56.1c11.8-18.7,20.7-38.7,27.1-59.9
		c4-13.2,6.7-26.7,8.2-40.4c1.2-10.6,1.8-21.2,1.6-31.8c0-1.3-0.1-2.6,0.6-3.7c2.6-2.9,5.3-5.6,8.1-8.1c1.3-0.5,1.2,0.4,1.3,1.2
		c0.1,1.8-0.3,3.7,0.2,5.5c0.4,5.6,0.4,11.2,0,16.8c-0.5,2.3-0.1,4.7-0.3,7c-0.1,0.9,0.2,1.7-0.2,2.6c-0.7,1.9,0.2,3.9-0.5,5.8
		c-0.7,1.5,0.2,3.2-0.5,4.8c-0.7,1.2,0.2,2.6-0.5,3.8c-0.7,1.2,0.2,2.6-0.5,3.8c-0.6,1.1,0.1,2.3-0.5,3.4c-0.6,0.9,0.1,2-0.5,2.9
		c-0.6,0.7,0.1,1.7-0.5,2.4c-0.6,0.9,0.1,2-0.5,2.9c-0.6,0.7,0.1,1.7-0.5,2.4c-0.6,0.7,0.1,1.7-0.5,2.4c-0.7,0.5-0.4,1.3-0.5,1.9
		c-0.6,0.7,0.1,1.7-0.5,2.4c-1.2,3.1-2,6.3-2.4,9.6c-0.4,1.1-0.6,2.3-1,3.4c-0.6,2.1-1.4,4.1-1.9,6.2c-0.7,2.4-1.5,4.8-2.4,7.2
		c-1,2.2-1.5,4.5-2.4,6.7c-0.4,0.8-0.6,1.6-1,2.4c-0.4,0.8-0.6,1.6-1,2.4c-0.4,0.8-0.6,1.6-1,2.4c-0.5,1.1-1,2.2-1.4,3.4
		c-0.7,1.8-1.7,3.5-2.4,5.3c-2.1,4.5-4.3,9-6.7,13.4c-0.4,0.2-0.5,0.6-0.5,1c-0.8,1-1.1,2.3-1.9,3.4c-0.4,0.2-0.5,0.6-0.5,1
		c-0.6,0.7-0.9,1.7-1.4,2.4c-4.3,6.7-8.5,13.6-13.2,20.1c-2,2.8-4,5.5-6,8.3c-0.4,0.7-1,1.2-1.4,1.9c-0.2,0.2-0.3,0.3-0.5,0.5
		c-0.4,0.7-1,1.2-1.4,1.9c-0.2,0.2-0.3,0.3-0.5,0.5c-0.5,0.9-1.4,1.5-1.9,2.4c-0.2,0.2-0.3,0.3-0.5,0.5c-0.7,1.1-1.8,1.8-2.4,2.9
		c-0.2,0.2-0.3,0.3-0.5,0.5c-1.1,1.6-2.8,2.7-3.8,4.3c-0.2,0.2-0.3,0.3-0.5,0.5c-4.5,4.8-9.1,9.5-13.9,13.9
		c-7,6.5-14.4,12.5-22.1,18.1c-9.4,6.8-19.1,13-29.2,18.6c-13.2,7.3-27,12.9-41.3,17.7c-13.3,4.4-26.9,7.6-40.8,9.8
		c-6.4,1-12.9,1.7-19.4,2.1c-7.3,0.4-14.6,1.2-21.9,0.8c-8.1-0.4-16.2-0.8-24.2-1.7c-11.7-1.3-23.3-3.4-34.6-6.4
		c-14-3.6-27.6-8.3-40.8-14.3c-13.9-6.3-27.2-13.8-39.7-22.5c-8.8-6.1-17.1-12.6-25.1-19.8c-5.9-5.3-11.5-10.9-16.9-16.6
		c-10.8-11.6-20.3-24.3-28.7-37.8c-4.1-6.5-8-13.1-11.3-20c-7.7-15.5-13.7-31.7-18.2-48.5c-2.9-10.8-5.1-21.7-6.5-32.7
		c-0.8-6.2-1.3-12.5-1.7-18.7c-0.3-5.3-0.2-10.5-0.3-15.8C12.4,254.3,12.4,249.9,13.5,245.6z"/>
	<path class="st0" d="M435.4,446.2c4.4-4.8,9.1-9.5,13.9-13.9C445.3,437.5,440.6,442.2,435.4,446.2z"/>
	<path class="st0" d="M486.3,380.5c1.9-4.6,4.2-9.1,6.7-13.4c-0.9,3.8-3.1,6.9-4.7,10.3C487.8,378.5,487.5,379.8,486.3,380.5z"/>
	<path class="st0" d="M516,269.6c0-5.6,0-11.2,0-16.8c0.6,0.5,0.5,1.1,0.5,1.7c0,4.4,0,8.9,0,13.3
		C516.5,268.5,516.6,269.1,516,269.6z"/>
	<path class="st0" d="M515.6,279.2c0.3-3.2-0.6-6.4,0.5-9.6C515.7,272.8,516.6,276,515.6,279.2z"/>
	<path class="st0" d="M502.1,344.5c0.5-2.5,1.2-4.9,2.4-7.2C504.2,339.8,503.6,342.3,502.1,344.5z"/>
	<path class="st0" d="M499.7,351.2c0.5-2.4,1-4.7,2.4-6.7C501.6,346.8,501.1,349.2,499.7,351.2z"/>
	<path class="st0" d="M516,252.8c-1-1.5-0.3-3.2-0.5-4.8c-0.1-0.8,0.3-1.8-1-2c0.2-0.2,0.3-0.3,0.5-0.5c1.1,0.1,1,1,1,1.8
		C516,249.2,516,251,516,252.8z"/>
	<path class="st0" d="M449.8,431.8c0.6-2,2.4-3,3.8-4.3C453,429.5,451.2,430.5,449.8,431.8z"/>
	<path class="st0" d="M504.5,337.3c0.1-2.2,0.9-4.3,1.9-6.2C506.3,333.3,505.6,335.3,504.5,337.3z"/>
	<path class="st0" d="M493,367c0.2-2,1.3-3.7,2.4-5.3C495.2,363.8,494.1,365.4,493,367z"/>
	<path class="st0" d="M515.1,285c0.2-1.9-0.5-3.9,0.5-5.8C515.3,281.1,516.1,283.1,515.1,285z"/>
	<path class="st0" d="M514.6,289.8c0.2-1.6-0.5-3.3,0.5-4.8C514.9,286.6,515.6,288.2,514.6,289.8z"/>
	<path class="st0" d="M483.9,384.8c0.3-1.3,0.7-2.6,1.9-3.4C485.4,382.7,485.1,384,483.9,384.8z"/>
	<path class="st0" d="M454.1,427c0.2-1.4,1.4-2.1,2.4-2.9C456.3,425.6,455.1,426.3,454.1,427z"/>
	<path class="st0" d="M495.4,361.8c0-1.3,0.6-2.4,1.4-3.4C496.8,359.7,496.3,360.8,495.4,361.8z"/>
	<path class="st0" d="M514.1,293.6c0.2-1.3-0.5-2.7,0.5-3.8C514.4,291,515.1,292.4,514.1,293.6z"/>
	<path class="st0" d="M506.4,331c0-1.2,0.2-2.4,1-3.4C507.4,328.9,507.2,330.1,506.4,331z"/>
	<path class="st0" d="M513.6,297.4c0.2-1.3-0.5-2.7,0.5-3.8C513.9,294.9,514.6,296.3,513.6,297.4z"/>
	<path class="st0" d="M457,423.7c0.1-1.2,1-1.8,1.9-2.4C458.8,422.5,457.9,423.1,457,423.7z"/>
	<path class="st0" d="M513.2,300.8c0.2-1.1-0.4-2.3,0.5-3.4C513.4,298.6,514.1,299.8,513.2,300.8z"/>
	<path class="st0" d="M482,388.2c0.2-1,0.5-1.9,1.4-2.4C483.2,386.7,482.9,387.7,482,388.2z"/>
	<path class="st0" d="M461.3,418.4c0-1,0.7-1.5,1.4-1.9C462.7,417.5,462.1,418,461.3,418.4z"/>
	<path class="st0" d="M459.4,420.8c0-1,0.7-1.5,1.4-1.9C460.8,419.9,460.2,420.4,459.4,420.8z"/>
	<path class="st0" d="M496.8,358.4c0-0.9,0.2-1.8,1-2.4C497.8,356.9,497.6,357.8,496.8,358.4z"/>
	<path class="st0" d="M497.8,356c0-0.9,0.2-1.8,1-2.4C498.8,354.5,498.6,355.4,497.8,356z"/>
	<path class="st0" d="M498.8,353.6c0-0.9,0.2-1.8,1-2.4C499.7,352.1,499.5,353,498.8,353.6z"/>
	<path class="st0" d="M511.7,309c0.2-1-0.4-2,0.5-2.9C512,307,512.6,308.1,511.7,309z"/>
	<path class="st0" d="M512.7,303.7c0.2-1-0.4-2,0.5-2.9C513,301.8,513.5,302.8,512.7,303.7z"/>
	<path class="st0" d="M510.8,313.8c0.1-0.8-0.3-1.7,0.5-2.4C511.1,312.2,511.6,313.1,510.8,313.8z"/>
	<path class="st0" d="M511.2,311.4c0.1-0.8-0.3-1.7,0.5-2.4C511.6,309.8,512,310.7,511.2,311.4z"/>
	<path class="st0" d="M512.2,306.1c0.1-0.8-0.3-1.7,0.5-2.4C512.6,304.5,513,305.4,512.2,306.1z"/>
	<path class="st0" d="M509.8,318.1c0.1-0.8-0.3-1.7,0.5-2.4C510.2,316.5,510.6,317.4,509.8,318.1z"/>
	<path class="st11" d="M104.2,70.4c-0.5-0.5-1-1-1.4-1.4c8.1-6.3,16.2-12.6,24.9-18.2c12.7-8.1,25.9-15.1,39.8-20.9
		c13-5.4,26.3-9.7,40-12.9c8.8-2.1,17.7-3.5,26.7-4.7c12.4-1.6,24.8-2.1,37.2-1.8c9.1,0.2,18.1,1.1,27.1,2.3
		c9.4,1.3,18.7,3.1,27.8,5.4c13.5,3.4,26.5,7.9,39.3,13.5c15.4,6.7,29.8,14.9,43.5,24.5c5,3.5,9.8,7.3,14.7,11.1
		c0.7,0.5,1.2,1.3,1.7,2c-0.3,0.3-0.6,0.6-0.9,0.9c-0.9,0.3-1.5-0.4-2.1-0.9c-13.9-11.7-29.1-21.3-45.3-29.6
		c-20.7-10.6-42.5-18.1-65.3-22.5c-8.9-1.7-18-3-27.1-3.6c-5.4-0.4-10.8-0.8-16.2-0.9c-19.6-0.2-39.1,1.6-58.3,5.9
		c-17.3,3.9-34,9.5-50.1,17c-16.2,7.5-31.4,16.5-45.6,27.2c-2.5,1.9-4.9,3.9-7.3,5.8C106.2,69.2,105.4,70.1,104.2,70.4z"/>
	<path class="st12" d="M193.5,159.7c-6.3-6.3-12.7-12.5-19-18.8c-0.9-0.9-1.7-1.9-2.6-2.8c0.3-1.1,1.3-1.6,2.1-2.2
		c20.8-15.1,44.1-24,69.5-27.8c9.5-1.4,19.1-1.8,28.7-1.3c18.9,1,37.1,5.5,54.6,13c9.8,4.2,18.9,9.6,27.6,15.9
		c0.9,0.6,2.1,1.1,1.8,2.5c-7.2,7.2-14.4,14.4-21.6,21.6c-1.4,0.4-2.3-0.6-3.2-1.2c-13.9-9.1-29-15.2-45.4-18
		c-24.5-4.2-48.2-1.6-71.1,8.4c-6.3,2.8-12.2,6.2-18.1,9.9C195.9,159.4,195,160.6,193.5,159.7z"/>
	<path class="st13" d="M127.8,93.9c-4.2-3.8-8.2-7.8-12-12c0.2-1.1,1.1-1.7,1.9-2.4c12.2-9.7,25.3-18.2,39.2-25.4
		c24.6-12.9,50.6-21,78.1-24.5c7.7-1,15.4-1.4,23.2-1.7c6.2-0.3,12.3,0,18.4,0.2c11.8,0.4,23.4,2.1,34.9,4.4
		c23.3,4.7,45.3,13,66.1,24.5c11.4,6.3,22.3,13.5,32.5,21.6c1,0.8,2.3,1.5,2.9,2.8c-4.2,4.2-8.3,8.4-12.5,12.5
		c-1.2-0.2-1.9-1.2-2.7-1.9c-22.6-17.9-47.9-30.6-75.6-38.3c-12.6-3.5-25.4-5.7-38.4-6.8c-8.8-0.8-17.6-1.2-26.3-0.8
		C238,47,219,49.8,200.5,55.7C180,62.2,160.8,71.2,143,83.4c-4.2,2.9-8.3,6-12.3,9.1C129.8,93.1,129.1,94.1,127.8,93.9z"/>
	<path class="st14" d="M127.8,93.9c14.1-11.3,29.2-21,45.7-28.6c15.7-7.2,32-12.6,48.9-15.9c7.6-1.5,15.3-2.4,23.1-3.1
		c8.9-0.8,17.8-1.2,26.7-0.8c13.2,0.5,26.3,2,39.2,4.9c15,3.4,29.4,8.3,43.4,14.6c14.7,6.7,28.2,15.1,41.1,24.7
		c1.6,1.2,3.5,2.3,4.5,4.2c-4.2,4.2-8.3,8.3-12.5,12.5c-1.6-0.5-2.7-1.7-4-2.6c-10.1-7.7-20.7-14.5-32.1-20
		c-20-9.8-41.1-15.9-63.2-18.7c-11.4-1.4-22.8-1.7-34.2-1.2C234,64.9,214.1,69,195,76.2c-18.9,7-36.2,16.9-52.1,29.3
		c-0.8,0.6-1.4,1.7-2.7,1C135.8,102.5,131.7,98.2,127.8,93.9z"/>
	<path class="st15" d="M140.2,106.4c3.4-1.9,6.2-4.6,9.4-6.8c10.3-7.2,21.2-13.6,32.7-18.8c11.7-5.3,23.8-9.5,36.4-12.4
		c8.5-2,17.1-3.3,25.8-4.3c10.3-1.1,20.6-1.2,30.8-0.7c11.6,0.5,23,2.3,34.4,4.9c15.7,3.6,30.7,9.1,45,16.4
		c11.5,5.8,22.2,12.9,32.3,20.8c0.4,0.3,0.6,0.7,0.9,1.1c-4,4-8,8-12,12c-1.1,0.3-1.8-0.5-2.5-1.1c-15.1-11.4-31.7-20.2-49.5-26.5
		c-12.6-4.4-25.6-7.4-39-8.9c-7.1-0.8-14.2-1.4-21.3-1.3c-26.1,0.5-51.2,5.7-75,16.8c-11.9,5.5-23,12.2-33.5,20.1
		c-0.8,0.6-1.5,1.2-2.5,1.3C148.5,114.7,144.4,110.6,140.2,106.4z"/>
	<path class="st16" d="M193.5,159.7c2.6-0.4,4.4-2.2,6.4-3.5c10.6-6.7,21.9-11.3,34-14.4c6.3-1.6,12.7-2.7,19.2-3.2
		c3.4-0.3,6.8-0.3,10.3-0.4c14.5-0.4,28.5,2.1,42.2,6.9c9.6,3.4,18.6,7.9,27.1,13.6c0.7,0.4,1.4,0.8,2,1.2c-2.1,1.6-1.7,3,0.2,4.5
		c1.3,1.1,2.4,2.5,3.6,3.7c0,1.1-0.9,1.7-1.5,2.3c-4.8,4.8-9.6,9.6-14.4,14.4c-0.8,0.8-1.5,1.7-2.8,1.6c-3.4-1.7-6.4-4.1-9.8-5.9
		c-10.3-5.6-21.1-9.5-32.8-11c-24.2-3.1-46.5,2.2-66.6,16.2c-0.6,0.4-1.1,0.9-1.8,1.1c-1.1,0.2-1.8-0.5-2.4-1.2
		c-5.2-5.2-10.5-10.4-15.7-15.7c-0.5-0.5-1.1-1-1-1.8c1.2-1.2,2.3-2.4,3.5-3.6C195.5,162.2,195.5,162.2,193.5,159.7z"/>
	<path class="st17" d="M152.7,118.9c4.7-4.2,10-7.7,15.3-11c13.2-8.3,27.3-14.9,42.2-19.5c9.7-3,19.6-5.2,29.8-6.6
		c9.1-1.2,18.2-2.1,27.3-1.8c17,0.5,33.7,2.9,50,8c11.7,3.6,22.9,8.4,33.7,14.1c8.8,4.7,17,10.3,25,16.3c-4,4-8,8-12,12
		c-1.4-0.3-2.4-1.2-3.5-2c-22.5-16.3-47.7-26-75.3-29.7c-9.2-1.2-18.5-1.8-27.7-1.3c-20.3,1-39.9,5.5-58.5,13.6
		c-11.3,4.9-21.8,11-31.8,18.2c-0.8,0.6-1.6,1.7-2.9,1C160.1,126.8,156.4,122.9,152.7,118.9z"/>
	<path class="st18" d="M397.5,226.3c0.6,0.6,1.2,1.3,1.8,1.9c19.7,19.8,39.5,39.5,59.2,59.3c0.7,0.7,1.5,1.2,1.8,2.2
		c-0.3,1.2-1.2,1.9-2,2.6c-6.7,6.8-13.5,13.5-20.3,20.3c-2.6,2.5-2.8,2.5-5.3,0c-1.1-1-2.1-2.1-3.3-3c-5-5.5-10.4-10.5-15.6-15.9
		c-1.7-1.8-3.6-3.4-5.2-5.3c-0.5-0.7-1-1.4-1.7-2c-11.1-11.1-22.1-22.1-33.2-33.2c-0.6-0.6-1.4-1.1-1.9-1.8c-0.1-0.2-0.1-0.4,0-0.7
		c7.7-7.4,15.1-15.1,22.7-22.6c0.7-0.7,1.3-1.6,2.4-1.9C397.2,226.3,397.4,226.3,397.5,226.3z"/>
	<path class="st19" d="M397.1,226.3c-2.6,3.2-5.6,5.8-8.5,8.7c-4.8,4.8-9.6,9.6-14.4,14.4c-0.6,0.6-1.1,1.4-2.1,1.5
		c-1.2,0.3-1.7-0.7-2.3-1.3c-17.1-17.1-34.3-34.1-51.2-51.3c-0.2-0.2-0.4-0.3-0.5-0.5c-1.2-1.1-2.4-2.3-3.5-3.5
		c-0.6-0.7-1.3-1.5-0.5-2.3c1.9-2.2,3.6-4.6,6.4-5.9c6.1-6.1,12.1-12.1,18.2-18.2c0.5,0.4,1,0.7,1.5,1.2
		c18.9,18.9,37.7,37.7,56.6,56.6C396.8,225.9,396.9,226.1,397.1,226.3z"/>
	<path class="st11" d="M104.2,70.4c3.2-3.4,7.1-6.1,10.8-8.9c12.4-9.4,25.8-17.3,39.8-24.2c16.6-8.2,33.9-14.4,51.8-18.7
		c9.1-2.2,18.3-3.9,27.7-4.8c6-0.6,12-1,18-1.5c5.6-0.4,11.2-0.4,16.7-0.3c9.6,0.2,19.2,1,28.7,2.2c16.7,2.2,33,6.1,48.9,11.6
		c13.6,4.7,26.6,10.8,39.2,17.7c10.7,5.8,20.8,12.5,30.4,19.8c2.8,2.1,5.4,4.4,8.1,6.7c-1.6,1.6-3.2,3.2-4.8,4.8
		c-1.4,0.7-2.1-0.4-2.9-1.1c-9.8-8-20.3-15.1-31.2-21.5c-21.4-12.5-44.3-21.1-68.3-26.7c-11.3-2.6-22.8-4.3-34.4-5.2
		c-10.8-0.8-21.7-0.8-32.6-0.2c-18.1,1-35.9,4.1-53.3,9.2c-21,6.2-41.1,14.7-59.7,26.5c-9.7,6.1-19,12.8-27.9,20
		C107.6,74.1,105.7,72.4,104.2,70.4z"/>
	<path class="st8" d="M109.5,75.7c0.8-2.3,3-3.1,4.7-4.5c13.5-10.7,27.9-20,43.3-27.5c19.6-9.5,40.1-16.4,61.5-20.4
		c10.3-2,20.7-3.2,31.2-3.9c8.6-0.6,17.1-0.7,25.6-0.3c19.2,1,38,4.1,56.5,9.6c13.6,4,26.9,9.1,39.7,15.3
		c11.8,5.8,23,12.8,33.7,20.4c4.4,3.1,8.7,6.4,12.8,9.9c0.3,0.2,0.7,0.3,1.1,0.4c-1.6,1.6-3.2,3.2-4.8,4.8c-1.2,0.3-2-0.5-2.7-1.2
		c-15-12.2-31.4-22.3-49-30.4c-20.5-9.4-42-15.9-64.4-19.2c-10-1.5-20-2.2-30.1-2.5c-19.5-0.5-38.6,1.8-57.5,6.1
		c-18.5,4.2-36.2,10.7-53.1,19.2c-15.6,8-30.4,17.4-43.8,28.8C112.5,79.1,110.9,77.5,109.5,75.7z"/>
	<path class="st20" d="M164.2,130.4c3.9-2.6,7.8-5.2,11.7-7.8c16.6-10.6,34.6-17.9,53.9-22.1c8-1.7,16.1-2.8,24.3-3.4
		c5.9-0.5,11.8-0.6,17.7-0.3c13.2,0.7,26.2,2.7,38.9,6.5c10.6,3.2,20.9,7.2,30.8,12.4c7.7,4,14.9,8.8,22,13.9
		c0.2,0.2,0.4,0.5,0.6,0.8c-2.6,2.6-5.1,5.1-7.7,7.7c-2.5-2.8-5.9-4.6-9-6.7c-11.7-7.7-24.3-13.3-37.6-17.3
		c-8.1-2.5-16.4-4.3-24.9-5.5c-9.3-1.3-18.6-1.6-27.9-1.3c-9.1,0.3-18.2,1.7-27,3.9c-13.4,3.2-26.2,7.8-38.4,14.3
		c-6.2,3.3-12,7.2-17.7,11.3c-0.6,0.4-1.2,0.8-1.8,1.1C169.1,135.7,166.6,133.1,164.2,130.4z"/>
	<path class="st13" d="M114.3,80.5c0.3-2.1,2.3-2.8,3.7-3.8c11.1-8.9,23-16.5,35.5-23.3c12.5-6.8,25.5-12.1,38.9-16.5
		c12.4-4,25.1-7,38-8.8c9.8-1.4,19.7-2.3,29.7-2.5c5.9-0.1,11.8,0,17.6,0.3c8.5,0.3,16.9,1.4,25.3,2.9c14.1,2.4,27.8,6.1,41.3,10.9
		c14.9,5.3,28.9,12.1,42.5,20.2c9.9,5.9,19,12.8,28.1,19.7c-0.6,0.6-1.3,1.3-1.9,1.9c-3.4-2.5-6.8-5-10.1-7.5
		c-8.1-6.1-16.7-11.4-25.5-16.3C363.9,50.2,350,44,335.4,39.4c-11.8-3.8-23.9-6.6-36.2-8.4c-10.2-1.4-20.4-2.2-30.6-2.5
		c-6-0.2-11.9,0.1-17.9,0.3c-9.7,0.4-19.3,1.7-28.8,3.5c-11.9,2.2-23.6,5.4-35,9.3c-7,2.4-13.8,5.3-20.6,8.5
		c-11.5,5.4-22.5,11.6-33.1,18.7c-6.1,4.1-11.9,8.6-17.6,13.1C115.1,81.6,114.6,81.1,114.3,80.5z"/>
	<path class="st13" d="M506.4,254.2c0,5.4,0.3,10.9,0,16.3c-0.7,11.2-1.7,22.5-3.6,33.6c-2.3,13.3-5.9,26.2-10.3,38.9
		c-5.5,15.7-12.7,30.6-21.4,44.8c-6.9,11.2-14.5,21.9-23.2,31.8c-9.1,10.2-18.7,19.8-29.3,28.5c-12.2,10-25.1,18.8-38.9,26.3
		c-16.7,9.1-34.3,15.9-52.6,20.9c-10.6,2.9-21.3,4.9-32.2,6.2c-5.8,0.7-11.7,1-17.6,1.5c-7,0.5-13.9,0.5-20.8,0.3
		c-9.6-0.3-19.2-1.2-28.7-2.6c-15.7-2.3-30.8-6.3-45.7-11.6c-14.9-5.3-29-12.1-42.5-20.2c-10.2-6.1-19.9-13-29-20.5
		c-7.6-6.3-15-12.9-21.7-20.2c-10.9-11.8-20.9-24.2-29.4-37.9c-7.2-11.5-13.5-23.5-18.6-36.1c-4.9-12.1-9.1-24.5-12.1-37.2
		c-1.9-8-3.1-16-4.2-24.1c-1.8-12.6-1.9-25.2-1.8-37.9c0.4,0.3,0.9,0.6,1.3,1c10.3,10.2,20.5,20.5,30.8,30.8c0.4,0.4,0.7,0.9,1,1.3
		c0.2,5.8,1.5,11.4,2.7,17C62,322.3,67.9,339,75.8,355c8.7,17.5,19.5,33.5,32.6,48c11.5,12.8,24.5,23.8,38.8,33.3
		c2.1,1.4,2.1,1.4,2.5-1c0.1-0.7-0.1-1.7,1.2-1.5c0.6,0.9,0.4,2,0.5,3c0.2,12,10.7,21.4,22.8,20.4c2.8-0.2,5.4-1.3,8.2-1.6
		c3.6,1.9,7.5,3.3,11.3,4.6c0.9,0.5,0.9,1.5,1.1,2.3c3,10.6,14.4,15.7,24.4,11c1.1-0.5,2.1-1.2,3.3-1.1c5.4,1.3,10.8,1.9,16.3,2.6
		c1,0.2,1.6,1,2.2,1.7c5.3,5.8,13.9,6.1,19.7,0.6c1.1-1.1,2-2.6,3.8-2.6c1.7,0.4,2.5,1.8,3.7,2.9c5.6,5.4,15,4.7,19.8-1.6
		c0.6-0.8,1.2-1.7,2.3-2c5-0.5,9.9-1.4,14.9-2.3c1.1,0,1.9,0.7,2.8,1.2c12.7,7.2,25.5-2.6,26.1-12.5c0-0.7,0-1.5,0.9-1.8
		c1,0.7,2.1,0.8,3.3,0.3c2.5-1.1,5.2-1.7,7.6-3.3c2.9,0.3,5.6,1.5,8.6,1.7c6.1,0.5,11.1-1.5,15.6-5.3c3.5-3,5.7-6.8,6.7-11.3
		c0.1-0.7,0.3-1.4,0.9-1.9c7.8-4.3,14.7-9.9,21.6-15.4c14.7-11.8,27.1-25.7,37.8-41.2c12.4-17.8,21.9-37.1,28.5-57.9
		c3.5-11.1,6-22.4,7.7-33.9c0.1-1,0.1-2.1,0.2-3.1c5.9-6,11.9-12,17.9-18C496.2,264.2,501.3,259.2,506.4,254.2z"/>
	<path class="st15" d="M473.3,287.3c1.4,2.1,0.3,4.2,0,6.2c-2.3,13.9-5.7,27.6-10.6,40.8c-3.2,8.7-7,17.1-11.3,25.3
		c-6.5,12.4-14.1,24-22.9,34.9c-5.2,6.4-10.5,12.6-16.5,18.3c-8.1,7.7-16.6,14.9-25.8,21.2c-2.7,1.8-5.1,4.1-8.3,5.1
		c-0.8-0.8-0.6-1.8-0.6-2.7c0-6.3-2.3-11.5-6.7-15.9c-1.7-1.8-3.5-3.5-5.2-5.3c-0.7-0.7-1.5-1.3-1.6-2.3c0.8-1.6,2.5-2.2,3.7-3.3
		c1.9-0.2,3.7,0.5,5.7,0.6c11.6,0.6,21.5-8.9,20.3-21.5c-0.1-0.7-0.3-1.4,0-2.1c3.2-1.5,5-4.4,7.1-6.9c9.9-11.2,18.1-23.5,24.9-36.8
		c4.6-9,8.3-18.3,11.2-28c0.3-0.9,0.7-1.8,1.1-2.6c7.5-7.5,15-15,22.5-22.5c1.7,1.7,3.2,4.5,5.1,4.8c1.7,0.3,3.2-2.8,4.9-4.4
		C471.3,289.2,472.3,288.3,473.3,287.3z"/>
	<path class="st19" d="M448.3,229.3c0-11.5,9.2-20.6,20.6-20.5c11.3,0.1,20.4,9.3,20.4,20.5c0,11.4-9.1,20.6-20.5,20.6
		C457.2,249.8,448.3,240.8,448.3,229.3z"/>
	<path class="st18" d="M68.2,289.8c0.1-1.2,1.1-1.7,1.8-2.4c19.6-19.6,39.2-39.2,58.7-58.8c0.7-0.7,1.3-1.4,2-2.1c0.2,0,0.3,0,0.5,0
		c1,0.3,1.6,1,2.3,1.7c6.9,6.9,13.8,13.8,20.7,20.7c0.7,0.7,1.6,1.4,1.8,2.5c-0.2,1.3-1.2,2-2.1,2.8c-18.3,18.3-36.6,36.6-54.9,55
		c-0.6,0.5-1.1,1.1-1.7,1.7c-4.8,4.7-3.6,4.8-8.5,0c-6.2-6.2-12.4-12.4-18.6-18.6C69.3,291.4,68.4,290.9,68.2,289.8z"/>
	<path class="st19" d="M155.6,251.5c-0.6-1.3-1.8-2-2.7-3c-7.2-7.3-14.5-14.7-21.8-22c18.8-18.8,37.6-37.6,56.4-56.4
		c0.7-0.7,1.4-1.3,2.1-1.9c6.2,6.1,12.4,12.3,18.7,18.4c2.3,1.2,3.8,3.3,5.6,5.1c0.8,0.8,0.5,1.7-0.2,2.5c-1.1,1.2-2.3,2.4-3.5,3.6
		c-0.2,0.2-0.5,0.5-0.7,0.7c-17,17-34,34-51,51C157.6,250.3,157,251.5,155.6,251.5z"/>
	<path class="st15" d="M68.2,289.8c7.6,7.5,15.2,15,22.6,22.6c1.6,1.7,2.7,2.1,4.1,0c0.5-0.8,1.4-1.3,2.1-1.9c1.5,0,1.4,1.3,1.7,2.2
		c3.1,9.4,6.6,18.7,11.1,27.5c7.1,13.8,15.8,26.5,26.4,37.8c0.5,0.5,1,1,1.3,1.7c0.2,1.1-0.5,2-0.9,2.9c-3.9,8.5-1.5,16.9,4.3,22.4
		c6.1,5.8,15.7,6.8,23,2.6c0.8-0.4,1.5-1,2.4-1.1c1.3,0.2,2.1,0.9,2.3,2.1c-1.5,2.4-3.6,4.2-5.4,6.3c-1.6,1.8-3.3,3.5-5.1,5.1
		c-3.8,3.4-5.8,7.6-7,12.5c-0.1,0.5-0.2,1-0.7,1.2c-0.7,0.9-0.4,2-0.3,3c0.1,1.9-0.7,1.9-1.9,1c-6-4-11.9-8.2-17.6-12.8
		c-6.5-5.3-12.8-11-18.6-17.1c-7.2-7.5-13.7-15.5-19.7-23.9c-6.7-9.3-12.5-19.1-17.5-29.3c-8.6-17.6-14.9-36-18.3-55.3
		c-0.6-3.3-1-6.6-1.6-9.8c-0.1-0.8,0-1.2,0.6-1.6c2.1,2,4.2,4,6.3,6c0.9,0.9,1.4,0.5,2.1-0.2C65.4,292.4,66.8,291.1,68.2,289.8z"/>
	<path class="st19" d="M80.2,229.3c0,11.4-9.2,20.6-20.6,20.5c-11.3,0-20.7-9.4-20.5-20.7c0.2-11.2,9.4-20.5,20.6-20.5
		C71,208.7,80.2,217.9,80.2,229.3z"/>
	<path class="st21" d="M209.8,197.6c0.6-0.7,1.3-1.4,1.9-2.1c2.7-2.7,2.7-2.7-0.1-5.5c-1.1-1.1-2.2-2.3-3.3-3.5
		c12.1-9,25.5-14.9,40.4-17.3c5.7-0.9,11.5-1.6,17.3-1.4c12.6,0.4,24.7,2.8,36.3,8c6.4,2.9,12.2,6.5,18,10.3
		c-1.8,1.8-3.5,3.7-5.3,5.4c-1,0.9-1,1.6,0,2.4c1.2,1.1,2.3,2.4,3.5,3.6c-0.2,0.9-0.9,1.1-1.6,1.2c-6.9,1.5-13.8,3.4-20.8,4.8
		c-0.5,0.1-1,0.1-1.4-0.1c-5.3-3.8-11.3-5.5-17.6-6.6c-13.7-2.4-27.1-1.3-39.9,4.6c-1.2,0.6-2.4,1.2-3.5,2.1c-1,0.4-2.1,0.1-3.1-0.2
		c-6.2-1.4-12.3-2.9-18.4-4.3C211.4,198.8,210.3,198.8,209.8,197.6z"/>
	<path class="st22" d="M294.8,203.3c7.9-1.8,15.9-3.5,23.8-5.7c0.6,0.6,1.3,1.2,1.9,1.8c16.8,16.7,33.5,33.5,50.3,50.2
		c0.4,0.4,0.9,0.9,1.4,1.3c0,0.1,0,0.2,0,0.3c0.4,0.9-0.3,1.4-0.7,1.9c-9.9,9.6-21.2,17-35.1,18.8c-11.4,1.5-22.3-0.5-32.3-6.7
		c-4.7-2.9-3.4-3.2-7.6,1c-4.3,4.3-4.2,4.2-0.1,8.6c10.5,11.2,21.2,22.2,31.8,33.3c8.5,8.8,17.2,17.4,25.8,26.1
		c2.5,2.5,5.1,5.1,8,7.2c7.1,5.4,14.5,4.9,21-1.2c6.4-5.9,10.8-13.2,14.4-21c4.5-9.5,8-19.4,10.8-29.5c0.2-0.6,0.3-1.3,0.9-1.6
		c6.4,6.4,12.8,12.7,19.1,19.1c0.6,0.6,1.5,1,1.4,2.1c-0.1,1.1-1,1.6-1.6,2.3c-16.6,16.7-33.3,33.3-50,50c-0.8,0.8-1.4,1.8-2.7,1.9
		c-1.4-0.3-2.1-1.4-3-2.3c-32.9-32.9-65.8-65.8-98.7-98.7c-0.3-0.3-0.7-0.6-1-1c-1-1.3-1.8-1.4-2.9,0.1
		c-5.7,7.1-11.4,14.2-17.4,21.1c-4.5,5.2-8.7,10.9-14.1,15.3c-8,6.4-17.4,8.4-27.5,7.5c-6.4-0.6-12.6-2.2-18.6-4.4
		c-2.8-1.1-2.9-1.8-1-4.1c9.9-12.2,19.9-24.4,29.7-36.7c7.6-9.4,15.2-18.7,22.7-28.2c5.1-6.1,10.2-12.3,15.1-18.6
		c1.4-1.8,2.9-3.1,5.2-3.5c9.4-2.2,18.7-4.5,28.1-6.7C292.9,203,293.8,202.7,294.8,203.3z"/>
	<path class="st23" d="M409.1,288.2c-2.3,9.6-5.7,18.7-9.6,27.8c-3,6.9-6.4,13.6-11.2,19.4c-3.9,4.7-8,9.3-14.7,10.4
		c-4.5,0.7-8.2-0.9-11.6-3.4c-4.1-3-7.7-6.7-11.3-10.3c-6.7-6.7-13.4-13.3-20-20c-8.1-8.3-16.1-16.6-24.1-25c-4.7-5-9.3-10-14.1-15
		c-1.1-1.1-1.2-1.8,0-2.9c2.1-1.9,4.1-4,6.1-6.1c0.8-0.9,1.4-1.1,2.5-0.3c10.5,7.5,22.3,10,34.9,8.6c7.7-0.9,14.8-3.8,21.3-8.1
		c5.3-3.5,10.6-7.1,14.7-12.1c0.7,0.1,1.1,0.6,1.5,1.1c11.5,11.5,23,23,34.5,34.5C408.6,287.2,409,287.5,409.1,288.2z"/>
	<path class="st17" d="M375.4,363.3c0.6-0.6,1.3-1.1,1.9-1.8c16.8-16.8,33.6-33.6,50.3-50.4c0.6-0.6,1.3-1.2,1.9-1.8
		c1.6,0.3,2.3,1.7,3.3,2.6c2.4,2.3,2.4,2.4,4.9,0.3c-1,6-3.5,11.6-5.7,17.2c-6.3,16.1-15.2,30.7-25.8,44.3
		c-3.2,4.1-6.8,7.8-10.2,11.7c-0.6,0.7-1.2,1.7-2.3,0.8c-0.8-0.4-1-1.2-1.3-1.9c-1-3.3-3.1-5.9-5.4-8.4c-3.3-3.4-6.8-6.8-10.1-10.2
		C376.3,365.1,375.2,364.5,375.4,363.3z"/>
	<path class="st24" d="M375.4,363.3c3.5,4.3,7.7,8,11.6,11.9c3.2,3.2,5.6,6.7,6.7,11c1.9,12.1-4.5,21.9-15.9,24.2
		c-3.6,0.7-7.1,0.2-10.6-0.7c-0.8,0.6-1.3,0-2-0.3c-2.5-1.2-4.6-2.8-6.6-4.8c-4.1-4.1-8.2-8.3-12.4-12.4
		c-18.2-18.3-36.4-36.4-54.6-54.6c-0.3-0.3-0.6-0.6-0.9-0.8c-0.3-0.2-0.7-0.4-1.1,0c-0.3,0.4-0.2,0.7,0,1.1c0.4,0.5,0.9,1,1.3,1.4
		c18.1,18.1,36.2,36.2,54.3,54.3c5.5,5.6,11.1,11.1,16.6,16.6c0.7,0.7,1.7,1.3,1.8,2.4c1.8,1.8,3.4,3.8,5.3,5.4
		c6.3,5.6,9.3,12.5,8.7,20.9c-0.7,2.4-1.2,4.9-2.4,7.2c-5.1,9.9-16.9,14.4-27.5,10.4c-0.7-0.3-1.5-0.5-2.2-0.7
		c-2,0.1-3.2-1.2-4.4-2.5c-9.4-9.3-18.7-18.7-28-28c-6.5-6.6-13.1-13.1-19.6-19.6c-0.7-0.7-1.4-1.4-2.1-2.1
		c-8.6-8.6-17.2-17.2-25.7-25.7c-0.7-0.7-1.4-1.4-2.1-2.1c-1.8-1.8-3.6-3.6-5.4-5.4c-0.4-0.4-0.9-1.1-1.6-0.5
		c-0.7,0.6-0.2,1.3,0.3,1.8c1.8,1.8,3.6,3.6,5.4,5.4c0.7,0.7,1.4,1.4,2.1,2.1c8.6,8.6,17.2,17.2,25.7,25.7c0.7,0.7,1.4,1.4,2.1,2.1
		c6.7,6.7,13.4,13.5,20.2,20.2c6,6,12,12,18,18c3.2,3.2,4.5,7.1,5.1,11.4c0.1,0.7,0.1,1.5-0.5,2c-0.6,4.2-1.7,8.1-4.6,11.3
		c-6.3,6.9-16,8.1-23.8,3c-0.4-0.3-0.8-0.5-1.2-0.7c-1.1-0.2-1.7-1.1-2.5-1.8c-5.7-5.7-11.4-11.4-17.1-17.1
		c-6.7-6.7-13.4-13.4-20.1-20.1c-0.7-0.7-1.4-1.4-2.1-2.1c-8.4-8.4-16.8-16.8-25.3-25.3c-0.7-0.7-1.4-1.4-2.1-2.1
		c-1.7-1.8-3.5-3.5-5.3-5.2c-0.5-0.5-1.2-1.6-1.9-0.9c-0.9,0.8,0.3,1.4,0.8,1.9c1.7,1.7,3.4,3.4,5.1,5.1c0.7,0.7,1.4,1.4,2.1,2.1
		c8.6,8.6,17.2,17.2,25.7,25.7c0.7,0.7,1.4,1.4,2.1,2.1c6.6,6.6,13.2,13.3,19.9,19.8c3.2,3.1,6.3,6.3,7,11c0.4,3.2,0.5,6.5-1.9,9.1
		c-5.5,7.6-13.6,9.6-20.4,5c-1.9-1.3-3.4-3.1-5-4.7c-1.1-0.2-1.7-1.1-2.5-1.8c-5.9-5.9-11.8-11.8-17.7-17.7
		c-0.7-0.7-1.4-1.4-2.1-2.1c-8.6-8.6-17.2-17.2-25.7-25.7c-0.7-0.7-1.4-1.4-2.1-2.1c-10.7-10-20.8-20.6-31-31
		c-0.7-0.7-1.4-1.4-2.1-2.1c-9.4-9.4-18.8-18.8-28.3-28.2c-11.9-12-23.7-24-35.8-35.7c-5.7-5.5-11.3-11.1-16.9-16.6
		c-0.7-0.7-1.7-1.3-1.7-2.5c0.4-0.9,1.2-1.5,1.8-2.2c17.8-17.8,35.6-35.6,53.4-53.4c0.7-0.7,1.3-1.4,1.9-2.1
		c6.6-6.5,13.2-13,19.7-19.6c10.7-10.7,21.5-21.5,32.2-32.2c0.6-0.6,1.2-1.1,1.8-1.6c1.1,0,1.8,0.8,2.5,1.5
		c10.3,10.3,20.6,20.5,30.8,30.8c0.5,0.5,1.1,1,1.2,1.7c-1.9,3.4-4.7,6.2-7.1,9.2c-7.1,8.9-14.3,17.8-21.4,26.6
		c-8,9.8-16,19.6-24,29.4c-1.2,1.4-1.5,2.2,0.7,2.9c7.8,2.9,15.7,4.9,24,4.7c9.2-0.2,17.7-3,24.3-9.7c4.9-5,9.4-10.4,13.9-15.8
		c5.4-6.4,10.6-13,15.8-19.5c0.6-0.8,1.1-1.1,1.9-0.2c0.4,0.4,0.8,0.8,1.2,1.2c33.4,33.4,66.8,66.8,100.2,100.2
		C374,362,374.7,362.6,375.4,363.3z"/>
	<path class="st22" d="M183.4,394c3.6,3.2,6.9,6.6,10.2,10.1c4.5,4.8,9.1,9.4,13.9,13.9c2.5,2.3,5.1,4.6,7.2,7.3
		c0.1,1.1-0.8,1.7-1.5,2.3c-8.2,8.3-16.4,16.5-24.7,24.7c-1.7,1.6-3.4,3.3-6,3.6c-9.6,3.9-18.4,2.7-25.9-4.8
		c-4.7-4.8-6.2-10.8-5.9-17.3c0.6-5.2,2.7-9.6,6.3-13.3c3.8-3.9,7.7-7.9,11.5-11.8c2.8-3.6,6.3-6.6,9.5-9.8
		C179.7,397.1,181.1,395,183.4,394z"/>
	<path class="st22" d="M216.6,427.1c8.8,8.4,17.4,17,25.8,25.8c-0.1,1.1-1,1.6-1.6,2.3c-5.2,5.2-10.4,10.4-15.6,15.6
		c-0.8,0.8-1.5,1.9-2.9,1.8c-10,6.7-21.4,2.8-26.2-5.3c-1.2-2.1-1.8-4.4-2.5-6.6c-1.2-1.9-0.7-3.9-0.4-5.8c0.6-4,2.5-7.4,5.3-10.3
		c5.4-5.5,10.9-11,16.4-16.4C215.3,427.7,215.8,427.1,216.6,427.1z"/>
	<path class="st22" d="M244.2,454.8c3,2.3,5.5,5.3,8.2,7.9c4,4,8,8,11.9,12c-0.7,0.6-1.4,1.1-2,1.7c-7.7,7.7-16.3,7.3-23.3-1
		c-2.9-1.9-3-5.1-2.8-7.9c0.3-5.1,2.8-9.2,6.8-12.4C243.4,454.9,243.8,454.8,244.2,454.8z"/>
	<path class="st25" d="M335,458.6c-0.1-6.1-2.6-11-7-15.1c-5.6-5.2-10.9-10.8-16.3-16.1c0-1.2,0.6-2,1.8-2.1c2.3,2.3,4.7,4.5,7,6.8
		c7.4,7.3,14.7,14.5,22,21.9c0.9,0.9,2.1,1.2,3.1,2c0,0.5-0.4,0.9-0.8,1c-2.7,1-5.3,2-8,3C335.6,460.4,335,459.9,335,458.6z"/>
	<path class="st15" d="M216.6,427.1c-5.3,5.3-10.4,10.8-15.8,15.9c-5.2,4.9-7.9,10.5-7.2,17.6c-3.8-0.7-7.1-2.6-10.6-3.9
		c-0.2-0.1-0.3-0.5-0.4-0.8c3.1-1.8,5.8-4.2,8.3-6.7c7.9-8,15.9-16,23.9-23.9C215.3,425.9,215.9,426.5,216.6,427.1z"/>
	<path class="st26" d="M244.2,454.8c-3.4,3.2-6.4,6.5-7.1,11.4c-0.5,3.4,0.5,6.4,2.1,9.2c-5.3,0-10.4-1.2-15.5-2
		c-0.5-0.1-1.1-0.4-1.4-0.9c5.9-5.8,11.8-11.6,17.7-17.4c0.8-0.8,1.6-1.5,2.4-2.3C243,453.5,243.6,454.2,244.2,454.8z"/>
	<path class="st27" d="M286.1,452.9c6.4,6.4,12.9,12.8,19.3,19.2c-5.1,1.4-10.3,2.3-15.6,2.4c3-7,1.5-13.1-4.1-18.2
		c-0.6-0.5-1.3-1-1.5-1.8C284.5,453.5,285,452.8,286.1,452.9z"/>
	<path class="st17" d="M363.8,412.7c-6.4-6.1-12.7-12.3-18.7-18.8c0-1.1,0.6-1.7,1.6-1.9c4.7,3.9,8.6,8.4,13,12.6
		c2.2,2.2,4.8,3.8,7.6,5.1C366.8,411.6,365.1,411.9,363.8,412.7z"/>
	<path class="st28" d="M98.4,309.2c17.6,17.5,35.2,35,52.8,52.5c0.6,0.6,1.2,1.3,1.8,1.9c0,0.9-0.7,1.4-1.2,2
		c-4.3,4.4-8.8,8.7-13.1,13.2c-0.4,0.4-0.8,0.8-1.4,0.7c-4.8-4-8.4-9.1-12.2-14c-6.7-8.7-12.4-18.1-17.2-28c-4-8.3-7.4-16.9-10-25.8
		c-0.2-0.6-0.4-1-0.9-1.3C97.4,309.9,97.7,309.3,98.4,309.2z"/>
	<path class="st29" d="M243.9,232.2c-0.7-0.6-1.4-1.1-2-1.7c-10.2-10.2-20.4-20.4-30.7-30.6c-0.6-0.6-1.3-1.2-2-1.7
		c0.2-0.2,0.3-0.3,0.5-0.5c7.9,2.2,16,3.9,24,5.7c0.9-0.5,1.7-0.2,2.6,0c8.3,1.9,16.7,3.9,25,5.9c0.9,0.2,2,0.1,2.3,1.3
		c-3.8,0.7-5.1,4.3-7.2,6.8c-3.9,4.5-7.6,9.3-11.4,14C244.7,231.6,244.3,231.9,243.9,232.2z"/>
	<path class="st22" d="M137.3,379.5c5.2-5.3,10.5-10.6,15.7-15.9c0.7,0.6,1.4,1.1,2,1.7c8.3,8.3,16.6,16.6,24.9,24.9
		c0.6,0.6,1,1.2,1.6,1.8c-0.1,0.7-0.6,1.1-1,1.6c-4,4.1-8.1,8.1-12.1,12.1c-0.5,0.5-1.1,0.9-1.8,1.1c-5.6,3.8-11.6,5.1-18.2,3.1
		c-11.9-3.6-17.5-16.9-12.1-28C136.6,381.1,137.3,380.5,137.3,379.5z"/>
	<path class="st30" d="M166.5,406.8c5-4.9,10-9.9,14.9-14.8c0.6,0.6,1.3,1.3,1.9,1.9c-4.9,4.9-9.7,10-14.9,14.7
		C167.9,407.9,167.4,407.2,166.5,406.8z"/>
	<path class="st31" d="M263.6,210.5c-8-1.9-15.9-3.8-23.9-5.7c-2-0.5-3.9-1-5.9-1.5c0.1-1.3,1.3-1.5,2.2-1.9
		c10.9-5.2,22.5-6.9,34.4-6.1c7.9,0.6,15.5,2.7,22.6,6.3c0.8,0.4,1.7,0.6,1.8,1.7C284.4,205.7,274,208.1,263.6,210.5z"/>
	<path class="st19" d="M356.8,421.8c8.4,0,15.2,6.7,15.2,15c0,8.3-6.7,15.1-15,15.2c-8.2,0.1-15.1-6.7-15.2-15
		C341.8,428.5,348.5,421.8,356.8,421.8z"/>
	<path class="st19" d="M388.9,390c0,8.5-6.7,15.3-15.1,15.2c-8.2-0.1-14.8-6.8-15-15c-0.1-8.3,6.6-15.1,15-15.1
		C382.3,375.1,388.9,381.6,388.9,390z"/>
	<path class="st19" d="M328.9,456.6c0,7.4-5.7,13.1-13,13.1c-7.2,0-13-5.8-13-12.9c0-7.4,5.6-13.2,12.9-13.2
		C323.2,443.5,328.9,449.2,328.9,456.6z"/>
	<path class="st19" d="M266.4,466.4c0-5.6,4.5-10,10-10c5.5,0.1,10,4.6,10,10.1c0,5.5-4.4,10-10,10
		C270.6,476.6,266.3,472.2,266.4,466.4z"/>
	<path class="st22" d="M346.7,392c-0.5,0.6-1.1,1.3-1.6,1.9c-1.3-1.3-2.7-2.5-4-3.8c-16.9-16.9-33.8-33.8-50.7-50.7
		c-0.5-0.5-0.9-0.9-1.4-1.4c-0.8-0.7-0.3-1.2,0.2-1.8c0.6-0.6,1-0.8,1.8-0.1c1.8,1.9,3.7,3.7,5.6,5.6c16,16,32.1,32.1,48.1,48.1
		C345.4,390.6,346,391.3,346.7,392z"/>
	<path class="st22" d="M289.9,405.4c-8.7-8.5-17.3-17.1-25.8-25.8c0.2-1.1,0.9-1.7,2-2c8.6,8.6,17.2,17.2,25.8,25.8
		C291.6,404.5,291,405.2,289.9,405.4z"/>
	<path class="st22" d="M262.4,432.8c-8.6-8.6-17.2-17.2-25.7-25.7c0.2-1.1,0.7-1.7,1.9-1.7c2.8,2.7,5.7,5.4,8.4,8.2
		c5.7,5.8,11.7,11.3,17.1,17.4C264.1,432.1,263.5,432.6,262.4,432.8z"/>
	<path class="st22" d="M313.5,425.2c-0.6,0.7-1.2,1.4-1.8,2.1c-6.4-6.4-12.8-12.8-19.2-19.2c-0.3-0.3-0.5-0.6-0.7-1
		c0.1-1.2,0.7-1.8,1.9-1.8C300.5,411.8,307.2,418.4,313.5,425.2z"/>
	<path class="st22" d="M286.1,452.9c-0.6,0.5-1.2,1.1-1.9,1.6c-6.8-6.4-13.3-13-19.8-19.7c-0.1-1.2,0.6-1.7,1.6-1.9
		C272.9,439.4,279.6,446,286.1,452.9z"/>
	<path class="st32" d="M262.2,377.6c-2.3-1.7-4.1-4-6.2-5.9c-1-0.9-0.6-1.6,0.2-2.4c0.8-0.9,1.3-0.4,1.9,0.2c2,2.1,3.9,4.1,5.9,6.2
		C264.1,377,263.4,377.5,262.2,377.6z"/>
	<path class="st33" d="M234.7,405c-2.1-2-4.2-4.1-6.3-6.1c-0.6-0.6-0.8-1.1,0-1.7c0.6-0.6,1.2-1.1,2-0.2c2.1,2.2,4.2,4.3,6.3,6.5
		C236.4,404.4,235.9,405.1,234.7,405z"/>
	<path class="st34" d="M262.2,377.6c0.6-0.6,1.2-1.3,1.8-1.9c0.8,0.4,1.4,1.2,2,1.9c-0.5,0.8-1.2,1.5-2,2
		C263.5,378.9,262.9,378.3,262.2,377.6z"/>
	<path class="st35" d="M293.7,405.4c-0.6,0.6-1.3,1.2-1.9,1.8c-0.7-0.6-1.3-1.2-2-1.8c0.5-0.8,1.2-1.5,2-2
		C292.6,404,293.3,404.6,293.7,405.4z"/>
	<path class="st36" d="M266.1,432.8c-0.5,0.6-1.1,1.3-1.6,1.9c-0.9-0.4-1.5-1.1-2.1-1.9c0.6-0.6,1.1-1.3,1.7-1.9
		C264.9,431.4,265.5,432.1,266.1,432.8z"/>
	<path class="st37" d="M234.7,405c0.6-0.5,1.3-1.1,1.9-1.6c0.7,0.6,1.4,1.1,1.9,2c-0.6,0.6-1.3,1.1-1.9,1.7
		C235.9,406.5,235.1,405.9,234.7,405z"/>
</g>
</svg>
