<?xml version="1.0" encoding="utf-8"?>
<!-- Generator: Adobe Illustrator 20.1.0, SVG Export Plug-In . SVG Version: 6.00 Build 0)  -->
<svg version="1.1" id="Слой_1" xmlns="http://www.w3.org/2000/svg" xmlns:xlink="http://www.w3.org/1999/xlink" x="0px" y="0px"
	 viewBox="0 0 500 500" style="enable-background:new 0 0 500 500;" xml:space="preserve">
<style type="text/css">
	.st0{fill:#F1F1F1;}
	.st1{fill:#83DAFE;}
	.st2{fill:#4CDAC3;}
	.st3{fill:#FED05C;}
	.st4{fill:#FE7058;}
	.st5{fill:#ABB2B9;}
	.st6{fill:#CCD5DF;}
	.st7{fill:#40596B;}
	.st8{fill:#B7C9D7;}
	.st9{fill:#C1CFDB;}
	.st10{fill:#FEFEFE;}
	.st11{fill:#AEB4BB;}
	.st12{fill:#AEB5BC;}
	.st13{fill:#B2B8BF;}
	.st14{fill:#B1B7BE;}
	.st15{fill:#ADB4BB;}
	.st16{fill:#AFB5BC;}
	.st17{fill:#ACB3BA;}
</style>
<path class="st0" d="M-0.5,501.1c0-149.8,0-299.5,0-449.3C0.2,51.1,1,51,1.9,51c0.7,0,1.4,0,2.2,0c126.3,0,252.6,0,378.9,0
	c1.5,0,3.1-0.2,4.4,0.7c1.1,1.4,0.8,3.1,0.8,4.6c0,20.5,0,40.9,0,61.4c0,33.9,0,67.8,0,101.7c0,1.6,0.3,3.2-0.6,4.7
	c-1.2,1.1-2.7,0.9-4.1,0.9c-9.9,0-19.8,0-29.7,0c-3.4,0-3.5,0.1-3.5,3.5c0,7,0,14,0,21.1c0,2.8,0.2,3,3,3c2.5,0,4.9,0,7.4,0
	c1.1,0,2.3,0,3.2,0.7c0.3,0.3,0.5,0.7,0.5,1.1c0,6.8,0.6,13.7,0,20.5c-0.4,1.3-1.5,1.6-2.6,1.8c-12.6,3.1-24.5,7.7-35.5,14.7
	c-0.6,0.4-1.2,0.8-2,0.8c-1.1-0.2-1.7-1.1-2.5-1.8c-4.9-4.9-9.9-9.8-14.7-14.8c-1.3-1.3-2-1.2-3.3,0c-9.3,9.4-18.8,18.8-28.1,28.2
	c-1.9,1.9-1.9,2,0.1,4c4.7,4.8,9.5,9.5,14.2,14.3c0.9,0.9,1.9,1.8,1.7,3.3c-1.9,4.1-4.5,7.7-6.4,11.8c-6,12.6-9.8,25.8-11.1,39.7
	c-2.3,26.3,3.5,50.6,18.2,72.5c19.2,28.7,46.1,45.4,80.4,50.2c1.7,0.2,3.3,0.3,5,0.6c0.4,0.1,1,0.3,0.9,0.9c0,0.4-0.5,0.3-0.8,0.3
	c-125.1,0-250.2,0-375.4,0C1.5,501.3,0.5,501.5-0.5,501.1z"/>
<path class="st1" d="M387.3-0.5c0,17.4,0,34.8-0.1,52.2c-1.2,0-2.4,0.1-3.6,0.1c-128.1,0-256.1,0-384.2,0c0-16.7,0-33.4,0-50.2
	c0-1.8,0.4-2.2,2.2-2.2C130.2-0.5,258.8-0.5,387.3-0.5z"/>
<path class="st2" d="M410.3,275.5c11.7,2.6,22.9,6.6,33.2,12.7c30.9,18.3,49.8,45.2,55.9,80.6c8.2,47.2-15.7,95.6-57.8,118.4
	c-19,10.3-39.4,14.8-60.9,13.8c-0.6,0-1.3,0-1.9,0c-4.9-0.8-9.9-1.2-14.9-2.2c-20.7-4.3-38.8-13.6-54.3-27.9
	c-18.8-17.4-30.6-38.8-34.9-64c-4.9-28.5,0.3-55.3,15.5-80c0.4-0.6,0.7-1.2,1.1-1.9c0.3-1,0.6-1.9,1.2-2.8
	c8-11.6,17.8-21.2,29.3-29.3c0.6-0.5,1.3-1,2.2-0.9c5-2.8,9.9-5.8,15.1-8.2c7.9-3.6,16.2-6.3,24.7-8.2c0.8-0.9,1.9-1.1,3-1.3
	c13.5-2.5,27-2.4,40.5,0C408.5,274.3,409.6,274.6,410.3,275.5z"/>
<path class="st3" d="M66.5,183.3c-14.4,0-28.8,0-43.2,0c-2,0-2.7-0.3-2.7-2.6c0.1-27.6,0.1-55.2,0-82.8c0-1.9,0.4-2.6,2.5-2.6
	c29.1,0.1,58.2,0.1,87.3,0c2,0,2.4,0.6,2.4,2.4c-0.1,27.7-0.1,55.3,0,83c0,2.1-0.7,2.5-2.6,2.4C95.6,183.3,81,183.3,66.5,183.3z"/>
<path class="st4" d="M193,183.3c-14.5,0-28.9,0-43.4,0c-2,0-2.7-0.3-2.7-2.6c0.1-27.6,0.1-55.2,0-82.8c0-2.2,0.6-2.6,2.7-2.6
	c28.9,0.1,57.9,0.1,86.8,0c2,0,2.7,0.3,2.7,2.6c-0.1,27.6-0.1,55.2,0,82.8c0,2.2-0.6,2.6-2.7,2.6C221.9,183.3,207.5,183.3,193,183.3
	z"/>
<path class="st5" d="M320.6,183.3c-14.5,0-29,0-43.4,0c-2,0-2.8-0.4-2.8-2.6c0.1-27.6,0.1-55.2,0-82.8c0-2,0.5-2.6,2.5-2.6
	c29,0.1,58.1,0.1,87.1,0c2.2,0,2.6,0.7,2.6,2.7c-0.1,27.5-0.1,55,0,82.5c0,2.1-0.5,2.7-2.7,2.7C349.6,183.3,335.1,183.3,320.6,183.3
	z"/>
<path class="st3" d="M119.4,409.9c32,0,64,0,96-0.1c2.3,0,3,0.6,2.9,2.9c-0.2,6.2-0.1,12.5,0,18.7c0,2.2-0.6,2.8-2.8,2.8
	c-27.7-0.1-55.3,0-83,0c-36.3,0-72.6,0-108.9,0c-2.2,0-3-0.5-3-2.9c0.2-6.3,0.2-12.6,0-19c0-2.1,0.5-2.7,2.7-2.7
	C55.3,409.9,87.3,409.9,119.4,409.9z"/>
<path class="st4" d="M119.4,452.7c31.9,0,63.8,0,95.7-0.1c2.3,0,3.2,0.4,3.1,3c-0.2,6.3-0.1,12.6,0,19c0,1.8-0.3,2.5-2.4,2.5
	c-64.4-0.1-128.8-0.1-193.1,0c-1.7,0-2.2-0.4-2.2-2.1c0.1-6.6,0.1-13.1,0-19.7c0-2.1,0.6-2.6,2.7-2.6
	C55.3,452.7,87.3,452.7,119.4,452.7z"/>
<path class="st6" d="M218.3,290.4c0,19.8,0,39.7,0.1,59.5c0,2.3-0.6,3-2.9,2.9c-6.5-0.2-13-0.1-19.4,0c-1.7,0-2.2-0.6-2.2-2.2
	c0-40.3,0-80.6,0-120.9c0-1.7,0.5-2.2,2.2-2.2c6.6,0.1,13.1,0.1,19.7,0c2.1,0,2.7,0.6,2.7,2.7C218.3,250.2,218.3,270.3,218.3,290.4z
	"/>
<path class="st6" d="M174.2,299.5c0,16.8-0.1,33.6,0.1,50.4c0,2.5-0.7,3.1-3.1,3c-6.2-0.2-12.5-0.1-18.7,0c-1.8,0-2.3-0.6-2.3-2.3
	c0-34,0.1-67.9,0-101.9c0-2,0.7-2.4,2.5-2.4c6.4,0.1,12.8,0.1,19.2,0c1.9,0,2.4,0.6,2.4,2.5C174.2,265.6,174.2,282.5,174.2,299.5z"
	/>
<path class="st5" d="M387.3,224.1c11.6,0,23.2,0.1,34.8,0c2.1,0,2.7,0.6,2.7,2.7c-0.1,8-0.1,16,0,24c0,2.3-0.8,2.8-2.9,2.7
	c-3.8-0.1-7.7,0-11.5,0c-0.7,0.6-1.6,0.7-2.5,0.7c-14,0-27.9,0-41.9,0c-0.5,0-1,0-1.4-0.2c-0.3-0.1-0.6-0.3-0.8-0.5c-4,0-8-0.1-12,0
	c-1.8,0-2.5-0.4-2.5-2.4c0.1-8.2,0.1-16.5,0-24.7c0-1.8,0.5-2.3,2.3-2.3C363.5,224.1,375.4,224.1,387.3,224.1z"/>
<path class="st6" d="M63.3,312.7c0-13,0-25.9,0-38.9c0-2.1,0.5-2.8,2.7-2.7c6.4,0.1,12.8,0.1,19.2,0c1.9,0,2.7,0.5,2.7,2.6
	c-0.1,26,0,52,0,78c0,1.9-0.6,2.6-2.5,2.5c-6.5-0.1-13-0.1-19.4,0c-2,0-2.6-0.7-2.6-2.7C63.4,338.6,63.3,325.6,63.3,312.7z"/>
<path class="st7" d="M119.5,371.4c-32.1,0-64.1,0-96.2,0.1c-2.3,0-2.9-0.7-2.7-2.8c0.3-2.2-0.9-5.1,0.5-6.4c1.2-1.1,4.1-0.4,6.2-0.4
	c62.6,0,125.3,0,187.9-0.1c2.4,0,3.3,0.5,3,3c-0.3,2.1,0.9,4.9-0.5,6.2c-1.3,1.2-4,0.4-6,0.4C180.9,371.4,150.2,371.4,119.5,371.4z"
	/>
<path class="st6" d="M107,327.8c0-7.5,0.1-15,0-22.5c0-2.1,0.5-3,2.8-2.9c6.4,0.1,12.8,0.1,19.2,0c1.9,0,2.5,0.6,2.5,2.5
	c-0.1,15.3-0.1,30.5,0,45.8c0,1.7-0.6,2.2-2.2,2.2c-6.7-0.1-13.4-0.1-20.1,0c-1.7,0-2.2-0.6-2.2-2.2C107.1,343,107,335.4,107,327.8z
	"/>
<path class="st6" d="M324,291.9c-4.3,3.4-8.9,6.5-12.9,10.2c-7.4,6.9-14.1,14.4-19.7,22.9c-0.1-1.1-0.9-1.6-1.6-2.3
	c-5.1-5.1-10.1-10.2-15.3-15.3c-1.2-1.2-1.5-1.9-0.1-3.2c10-9.8,19.8-19.8,29.7-29.6c0.6-0.6,1.1-1.8,2.3-0.6
	C312.2,280,318.4,285.6,324,291.9z"/>
<path class="st6" d="M20.6,336.2c0-5.3,0.1-10.6,0-15.8c0-1.7,0.5-2.2,2.2-2.2c6.6,0.1,13.1,0.1,19.7,0c1.7,0,2.2,0.5,2.2,2.2
	c-0.1,10.6-0.1,21.1,0,31.7c0,1.7-0.5,2.2-2.2,2.2c-6.6-0.1-13.1-0.1-19.7,0c-1.7,0-2.2-0.5-2.2-2.2
	C20.7,346.8,20.6,341.5,20.6,336.2z"/>
<path class="st6" d="M363.8,253.4c0.2,0,0.3,0,0.5,0c0.2,0.2,0.4,0.5,0.5,0.8c0.5,1.6,0.3,3.2,0.3,4.8c0,4.7,0,4.7,4.6,4.7
	c12.6,0,25.2,0,37.9,0c1,0,1.9-0.1,2.8,0.4c0,3.8,0,7.7,0,11.5c-7.1-1.3-14.3-2.2-21.6-2.4c-8.4-0.1-16.7,0.8-25,2.3
	C363.8,268.1,363.8,260.8,363.8,253.4z"/>
<path class="st8" d="M410.3,264c-0.8,0.5-1.7,0.5-2.5,0.5c-13.6,0-27.1-0.1-40.7,0c-2.3,0-3-0.8-2.8-2.9c0.2-2.5,0-5.1,0.1-7.7
	c0.6-0.4,1.2-0.2,1.9-0.2c14.1,0,28.2,0,42.3,0c0.6,0,1.3-0.2,1.9,0.2C410.3,257.2,410.3,260.6,410.3,264z"/>
<path class="st9" d="M410.3,253.9c-15.3,0-30.7,0-46,0c0-0.2,0-0.3,0-0.5c15.4,0,30.7,0,46.1,0C410.4,253.6,410.3,253.7,410.3,253.9
	z"/>
<path class="st10" d="M474.7,387c0,48.7-39.6,88.2-88.5,87.9c-47.6-0.3-87.2-39.4-87.1-88c0.1-47.8,38.9-87.6,87.8-87.6
	C437.4,299.3,475.1,341.2,474.7,387z"/>
<path class="st4" d="M386.7,344.7c4.9,13.3,9.5,26.4,12.5,40.1c1.3,5.9-0.9,11.3-5.4,14c-4.6,2.8-10.9,2.4-15.1-1
	c-4-3.3-5-7.7-4-12.6c2.6-12.9,7-25.2,11-37.6C386,346.6,386.3,345.7,386.7,344.7z"/>
<path class="st11" d="M422.4,328.7c-0.7-0.4-1.8-0.5-1.2-1.8c1-2.1,2.1-4.3,3.2-6.4c0.5-0.9,1.1-1,2-0.6c1,0.5,0.6,1.1,0.3,1.8
	c-1,2-2,4-3,6C423.3,328.2,423.2,328.8,422.4,328.7z"/>
<path class="st11" d="M321.2,426.9c-1,0.2-1.1-0.4-1.3-0.8c-0.3-0.5-0.4-1.1,0.2-1.5c2.3-1.2,4.7-2.4,7-3.6c0.5-0.3,0.9,0,1.2,0.4
	c0.2,0.5,0.8,1.2,0.2,1.5C326,424.4,323.4,425.7,321.2,426.9z"/>
<path class="st11" d="M422.6,446c0.6,0.1,0.7,0.6,0.9,1c1,2,2,4,3,6c0.4,0.8,0.5,1.4-0.5,1.9c-1,0.5-1.4,0.1-1.8-0.7c-1-2-2-4-3-6
	C420.9,447.1,421.6,445.9,422.6,446z"/>
<path class="st11" d="M455.1,425.5c-0.4,0.6-0.4,2-1.9,1.2c-2.1-1.1-4.3-2.2-6.4-3.2c-0.7-0.4-0.9-0.8-0.5-1.5
	c0.3-0.6,0.6-1.2,1.4-0.8c2.4,1.1,4.7,2.3,7,3.5C455.1,424.8,455.2,425.1,455.1,425.5z"/>
<path class="st12" d="M344.4,334c-0.2,0.8-0.8,1.3-1.5,1.7c-0.7,0.5-1-0.2-1.3-0.6c-1.3-1.8-2.6-3.6-3.9-5.4c-0.4-0.5-0.4-1,0-1.5
	c0.3-0.3,0.7-0.4,1-0.1c1.8,1.8,3.6,3.6,5.4,5.4C344.3,333.6,344.3,333.8,344.4,334z"/>
<path class="st12" d="M328.9,337.3c0.4,0.2,0.8,0.4,1.1,0.6c1.6,1.1,3.2,2.3,4.8,3.4c0.9,0.6,1.4,1.2,0.3,2.3
	c-0.9,0.9-1.5,0.9-2.3,0c-1.4-1.5-2.9-2.9-4.4-4.4c-0.3-0.3-0.8-0.7-0.5-1.2C328.2,337.7,328.6,337.6,328.9,337.3z"/>
<path class="st13" d="M459.7,388.7c-1.1,0-2.2,0-3.3,0c-0.9,0-1.3-0.5-1.3-1.4c0-0.9,0.7-1,1.3-1c2.2,0,4.5,0,6.7,0
	c0.8,0,1.4,0.1,1.5,1.1c0,1.2-0.7,1.3-1.6,1.3C462,388.7,460.8,388.7,459.7,388.7C459.7,388.7,459.7,388.7,459.7,388.7z"/>
<path class="st14" d="M388.7,314.7c0,1.1,0,2.2,0,3.4c0,0.8-0.3,1.4-1.2,1.5c-1,0.1-1.2-0.6-1.2-1.4c0-2.2,0-4.5,0-6.7
	c0-0.8,0.1-1.4,1.1-1.4c1,0,1.2,0.5,1.2,1.3C388.7,312.5,388.7,313.6,388.7,314.7z"/>
<path class="st12" d="M452.9,409.5c2.2,0.8,4.5,1.7,6.9,2.7c0.7,0.3,0.5,0.9,0.2,1.5c-0.3,0.5-0.5,1-1.3,0.7c-2.3-0.9-4.6-1.7-7-2.6
	c-0.6-0.2-0.7-0.6-0.5-1.1C451.6,410.1,451.8,409.4,452.9,409.5z"/>
<path class="st14" d="M314.8,388.7c-1.2,0-2.4,0-3.6,0c-0.8,0-1.2-0.4-1.2-1.2c0-0.8,0.3-1.2,1.1-1.2c2.4,0,4.8,0,7.2,0
	c0.8,0,1.2,0.3,1.2,1.1c0,0.8-0.4,1.2-1.2,1.2C317.2,388.7,316,388.6,314.8,388.7C314.8,388.7,314.8,388.7,314.8,388.7z"/>
<path class="st15" d="M458.5,360.5c1.1-0.1,1.5,0.4,1.7,1c0.2,0.7-0.2,1.1-0.8,1.3c-2.1,0.8-4.2,1.6-6.2,2.4c-0.8,0.3-1.3,0-1.7-0.8
	c-0.5-1,0.1-1.3,0.9-1.6C454.5,362,456.6,361.2,458.5,360.5z"/>
<path class="st13" d="M386.3,460c0-1.2,0-2.4,0-3.6c0-0.7,0.2-1.3,1.1-1.3c0.8,0,1.3,0.4,1.3,1.1c0,2.5,0,4.9,0,7.4
	c0,0.7-0.4,1-1.1,1c-0.8,0-1.2-0.3-1.2-1.1C386.3,462.3,386.3,461.2,386.3,460C386.3,460,386.3,460,386.3,460z"/>
<path class="st15" d="M437.3,445.4c-0.2,1-0.6,1.8-1.4,1.1c-1.9-1.6-3.5-3.4-5.3-5.2c-0.7-0.7,0-1.2,0.4-1.6
	c0.4-0.4,0.9-1.4,1.5-0.7C434.3,441.1,435.8,443.3,437.3,445.4z"/>
<path class="st15" d="M446.7,436.4c-0.3,0.8-0.9,1.1-1.6,0.6c-2-1.3-3.9-2.8-5.8-4.2c-0.6-0.5-0.5-1,0-1.4c0.6-0.4,1-1.7,1.9-0.9
	c1.9,1.7,3.6,3.6,5.4,5.4C446.7,436,446.7,436.2,446.7,436.4z"/>
<path class="st15" d="M375.7,320.6c-0.9,0-1.1-0.6-1.3-1.2c-0.5-2.3-1-4.6-1.5-7c-0.1-0.4-0.6-1.2,0.3-1.3c0.7-0.1,1.5-0.1,1.7,0.8
	c0.6,2.5,1.2,5.1,1.7,7.6C376.9,320.3,376.4,320.6,375.7,320.6z"/>
<path class="st15" d="M397.9,319.7c0.6-2.8,1.1-5.1,1.6-7.4c0.2-0.9,0.7-1.4,1.7-1.2c1.3,0.2,0.6,1.1,0.5,1.7
	c-0.4,2.3-1,4.5-1.4,6.7c-0.2,0.8-0.6,1.2-1.5,1.2C397.8,320.5,397.9,319.9,397.9,319.7z"/>
<path class="st15" d="M312.1,401.8c-0.5,0.1-1,0.2-1.1-0.6c0-0.6-0.1-1.4,0.7-1.6c2.6-0.6,5.2-1.2,7.9-1.8c0.5-0.1,0.9,0.1,1,0.7
	c0.1,0.7-0.1,1.3-0.8,1.5C317.2,400.7,314.6,401.3,312.1,401.8z"/>
<path class="st12" d="M462.2,401.8c-2.2-0.5-4.7-1-7.1-1.6c-0.9-0.2-1.1-0.8-1-1.6c0.2-0.8,0.8-0.7,1.3-0.6c2.3,0.5,4.7,1,7,1.5
	c1,0.2,1.3,0.8,1.2,1.8C463.5,402.2,462.8,401.8,462.2,401.8z"/>
<path class="st15" d="M319.2,376.7c-2.5-0.6-4.8-1.1-7.1-1.6c-1-0.2-1.3-0.9-1.1-1.8c0.2-1.1,1-0.5,1.5-0.4c2.3,0.4,4.5,1,6.7,1.4
	c0.9,0.2,1.4,0.7,1.3,1.6C320.4,377,319.6,376.7,319.2,376.7z"/>
<path class="st12" d="M446.8,338.3c-0.4,0.4-0.7,0.8-1,1.2c-1.3,1.3-2.7,2.5-3.8,3.9c-1,1.2-1.7,0.9-2.6-0.1
	c-1.2-1.3,0.1-1.6,0.7-2.1c1.5-1.1,3.1-2.2,4.6-3.4c0.5-0.3,0.9-0.7,1.5-0.3C446.5,337.8,446.6,338.1,446.8,338.3z"/>
<path class="st12" d="M344.5,440.5c-0.2,0.4-0.3,0.6-0.4,0.8c-1.7,1.7-3.4,3.4-5,5c-0.4,0.4-0.8,0.6-1.2,0.1
	c-0.4-0.4-0.5-0.8-0.1-1.3c1.4-1.9,2.8-3.9,4.2-5.8c0.2-0.3,0.6-0.7,1-0.4C343.4,439.4,343.9,440,344.5,440.5z"/>
<path class="st12" d="M401.9,462.7c0,0.4,0.1,0.8-0.5,0.9c-0.5,0.1-1.3,0.2-1.5-0.4c-0.7-2.8-1.3-5.6-1.9-8.3
	c-0.1-0.4,0.3-0.7,0.8-0.7c0.7-0.1,1.3,0.1,1.5,0.9C400.8,457.6,401.3,460.1,401.9,462.7z"/>
<path class="st16" d="M363.2,323.7c-0.6,0-0.7-0.5-0.9-0.9c-0.8-2.2-1.6-4.3-2.4-6.5c-0.3-0.7-0.4-1.4,0.6-1.7
	c1-0.3,1.3,0.2,1.6,0.9c0.8,2.2,1.5,4.4,2.4,6.5C365,323.3,364.2,323.5,363.2,323.7z"/>
<path class="st12" d="M324.1,363.4c-0.2,0.6-0.4,1.5-1.5,1.1c-2.3-0.8-4.6-1.7-6.9-2.5c-0.8-0.3-0.9-0.9-0.6-1.5
	c0.2-0.5,0.5-0.8,1.1-0.6c2.5,0.9,5.1,1.8,7.6,2.7C324,362.7,324.2,362.9,324.1,363.4z"/>
<path class="st11" d="M414.8,316.5c-0.8,2.2-1.7,4.6-2.6,7.1c-0.3,0.7-0.8,0.6-1.4,0.4c-0.6-0.2-1-0.5-0.7-1.2
	c0.9-2.4,1.7-4.8,2.6-7.2c0.2-0.7,0.7-0.9,1.3-0.6C414.5,315.2,415.2,315.4,414.8,316.5z"/>
<path class="st12" d="M364.6,452c-0.9,2.5-1.9,5-2.8,7.5c-0.3,0.7-0.9,0.5-1.4,0.3c-0.8-0.2-0.8-0.6-0.6-1.3
	c0.9-2.4,1.7-4.8,2.6-7.2c0.2-0.5,0.6-0.7,1.1-0.5C364,451,364.6,451.1,364.6,452z"/>
<path class="st11" d="M323.5,411c0.1,0.8-0.3,1.1-0.9,1.3c-2.3,0.8-4.5,1.6-6.7,2.5c-0.7,0.3-1.1,0.1-1.3-0.5
	c-0.3-0.6-0.3-1.3,0.5-1.6c2.4-0.9,4.8-1.8,7.2-2.7C323.1,409.8,323.3,410.5,323.5,411z"/>
<path class="st12" d="M413.8,460.3c-0.7,0.1-1-0.3-1.2-0.9c-0.8-2.2-1.6-4.4-2.4-6.5c-0.3-0.7-0.3-1.2,0.5-1.6
	c0.8-0.3,1.3-0.1,1.6,0.8c0.8,2.3,1.6,4.5,2.4,6.7C415.1,459.8,414.6,460.1,413.8,460.3z"/>
<path class="st11" d="M455.6,376.7c-0.8,0.1-1.3,0.1-1.4-0.7c-0.1-0.6,0.1-1.2,0.7-1.3c2.6-0.6,5.2-1.2,7.9-1.8
	c0.5-0.1,0.9,0.2,0.9,0.8c0,0.6-0.2,1.1-0.8,1.3C460.3,375.6,457.9,376.2,455.6,376.7z"/>
<path class="st12" d="M455.2,349.4c0.1,0.7-0.4,0.8-0.8,1c-2.1,1-4.1,2.1-6.2,3.1c-0.7,0.3-1.5,0.6-1.9-0.2c-0.4-0.8,0.5-1,1-1.3
	c1.9-1.2,3.9-2.4,5.9-3.7C454.7,347.2,454.7,348.6,455.2,349.4z"/>
<path class="st11" d="M375.4,454.1c1.3-0.1,1.5,0.6,1.3,1.4c-0.5,2.3-1,4.6-1.6,7c-0.2,0.8-0.6,1.3-1.5,1.1
	c-0.9-0.2-0.8-0.9-0.7-1.5c0.5-2.2,1-4.5,1.5-6.7C374.6,454.8,374.9,454.1,375.4,454.1z"/>
<path class="st12" d="M353.7,447.8c-1.1,2.1-2.3,4.7-3.6,7.1c-0.4,0.8-1.1,0.1-1.7-0.1c-0.7-0.3-0.7-0.8-0.3-1.3
	c1.4-2.2,2.8-4.5,4.2-6.7c0.2-0.3,0.5-0.7,0.9-0.5C353.7,446.4,353.8,446.9,353.7,447.8z"/>
<path class="st17" d="M328.9,437.5c-0.2-0.2-0.5-0.4-0.7-0.6c-0.4-0.4-0.1-0.7,0.2-1c1.6-1.6,3.3-3.3,4.9-4.9c1-1,1.5,0.1,2.1,0.6
	c0.7,0.6,0.4,1-0.2,1.5c-1.9,1.3-3.7,2.7-5.6,4C329.4,437.3,329.2,437.3,328.9,437.5z"/>
<path class="st17" d="M437.5,328.9c-0.3,0.4-0.5,0.7-0.7,1c-1.2,1.6-2.3,3.2-3.5,4.9c-0.5,0.7-0.9,1.6-2,0.5
	c-0.8-0.8-1.2-1.4-0.2-2.3c1.5-1.4,2.9-2.9,4.4-4.4c0.3-0.3,0.6-0.8,1.2-0.4C437.1,328.4,437.3,328.6,437.5,328.9z"/>
<path class="st15" d="M321.2,348c1.3,0.8,2.9,1.7,4.4,2.8c1,0.7,3.3,1.3,2.7,2.4c-0.9,1.6-2.4-0.3-3.6-0.8c-1.5-0.5-2.9-1.4-4.3-2.1
	c-0.5-0.3-0.9-0.7-0.6-1.3C320,348.4,320.2,347.9,321.2,348z"/>
<path class="st15" d="M352.6,328.6c-0.1-0.1-0.2-0.4-0.4-0.7c-1.3-2.1-2.7-4.3-4-6.4c-0.4-0.6-0.3-1.2,0.4-1.6
	c0.7-0.4,1.2-0.3,1.6,0.4c1.2,2.3,2.3,4.5,3.4,6.8C353.9,327.7,353.7,328.3,352.6,328.6z"/>
<path class="st10" d="M393.1,388.1c0,3.6-2.8,6.3-6.4,6.2c-3.6-0.1-6.2-2.9-6.2-6.5c0.1-3.4,2.9-6.2,6.3-6.2
	C390.5,381.7,393.2,384.5,393.1,388.1z"/>
</svg>
