<?xml version="1.0" encoding="utf-8"?>
<!-- Generator: Adobe Illustrator 20.1.0, SVG Export Plug-In . SVG Version: 6.00 Build 0)  -->
<svg version="1.1" id="Слой_1" xmlns="http://www.w3.org/2000/svg" xmlns:xlink="http://www.w3.org/1999/xlink" x="0px" y="0px"
	 viewBox="0 0 500 500" style="enable-background:new 0 0 500 500;" xml:space="preserve">
<style type="text/css">
	.st0{fill:#FE6F58;}
	.st1{fill:#83DAFE;}
	.st2{fill:#FEB8AC;}
	.st3{fill:#D0F0FE;}
	.st4{fill:#CBEFFE;}
	.st5{fill:#A1E3FE;}
	.st6{fill:#FE9482;}
	.st7{fill:#FE9583;}
	.st8{fill:#40596B;}
	.st9{fill:#F1F1F1;}
	.st10{fill:#F7B54C;}
	.st11{fill:#FED05C;}
</style>
<g>
	<path class="st0" d="M0.5,235.6c0-0.5,0-1,0-1.4c0.6-3.8,0.6-7.6,0.7-11.4c0.2-9,2-17.8,3.8-26.5c3.6-17.2,9.1-33.8,16.3-49.8
		c8.7-19.4,19.9-37.4,33.1-54c8-10,16.9-19.2,26.2-28c13.3-12.5,28.1-23.2,44.1-32c2.9-1.6,5.9-3.2,8.9-4.7c2.7-1.3,3.6-1,4.9,1.7
		c10.7,21.6,21.8,42.9,32.5,64.4c3.2,6.5,6.6,13,9.9,19.4c1.6,3.2,1.3,4.1-1.9,5.9c-4,2.1-7.8,4.5-11.5,7
		c-9.6,6.4-18.5,13.8-26.3,22.3c-18.4,20.1-30.8,43.4-36.7,70.1c-3,13.5-3.8,27.1-3.1,40.7c0.9,17.5,5.2,34.2,12.3,50.3
		c5.2,11.9,11.9,22.8,20,32.9c11.1,13.8,24.3,25.3,39.5,34.5c14.9,8.9,30.8,15.2,47.8,18.6c8.6,1.7,17.3,2.5,26.2,2.8
		c17.7,0.4,34.9-2.1,51.6-7.8c18.3-6.2,34.8-15.7,49.4-28.3c2.1-1.8,4.1-3.8,6.1-5.7c0.9-0.8,1.8-1.7,3.2-1.1c1.5,1,2.8,2.3,4.1,3.6
		c6.8,6.8,13.8,13.5,20.5,20.6c10.6,11.3,22,21.9,32.7,33.2c4,4.2,8,8.3,12,12.4c0.8,0.8,1.6,1.6,1.7,2.8c-0.1,1.4-1.2,2.2-2.1,3.1
		c-12.8,12.6-26.9,23.6-42.1,33.2c-12.7,8-26,14.8-39.9,20.4c-19.1,7.6-38.8,12.9-59.2,15.7c-5.4,0.7-10.8,0.9-16.2,1.1
		c-9.6,0.5-19.2,0.3-28.8,0.3c-22.3,0.1-44-3.8-65.2-10.6c-14.7-4.7-28.9-10.5-42.4-17.8c-14.7-7.9-28.5-17.1-41.3-27.7
		c-8.8-7.3-17-15.3-24.8-23.6c-10.8-11.5-20.3-24.1-28.7-37.4c-11.4-18.1-20.3-37.3-26.8-57.7c-4.5-14.1-7.9-28.5-9.6-43.2
		c-0.7-6.1-0.9-12.4-0.9-18.6c0-1.3,0-2.6,0-3.9c-0.1-1.2,0.3-2.4-0.2-3.5c0-5.3,0-10.6,0-15.8c0.5-1.1,0.1-2.2,0.2-3.3
		C0.6,237.6,1,236.6,0.5,235.6z"/>
	<path class="st1" d="M319.6,116.5c-7-3-13.8-6.2-21-8.7c-16.8-5.7-33.9-8.5-51.6-7.9c-21.6,0.7-42.2,5.8-61.5,15.8
		c-1.8,1-2.3,0.2-3-1.2c-7.1-14.1-14.3-28.3-21.4-42.4C154,58.1,146.9,44,139.7,30c-1-1.9-0.6-2.6,1.2-3.6
		c23.6-12,48.5-20.3,74.7-24.3c6.8-1.1,13.6-1.8,20.5-2.2c1.2-0.3,2.5-0.1,3.7-0.2c1.2-0.1,2.4,0.3,3.6-0.2c5,0,9.9,0,14.9,0
		c1.2,0.5,2.4,0.1,3.6,0.2c1.2,0.1,2.5-0.2,3.7,0.2c30.3,1.9,59.1,9.5,86.8,21.9c4,1.8,8,3.7,11.9,5.5c0.9,0.9,0.6,1.9,0.2,2.8
		c-4.7,9.3-9.2,18.8-14.1,28c-3.6,6.7-6.9,13.5-10.2,20.3c-5.8,11.9-12.1,23.6-18,35.5C321.5,115.1,321.1,116.3,319.6,116.5z"/>
	<path class="st2" d="M0.9,265.4l-0.2,0l-0.2,0c0-1.4,0-2.9,0-4.3c0.2-0.3,0.3-0.3,0.4,0C0.9,262.5,0.9,264,0.9,265.4z"/>
	<path class="st3" d="M239.9-0.1c-1.3,0-2.6,0-3.8,0c0-0.1,0-0.3,0-0.4c1.3,0,2.6,0,3.8,0C240.3-0.3,240.3-0.2,239.9-0.1z"/>
	<path class="st4" d="M265.5-0.1c-1.3,0-2.6,0-3.8,0c-0.4-0.1-0.4-0.3,0-0.4c1.3,0,2.6,0,3.8,0C265.4-0.4,265.5-0.2,265.5-0.1z"/>
	<path class="st5" d="M239.9-0.1c0-0.1,0-0.3,0.1-0.4c1.1,0,2.2,0,3.4,0C242.3,0.2,241.1-0.1,239.9-0.1z"/>
	<path class="st5" d="M261.6-0.5c0,0.2,0,0.3,0,0.4c-1.1,0-2.3,0.3-3.4-0.4C259.4-0.5,260.5-0.5,261.6-0.5z"/>
	<path class="st6" d="M0.9,238.5c0,1.1,0.3,2.3-0.4,3.4c0-1.1,0-2.2,0-3.4C0.6,238.2,0.7,238.2,0.9,238.5z"/>
	<path class="st7" d="M0.9,261.1c-0.1,0-0.3,0-0.4,0c0-1.1,0-2.2,0-3.4C1.2,258.8,0.9,260,0.9,261.1z"/>
	<path class="st2" d="M0.9,238.5c-0.1,0-0.3,0-0.4,0c0-1,0-1.9,0-2.9C1.3,236.5,0.8,237.5,0.9,238.5z"/>
	<path class="st8" d="M357.7,356.1c23.1-23.8,37.2-52.1,41.7-85c1.8-12.9,2.2-25.9,0.4-38.9c-0.2-1.6-0.6-3.1-1-4.7
		c0.6-1.2,1.7-1.5,2.9-1.7c9.6-1.6,19.2-3.1,28.9-4.6c11.8-1.9,23.5-3.7,35.3-5.6c9.4-1.5,18.8-2.9,28.2-4.4
		c1.3-0.2,2.9-0.7,4.1,0.5c3.1,18.2,3.7,36.6,2.8,55c-2.5,50.6-19.6,96-50.6,136.1c-6.8,8.9-14.1,17.3-22.3,25
		c-15-15.2-30-30.4-45-45.6c-7.5-7.6-15.1-15.2-22.6-22.9C359.6,358.3,358.7,357.2,357.7,356.1z"/>
	<path class="st9" d="M498.2,211.7c-23.4,3.7-46.9,7.3-70.3,11c-9.1,1.4-18.2,2.9-27.4,4.3c-0.5,0.1-1.1,0.3-1.6,0.4
		c-1.7-9.6-3.9-19.1-7.3-28.3c-6-16.3-14.5-31.3-25.6-44.7c-11.1-13.4-24.1-24.6-39-33.6c-2.5-1.5-4.9-2.9-7.4-4.4
		c4.8-9.5,9.5-19,14.3-28.5c9.8-19.5,19.7-38.9,29.5-58.4c0.4-0.7,0.8-1.4,0.7-2.2c10.5,5.5,20.9,11.4,30.7,18.2
		c10.2,7.1,20,14.8,29.2,23.3c13.9,12.9,26,27.3,36.4,43.1c10.2,15.6,18.4,32.2,24.8,49.7C491.2,177.9,495.4,194.6,498.2,211.7z"/>
	<path class="st10" d="M250.6,119.6c73.2,0.2,131.6,60.1,130.6,132.7c-1,69.6-57.3,128.8-130.9,128.7
		c-72.3-0.1-130.4-58.3-130.4-130.6C119.8,177.2,178.8,119.6,250.6,119.6z"/>
	<path class="st11" d="M250.5,153.1c52.1-0.3,97.1,41.5,97.3,97.1c0.2,53.3-43,98.1-99,97.3c-51.7-0.7-96.4-43-95.5-99
		C154.1,195.8,196.9,152.9,250.5,153.1z"/>
	<path class="st10" d="M248.7,330.7c-3.6,0-7.2,0-10.8,0c-1.6,0-2.3-0.6-2.3-2.3c0.1-4.6-0.1-9.1,0.1-13.7c0.1-2.3-0.9-3-3-3.3
		c-8.6-1.3-16.5-4.2-23.4-9.7c-1.2-0.9-1.6-1.8-1.1-3.3c2.7-7.4,5.4-14.7,8-22.1c0.7-1.8,1.5-1.9,3-0.9c5.3,3.3,10.3,7,16.5,8.6
		c5.5,1.4,11,2.3,16.6,0.9c4-1,7.3-3.2,8.2-7.5c1-4.8-0.8-8.5-5-11.3c-5.2-3.5-11.1-5.6-16.8-8.1c-8.3-3.6-16.1-7.9-21.6-15.4
		c-8-10.8-8.3-22.6-3.1-34.5c4.1-9.4,11.7-15.2,21.1-18.7c1.9-0.7,2.6-1.6,2.6-3.6c-0.1-4.7,0-9.4,0-14.2c0-3.2,0.2-3.3,3.2-3.3
		c6.8,0,13.6,0.1,20.4,0c2.3,0,2.9,0.8,2.8,2.9c-0.1,4.2,0,8.3-0.1,12.5c0,1.8,0.5,2.7,2.5,3c7.1,1.2,13.7,3.7,20,7.2
		c2.1,1.2,2.7,2.4,1.8,4.8c-2.7,7-5.2,14.1-7.7,21.2c-0.6,1.6-1.1,2-2.7,1c-2.8-1.8-5.6-3.4-8.5-4.9c-6.2-3.2-12.7-4.2-19.5-3.1
		c-5.5,0.9-8.3,4.7-7.3,10.1c0.5,2.6,2.6,4,4.5,5.3c2.8,2,6,3.3,9.2,4.5c8.2,3.1,16,6.9,22.7,12.7c7,6,11,13.7,11.4,22.9
		c0.4,7.8-0.4,15.5-3.9,22.7c-4.5,9.1-11.9,15.1-21.4,18.5c-2.3,0.8-3.2,1.8-3.1,4.3c0.2,4.5,0.1,9,0.1,13.4c0,3.1,0,3.1-3.3,3.1
		C255.5,330.7,252.1,330.7,248.7,330.7z"/>
</g>
</svg>
