<?xml version="1.0" encoding="utf-8"?>
<!-- Generator: Adobe Illustrator 20.1.0, SVG Export Plug-In . SVG Version: 6.00 Build 0)  -->
<svg version="1.1" id="Слой_1" xmlns="http://www.w3.org/2000/svg" xmlns:xlink="http://www.w3.org/1999/xlink" x="0px" y="0px"
	 viewBox="0 0 512 514" style="enable-background:new 0 0 512 514;" xml:space="preserve">
<style type="text/css">
	.st0{fill:#83DAFE;}
	.st1{fill:#4CDAC3;}
	.st2{fill:#FE7058;}
	.st3{fill:#54BFEA;}
	.st4{fill:#FEFEFE;}
</style>
<g>
	<path class="st0" d="M221,6.5c1.1,5.2,3.3,10,4.9,15c1.5,4.6,3.1,9.1,4.7,13.6c0.4,1.1,0.9,1.8,2,2.1c11.8,2.7,22.7,7.6,33.3,13.2
		c1.4,0.7,2.5,0.7,3.8,0.1c8.1-3.5,16.2-6.8,24.2-10.5c2.5-1.2,4-0.5,5.6,1.1c4.9,4.9,9.8,9.7,14.7,14.5
		c7.7,7.6,15.4,15.1,23.1,22.7c3.5,3.4,3.6,3.4,1.6,8c-3.1,7.3-6.3,14.7-9.5,22c-0.8,1.7-0.9,3.1,0.1,4.9
		c5.5,10.2,9.9,20.9,12.9,32.2c0.4,1.5,1.2,2.4,2.7,2.9c9.2,3.3,18.4,6.8,27.7,10.1c1.4,0.5,1.8,1.3,1.8,2.6c0,19.2,0,38.4,0,57.6
		c0,1.5-0.5,2.2-1.9,2.8c-8.9,3.3-17.8,6.8-26.7,10.1c-1.4,0.5-2,1.2-2.4,2.6c-2.9,11.7-7.5,22.7-13.4,33.2c-0.6,1.1-0.6,2-0.1,3.1
		c3.7,8.6,7.3,17.2,11.1,25.7c0.6,1.4,0.6,2.2-0.5,3.3c-13.8,13.4-27.6,26.9-41.4,40.4c-1,1-1.8,1-2.9,0.5
		c-8.3-3.6-16.6-7.1-24.8-10.8c-1.9-0.9-3.5-0.9-5.3,0.2c-10,5.4-20.5,9.7-31.5,12.6c-2,0.5-2.8,1.5-3.5,3.3
		c-3.1,8.5-6.4,16.9-9.5,25.3c-0.7,1.9-1.6,2.3-3.5,2.3c-18.6-0.1-37.1-0.1-55.7,0c-1.9,0-2.8-0.5-3.5-2.4
		c-3.1-8.6-6.4-17.2-9.7-25.8c-0.5-1.2-1-2.2-2.5-2.6c-11.5-2.8-22.3-7.4-32.6-13c-1.5-0.8-2.7-1-4.4-0.3
		c-8.3,3.7-16.7,7.1-25.1,10.8c-1.4,0.6-2.3,0.5-3.3-0.5c-5.3-5.2-10.6-10.4-15.9-15.6c-7.7-7.6-15.4-15.1-23.1-22.7
		c-3.5-3.4-3.5-3.4-1.6-8c3.1-7.3,6.2-14.5,9.4-21.8c0.9-1.9,0.9-3.4-0.1-5.4c-5.5-10.3-9.9-21.1-12.9-32.4c-0.2-0.9-0.6-1.6-1.5-2
		c-9.5-3.6-19-7.2-28.5-10.7c-0.2-0.1-0.5,0-0.7,0c0-20.8,0-41.6,0-62.4c3.5-2.1,7.5-3.1,11.3-4.6c5.4-2.1,10.9-4.2,16.4-6.2
		c1.4-0.5,2.3-1.3,2.6-2.8c2.6-10.9,7-21.1,12.3-30.9c1.2-2.3,1.2-4.2,0.2-6.5c-3.5-7.8-6.7-15.7-10.2-23.6
		c-0.8-1.8-0.5-3.1,0.9-4.5c13.2-13.2,26.4-26.3,39.5-39.5c1.5-1.5,2.9-1.6,4.7-0.8c8,3.6,16.2,6.9,24.2,10.5
		c1.7,0.7,3.1,0.8,4.8-0.1c10.2-5.4,20.9-9.7,32-12.7c1.5-0.4,2.2-1.5,2.7-2.8c3.3-8.4,6.4-16.9,9.7-25.3c0.3-0.7,0.5-1.5,1.1-2.1
		C179.4,6.5,200.2,6.5,221,6.5z"/>
	<path class="st1" d="M242.7,491.3c1.4-5.3-1-8.9-5.1-12.1c-2.4-1.9-4.4-4.2-6.4-6.4c-0.8-0.9-1.7-1.3-2.9-1.2
		c-3.6,0.1-7.2,0-10.8,0.1c-1.4,0-2.1-0.3-2.7-1.7c-3-7.7-6.1-15.3-9.1-22.9c-0.5-1.1-0.3-1.9,0.6-2.7c2.7-2.5,5.2-5.2,7.8-7.8
		c0.9-0.9,1.4-1.8,1.2-3.1c-0.7-4.8-0.8-9.7,0-14.6c0.2-1.3-0.3-2.1-1.1-2.9c-2.6-2.6-5.2-5.2-7.8-7.8c-0.9-0.9-1.2-1.6-0.7-2.9
		c3.1-7.6,6.2-15.3,9.2-22.9c0.5-1.3,1.2-1.8,2.7-1.8c3.7,0.1,7.4,0,11,0c1,0,1.8-0.1,2.6-0.9c3.6-3.7,6.8-7.8,10.9-11.1
		c0.8-0.6,0.6-1.4,0.6-2.2c0-3.7,0.1-7.4,0-11c0-1.4,0.5-2.1,1.8-2.7c7.7-3,15.3-6.1,22.9-9.2c1.1-0.5,1.8-0.4,2.7,0.5
		c2.7,2.8,5.4,5.4,8.1,8.2c0.8,0.8,1.5,1.1,2.7,0.9c4.9-0.8,9.9-0.8,14.8,0c1.2,0.2,1.9-0.2,2.7-1c2.6-2.7,5.3-5.3,7.9-8
		c0.9-0.9,1.6-1.2,2.9-0.7c7.6,3.1,15.3,6.2,22.9,9.2c1.3,0.5,1.8,1.2,1.8,2.7c-0.1,3.4,0.1,6.9-0.1,10.3c-0.1,1.9,0.6,3.1,1.9,4.3
		c3.5,3.1,7,6.1,9.9,9.7c0.7,0.8,1.5,0.8,2.4,0.8c3.6,0,7.2,0.1,10.8,0c1.7-0.1,2.4,0.6,3,2.1c2.9,7.4,5.9,14.9,8.9,22.2
		c0.6,1.4,0.5,2.4-0.7,3.5c-2.6,2.4-5,5-7.5,7.4c-1.1,1.1-1.5,2.1-1.2,3.6c0.7,4.5,0.7,8.9,0,13.4c-0.3,1.7,0.2,2.9,1.4,4
		c2.6,2.4,5,5,7.5,7.4c0.9,0.9,1.2,1.6,0.7,2.9c-3.1,7.6-6.2,15.3-9.2,22.9c-0.5,1.3-1.1,1.7-2.5,1.6c-3.7-0.1-7.4,0-11-0.1
		c-1.2,0-2.1,0.3-2.9,1.2c-3.5,3.6-6.7,7.5-10.6,10.7c-0.8,0.7-0.8,1.5-0.8,2.4c0,3.7,0,7.4,0,11c0,1.3-0.3,2-1.6,2.5
		c-7.7,3-15.3,6-22.9,9.1c-1.3,0.5-2.2,0.4-3.2-0.6c-2.5-2.7-5.2-5.2-7.8-7.8c-0.9-1-1.9-1.3-3.2-1.1c-4.7,0.7-9.4,0.7-14.1,0
		c-1.2-0.2-2.1,0.1-3,1c-2.6,2.7-5.3,5.3-7.9,8c-0.9,1-1.7,1.1-3,0.6c-7.7-3.1-15.4-6.2-23.1-9.2c-1.2-0.5-1.5-1.1-1.5-2.3
		C242.8,495.1,242.7,493.2,242.7,491.3z"/>
	<path class="st2" d="M361.1,243.7c4.4,1.4,8-1.1,11-5.2c1.5-2,3.4-3.9,5.4-5.4c1.8-1.4,2.2-2.8,2.1-4.9c-0.1-3.2,0-6.4-0.1-9.6
		c0-1.4,0.4-2.2,1.7-2.7c7.7-3,15.3-6,22.9-9.1c1.2-0.5,2-0.3,2.9,0.6c2.5,2.7,5.2,5.2,7.8,7.8c0.9,1,1.9,1.3,3.2,1.1
		c4.7-0.7,9.4-0.7,14.1,0c1.5,0.2,2.5-0.3,3.6-1.4c2.4-2.5,5-5,7.4-7.5c0.9-1,1.7-1.3,3.1-0.7c7.5,3.1,15.1,6.1,22.7,9.1
		c1.3,0.5,1.8,1.2,1.8,2.6c-0.1,3.8,0,7.5-0.1,11.3c0,1.1,0.3,2,1.2,2.7c3.6,3.2,7.3,6.5,10.5,10.2c0.8,0.9,1.6,1.1,2.7,1.1
		c3.7,0,7.4,0,11,0c1.3,0,2,0.4,2.5,1.6c3,7.7,6,15.3,9.2,22.9c0.5,1.3,0.3,2.2-0.7,3.1c-2.7,2.5-5.2,5.2-7.8,7.8
		c-1,0.9-1.3,1.9-1.1,3.2c0.7,4.6,0.7,9.2,0,13.8c-0.2,1.4,0.1,2.4,1.2,3.4c2.6,2.5,5.1,5.1,7.7,7.6c1,0.9,1.3,1.8,0.7,3.1
		c-3.1,7.7-6.2,15.4-9.2,23.1c-0.5,1.2-1.1,1.5-2.3,1.5c-3.8-0.1-7.5,0-11.3,0c-1,0-1.8,0.2-2.6,1c-3.6,3.7-6.9,7.8-11,11.1
		c-0.8,0.6-0.6,1.4-0.6,2.2c0,3.7-0.1,7.4,0,11c0,1.4-0.4,2.1-1.7,2.6c-7.6,3-15.2,6-22.7,9.1c-1.3,0.6-2.1,0.4-3.1-0.7
		c-2.5-2.6-5.1-5.1-7.6-7.7c-1-1-2-1.5-3.4-1.2c-4.7,0.7-9.4,0.7-14.1,0c-1.3-0.2-2.2,0.2-3.2,1.2c-2.5,2.7-5.2,5.2-7.8,7.8
		c-0.9,1-1.7,1.1-2.9,0.6c-7.6-3.1-15.3-6.2-22.9-9.2c-1.4-0.5-1.8-1.3-1.7-2.7c0.1-3.7,0-7.4,0-11c0-1.1-0.3-2-1.1-2.8
		c-3.7-3.5-7.7-6.7-10.9-10.8c-0.6-0.8-1.4-0.6-2.2-0.6c-3.8,0-7.5-0.1-11.3,0c-1.2,0-1.8-0.4-2.3-1.6c-3.1-7.8-6.2-15.6-9.4-23.3
		c-0.5-1.1-0.1-1.7,0.6-2.5c2.7-2.7,5.4-5.4,8.2-8.1c0.8-0.8,1.2-1.5,1-2.7c-0.8-4.8-0.8-9.7,0-14.6c0.2-1.4-0.2-2.2-1.1-3.1
		c-2.6-2.6-5.2-5.2-7.8-7.8c-0.9-0.9-1.2-1.6-0.7-2.9c3.1-7.6,6.2-15.3,9.2-22.9c0.5-1.3,1.2-1.9,2.7-1.8
		C356.3,243.8,358.2,243.7,361.1,243.7z"/>
	<path class="st3" d="M189.8,302.6c-62.7,0.6-114.3-51-112.8-116.3c1.3-58.6,50-111,116.4-109.3c59.7,1.5,110.6,50.7,109.3,116.3
		C301.5,252.2,252.7,303.2,189.8,302.6z"/>
	<path class="st4" d="M289.8,391.8c18.5,0,34,15.5,34,33.9c0,18.1-15.8,34-33.9,33.8c-18.4-0.2-34.3-15.9-33.9-34.5
		C256.3,407.1,271.7,391.8,289.8,391.8z"/>
	<path class="st4" d="M425.6,255.9c18.4,0,34.2,15.5,34,33.6c-0.2,17.4-12.6,34.1-33.2,34.1c-19.9,0-34.8-16.6-34.5-34.1
		C392.1,271.4,407.4,255.9,425.6,255.9z"/>
	<path class="st4" d="M264.3,189.8c0.6,40.7-34,75.3-75.8,74.7c-39.9-0.6-73.1-33.9-73.2-74.5c0-41.2,33.6-74.7,74.7-74.7
		C231.8,115.3,265,150.3,264.3,189.8z"/>
</g>
</svg>
