<?xml version="1.0" encoding="utf-8"?>
<!-- Generator: Adobe Illustrator 20.1.0, SVG Export Plug-In . SVG Version: 6.00 Build 0)  -->
<svg version="1.1" id="Слой_1" xmlns="http://www.w3.org/2000/svg" xmlns:xlink="http://www.w3.org/1999/xlink" x="0px" y="0px"
	 viewBox="0 0 528 525" style="enable-background:new 0 0 528 525;" xml:space="preserve">
<style type="text/css">
	.st0{fill:#FBB13F;}
	.st1{fill:#FCC46C;}
	.st2{fill:#FCC56F;}
	.st3{fill:#FDEBCE;}
	.st4{fill:#FCD79E;}
	.st5{fill:#FDEDD3;}
	.st6{fill:#FBB540;}
	.st7{fill:#EBEFF0;}
	.st8{fill:#FBB940;}
	.st9{fill:#BCC2C6;}
	.st10{fill:#FBB840;}
	.st11{fill:#00BC9B;}
	.st12{fill:#FBBD41;}
	.st13{fill:#E84B35;}
	.st14{fill:#F3CB20;}
	.st15{fill:#2B3E51;}
	.st16{fill:#BDC2C6;}
	.st17{fill:#BDC3C6;}
	.st18{fill:#BDC3C7;}
</style>
<path class="st0" d="M279.7,7.9C333,11.5,380.8,29.8,422.8,63c30.3,24,53.9,53.5,70.9,88.2c11.2,22.8,18.7,46.8,22.7,71.9
	c2.5,16,3.7,32.1,3.1,48.2c-1.6,47.4-15.1,91.1-40.8,131c-10.3,16.1-22.3,30.8-36,44.1c-36.1,35-78.7,57.8-128,67.9
	c-19.7,4.1-39.7,5.8-59.8,5c-35.1-1.3-68.6-9.2-100.4-24.2c-29.6-13.9-55.6-32.8-77.8-56.7c-33.3-35.8-54.9-77.6-64.4-125.7
	c-2.2-11-3.6-22.1-4.3-33.2c-0.3-0.8-0.1-1.6-0.2-2.4c0-0.8,0-1.6,0-2.4c-0.1-1.1,0.3-2.3-0.2-3.4c0-5.3,0-10.6,0-15.8
	c0.5-1.1,0.1-2.3,0.2-3.4c0-0.8,0-1.5,0-2.3c0-0.8,0-1.5,0-2.3c-0.1-13.9,2.4-27.5,5.4-41c5-22.6,13.2-44.1,24.1-64.5
	c8.8-16.5,19.4-31.8,31.6-46c6.5-7.5,13.4-14.7,20.6-21.4c13.7-12.7,28.7-23.8,44.8-33.2c19.7-11.4,40.5-20.2,62.5-26
	c13.5-3.6,27.1-6.2,41-7.5c3.2-0.3,6.5-0.5,9.8-0.3c0.8,0,1.5,0,2.3,0c0.8,0,1.6,0,2.3,0c1.1-0.1,2.3,0.3,3.4-0.2
	c5.3,0,10.6,0,15.8,0c1.1,0.5,2.3,0.1,3.4,0.2c0.8,0,1.6,0,2.4,0C278.1,7.8,278.9,7.6,279.7,7.9z"/>
<path class="st1" d="M255.6,7.5c-1,0.9-2.3,0.3-3.4,0.5c-0.1-0.1-0.2-0.2-0.1-0.3c0.1-0.1,0.1-0.1,0.2-0.1
	C253.4,7.5,254.5,7.5,255.6,7.5z"/>
<path class="st1" d="M7.9,252.3c-0.1,1.1,0.5,2.4-0.5,3.4c0-1.1,0-2.2,0-3.4C7.6,252.1,7.8,252.1,7.9,252.3z"/>
<path class="st2" d="M7.5,271.5c0.9,1,0.3,2.3,0.5,3.4c-0.2,0.2-0.3,0.2-0.5,0C7.5,273.7,7.5,272.6,7.5,271.5z"/>
<path class="st2" d="M274.9,7.9c-1.1-0.2-2.4,0.5-3.4-0.5c1.1,0,2.2,0,3.4,0c0.2,0.1,0.2,0.2,0.2,0.3C275,7.9,274.9,7.9,274.9,7.9z"
	/>
<path class="st3" d="M247.5,7.9c0-0.1,0-0.3,0-0.4c0.8,0,1.6,0,2.4,0c0.2,0.1,0.2,0.2,0.1,0.3c-0.1,0.1-0.1,0.1-0.2,0.1
	C249.1,7.9,248.3,7.9,247.5,7.9z"/>
<path class="st4" d="M249.8,7.9c0-0.1,0-0.3,0-0.4c0.8,0,1.6,0,2.4,0c0,0.2,0,0.3,0,0.5C251.5,7.9,250.6,7.9,249.8,7.9z"/>
<path class="st3" d="M7.5,247.5c0.1,0,0.3,0,0.4,0c0,0.8,0,1.6,0,2.4c-0.1,0.2-0.3,0.3-0.4,0C7.5,249.1,7.5,248.3,7.5,247.5z"/>
<path class="st4" d="M7.5,249.9c0.1,0,0.3,0,0.4,0c0,0.8,0,1.6,0,2.4c-0.1,0-0.3,0-0.5,0C7.5,251.5,7.5,250.7,7.5,249.9z"/>
<path class="st4" d="M7.5,274.8c0.2,0,0.3,0,0.5,0c0,0.8,0,1.6,0,2.4c-0.2,0.2-0.3,0.2-0.4,0C7.5,276.4,7.5,275.6,7.5,274.8z"/>
<path class="st5" d="M7.5,277.2c0.1,0,0.3,0,0.4,0c0,0.8,0,1.6,0,2.4c-0.1,0-0.3,0-0.4,0C7.5,278.8,7.5,278,7.5,277.2z"/>
<path class="st5" d="M279.7,7.9c-0.8,0-1.6,0-2.4,0c-0.2-0.1-0.2-0.2-0.2-0.3c0.1-0.1,0.1-0.2,0.2-0.2c0.8,0,1.6,0,2.4,0
	C279.6,7.6,279.6,7.8,279.7,7.9z"/>
<path class="st4" d="M277.2,7.5c0,0.1,0,0.3,0,0.4c-0.8,0-1.6,0-2.4,0c0-0.2,0-0.3,0-0.5C275.6,7.5,276.4,7.5,277.2,7.5z"/>
<path class="st6" d="M25.8,248.1c1-52.3,25.1-110.5,74.6-157.3c48.1-45.5,106-67.2,172.1-64.9c63.4,2.2,118,26.5,162.1,72.2
	c45.9,47.4,68.5,104.9,67.1,170.8c-1.5,66.9-27.2,123.9-76.4,169.5c-46.9,43.6-103.2,64.7-167,63.3c-64.5-1.4-119.9-25.9-165.2-72
	C50.9,386.8,25.6,327.8,25.8,248.1z"/>
<path class="st7" d="M409.7,393.4c0,10-0.1,19.9-0.1,29.9c0,7.5-2.7,10.2-10.2,10.3c-0.4,0-0.8,0-1.2,0.1c-0.8,0.7-1.9,0.8-2.9,0.8
	c-4,0-8,0.1-12,0c-13.6,0.1-27.2,0.1-40.8,0c-1.5,0.1-3,0.1-4.6,0.1c-49.7,0-99.4,0-149.1,0c-1.2,0-2.4,0-3.6-0.1
	c-12.3,0.1-24.5,0.1-36.8,0c-1.7,0-3.3-0.3-4.9-1c-0.4-0.2-0.8-0.4-1.1-0.7c-2.9-2.3-4-5.3-3.7-9c0.2-2.7,0-5.4,0-8.1
	c-0.1-19.9-0.1-39.7,0-59.6c-0.1-1.5-0.1-3-0.1-4.6c0-52.6,0-105.3,0-157.9c0-7.4-0.1-14.9,0-22.3c0-20-0.1-39.9,0-59.9
	c-0.1-4.8-0.1-9.5,0-14.3c-0.1-2.9,0.1-5.7-0.1-8.6c-0.1-1,0.3-1.9,0.8-2.7c0.7-3.2,3.9-6,7-6.2c0.6,0,1.1,0,1.7,0c65,0,130,0,195,0
	c2.8,0,5.5,0.6,8,1.9c1,1.3,0.7,2.7,0.7,4.2c0,15.6,0,31.2,0,46.8c0,0.8,0,1.6,0,2.4c0,1.4,0.7,2,2.1,2c0.8,0,1.6,0,2.4,0
	c15.7,0,31.5,0,47.2,0c1.4,0,2.9-0.2,4.2,0.6c1.9,2.3,2.2,5.1,2.5,7.9c0.2,1.1,0.1,2.2,0.1,3.4c0,80,0,160,0,240
	C410.5,390.2,410.9,392,409.7,393.4z"/>
<path class="st8" d="M409.7,393.4c0-1-0.1-2.1-0.1-3.1c0-81.1,0-162.1,0-243.2c0-3.3-0.6-6.5-2-9.5c-8.9-11.2-19.9-20.4-29.7-30.8
	c-0.6-0.6-1.6-1.1-1.2-2.3c3.9,1.5,6.7,4.5,9.9,6.9c6.5,5,12.4,10.7,18.2,16.6c10.2,10.5,19.1,22.1,26.6,34.6
	c7.9,13.2,14.3,27.1,19,41.8c3.2,9.9,5.5,20.1,7,30.4c1.2,8.1,1.7,16.3,2,24.5c0.5,16.8-1.4,33.3-5.1,49.6
	c-3.7,16.4-9.9,32-17.7,46.8c-6.1,11.6-13.4,22.4-21.8,32.5C413.1,390.1,411.9,392.2,409.7,393.4z"/>
<path class="st6" d="M139.5,85.7c0,3.7,0,7.4-0.1,11c-10.7,7.4-20.1,16.4-28.9,25.9c-11.8,12.7-21.9,26.7-30,42.1
	c-5.9,11.1-11,22.6-14.9,34.5c-4.5,14-7.6,28.2-9.1,42.8c-0.7,7.2-1.4,14.5-1.3,21.7c0.3,29.3,6.1,57.4,18.1,84.3
	c7.9,17.8,18.1,34.2,30.5,49.2c10.3,12.4,22,23.4,34.8,33.2c1.2,0.9,2.6,1.5,4.1,1.9c0.2,0.2,0.4,0.3,0.6,0.5c0.8,1.3,2,2.3,3.2,3.1
	c20.2,13.8,42.1,23.5,65.7,29.7c12.2,3.2,24.7,5.1,37.3,6c8.2,0.6,16.3,0.7,24.4,0.3c17.5-0.8,34.6-3.9,51.3-9.1
	c10.7-3.4,21.1-7.5,31.1-12.5c8.5-4.2,16.8-8.9,24.6-14.5c0.8-0.6,1.6-1.3,2.3-2.1c5,0,9.9,0,14.9,0c-1,2.1-3.1,3.1-4.9,4.4
	c-11.9,9-24.7,16.4-38.2,22.7c-15.3,7.2-31.3,12.3-47.8,15.7c-8.6,1.8-17.2,3-25.9,3.8c-9.4,0.9-18.8,0.9-28.2,0.4
	c-14.8-0.8-29.5-2.9-44-6.7c-12.7-3.4-25.1-7.8-37.1-13.3c-10.7-4.9-20.8-10.8-30.6-17.3c-8-5.4-15.5-11.3-22.7-17.8
	c-5.2-4.7-10.2-9.5-14.9-14.6c-10.1-10.9-19-22.7-26.6-35.4c-8-13.4-14.5-27.5-19.5-42.3c-4-11.8-6.9-23.8-8.8-36.1
	c-1.5-10-2.3-20-2.4-30.2c-0.1-7.6-0.1-15.1,0.6-22.6c2.2-22.6,7.4-44.5,16.4-65.5c5.7-13.4,12.6-26.1,20.8-38.2
	c4.7-7,10-13.6,15.6-19.9c5.7-6.5,11.9-12.5,18.2-18.4C124.9,96.3,131.8,90.6,139.5,85.7z"/>
<path class="st9" d="M376.7,104.4c3,3,5.9,6.1,8.9,9.1c6,6.1,12.1,12.1,18.1,18.1c1.7,1.7,3,3.7,3.9,5.9c-17.9,0-35.8,0-53.7,0
	c-2.2,0-2.8-0.5-2.8-2.8c0.1-17.8,0.1-35.6,0.1-53.4c2.4,0.7,4.4,2.2,6.1,3.9c5.8,5.8,11.6,11.6,17.4,17.4
	C375.3,103.3,376,103.9,376.7,104.4z"/>
<path class="st10" d="M139.4,356c0,20,0,40,0,60c-1.2,0.8-1.9-0.1-2.7-0.7c-12.5-10.6-23.7-22.4-33.3-35.7
	c-6.3-8.7-11.9-17.8-16.6-27.4c-9.1-18.3-15.4-37.6-18.4-57.8c-1-6.7-1.6-13.5-2.1-20.2c-0.3-5-0.5-9.9-0.3-14.8
	c0.5-17.3,3.1-34.3,8-51c3.6-12.2,8.2-24,14.1-35.3c7.3-14,16.1-27,26.5-39c6.5-7.5,13.6-14.4,21.1-20.9c1.1-0.9,2-2.4,3.8-1.9
	c0,17.2,0.1,34.4,0.1,51.6c0,2.8,0,5.6-0.1,8.4c-3,4.6-6.3,9.1-9.1,13.8c-11,18.7-17.7,38.7-20.3,60.2c-0.9,7.4-1.3,14.8-1.1,22.2
	c0.9,31.5,10.4,60.1,28.4,85.9C138,354.2,138.8,355,139.4,356z"/>
<path class="st11" d="M365.6,199.6c0,18.2,0,36.3,0,54.5c0,1.9-0.4,2.6-2.4,2.6c-11.1-0.1-22.2-0.1-33.4,0c-2.1,0-2.5-0.6-2.5-2.6
	c0.1-36.4,0.1-72.8,0-109.2c0-1.8,0.4-2.5,2.4-2.4c11.2,0.1,22.4,0.1,33.6,0c2,0,2.3,0.7,2.3,2.5
	C365.5,163.1,365.6,181.3,365.6,199.6z"/>
<path class="st6" d="M383.3,433.7c0.1,1-0.3,1.6-1.2,2.1c-6.4,4.3-12.9,8.5-19.8,12.1c-12.2,6.4-24.8,11.8-37.9,15.8
	c-9.4,2.9-19,5-28.8,6.6c-14,2.3-28.1,2.7-42.2,2.3c-7-0.2-14.1-1.2-21.1-2.2c-11.8-1.7-23.4-4.5-34.7-8.4
	c-18.8-6.4-36.6-15-52.9-26.5c-1.1-0.7-1.6-1.5-1.4-2.7c2.7,0.8,5.5,0.8,8.3,0.8c11.2,0,22.3,0,33.5,0.1c1.2,1.4,2.9,2.3,4.6,3
	c18.3,7.5,37.2,12.6,57,14.2c7.3,0.6,14.7,1.2,22,0.9c22.1-0.9,43.5-4.9,64.1-13.1c3.4-1.4,7.1-2.1,9.8-4.9
	C356.1,433.7,369.7,433.7,383.3,433.7z"/>
<path class="st6" d="M139.4,111.2c-2.9,1.1-4.8,3.6-7.1,5.6c-11.5,10.2-21.5,21.6-30.3,34.3c-6.2,8.9-11.7,18.2-16.4,28.1
	c-7.4,15.8-12.9,32.2-15.8,49.4c-1.4,8.4-2.4,16.8-3,25.3c-0.3,5.4-0.5,10.9-0.3,16.3c0.5,11.9,1.8,23.7,4.4,35.4
	c3.3,15.2,8.3,29.7,15.1,43.7c7.2,15,16.2,28.8,26.9,41.6c5.5,6.6,11.7,12.5,17.7,18.5c2.2,2.2,4.7,4.1,7,6.1
	c0.5,0.5,1.1,0.7,1.7,0.6c0,2.5,0.3,5.1,0,7.6c-0.3,3.5,0.8,6.3,3.3,8.7c-2,1.2-3.3-0.5-4.4-1.4c-9.1-7.2-18-14.7-26-23.2
	c-10.7-11.4-20.2-23.8-28.2-37.3c-8.6-14.5-15.4-29.9-20.4-46.1c-3.1-10.2-5.4-20.6-6.9-31.2c-1.1-7.7-1.5-15.3-2-23
	c-0.6-9.4,0.3-18.7,1.1-28.1c1.3-15.5,4.8-30.4,9.7-45.1c2.7-7.9,6-15.6,9.5-23.2c6.8-14.5,15.4-27.9,25.2-40.5
	c6.8-8.8,14.7-16.6,22.8-24.2c4.3-4,8.8-7.8,13.6-11.3c0.8-0.6,1.6-1.1,2.6-1C139.4,101.6,139.4,106.4,139.4,111.2z"/>
<path class="st12" d="M139.4,356c-1.1-0.1-1.6-0.9-2.2-1.7c-9-12.8-16.1-26.6-21.1-41.4c-3.4-9.8-5.6-19.9-6.7-30.2
	c-0.8-7.7-1.3-15.4-1.1-23.1c0.6-15.4,3-30.5,7.9-45.2c4.9-14.5,11.8-27.9,20.5-40.4c0.7-1,1.8-1.8,2.7-2.7c0,0.7,0.1,1.4,0.1,2.2
	c0,60.2,0,120.3,0,180.5C139.5,354.5,139.4,355.2,139.4,356z"/>
<path class="st13" d="M183.4,213.6c0-13.6,0-27.2,0-40.8c0-2,0.6-2.5,2.6-2.5c11.1,0.1,22.2,0.1,33.3,0c1.9,0,2.4,0.5,2.4,2.4
	c-0.1,27.2-0.1,54.4,0,81.6c0,1.8-0.5,2.3-2.3,2.3c-11.1-0.1-22.2-0.1-33.3,0c-2.1,0-2.7-0.5-2.7-2.6
	C183.4,240.5,183.4,227.1,183.4,213.6z"/>
<path class="st11" d="M203.2,397.5c-14.7-12.1-21.4-27.7-19.1-46.6c2.9-23.4,19.1-40.1,42.2-44.6c2.7-0.5,5.5-1,8.3-0.6
	c0.6,0.7,0.6,1.5,0.6,2.3c0,16.8,0.2,33.7-0.1,50.5c0,0.3,0,0.5-0.1,0.8c-1.9,3.5-4.8,6.1-7.2,9.1c-7.8,9.4-15.6,18.7-23.4,28.1
	C204.1,396.8,203.8,397.3,203.2,397.5z"/>
<path class="st13" d="M234.5,359.8c0.1-0.2,0.1-0.4,0.2-0.6c0.3-2,1.9-3.1,3-4.5c9.7-11.4,19.1-22.9,28.7-34.4
	c0.7-0.8,1.3-1.9,2.6-1.9c9.9,8.5,15.7,19.3,17.2,32.2c2.9,24.8-10.8,46.8-34,55.2c-5.7,2-11.5,3.1-17.6,2.8c-1-0.9-0.9-2-0.9-3.1
	c0-14.1,0-28.2,0-42.4C233.7,361.9,233.9,360.8,234.5,359.8z"/>
<path class="st14" d="M269.6,222.5c0,10.6,0,21.1,0,31.7c0,1.9-0.5,2.4-2.4,2.4c-11.2-0.1-22.4-0.1-33.6,0c-1.8,0-2.3-0.5-2.3-2.3
	c0.1-21.3,0.1-42.5,0-63.8c0-1.8,0.6-2.1,2.2-2.1c11.2,0.1,22.4,0.1,33.6,0c2,0,2.6,0.4,2.5,2.5C269.5,201.4,269.6,212,269.6,222.5z
	"/>
<path class="st9" d="M274.5,269.5c29.4,0,58.9,0,88.3,0c2.2,0,3,0.5,2.8,2.8c-0.2,2.4-0.1,4.8,0,7.2c0.1,1.7-0.6,2.3-2.2,2.1
	c-0.3,0-0.6,0-1,0c-58.7,0-117.4,0-176.1,0c-3.1,0-3.1,0-3.1-3.1c0-2.2,0.1-4.5,0-6.7c-0.1-1.9,0.6-2.3,2.3-2.3
	c10.7,0.1,21.4,0,32.1,0C236.6,269.5,255.6,269.5,274.5,269.5z"/>
<path class="st15" d="M241.3,135.6c-27.8,0-55.7,0-83.5,0c-1.9,0-2.7-0.3-2.5-2.4c0.2-2.7,0.1-5.4,0-8.2c0-1.2,0.3-1.6,1.5-1.5
	c0.5,0.1,1,0,1.4,0c55.4,0,110.9,0,166.3-0.1c2.5,0,3.1,0.7,2.9,3c-0.2,2.3-0.2,4.6,0,7c0.1,1.7-0.5,2.1-2.1,2.1
	c-16.4-0.1-32.8,0-49.2,0C264.5,135.6,252.9,135.6,241.3,135.6z"/>
<path class="st8" d="M342.5,433.7c0,1.8-1.5,2.3-2.8,2.9c-8,3.3-16.2,6.3-24.5,8.7c-9,2.6-18.2,4.4-27.5,5.6
	c-4.2,0.5-8.5,0.9-12.8,1.2c-4.7,0.3-9.4,0.5-14.1,0.4c-16.7-0.4-33.1-2.6-49.1-7.4c-8.3-2.4-16.4-5.2-24.3-8.7
	c-1.3-0.6-2.1-1.3-2.3-2.7c0.6,0,1.3-0.1,1.9-0.1c51.2,0,102.4,0,153.6,0C341.2,433.6,341.9,433.6,342.5,433.7z"/>
<path class="st15" d="M317.6,231.2c0,7.8,0,15.5,0,23.3c0,1.7-0.4,2.1-2.1,2.1c-11.4-0.1-22.7-0.1-34.1,0c-1.5,0-2.1-0.4-2.1-2
	c0.1-15.8,0-31.5,0-47.3c0-1.5,0.5-1.9,1.9-1.9c11.4,0,22.9,0.1,34.3,0c1.5,0,2,0.4,2,2C317.5,215.3,317.6,223.2,317.6,231.2z"/>
<path class="st9" d="M190,92.4c10.6,0,21.3,0,31.9,0c2,0,2.6,0.5,2.6,2.5c-0.1,4.1-0.1,8.2,0,12.2c0,1.8-0.5,2.6-2.4,2.6
	c-21.5-0.1-43,0-64.5,0c-1.6,0-2.3-0.4-2.2-2.1c0.1-4.3,0.1-8.6,0-12.9c-0.1-1.9,0.7-2.2,2.4-2.2C168.4,92.5,179.2,92.4,190,92.4z"
	/>
<path class="st14" d="M269.1,318.4c-4.8,5.1-9.1,10.7-13.6,16c-7,8.2-13.8,16.5-20.7,24.8c0-17.8,0-35.7,0-53.5
	C247.8,305.3,259.2,309.7,269.1,318.4z"/>
<path class="st15" d="M234.5,359.8c0,9.9,0.1,19.8,0.1,29.7c0,6.3,0,12.6,0,19c-11.8-0.1-22.2-3.8-31.4-11.1c2.3-3.8,5.5-7,8.3-10.4
	c7.3-8.9,14.7-17.6,22.1-26.4C233.8,360.3,234.2,360.1,234.5,359.8z"/>
<path class="st16" d="M279.1,106.4c14.3,0,28.6,0,42.9,0c0.7,0,1.5-0.1,2.2,0.1c1.1,0.2,1.8,1,1.9,2.2c0.2,1.1-0.3,1.8-1.2,2.4
	c-1.1,0.7-2.3,0.6-3.5,0.6c-28.2,0-56.4,0-84.7,0c-1.1,0-2.2,0.1-3.3-0.4c-1-0.6-1.6-1.4-1.4-2.5c0.2-1.3,0.9-2,2.2-2.2
	c0.7-0.1,1.4,0,2.2,0C250.7,106.4,264.9,106.4,279.1,106.4z"/>
<path class="st16" d="M275.3,89.6c13,0,26.1,0,39.1,0c1.7,0,3.5-0.2,3.6,2.3c0.1,1.9-1.2,2.9-3.8,2.9c-26.1,0-52.3,0-78.4,0
	c-1.7,0-3.3-0.3-3.7-2.3c-0.4-1.8,0.9-2.9,3.4-2.9c10.2,0,20.3,0,30.5,0C269.1,89.6,272.2,89.6,275.3,89.6z"/>
<path class="st17" d="M266.6,98.7c10.3,0,20.6,0,31,0c1.9,0,3.6,0.4,3.6,2.5c0,2.1-1.6,2.7-3.5,2.7c-20.6,0-41.3,0-61.9,0
	c-1.8,0-3.5-0.4-3.6-2.6c0-2.3,1.6-2.6,3.5-2.6C246,98.7,256.3,98.7,266.6,98.7z"/>
<path class="st17" d="M357,323.3c7.1,0,14.2,0,21.3,0c1.8,0,3.5-0.1,3.5,2.4c0,1.8-1.2,2.8-3.7,2.8c-10.8,0-21.6,0-32.4,0
	c-3.4,0-6.7,0-10.1,0c-1.9,0-3.7-0.3-3.8-2.6c-0.1-2.4,1.8-2.6,3.7-2.6C342.8,323.3,349.9,323.3,357,323.3z"/>
<path class="st18" d="M354.6,383.3c6.9,0,13.9,0,20.8,0c1.8,0,3.5,0,3.5,2.4c0,1.8-1.2,2.8-3.7,2.8c-11.3,0-22.5,0-33.8,0
	c-2.6,0-5.1,0-7.7,0c-1.9,0-3.7-0.3-3.8-2.6c-0.1-2.4,1.8-2.6,3.7-2.6C340.7,383.3,347.7,383.3,354.6,383.3z"/>
<path class="st18" d="M353.2,343.5c5.8,0,11.7,0.1,17.5,0c1.9,0,3.3,0.7,3.4,2.5c0.1,2.1-1.6,2.6-3.2,2.7c-2,0.1-4,0-6,0
	c-9.4,0-18.8,0-28.3,0c-0.6,0-1.3,0.1-1.9,0c-1.5-0.3-2.8-1-2.6-2.8c0.1-1.8,1.3-2.4,3-2.4C341,343.5,347.1,343.5,353.2,343.5z"/>
<path class="st18" d="M352.8,363.6c5.9,0,11.8,0.1,17.7,0c2,0,3.5,0.7,3.5,2.7c0,2-1.7,2.5-3.4,2.6c-4.2,0.1-8.3,0-12.5,0
	c-7.3,0-14.5,0-21.8,0c-0.6,0-1.3,0.1-1.9-0.1c-1.4-0.4-2.6-1-2.5-2.7c0.1-1.8,1.2-2.5,2.9-2.5C340.9,363.6,346.9,363.6,352.8,363.6
	z"/>
<path class="st15" d="M307.5,366.8c0-4.5,3.7-8,8.2-7.9c4.4,0.1,8,3.8,7.9,8.2c-0.1,4.5-3.8,8-8.2,7.9
	C310.8,375,307.4,371.4,307.5,366.8z"/>
<path class="st14" d="M315.5,319c4.5,0,8.2,3.7,8.1,8.1c-0.1,4.4-3.8,8.1-8.2,8.1c-4.4,0-8-3.7-8-8.2
	C307.5,322.3,310.9,319,315.5,319z"/>
<path class="st11" d="M315.4,355c-4.6,0-8-3.4-7.9-8.1c0-4.5,3.6-8.1,8.1-8c4.4,0.1,8.1,3.8,8,8.2C323.6,351.5,319.9,355,315.4,355z
	"/>
<path class="st13" d="M315.4,379c4.5,0,8.2,3.5,8.2,7.9c0,4.4-3.6,8.1-8,8.2c-4.4,0.1-8.1-3.5-8.1-8
	C307.5,382.4,310.8,379,315.4,379z"/>
</svg>
