<?xml version="1.0" encoding="utf-8"?>
<!-- Generator: Adobe Illustrator 20.1.0, SVG Export Plug-In . SVG Version: 6.00 Build 0)  -->
<svg version="1.1" id="Слой_1" xmlns="http://www.w3.org/2000/svg" xmlns:xlink="http://www.w3.org/1999/xlink" x="0px" y="0px"
	 viewBox="0 0 60.7 44" style="enable-background:new 0 0 60.7 44;" xml:space="preserve">
<style type="text/css">
	.st0{fill:#CBB275;}
	.st1{fill:#F2D45B;}
	.st2{fill:#EFC31B;}
	.st3{fill:#E64C3D;}
	.st4{fill:#827041;}
	.st5{fill:#7C6A3D;}
	.st6{fill:#7B6A3D;}
	.st7{fill:#7F6E40;}
	.st8{fill:#877545;}
	.st9{fill:#EFC41D;}
	.st10{fill:#F0C728;}
	.st11{fill:#F0C727;}
	.st12{fill:#EFC522;}
</style>
<path class="st0" d="M1.5,41.3c0-12.8,0-25.6,0-38.4c0.2-1,0.9-1.7,1.9-1.9c18.1,0,36.2,0,54.2,0c1.6,0.4,2.2,1.4,2.2,3
	c0,12,0,24,0,36c0,2.7-0.7,3.3-3.5,3.3c-17.1,0-34.2,0-51.3,0C3.3,43.2,2,42.9,1.5,41.3z"/>
<path class="st1" d="M15.4,22.1c-1.9,0-3.8,0-5.7,0c-2.1,0-3.3-1-3.3-3.2c0-2.6,0-5.3,0-7.9c0-2.1,1.2-3.2,3.3-3.3c4,0,8,0,12,0
	c1.9,0,2.9,1,2.9,3c0,2.8,0,5.6,0,8.4c0,1.9-1,3-2.9,3C19.5,22.1,17.4,22.1,15.4,22.1C15.4,22.1,15.4,22.1,15.4,22.1z"/>
<path class="st2" d="M44.8,27c4-1.6,6.7-1.2,8.6,1.4c1.5,2.1,1.6,4.9,0.2,7c-1.4,2.1-4.2,3.1-6.8,2.4c-0.7-0.2-1.3-0.5-2-0.8
	c-2.3-0.6-3.5-2.3-3.5-4.9C41.3,29.1,42.4,27.6,44.8,27z"/>
<path class="st3" d="M44.8,27c-3.2,3.8-3.2,6.3,0,10c-2.8,1.6-5.9,1.3-7.8-0.9c-1.9-2.2-2-5.6-0.1-7.9C38.8,25.8,41.7,25.3,44.8,27z
	"/>
<path class="st4" d="M11.9,28.9c1.4,0,2.9,0,4.3,0c0.7,0,1.3,0.4,1.2,1.2c0,0.7-0.6,0.9-1.2,0.9c-2.8,0-5.5,0-8.3,0
	c-0.7,0-1.3-0.3-1.3-1.1c0-0.9,0.8-1.1,1.6-1.1C9.4,28.9,10.6,28.9,11.9,28.9C11.9,28.9,11.9,28.9,11.9,28.9z"/>
<path class="st4" d="M25.2,28.9c1.3,0,2.6,0,3.8,0c0.7,0,1.3,0.3,1.3,1.1c0,0.7-0.5,1-1.1,1.1c-2.9,0-5.7,0-8.6,0
	c-0.6,0-1.1-0.4-1.1-1c0-0.8,0.6-1.1,1.3-1.1C22.4,28.9,23.8,28.9,25.2,28.9z"/>
<path class="st5" d="M13.6,36c-0.7-0.1-1.8,0.2-1.9-0.9c-0.1-1.2,0.9-1.1,1.7-1.1c0.7,0,1.8-0.3,1.9,0.9C15.4,36.1,14.4,36,13.6,36z
	"/>
<path class="st6" d="M24.4,36c-0.8-0.1-1.8,0.1-1.7-1.1c0-1.2,1.1-0.9,1.8-0.9c0.7,0,1.8-0.2,1.7,1C26.2,36.1,25.2,36,24.4,36z"/>
<path class="st7" d="M9.4,35c-0.1,0.8-0.6,1-1.3,1c-0.7,0-1.5-0.1-1.5-1c0-0.7,0.6-0.9,1.2-0.9C8.4,34,9.2,34,9.4,35z"/>
<path class="st7" d="M19,34.1c0.7,0,1.4,0.1,1.4,0.9c0,1-0.8,1.1-1.5,1c-0.7,0-1.3-0.2-1.3-1C17.6,34.1,18.3,34.1,19,34.1z"/>
<path class="st8" d="M29.5,34.2c0.6,0,0.9,0.3,0.8,0.9c-0.1,0.5-0.4,0.9-1,0.8c-0.5,0-0.9-0.4-0.8-0.9C28.6,34.4,29,34.2,29.5,34.2z
	"/>
<path class="st9" d="M14.5,14.4c0.1-4.9-0.7-4.3,4.8-4.4c0.4,0,0.8,0,1.2,0c0.7,0.1,1.8-0.2,1.8,1c0,0.9-1,0.9-1.7,0.9
	c-4.2,0.4-4.2,0.4-4.3,4.8c0,1.1,0.7,3-1,2.9c-1.5,0-0.7-1.9-0.9-3C14.4,16.1,14.5,15.5,14.5,14.4z"/>
<path class="st10" d="M20.5,20.2c-0.9-0.1-1.9,0-2-1.1c-0.1-1.3,1-1.2,1.9-1.2c0.9,0,2-0.1,2,1.2C22.4,20.2,21.2,20,20.5,20.2z"/>
<path class="st11" d="M10.7,20.1c-0.9-0.1-1.8,0.1-1.9-1c-0.1-1.1,0.7-1.3,1.6-1.3c0.9,0,1.9-0.1,2,1.1C12.4,20,11.4,20,10.7,20.1z"
	/>
<path class="st12" d="M20.4,13.9c0.8,0.1,1.9-0.2,1.9,1c0,1.2-1.1,1-1.8,1c-0.7,0-1.9,0.3-1.9-0.8C18.5,13.8,19.7,14.1,20.4,13.9z"
	/>
<path class="st2" d="M10.4,10.1c0.8,0.1,1.9-0.2,1.9,1c0,1-0.9,0.9-1.6,0.9c-0.7,0-1.8,0.2-1.8-0.9C8.8,10,9.8,10.2,10.4,10.1z"/>
<path class="st2" d="M10.4,13.9c0.8,0.1,1.9-0.2,1.9,1c0,1-1,0.9-1.7,0.9c-0.7,0-1.8,0.2-1.8-1C8.9,13.8,9.9,14.1,10.4,13.9z"/>
</svg>
