<?xml version="1.0" encoding="utf-8"?>
<!-- Generator: Adobe Illustrator 20.1.0, SVG Export Plug-In . SVG Version: 6.00 Build 0)  -->
<svg version="1.1" id="Слой_1" xmlns="http://www.w3.org/2000/svg" xmlns:xlink="http://www.w3.org/1999/xlink" x="0px" y="0px"
	 viewBox="0 0 455.8 455.8" style="enable-background:new 0 0 455.8 455.8;" xml:space="preserve">
<style type="text/css">
	.st0{fill:#DB472E;}
	.st1{fill:#FEFEFE;}
	.st2{fill:#FEFEFD;}
</style>
<path class="st0" d="M0,455.6C0,304.4,0,153.3,0,2.2C0,0.4,0.4,0,2.2,0c151.1,0,302.2,0,453.4,0c0.4,0.8,0.2,1.7,0.2,2.6
	c0,150.1,0,300.1,0,450.2c0,3.3,0.4,2.9-2.9,2.9c-150.1,0-300.1,0-450.2,0C1.8,455.8,0.9,456,0,455.6z"/>
<path class="st1" d="M0,455.6c150.8,0,301.6,0,452.4,0c3.2,0,3.2,0,3.2-3.2c0-150.8,0-301.6,0-452.4c0.1,0.1,0.5-0.2,0.5,0.2
	c0,0.6,0,1.3,0,1.9c0,150.6,0,301.1,0,451.7c0,1.8-0.4,2.2-2.2,2.2c-150.6,0-301.1,0-451.7-0.1C1.5,456,0.6,456.6,0,455.6z"/>
<path class="st1" d="M228,209.4c19.2,0,38.4-0.1,57.6,0c13.2,0.1,26.4,0.4,39.6,0.8c20.8,0.6,38.4,18.8,38.4,39.7
	c0.1,33.9,0.1,67.8,0,101.8c0,20.2-16.4,37.8-36.5,39.6c-7.8,0.7-15.7,0.5-23.5,0.6c-32.5,0.6-64.9,0.9-97.4,0.7
	c-24.4-0.2-48.8-0.5-73.1-1c-20.2-0.4-35.9-13.3-40.1-32.7c-0.5-2.3-0.8-4.6-0.8-6.9c0-34.1,0-68.2,0-102.2
	c0-20.8,18.1-39.1,38.9-39.5c25.8-0.6,51.6-1,77.5-0.9c6.5,0,13,0,19.4,0C228,209.3,228,209.4,228,209.4z"/>
<path class="st1" d="M194.8,140c0-7.8,0-15.7,0-23.5c0-13.4,10.5-23.9,23.8-23.9c13.5,0,24.1,10.5,24.1,23.9c0,15.7,0.1,31.3,0,47
	c0,12.2-9.7,22.8-21.4,23.7c-13.3,1-24.5-7.4-26.3-20.2c-0.5-3.5-0.2-7.2-0.3-10.8C194.8,150.9,194.8,145.4,194.8,140z"/>
<path class="st1" d="M287.2,175.7c-2.1,2-3.8,3.7-5.6,5.2c-4.2,3.5-8.9,5.7-14.5,5.3c-4.2-0.2-7.2-2.3-8.8-6.3
	c-1.1-2.6-1.5-5.4-1.5-8.2c0-24.9,0-49.8,0-74.6c0-1.9,0.4-2.5,2.4-2.4c4,0.1,8,0.2,12,0c2-0.1,2.4,0.6,2.4,2.5
	c-0.1,21.4,0,42.9,0,64.3c0,1.4,0.1,2.9,0.2,4.3c0.4,3.4,2.6,4.8,5.7,3.5c2.9-1.1,5.1-3.2,7.1-5.5c0.8-1,0.6-2.1,0.6-3.2
	c0-21,0-42.1,0-63.1c0-2.2,0.6-2.9,2.8-2.8c4.1,0.2,8.2,0.1,12.2,0c1.5,0,1.9,0.5,1.9,1.9c0,28.9,0,57.7,0,86.6c0,1.4-0.4,2-1.9,1.9
	c-4.4-0.1-8.8-0.1-13.2,0c-1.4,0-1.8-0.4-1.8-1.8C287.2,181.1,287.2,178.7,287.2,175.7z"/>
<path class="st1" d="M165.9,108.9c1.2-5,2.4-10,3.6-15c2.3-9.7,4.6-19.4,6.8-29.1c0.3-1.5,1-2,2.6-2c4.9,0.1,9.8,0.2,14.6,0
	c2.6-0.1,2.3,0.8,1.8,2.7c-6.1,20.1-12.1,40.3-18.3,60.4c-1.8,5.7-2.7,11.4-2.6,17.4c0.2,13.1,0,26.2,0.1,39.3
	c0,1.8-0.4,2.5-2.3,2.4c-4.3-0.1-8.6-0.1-12.9,0c-1.9,0.1-2.4-0.6-2.4-2.4c0.1-15-0.1-29.9,0.1-44.9c0.1-4.6-1.6-8.8-2.9-13
	C148.1,105,142,85.3,136,65.5c-0.8-2.6-0.8-2.6,2-2.6c4.7,0,9.4,0.1,14.2,0c1.7,0,2.5,0.5,2.8,2.2c3.2,13.8,6.4,27.5,9.7,41.3
	c0.2,0.9,0.5,1.8,0.7,2.6C165.6,109,165.8,108.9,165.9,108.9z"/>
<path class="st0" d="M249.5,353c-0.1,1.1-0.1,1.7-0.1,2.2c-0.1,4.4-0.1,4.4-4.4,4.4c-3.2,0-6.4-0.1-9.6,0c-1.8,0.1-2.2-0.5-2.2-2.3
	c0.1-14,0-28,0-42c0-24.8,0-49.6,0-74.4c0-2,0.3-2.8,2.6-2.7c3.7,0.2,7.5,0.2,11.3,0c1.9-0.1,2.4,0.6,2.4,2.5c-0.1,11.5,0,23,0,34.6
	c0,0.7-0.2,1.4,0.3,2.2c0.6-0.8,1.1-1.5,1.8-2.2c4.6-5,10.2-7.4,17-5.7c6.8,1.7,9.5,7.1,10.9,13.3c0.6,2.8,0.7,5.7,0.7,8.6
	c0,16.6,0,33.1,0,49.7c0,2.4-0.1,4.8-0.6,7.2c-2.1,10.6-10.9,15.3-21,11.4C255,358.4,252.4,356,249.5,353z"/>
<path class="st0" d="M292.8,314.3c0-7-0.1-14.1,0-21.1c0.2-18.6,16.7-30.4,35.4-23.2c7.6,2.9,11,9.4,12,17.1
	c1.3,9.4,0.3,18.8,0.6,28.3c0,1.5-0.8,1.6-2,1.6c-9,0-17.9,0.1-26.9-0.1c-2,0-2.5,0.5-2.5,2.5c0.1,6.6,0,13.1,0.1,19.7
	c0,4.6,3.1,7.8,7.3,7.8c4.2,0,7.2-3.1,7.3-7.5c0.1-3.1,0.1-6.2,0-9.4c0-1.4,0.3-2,1.8-2c4.4,0.1,8.8,0,13.2,0c0.8,0,1.6-0.1,1.6,1.1
	c0,6.6,0.1,13.3-2.2,19.6c-2.8,7.7-8.6,11.8-16.6,13.1c-8.7,1.3-16.6,0.1-22.8-6.8c-5.1-5.6-6.2-12.7-6.4-19.9
	C292.7,328.2,292.8,321.3,292.8,314.3z"/>
<path class="st0" d="M200.6,349.8c-1.6,1.6-2.6,2.7-3.8,3.8c-3.3,3.2-7,5.8-11.6,7c-7.7,2-13.4-1.6-14.8-9.4c-0.3-2-0.5-4-0.5-6
	c0-24.2,0-48.3-0.1-72.5c0-2.2,0.7-2.6,2.7-2.6c3.8,0.2,7.5,0.1,11.3,0c1.9-0.1,2.4,0.4,2.4,2.4c-0.1,15.8-0.1,31.7,0,47.5
	c0,6.5,0,13,0.1,19.4c0.1,5.2,3,7,7.5,4.6c4.3-2.3,7-5.3,6.9-10.9c-0.3-20.2-0.1-40.5-0.2-60.7c0-1.8,0.4-2.5,2.3-2.4
	c4,0.1,8,0,12-0.1c1.6-0.1,1.9,0.6,1.9,1.9c0,6,0,12,0,18c0,22.4,0,44.8,0,67.2c0,2.1-0.4,2.8-2.6,2.7c-3.8-0.2-7.5-0.2-11.3,0
	c-2,0.1-2.4-0.6-2.3-2.5C200.7,355.1,200.6,352.8,200.6,349.8z"/>
<path class="st0" d="M132.5,307.7c0-16.5-0.1-33,0.1-49.4c0-2.3-0.7-2.8-2.8-2.7c-4.7,0.1-9.4,0-14.2,0.1c-1.8,0-2.3-0.6-2.3-2.3
	c0.1-4.4,0.1-8.8,0-13.2c0-1.4,0.4-1.8,1.8-1.8c17.7,0,35.4,0,53,0c1.4,0,1.7,0.6,1.7,1.9c-0.1,4.5-0.1,9,0,13.4
	c0,1.5-0.6,1.9-2,1.8c-5-0.1-9.9,0.1-14.9-0.1c-1.9-0.1-2.4,0.5-2.4,2.4c0.1,32.9,0,65.7,0,98.6c0,3.8,0.6,3.3-3.2,3.3
	c-4.1,0-8.2-0.2-12.2,0.1c-2.4,0.1-2.8-0.7-2.8-2.9C132.6,340.5,132.5,324.1,132.5,307.7z"/>
<path class="st0" d="M225.6,140c0,7.8,0,15.7,0,23.5c0,4.5-2.8,7.6-6.8,7.7c-4.1,0-6.9-3-6.9-7.6c0-15.8,0-31.5,0-47.3
	c0-4.5,2.8-7.6,6.9-7.5c4,0,6.8,3.1,6.8,7.7C225.7,124.3,225.6,132.1,225.6,140z"/>
<path class="st1" d="M249.4,314.7c0-8.5,0-16.9,0-25.4c0-3,2.1-5.4,5.4-6c3.6-0.7,6.3,0.6,7.6,3.5c1.5,3.5,1.1,7.3,1.1,10.9
	c0.2,13.7,0.1,27.5,0.1,41.3c0,0.2,0,0.5,0,0.7c-0.2,4.3-1.6,6.6-4.2,7.3c-3,0.8-7.4-0.9-9.4-3.6c-0.6-0.8-0.5-1.7-0.5-2.5
	C249.4,332.1,249.4,323.4,249.4,314.7z"/>
<path class="st2" d="M309.6,295.7c0-1.8,0-3.7,0-5.5c0.1-3.7,3-6.7,6.6-6.9c4-0.2,7.4,2.1,7.7,5.9c0.4,4.3,0.2,8.6,0.2,12.9
	c0,0.8-0.4,1.1-1.2,1.1c-4.1,0-8.1,0-12.2,0c-1.2,0-1.3-0.6-1.2-1.5C309.7,299.7,309.6,297.7,309.6,295.7z"/>
</svg>
