<?xml version="1.0" encoding="utf-8"?>
<!-- Generator: Adobe Illustrator 20.1.0, SVG Export Plug-In . SVG Version: 6.00 Build 0)  -->
<svg version="1.1" id="Слой_1" xmlns="http://www.w3.org/2000/svg" xmlns:xlink="http://www.w3.org/1999/xlink" x="0px" y="0px"
	 viewBox="0 0 515 515" style="enable-background:new 0 0 515 515;" xml:space="preserve">
<style type="text/css">
	.st0{fill:#CCD5DF;}
	.st1{fill:#FEFEFE;}
	.st2{fill:#F1F1F1;}
	.st3{fill:#FE7058;}
</style>
<g>
	<path class="st0" d="M221.5,7.5c0.6,0.7,1.4,0.7,2.1,0.9c3.4,1,6.2,2.9,8.7,5.3c11.6,11.6,23.1,23.3,34.8,34.7
		c21.5,20.8,42.2,42.4,63.7,63.2c20.7,20.1,40.6,40.8,61.3,60.8c21.2,20.6,41.8,41.9,63,62.5c16.2,15.7,32,31.8,48,47.7
		c7.8,7.8,7.9,21.5,0.2,29.2C439.6,375.8,375.8,439.6,312,503.4c-7.9,7.9-21.5,7.7-29.6-0.4c-10.6-10.5-21.2-21.1-31.7-31.7
		C171,391.6,91.4,312,11.8,232.5c-2.9-2.9-4-6.4-5.3-10c0-66.1,0-132.2,0-198.2c1.8-9.4,7.4-15,16.8-16.8
		C89.4,7.5,155.4,7.5,221.5,7.5z"/>
	<path class="st1" d="M23.3,7.5c-1.3,1-3,1.1-4.4,1.7c-5.5,2.5-9.3,6.5-11.3,12.3c-0.3,1-0.4,2-1.1,2.8c0-5.6,0-11.2,0-16.8
		C12.1,7.5,17.7,7.5,23.3,7.5z"/>
	<path class="st2" d="M225.3,66.5c0.4,0.3,0.7,0.5,0.9,0.7c0.5,0.4,0.9,0.9,1.4,1.3c75.7,75.7,151.4,151.4,227.1,227
		c1.6,1.6,1.9,2.4,0.1,4.2C402.8,351.5,351,403.4,299.1,455.3c-2.2,2.2-2.2,2.2-4.4,0.1C219,379.6,143.3,303.9,67.5,228.2
		c-1.6-1.6-1.8-2.3-0.1-4c52-51.9,103.9-103.8,155.8-155.7C223.9,67.8,224.6,67.1,225.3,66.5z"/>
	<path class="st1" d="M80,58.6c-0.2,10.1-5.1,15.8-12,19.8c-6.4,3.7-13,3-18.9-1.4c-8.9-6.6-11.8-15.7-6.9-24.7
		c3.6-6.5,9.3-10.2,17.1-10.4c7.7-0.1,13.8,2.8,18.2,9C79.4,53.7,80.2,56.7,80,58.6z"/>
	<path class="st3" d="M317.8,368.1c-24.1-0.3-44.5-20.4-45-43.7c-0.2-7.7,2.7-14.7,6.9-21.1c7.3-11.2,17.2-19.9,29.3-25.4
		c10.5-4.7,21.5-4.1,31.7,1.4c10.1,5.4,17.3,13.9,21.8,24.4c5.1,12.1,4.7,24.2-2.1,35.7c-6.3,10.7-14.9,19.1-26,24.8
		C328.9,367,323.1,368.3,317.8,368.1z"/>
	<path class="st3" d="M190.5,245.6c-5.5,0.1-10.1-1.3-14.3-4c-7.3-4.7-13.5-10.7-18.5-17.9c-2.8-3.9-4.5-8.2-5.1-13
		c-0.8-6.4-1.3-12.7,1.7-18.7c1.4-2.7,3-5.3,4.7-7.8c0.6-0.9,1.1-0.9,1.9-0.3c3.9,3.3,7.7,6.7,11.7,9.9c1.2,1,0.6,1.6,0.1,2.4
		c-2.9,4.6-4.3,9.3-3,14.8c1.9,8.1,11.7,16.2,19.4,15.9c8.2-0.4,11.8-7.3,7.9-14.7c-4-7.5-8.9-14.4-12.7-22
		c-3.7-7.4-4.7-14.8-1.7-22.7c3.8-10.2,14.5-16.2,25.2-14.9c7.5,0.9,13.4,4.3,18.7,9.2c5.1,4.8,10.2,9.8,12.9,16.5
		c4,9.7,3.2,18.9-3.6,27.2c-1.1,1.3-1.8,1.8-3.4,0.4c-3.4-3.1-7-6.1-10.6-9c-1.1-0.9-1.2-1.6-0.4-2.7c4.1-5.2,2.6-11.7-0.9-15.8
		c-2.2-2.6-4.6-5.1-7.3-7.2c-2.9-2.3-6.2-2.9-9.7-2.4c-2.8,0.3-3.7,1.5-3.9,4.4c-0.3,3.9,0.8,7.4,2.6,10.8c2.4,4.6,5.1,9,8,13.4
		c4.1,6.1,6.6,12.9,7.5,20.3c1.2,10.3-3.6,17.7-11.7,23.3C201.2,244.2,196,245.6,190.5,245.6z"/>
	<path class="st3" d="M312.2,249.8c-0.1,0.8-0.6,1.1-1,1.5c-2.6,2.7-5.4,5.3-7.9,8c-1.1,1.2-1.7,0.9-2.8-0.1
		c-10.4-10.4-20.8-20.8-31.2-31.3c-1.5-1.5-2.3-1.5-3.7,0c-3.2,3.4-6.6,6.8-10,10c-1.3,1.2-1.5,1.9-0.1,3.3
		c9.5,9.3,18.8,18.8,28.2,28.1c1.3,1.3,1.3,1.9,0,3.2c-2.6,2.4-5.1,4.9-7.5,7.5c-1.3,1.4-2,1.2-3.2,0c-9.3-9.4-18.7-18.7-27.9-28.1
		c-1.4-1.4-2.1-1.4-3.5,0c-4.8,5-9.7,9.8-14.6,14.6c-1.1,1.1-1.1,1.7,0,2.8c10.7,10.6,21.3,21.4,32.1,32c1.8,1.8,1.7,2.8-0.1,4.4
		c-2.5,2.2-4.8,4.5-7,6.9c-1.2,1.3-1.9,1.1-3,0c-8.5-8.2-17-16.4-25.6-24.6c-6.8-6.5-13.5-13-20.3-19.4c-1.4-1.3-1.6-2-0.1-3.5
		c20.2-20.1,40.4-40.3,60.6-60.6c1.3-1.3,2-1.3,3.3,0c14.5,14.6,29.1,29.2,43.7,43.8C311.3,248.8,311.8,249.3,312.2,249.8z"/>
	<path class="st2" d="M325,293c13.8,0.1,25.2,11.4,25,24.6c0,3.3-1,6.4-2.6,9.4c-5.3,9.7-13,16.8-22.9,21.5
		c-7.6,3.6-15.2,2.1-22.1-2.5c-5.9-3.9-9.8-9.2-10.7-16.5c-0.7-5.5,1-10.3,3.6-14.8c5.2-9.1,12.4-16.2,22.2-20.3
		C320.1,293.3,322.7,292.9,325,293z"/>
</g>
</svg>
