<?xml version="1.0" encoding="utf-8"?>
<!-- Generator: Adobe Illustrator 20.1.0, SVG Export Plug-In . SVG Version: 6.00 Build 0)  -->
<svg version="1.1" id="Слой_1" xmlns="http://www.w3.org/2000/svg" xmlns:xlink="http://www.w3.org/1999/xlink" x="0px" y="0px"
	 viewBox="0 0 616 613" style="enable-background:new 0 0 616 613;" xml:space="preserve">
<style type="text/css">
	.st0{fill:#4D76A0;}
	.st1{fill:#FEFEFE;}
</style>
<path class="st0" d="M291.8,9.5c10.2,0,20.5,0,30.7,0c0.4,0.6,1,0.4,1.5,0.4c19.2,0.9,38.2,3.7,56.8,8.5
	c59,15.1,109.3,45.1,149.5,90.8c59.9,68.3,83.6,148.1,72.8,238.1c-4.1,34.1-14.6,66.4-30.6,96.8c-29.6,56.3-72.6,99.4-129.3,128.3
	c-60.2,30.7-123.8,39.5-190.1,27.2c-62.7-11.6-116.3-40.9-160.3-87.1c-48.5-51-75.5-111.9-81.5-182.1c-0.2-2.8,0.1-5.7-0.8-8.5
	c0-10.6,0-21.1,0-31.7c0.7-0.3,0.4-1,0.5-1.5c0.8-11.7,2.1-23.4,4.2-35c12-64.6,41.9-119.7,90-164.4C155.8,42.3,216,16,285,10.3
	C287.3,10.1,289.6,10.5,291.8,9.5z M334,270.8c0-2.2-0.1-4.3,0-6.5c0.3-9.5,1-19,0.4-28.5c-0.6-9.8-4.3-15.1-12.3-17.4
	c-5-1.4-10.1-2.2-15.3-2.6c-10.3-0.7-20.6-0.5-30.9-0.4c-8.6,0.1-17.3,0.6-25.7,2.9c-5.9,1.6-10.9,4.5-14.3,9.7
	c-1.6,2.4-1.2,3.2,1.7,3.7c9.8,1.8,17.1,6.5,19.4,17c0.4,2,0.9,4.1,1.2,6.1c1.4,12,1.7,24.1,1.3,36.2c-0.3,8.4-0.8,16.8-3.4,24.9
	c-3.1,9.7-9.3,11.5-17.1,5c-4.8-4-8.7-8.9-12.3-14c-15.4-21.9-28-45.4-38.1-70.2c-3.2-7.8-8.5-11.4-17.1-11.4
	c-10.3,0-20.6,0.1-30.9,0.2c-7.4,0-14.7,0.1-22.1,0.2c-3.2,0-6.4,0.6-9.3,2.1c-2.5,1.2-3.7,3.1-3.6,5.9c0,2.7,0.7,5.2,1.8,7.6
	c6.8,15.5,14.2,30.7,22,45.8c14.1,27.1,29.3,53.6,47.3,78.3c11.2,15.3,23.3,29.9,38.2,41.8c19.3,15.4,41,25.4,65.6,29.2
	c13.1,2,26.4,1.6,39.5,1c9.7-0.5,14.1-5,14.1-15.1c0-4.3,0.4-8.6,1.1-12.9c1-6,2.4-11.9,5.9-17.1c4.4-6.5,10.1-7.7,16.8-3.7
	c4.2,2.5,7.6,5.9,10.9,9.3c7.8,8.2,14.6,17.1,22.8,25c10.1,9.8,21.5,16.2,36.3,15.4c16.3-0.8,32.6-0.5,48.9-0.8
	c5-0.1,9.8-1.1,14.2-3.8c4.7-2.8,6.4-7.2,5.1-12.5c-0.5-1.9-1.2-3.6-2.1-5.3c-2.6-4.8-5.5-9.4-8.8-13.7
	c-10.4-13.4-22.5-25.1-34.9-36.6c-5.2-4.8-10.5-9.6-14.7-15.4c-3.5-4.8-4-9.9-1.5-15.4c1.6-3.4,3.6-6.6,5.7-9.7
	c6.8-9.6,14.2-18.7,21.3-28.1c10-13.2,19.9-26.5,27.9-41c3.1-5.7,6-11.5,7.2-17.9c1.3-6.8-1.2-10.6-7.9-12.1
	c-2.7-0.6-5.4-0.8-8.1-0.7c-13.3,0.4-26.7,0.4-40.1,0.4c-8.5,0-16.9,0.1-25.4,0.1c-4,0-7.1,1.6-9.3,4.9c-1,1.5-1.8,3.2-2.5,4.9
	c-9.6,24.6-21.9,47.8-37.3,69.2c-4.5,6.2-9,12.2-15.3,16.7c-5.9,4.2-10,3.2-13.4-3.3c-0.5-1-0.9-2-1.3-3.1
	c-1.2-3.6-1.7-7.3-1.8-11.1C333.3,293,333.6,281.9,334,270.8z"/>
<path class="st1" d="M334,270.8c-0.4,11.1-0.7,22.2-0.5,33.3c0.1,3.8,0.6,7.5,1.8,11.1c0.4,1.1,0.8,2.1,1.3,3.1
	c3.4,6.5,7.5,7.5,13.4,3.3c6.3-4.5,10.9-10.6,15.3-16.7c15.5-21.4,27.8-44.6,37.3-69.2c0.7-1.7,1.4-3.4,2.5-4.9
	c2.2-3.3,5.3-4.9,9.3-4.9c8.5,0,16.9-0.1,25.4-0.1c13.4-0.1,26.7,0,40.1-0.4c2.7-0.1,5.4,0.1,8.1,0.7c6.7,1.5,9.2,5.3,7.9,12.1
	c-1.2,6.4-4.1,12.2-7.2,17.9c-8,14.5-17.9,27.8-27.9,41c-7.1,9.4-14.5,18.5-21.3,28.1c-2.2,3.1-4.2,6.2-5.7,9.7
	c-2.5,5.4-2,10.6,1.5,15.4c4.2,5.8,9.5,10.6,14.7,15.4c12.4,11.5,24.5,23.2,34.9,36.6c3.3,4.3,6.3,8.9,8.8,13.7
	c0.9,1.7,1.6,3.5,2.1,5.3c1.3,5.3-0.4,9.7-5.1,12.5c-4.3,2.6-9.2,3.7-14.2,3.8c-16.3,0.2-32.6,0-48.9,0.8
	c-14.8,0.7-26.2-5.7-36.3-15.4c-8.1-7.8-15-16.8-22.8-25c-3.3-3.5-6.7-6.8-10.9-9.3c-6.7-4-12.3-2.8-16.8,3.7
	c-3.5,5.1-4.9,11-5.9,17.1c-0.7,4.3-1.1,8.6-1.1,12.9c-0.1,10.1-4.4,14.7-14.1,15.1c-13.1,0.6-26.4,1-39.5-1
	c-24.5-3.8-46.2-13.8-65.6-29.2c-15-11.9-27-26.5-38.2-41.8c-18-24.7-33.2-51.2-47.3-78.3c-7.8-15-15.2-30.3-22-45.8
	c-1.1-2.4-1.8-4.9-1.8-7.6c0-2.8,1.2-4.7,3.6-5.9c2.9-1.4,6.1-2,9.3-2.1c7.4-0.1,14.7-0.1,22.1-0.2c10.3-0.1,20.6-0.1,30.9-0.2
	c8.5,0,13.9,3.5,17.1,11.4c10.2,24.8,22.7,48.3,38.1,70.2c3.6,5.1,7.4,10,12.3,14c7.9,6.5,14,4.7,17.1-5c2.6-8.1,3.1-16.5,3.4-24.9
	c0.4-12.1,0.1-24.1-1.3-36.2c-0.2-2.1-0.8-4.1-1.2-6.1c-2.3-10.4-9.5-15.2-19.4-17c-2.9-0.5-3.3-1.3-1.7-3.7
	c3.4-5.2,8.5-8.1,14.3-9.7c8.4-2.3,17-2.8,25.7-2.9c10.3-0.1,20.6-0.3,30.9,0.4c5.2,0.4,10.3,1.2,15.3,2.6c8,2.3,11.7,7.6,12.3,17.4
	c0.6,9.5-0.1,19-0.4,28.5C334,266.5,334,268.7,334,270.8z"/>
</svg>
